<svg width="60" height="60" viewBox="0 0 60 60" fill="none" xmlns="http://www.w3.org/2000/svg">
<g id="Instagram">
<path id="Combined Shape" fill-rule="evenodd" clip-rule="evenodd" d="M0 30C0 13.4315 13.4315 0 30 0C46.5685 0 60 13.4315 60 30C60 46.5685 46.5685 60 30 60C13.4315 60 0 46.5685 0 30Z" fill="#8941FF"/>
<path id="Combined Shape_2" fill-rule="evenodd" clip-rule="evenodd" d="M29.4456 15.0044C29.0742 15.0042 28.73 15.0041 28.4101 15.0046V15C24.9868 15.0038 24.3301 15.0268 22.6357 15.1033C20.8448 15.1856 19.8725 15.4841 19.225 15.7366C18.3678 16.0703 17.7556 16.4683 17.1127 17.1112C16.4698 17.754 16.0711 18.3663 15.7382 19.2235C15.4867 19.8709 15.1875 20.8429 15.1056 22.6338C15.0176 24.57 15 25.1486 15 30.0536C15 34.9586 15.0176 35.5402 15.1056 37.4765C15.1871 39.2674 15.4867 40.2393 15.7382 40.886C16.0718 41.7436 16.4698 42.3543 17.1127 42.9972C17.7556 43.6401 18.3678 44.038 19.225 44.371C19.8728 44.6224 20.8448 44.9216 22.6357 45.0043C24.5719 45.0923 25.1532 45.1114 30.0578 45.1114C34.962 45.1114 35.5437 45.0923 37.48 45.0043C39.2708 44.9224 40.2435 44.6239 40.8902 44.3713C41.7478 44.0384 42.3581 43.6404 43.001 42.9976C43.6439 42.3551 44.0426 41.7447 44.3755 40.8876C44.627 40.2409 44.9262 39.2689 45.0081 37.478C45.0961 35.5418 45.1152 34.9601 45.1152 30.0582C45.1152 25.1563 45.0961 24.5746 45.0081 22.6383C44.9266 20.8475 44.627 19.8755 44.3755 19.2288C44.0419 18.3716 43.6439 17.7594 43.001 17.1165C42.3585 16.4736 41.7474 16.0757 40.8902 15.7427C40.2428 15.4913 39.2708 15.1921 37.48 15.1102C35.5433 15.0222 34.962 15.0046 30.0578 15.0046C29.8458 15.0046 29.6419 15.0045 29.4456 15.0044ZM37.6583 20.2578C37.6583 19.0405 38.6456 18.0544 39.8624 18.0544V18.0537C41.0793 18.0537 42.0666 19.0409 42.0666 20.2578C42.0666 21.4747 41.0793 22.4619 39.8624 22.4619C38.6456 22.4619 37.6583 21.4747 37.6583 20.2578Z" fill="#29292F"/>
<path id="Shape" fill-rule="evenodd" clip-rule="evenodd" d="M30.0014 24.6667C32.9467 24.6667 35.3347 27.0544 35.3347 30.0001C35.3347 32.9455 32.9467 35.3335 30.0014 35.3335C27.0557 35.3335 24.668 32.9455 24.668 30.0001C24.668 27.0544 27.0557 24.6667 30.0014 24.6667V24.6667Z" stroke="#8941FF" stroke-width="2"/>
</g>
</svg>
