<svg width="496" height="92" viewBox="0 0 496 92" fill="none" xmlns="http://www.w3.org/2000/svg">
<path d="M121.216 86.456V84.416C118.784 84.384 116.84 83.704 115.384 82.376C113.928 81.048 113.2 79.336 113.2 77.24C113.2 75.096 113.936 73.384 115.408 72.104C116.896 70.824 118.832 70.152 121.216 70.088V68.576H122.944V70.088C125.328 70.152 127.256 70.824 128.728 72.104C130.216 73.384 130.96 75.096 130.96 77.24C130.96 79.336 130.232 81.048 128.776 82.376C127.32 83.704 125.376 84.384 122.944 84.416V86.456H121.216ZM121.216 82.904V71.6C119.264 71.664 117.744 72.224 116.656 73.28C115.568 74.32 115.024 75.648 115.024 77.264C115.024 78.928 115.552 80.256 116.608 81.248C117.68 82.24 119.216 82.792 121.216 82.904ZM122.944 82.904C124.944 82.792 126.472 82.24 127.528 81.248C128.6 80.256 129.136 78.928 129.136 77.264C129.136 75.648 128.592 74.32 127.504 73.28C126.416 72.224 124.896 71.664 122.944 71.6V82.904ZM139.308 86.288C137.644 86.288 136.26 85.728 135.156 84.608C134.052 83.488 133.5 82.08 133.5 80.384C133.5 78.704 134.044 77.304 135.132 76.184C136.22 75.048 137.564 74.48 139.164 74.48C140.86 74.48 142.18 75.008 143.124 76.064C144.068 77.104 144.54 78.432 144.54 80.048C144.54 80.368 144.532 80.624 144.516 80.816H135.204C135.236 81.952 135.644 82.92 136.428 83.72C137.212 84.504 138.172 84.896 139.308 84.896C140.092 84.896 140.804 84.712 141.444 84.344C142.084 83.96 142.572 83.496 142.908 82.952L144.132 83.912C142.884 85.496 141.276 86.288 139.308 86.288ZM135.228 79.52H142.884C142.836 78.432 142.484 77.552 141.828 76.88C141.188 76.192 140.3 75.848 139.164 75.848C138.108 75.848 137.204 76.216 136.452 76.952C135.716 77.672 135.308 78.528 135.228 79.52ZM146.467 89.648V84.584H147.763C148.963 83.048 149.563 80.768 149.563 77.744V74.768H157.723V84.584H159.523V89.648H158.011V86H147.979V89.648H146.467ZM149.611 84.584H156.115V76.136H151.147V78.2C151.147 80.616 150.635 82.744 149.611 84.584ZM167.504 86.288C165.84 86.288 164.456 85.728 163.352 84.608C162.248 83.488 161.696 82.08 161.696 80.384C161.696 78.704 162.24 77.304 163.328 76.184C164.416 75.048 165.76 74.48 167.36 74.48C169.056 74.48 170.376 75.008 171.32 76.064C172.264 77.104 172.736 78.432 172.736 80.048C172.736 80.368 172.728 80.624 172.712 80.816H163.4C163.432 81.952 163.84 82.92 164.624 83.72C165.408 84.504 166.368 84.896 167.504 84.896C168.288 84.896 169 84.712 169.64 84.344C170.28 83.96 170.768 83.496 171.104 82.952L172.328 83.912C171.08 85.496 169.472 86.288 167.504 86.288ZM163.424 79.52H171.08C171.032 78.432 170.68 77.552 170.024 76.88C169.384 76.192 168.496 75.848 167.36 75.848C166.304 75.848 165.4 76.216 164.648 76.952C163.912 77.672 163.504 78.528 163.424 79.52ZM176.246 91.76V74.768H177.878V76.712H177.95C178.398 76.008 179.006 75.464 179.774 75.08C180.542 74.68 181.342 74.48 182.174 74.48C183.902 74.48 185.302 75.048 186.374 76.184C187.446 77.304 187.982 78.704 187.982 80.384C187.982 82.064 187.446 83.472 186.374 84.608C185.302 85.728 183.902 86.288 182.174 86.288C181.358 86.288 180.566 86.096 179.798 85.712C179.03 85.328 178.414 84.792 177.95 84.104H177.878V91.76H176.246ZM182.006 84.896C183.318 84.896 184.35 84.472 185.102 83.624C185.87 82.76 186.254 81.68 186.254 80.384C186.254 79.088 185.87 78.008 185.102 77.144C184.35 76.28 183.318 75.848 182.006 75.848C180.758 75.848 179.726 76.28 178.91 77.144C178.094 78.008 177.686 79.088 177.686 80.384C177.686 81.68 178.094 82.76 178.91 83.624C179.726 84.472 180.758 84.896 182.006 84.896ZM194.528 86.288C193.52 86.288 192.616 86.008 191.816 85.448C191.032 84.872 190.64 84.016 190.64 82.88C190.64 82.32 190.736 81.832 190.928 81.416C191.12 80.984 191.408 80.632 191.792 80.36C192.176 80.088 192.592 79.872 193.04 79.712C193.488 79.536 194.04 79.408 194.696 79.328C195.352 79.232 195.96 79.176 196.52 79.16C197.096 79.128 197.776 79.112 198.56 79.112V78.752C198.56 76.816 197.56 75.848 195.56 75.848C194.216 75.848 193.104 76.288 192.224 77.168L191.312 76.088C192.384 75.016 193.856 74.48 195.728 74.48C197.008 74.48 198.056 74.832 198.872 75.536C199.688 76.24 200.096 77.248 200.096 78.56V83.48C200.096 84.488 200.16 85.328 200.288 86H198.824C198.712 85.36 198.656 84.752 198.656 84.176H198.608C197.632 85.584 196.272 86.288 194.528 86.288ZM194.96 84.944C196.064 84.944 196.936 84.584 197.576 83.864C198.232 83.144 198.56 82.264 198.56 81.224V80.384H198.08C197.312 80.384 196.624 80.416 196.016 80.48C195.424 80.528 194.824 80.632 194.216 80.792C193.624 80.952 193.16 81.2 192.824 81.536C192.488 81.872 192.32 82.296 192.32 82.808C192.32 83.544 192.576 84.088 193.088 84.44C193.6 84.776 194.224 84.944 194.96 84.944ZM203.581 86.12C203.117 86.12 202.709 86.072 202.357 85.976L202.549 84.56C202.789 84.64 203.045 84.68 203.317 84.68C204.197 84.68 204.845 84.216 205.261 83.288C205.693 82.344 205.909 80.768 205.909 78.56V74.768H213.949V86H212.317V76.136H207.493V79.136C207.493 81.392 207.189 83.12 206.581 84.32C205.989 85.52 204.989 86.12 203.581 86.12ZM218.269 86V74.768H219.901V78.992H222.613C224.005 78.992 225.085 79.296 225.853 79.904C226.637 80.512 227.029 81.384 227.029 82.52C227.029 83.64 226.645 84.504 225.877 85.112C225.125 85.704 224.045 86 222.637 86H218.269ZM219.901 84.584H222.805C224.501 84.584 225.349 83.896 225.349 82.52C225.349 81.08 224.501 80.36 222.805 80.36H219.901V84.584ZM230.269 86V74.768H231.901V79.472H238.357V74.768H239.989V86H238.357V80.84H231.901V86H230.269ZM247.356 86.288C246.348 86.288 245.444 86.008 244.644 85.448C243.86 84.872 243.468 84.016 243.468 82.88C243.468 82.32 243.564 81.832 243.756 81.416C243.948 80.984 244.236 80.632 244.62 80.36C245.004 80.088 245.42 79.872 245.868 79.712C246.316 79.536 246.868 79.408 247.524 79.328C248.18 79.232 248.788 79.176 249.348 79.16C249.924 79.128 250.604 79.112 251.388 79.112V78.752C251.388 76.816 250.388 75.848 248.388 75.848C247.044 75.848 245.932 76.288 245.052 77.168L244.14 76.088C245.212 75.016 246.684 74.48 248.556 74.48C249.836 74.48 250.884 74.832 251.7 75.536C252.516 76.24 252.924 77.248 252.924 78.56V83.48C252.924 84.488 252.988 85.328 253.116 86H251.652C251.54 85.36 251.484 84.752 251.484 84.176H251.436C250.46 85.584 249.1 86.288 247.356 86.288ZM247.788 84.944C248.892 84.944 249.764 84.584 250.404 83.864C251.06 83.144 251.388 82.264 251.388 81.224V80.384H250.908C250.14 80.384 249.452 80.416 248.844 80.48C248.252 80.528 247.652 80.632 247.044 80.792C246.452 80.952 245.988 81.2 245.652 81.536C245.316 81.872 245.148 82.296 245.148 82.808C245.148 83.544 245.404 84.088 245.916 84.44C246.428 84.776 247.052 84.944 247.788 84.944ZM256.409 86L259.409 81.44C258.545 81.248 257.865 80.88 257.369 80.336C256.889 79.776 256.649 79.056 256.649 78.176C256.649 77.088 257.033 76.248 257.801 75.656C258.569 75.064 259.609 74.768 260.921 74.768H265.745V86H264.113V81.584H261.161L258.401 86H256.409ZM261.017 80.192H264.113V76.136H261.017C259.209 76.136 258.305 76.816 258.305 78.176C258.305 79.52 259.209 80.192 261.017 80.192ZM281.226 86.288C279.498 86.288 278.066 85.728 276.93 84.608C275.81 83.488 275.25 82.08 275.25 80.384C275.25 78.688 275.81 77.28 276.93 76.16C278.066 75.04 279.498 74.48 281.226 74.48C282.97 74.48 284.402 75.04 285.522 76.16C286.658 77.28 287.226 78.688 287.226 80.384C287.226 82.08 286.658 83.488 285.522 84.608C284.402 85.728 282.97 86.288 281.226 86.288ZM281.226 84.896C282.506 84.896 283.538 84.472 284.322 83.624C285.106 82.76 285.498 81.68 285.498 80.384C285.498 79.088 285.106 78.008 284.322 77.144C283.538 76.28 282.506 75.848 281.226 75.848C279.962 75.848 278.938 76.28 278.154 77.144C277.37 78.008 276.978 79.088 276.978 80.384C276.978 81.664 277.37 82.736 278.154 83.6C278.938 84.464 279.962 84.896 281.226 84.896ZM290.738 86V74.768H292.37V79.472H298.826V74.768H300.458V86H298.826V80.84H292.37V86H290.738ZM304.057 86.12C303.593 86.12 303.185 86.072 302.833 85.976L303.025 84.56C303.265 84.64 303.521 84.68 303.793 84.68C304.673 84.68 305.321 84.216 305.737 83.288C306.169 82.344 306.385 80.768 306.385 78.56V74.768H314.425V86H312.793V76.136H307.969V79.136C307.969 81.392 307.665 83.12 307.057 84.32C306.465 85.52 305.465 86.12 304.057 86.12ZM321.794 86.288C320.786 86.288 319.882 86.008 319.082 85.448C318.298 84.872 317.906 84.016 317.906 82.88C317.906 82.32 318.002 81.832 318.194 81.416C318.386 80.984 318.674 80.632 319.058 80.36C319.442 80.088 319.858 79.872 320.306 79.712C320.754 79.536 321.306 79.408 321.962 79.328C322.618 79.232 323.226 79.176 323.786 79.16C324.362 79.128 325.042 79.112 325.826 79.112V78.752C325.826 76.816 324.826 75.848 322.826 75.848C321.482 75.848 320.37 76.288 319.49 77.168L318.578 76.088C319.65 75.016 321.122 74.48 322.994 74.48C324.274 74.48 325.322 74.832 326.138 75.536C326.954 76.24 327.362 77.248 327.362 78.56V83.48C327.362 84.488 327.426 85.328 327.554 86H326.09C325.978 85.36 325.922 84.752 325.922 84.176H325.874C324.898 85.584 323.538 86.288 321.794 86.288ZM322.226 84.944C323.33 84.944 324.202 84.584 324.842 83.864C325.498 83.144 325.826 82.264 325.826 81.224V80.384H325.346C324.578 80.384 323.89 80.416 323.282 80.48C322.69 80.528 322.09 80.632 321.482 80.792C320.89 80.952 320.426 81.2 320.09 81.536C319.754 81.872 319.586 82.296 319.586 82.808C319.586 83.544 319.842 84.088 320.354 84.44C320.866 84.776 321.49 84.944 322.226 84.944ZM331.566 86V74.768H333.198V83.744H333.222L339.87 74.768H341.646V86H340.038V76.928H339.99L333.342 86H331.566ZM338.91 71.36C338.286 71.904 337.486 72.176 336.51 72.176C335.534 72.176 334.726 71.904 334.086 71.36C333.462 70.8 333.102 70.048 333.006 69.104L334.11 68.888C334.222 69.496 334.494 69.984 334.926 70.352C335.374 70.704 335.902 70.88 336.51 70.88C337.118 70.88 337.638 70.704 338.07 70.352C338.518 69.984 338.798 69.496 338.91 68.888L340.014 69.104C339.918 70.048 339.55 70.8 338.91 71.36ZM345.957 86V74.768H347.589V79.472H354.045V74.768H355.677V86H354.045V80.84H347.589V86H345.957ZM369.044 86.288C368.036 86.288 367.132 86.008 366.332 85.448C365.548 84.872 365.156 84.016 365.156 82.88C365.156 82.32 365.252 81.832 365.444 81.416C365.636 80.984 365.924 80.632 366.308 80.36C366.692 80.088 367.108 79.872 367.556 79.712C368.004 79.536 368.556 79.408 369.212 79.328C369.868 79.232 370.476 79.176 371.036 79.16C371.612 79.128 372.292 79.112 373.076 79.112V78.752C373.076 76.816 372.076 75.848 370.076 75.848C368.732 75.848 367.62 76.288 366.74 77.168L365.828 76.088C366.9 75.016 368.372 74.48 370.244 74.48C371.524 74.48 372.572 74.832 373.388 75.536C374.204 76.24 374.612 77.248 374.612 78.56V83.48C374.612 84.488 374.676 85.328 374.804 86H373.34C373.228 85.36 373.172 84.752 373.172 84.176H373.124C372.148 85.584 370.788 86.288 369.044 86.288ZM369.476 84.944C370.58 84.944 371.452 84.584 372.092 83.864C372.748 83.144 373.076 82.264 373.076 81.224V80.384H372.596C371.828 80.384 371.14 80.416 370.532 80.48C369.94 80.528 369.34 80.632 368.732 80.792C368.14 80.952 367.676 81.2 367.34 81.536C367.004 81.872 366.836 82.296 366.836 82.808C366.836 83.544 367.092 84.088 367.604 84.44C368.116 84.776 368.74 84.944 369.476 84.944ZM378.816 86V74.768H384.072C385.096 74.768 385.952 74.992 386.64 75.44C387.344 75.888 387.696 76.624 387.696 77.648C387.696 78.24 387.512 78.76 387.144 79.208C386.792 79.64 386.32 79.92 385.728 80.048V80.072C386.48 80.152 387.088 80.44 387.552 80.936C388.016 81.432 388.248 82.08 388.248 82.88C388.248 83.824 387.872 84.584 387.12 85.16C386.368 85.72 385.352 86 384.072 86H378.816ZM380.448 84.608H383.88C384.664 84.608 385.304 84.456 385.8 84.152C386.312 83.848 386.568 83.376 386.568 82.736C386.568 81.472 385.736 80.84 384.072 80.84H380.448V84.608ZM380.448 79.496H384.024C384.584 79.496 385.064 79.36 385.464 79.088C385.88 78.816 386.088 78.392 386.088 77.816C386.088 76.68 385.304 76.112 383.736 76.112H380.448V79.496ZM394.13 86V76.136H390.074V74.768H399.818V76.136H395.762V86H394.13ZM407.343 86.288C405.615 86.288 404.183 85.728 403.047 84.608C401.927 83.488 401.367 82.08 401.367 80.384C401.367 78.688 401.927 77.28 403.047 76.16C404.183 75.04 405.615 74.48 407.343 74.48C409.087 74.48 410.519 75.04 411.639 76.16C412.775 77.28 413.343 78.688 413.343 80.384C413.343 82.08 412.775 83.488 411.639 84.608C410.519 85.728 409.087 86.288 407.343 86.288ZM407.343 84.896C408.623 84.896 409.655 84.472 410.439 83.624C411.223 82.76 411.615 81.68 411.615 80.384C411.615 79.088 411.223 78.008 410.439 77.144C409.655 76.28 408.623 75.848 407.343 75.848C406.079 75.848 405.055 76.28 404.271 77.144C403.487 78.008 403.095 79.088 403.095 80.384C403.095 81.664 403.487 82.736 404.271 83.6C405.055 84.464 406.079 84.896 407.343 84.896ZM416.855 86V74.768H418.487V84.584H423.935V74.768H425.567V84.584H431.015V74.768H432.647V86H416.855ZM437.013 86V74.768H438.645V80.072H438.717L443.901 74.768H446.253L440.589 80.144L446.829 86H444.429L438.717 80.336H438.645V86H437.013ZM453.937 86.288C452.209 86.288 450.777 85.728 449.641 84.608C448.521 83.488 447.961 82.08 447.961 80.384C447.961 78.688 448.521 77.28 449.641 76.16C450.777 75.04 452.209 74.48 453.937 74.48C455.681 74.48 457.113 75.04 458.233 76.16C459.369 77.28 459.937 78.688 459.937 80.384C459.937 82.08 459.369 83.488 458.233 84.608C457.113 85.728 455.681 86.288 453.937 86.288ZM453.937 84.896C455.217 84.896 456.249 84.472 457.033 83.624C457.817 82.76 458.209 81.68 458.209 80.384C458.209 79.088 457.817 78.008 457.033 77.144C456.249 76.28 455.217 75.848 453.937 75.848C452.673 75.848 451.649 76.28 450.865 77.144C450.081 78.008 449.689 79.088 449.689 80.384C449.689 81.664 450.081 82.736 450.865 83.6C451.649 84.464 452.673 84.896 453.937 84.896ZM462.448 86.12C461.984 86.12 461.576 86.072 461.224 85.976L461.416 84.56C461.656 84.64 461.912 84.68 462.184 84.68C463.064 84.68 463.712 84.216 464.128 83.288C464.56 82.344 464.776 80.768 464.776 78.56V74.768H472.816V86H471.184V76.136H466.36V79.136C466.36 81.392 466.056 83.12 465.448 84.32C464.856 85.52 463.856 86.12 462.448 86.12ZM480.185 86.288C479.177 86.288 478.273 86.008 477.473 85.448C476.689 84.872 476.297 84.016 476.297 82.88C476.297 82.32 476.393 81.832 476.585 81.416C476.777 80.984 477.065 80.632 477.449 80.36C477.833 80.088 478.249 79.872 478.697 79.712C479.145 79.536 479.697 79.408 480.353 79.328C481.009 79.232 481.617 79.176 482.177 79.16C482.753 79.128 483.433 79.112 484.217 79.112V78.752C484.217 76.816 483.217 75.848 481.217 75.848C479.873 75.848 478.761 76.288 477.881 77.168L476.969 76.088C478.041 75.016 479.513 74.48 481.385 74.48C482.665 74.48 483.713 74.832 484.529 75.536C485.345 76.24 485.753 77.248 485.753 78.56V83.48C485.753 84.488 485.817 85.328 485.945 86H484.481C484.369 85.36 484.313 84.752 484.313 84.176H484.265C483.289 85.584 481.929 86.288 480.185 86.288ZM480.617 84.944C481.721 84.944 482.593 84.584 483.233 83.864C483.889 83.144 484.217 82.264 484.217 81.224V80.384H483.737C482.969 80.384 482.281 80.416 481.673 80.48C481.081 80.528 480.481 80.632 479.873 80.792C479.281 80.952 478.817 81.2 478.481 81.536C478.145 81.872 477.977 82.296 477.977 82.808C477.977 83.544 478.233 84.088 478.745 84.44C479.257 84.776 479.881 84.944 480.617 84.944Z" fill="#fff"/>
<path d="M137.296 48L134.8 39.84H122.32L119.824 48H112L124.096 13.584H132.976L145.12 48H137.296ZM133.072 33.744L130.576 25.776C130.416 25.232 130.208 24.544 129.952 23.712C129.696 22.88 129.44 22.032 129.184 21.168C128.928 20.304 128.72 19.552 128.56 18.912C128.4 19.552 128.176 20.352 127.888 21.312C127.632 22.24 127.376 23.136 127.12 24C126.896 24.832 126.72 25.424 126.592 25.776L124.144 33.744H133.072ZM156.661 13.728H167.317C171.893 13.728 175.349 14.368 177.685 15.648C180.021 16.928 181.189 19.184 181.189 22.416C181.189 24.368 180.725 26.016 179.797 27.36C178.901 28.704 177.605 29.52 175.909 29.808V30.048C177.061 30.272 178.101 30.672 179.029 31.248C179.957 31.824 180.693 32.656 181.237 33.744C181.781 34.832 182.053 36.272 182.053 38.064C182.053 41.168 180.933 43.6 178.693 45.36C176.453 47.12 173.381 48 169.477 48H156.661V13.728ZM163.909 27.312H168.133C170.245 27.312 171.701 26.976 172.501 26.304C173.333 25.632 173.749 24.656 173.749 23.376C173.749 22.064 173.269 21.12 172.309 20.544C171.349 19.968 169.829 19.68 167.749 19.68H163.909V27.312ZM163.909 33.072V42H168.661C170.837 42 172.357 41.584 173.221 40.752C174.085 39.888 174.517 38.752 174.517 37.344C174.517 36.064 174.069 35.04 173.173 34.272C172.309 33.472 170.725 33.072 168.421 33.072H163.909ZM209.311 48H202.063V19.776H192.751V13.728H218.623V19.776H209.311V48ZM261.274 30.816C261.274 34.368 260.682 37.472 259.498 40.128C258.346 42.752 256.57 44.8 254.17 46.272C251.77 47.744 248.698 48.48 244.954 48.48C241.242 48.48 238.17 47.744 235.738 46.272C233.338 44.8 231.546 42.736 230.362 40.08C229.21 37.424 228.634 34.32 228.634 30.768C228.634 27.216 229.21 24.128 230.362 21.504C231.546 18.88 233.338 16.848 235.738 15.408C238.17 13.936 241.258 13.2 245.002 13.2C248.714 13.2 251.77 13.936 254.17 15.408C256.57 16.848 258.346 18.896 259.498 21.552C260.682 24.176 261.274 27.264 261.274 30.816ZM236.266 30.816C236.266 34.4 236.954 37.232 238.33 39.312C239.706 41.36 241.914 42.384 244.954 42.384C248.058 42.384 250.282 41.36 251.626 39.312C252.97 37.232 253.642 34.4 253.642 30.816C253.642 27.2 252.97 24.368 251.626 22.32C250.282 20.272 248.074 19.248 245.002 19.248C241.93 19.248 239.706 20.272 238.33 22.32C236.954 24.368 236.266 27.2 236.266 30.816ZM302.14 13.728L291.532 37.968C290.572 40.144 289.548 42.032 288.46 43.632C287.404 45.2 286.044 46.4 284.38 47.232C282.716 48.064 280.54 48.48 277.852 48.48C277.02 48.48 276.108 48.416 275.116 48.288C274.124 48.16 273.212 47.984 272.38 47.76V41.52C273.148 41.84 273.996 42.064 274.924 42.192C275.852 42.32 276.716 42.384 277.516 42.384C279.116 42.384 280.268 42 280.972 41.232C281.676 40.432 282.236 39.472 282.652 38.352L270.796 13.728H278.476L284.86 28.56C285.084 29.04 285.388 29.728 285.772 30.624C286.156 31.488 286.444 32.224 286.636 32.832H286.876C287.068 32.256 287.34 31.504 287.692 30.576C288.076 29.648 288.412 28.832 288.7 28.128L294.652 13.728H302.14ZM339.968 48H332.72V34.752C330.704 35.456 328.848 35.984 327.152 36.336C325.488 36.688 323.808 36.864 322.112 36.864C318.912 36.864 316.4 36.096 314.576 34.56C312.784 32.992 311.888 30.768 311.888 27.888V13.728H319.136V25.824C319.136 27.488 319.52 28.736 320.288 29.568C321.056 30.4 322.352 30.816 324.176 30.816C325.52 30.816 326.864 30.672 328.208 30.384C329.552 30.096 331.056 29.664 332.72 29.088V13.728H339.968V48ZM375.514 48H355.786V13.728H375.514V19.68H363.034V27.216H374.65V33.168H363.034V42H375.514V48ZM389.845 48V13.728H411.493V19.728H397.093V26.88H399.973C403.205 26.88 405.845 27.328 407.893 28.224C409.973 29.12 411.509 30.352 412.501 31.92C413.493 33.488 413.989 35.28 413.989 37.296C413.989 40.688 412.853 43.328 410.581 45.216C408.341 47.072 404.757 48 399.829 48H389.845ZM397.093 42.048H399.541C401.749 42.048 403.477 41.696 404.725 40.992C406.005 40.288 406.645 39.056 406.645 37.296C406.645 35.472 405.957 34.272 404.581 33.696C403.205 33.12 401.333 32.832 398.965 32.832H397.093V42.048ZM455.59 48H447.334L434.902 30.624V48H427.654V13.728H434.902V30.336L447.19 13.728H454.918L442.438 30.192L455.59 48ZM488.08 48L485.584 39.84H473.104L470.608 48H462.784L474.88 13.584H483.76L495.904 48H488.08ZM483.856 33.744L481.36 25.776C481.2 25.232 480.992 24.544 480.736 23.712C480.48 22.88 480.224 22.032 479.968 21.168C479.712 20.304 479.504 19.552 479.344 18.912C479.184 19.552 478.96 20.352 478.672 21.312C478.416 22.24 478.16 23.136 477.904 24C477.68 24.832 477.504 25.424 477.376 25.776L474.928 33.744H483.856Z" fill="#fff"/>
<g clip-path="url(#clip0)">
<path d="M61.9062 56.6478H54.0414C44.5 56.6478 39.4488 56.6478 35.9995 56.6478H21.4459C17.9967 56.6478 17.9583 56.6478 14 56.6478H10.0928C7.34711 57.841 5 60.5734 5 63.7538V79.2538C5 81.3938 6.73505 83.1288 8.875 83.1288V87.0036C8.875 89.1438 10.6098 90.8788 12.75 90.8788H16.6252C18.7652 90.8788 20.5002 89.1438 20.5002 87.0038L20.4986 83.1288H51.5L51.4998 87.0036C51.4998 89.1438 53.2346 90.8788 55.3748 90.8788H59.25C61.3902 90.8788 63.125 89.1438 63.125 87.0038V83.129C65.2649 83.129 67 81.3938 67 79.2538V63.7538C67 60.5734 64.6518 57.841 61.9062 56.6478ZM24.3749 56.6478C24.3749 56.6478 36.4238 56.6478 45 56.6478C48.5 56.6478 54.0414 56.6478 54.0414 56.6478H18H24.3749ZM20.4999 73.4413C18.3597 73.4413 16.6249 71.7063 16.6249 69.5663C16.6249 67.4261 18.3597 65.6913 20.4999 65.6913C22.6401 65.6913 24.3749 67.4261 24.3749 69.5663C24.3749 71.7063 22.6401 73.4413 20.4999 73.4413ZM51.4999 73.4413C49.3597 73.4413 47.6249 71.7063 47.6249 69.5663C47.6249 67.4261 49.3597 65.6913 51.4999 65.6913C53.6401 65.6913 55.3749 67.4261 55.3749 69.5663C55.3749 71.7063 53.6401 73.4413 51.4999 73.4413Z" fill="#fff"/>
<path d="M40.3644 53.8948C39.1541 54.637 37.6042 55.0459 36 55.0459C34.3958 55.0459 32.8459 54.6372 31.6356 53.8948L11.8762 41.7762C11.8762 41.7762 10.0928 40.6831 10.0928 43.1595C10.0928 45.9718 10.0928 54.4085 10.0928 54.4085C10.0928 54.521 10.0928 56.6478 10.0928 56.6478C10.0928 56.6478 21.6917 56.6478 35.9995 56.6478C50.3073 56.6478 61.9062 56.6478 61.9062 56.6478C61.9062 56.6478 61.9062 54.521 61.9062 54.4085C61.9062 54.4085 61.9062 45.4601 61.9062 42.4773C61.9062 40.4894 60.6383 41.4608 60.6383 41.4608L40.3644 53.8948Z" fill="#fff"/>
<path d="M68.8613 28.1368C70.3796 27.2056 70.3796 25.6819 68.8613 24.7506L38.7604 9.69833C37.2422 8.76722 34.7577 8.76722 33.2394 9.69833L3.1387 24.7506C1.62043 25.6817 1.62043 27.2055 3.1387 28.1368L33.2394 46.5978C34.7577 47.5289 37.2422 47.5289 38.7604 46.5978" fill="#fff"/>
<path d="M72.971 54.854C72.971 49.7568 72.971 34.4652 72.971 34.4652C72.971 34.4652 72.9852 33.4995 72.4121 33.8184C71.9525 34.0742 70.8257 34.7023 70.4288 35.0476C69.9704 35.4459 70.0737 36.34 70.0737 36.34C70.0737 36.34 70.0737 50.2255 70.0737 54.854C70.0737 55.1168 69.8479 55.2422 69.7402 55.3056C68.6996 55.9173 68 57.0465 68 58.341C68 60.2864 69.5769 61.8634 71.5225 61.8634C73.4678 61.8634 75.0447 60.2864 75.0447 58.341C75.0447 57.0415 74.34 55.9088 73.2928 55.2986C73.1887 55.238 72.971 55.1166 72.971 54.854Z" fill="#fff"/>
</g>
<defs>
<clipPath id="clip0">
<rect width="74" height="82" fill="white" transform="translate(2 9)"/>
</clipPath>
</defs>
</svg>
