<svg width="298" height="124" viewBox="0 0 298 124" fill="none" xmlns="http://www.w3.org/2000/svg">
<path d="M296.768 106.768C297.744 105.791 297.744 104.209 296.768 103.232L280.858 87.3223C279.882 86.346 278.299 86.346 277.322 87.3223C276.346 88.2986 276.346 89.8816 277.322 90.8579L291.464 105L277.322 119.142C276.346 120.118 276.346 121.701 277.322 122.678C278.299 123.654 279.882 123.654 280.858 122.678L296.768 106.768ZM0.5 0V65H5.5V0H0.5ZM43 107.5H295V102.5H43V107.5ZM0.5 65C0.5 88.4721 19.5279 107.5 43 107.5V102.5C22.2893 102.5 5.5 85.7107 5.5 65H0.5Z" fill="#F6F6F6"/>
</svg>
