<svg width="352" height="111" viewBox="0 0 352 111" fill="none" xmlns="http://www.w3.org/2000/svg">
<path d="M331.232 109.768C332.209 110.744 333.791 110.744 334.768 109.768L350.678 93.8579C351.654 92.8816 351.654 91.2986 350.678 90.3223C349.701 89.346 348.118 89.346 347.142 90.3223L333 104.464L318.858 90.3223C317.882 89.346 316.299 89.346 315.322 90.3223C314.346 91.2986 314.346 92.8816 315.322 93.8579L331.232 109.768ZM0 5.5H293V0.5H0V5.5ZM330.5 43V108H335.5V43H330.5ZM293 5.5C313.711 5.5 330.5 22.2893 330.5 43H335.5C335.5 19.5279 316.472 0.5 293 0.5V5.5Z" fill="#F6F6F6"/>
</svg>
