<svg width="260" height="111" viewBox="0 0 260 111" fill="none" xmlns="http://www.w3.org/2000/svg">
<path d="M20.7678 109.768C19.7915 110.744 18.2085 110.744 17.2322 109.768L1.32233 93.8579C0.346008 92.8816 0.346008 91.2986 1.32233 90.3223C2.29865 89.346 3.88156 89.346 4.85786 90.3223L19 104.464L33.1421 90.3223C34.1185 89.346 35.7014 89.346 36.6777 90.3223C37.654 91.2986 37.654 92.8816 36.6777 93.8579L20.7678 109.768ZM260 5.5H59V0.5H260V5.5ZM21.5 43V108H16.5V43H21.5ZM59 5.5C38.2893 5.5 21.5 22.2893 21.5 43H16.5C16.5 19.5279 35.5279 0.5 59 0.5V5.5Z" fill="#F6F6F6"/>
</svg>
