<svg width="62" height="62" viewBox="0 0 62 62" fill="none" xmlns="http://www.w3.org/2000/svg">
<g id="Telegram">
<path id="Combined Shape" d="M26.9661 44.033L26.2687 43.3163L26.2685 43.3165L26.9661 44.033ZM25.5 44.75L24.5022 44.6834L24.431 45.75H25.5V44.75ZM27 44L26.3029 43.2831L26.3026 43.2833L27 44ZM30.6034 40.4962L31.1976 39.6919L30.5149 39.1874L29.9063 39.7792L30.6034 40.4962ZM38.1 46.0348L37.5058 46.8391L37.559 46.8784L37.6169 46.9103L38.1 46.0348ZM40.819 44.7539L39.8408 44.5463L39.8401 44.5497L40.819 44.7539ZM45.7402 21.5631L44.77 21.3211L44.7657 21.3383L44.762 21.3555L45.7402 21.5631ZM43.6504 19.2261L44.0102 20.1591L44.0373 20.1486L44.0638 20.1366L43.6504 19.2261ZM14.7529 30.3688L14.3931 29.4357L14.3806 29.4407L14.7529 30.3688ZM14.3933 32.7508L14.6913 31.7962L14.6861 31.7946L14.3933 32.7508ZM21.8091 35.0654L21.5112 36.02L21.9521 36.1576L22.3427 35.9112L21.8091 35.0654ZM38.9773 24.2341L38.4588 23.3791L38.4513 23.3837L38.4438 23.3884L38.9773 24.2341ZM39.9212 24.5487L39.2573 23.8008L39.2512 23.8064L39.9212 24.5487ZM26.0107 37.1019L25.4902 37.9558L26.127 38.3439L26.6807 37.8443L26.0107 37.1019ZM26.0105 37.1017L26.531 36.2479L25.1206 35.3882L25.0126 37.0364L26.0105 37.1017ZM26.0105 37.1021L26.6796 37.8452L26.9818 37.5731L27.0083 37.1674L26.0105 37.1021ZM26.01 37.1025L25.3409 36.3594L24.43 37.1795L25.4163 37.9072L26.01 37.1025ZM26.0104 37.1028L27.0082 37.1694L27.0447 36.6232L26.6041 36.2981L26.0104 37.1028ZM60 31C60 47.0163 47.0163 60 31 60V62C48.1208 62 62 48.1208 62 31H60ZM31 2C47.0163 2 60 14.9837 60 31H62C62 13.8792 48.1208 0 31 0V2ZM2 31C2 14.9837 14.9837 2 31 2V0C13.8792 0 0 13.8792 0 31H2ZM31 60C14.9837 60 2 47.0163 2 31H0C0 48.1208 13.8792 62 31 62V60ZM26.2685 43.3165C26.0502 43.529 25.9534 43.6159 25.8546 43.6732C25.7903 43.7104 25.6989 43.75 25.5 43.75V45.75C26.0307 45.75 26.4708 45.6273 26.8565 45.4041C27.2075 45.2009 27.4789 44.9294 27.6637 44.7495L26.2685 43.3165ZM26.3026 43.2833L26.2687 43.3163L27.6635 44.7497L27.6974 44.7167L26.3026 43.2833ZM29.9063 39.7792L26.3029 43.2831L27.6971 44.7169L31.3005 41.2131L29.9063 39.7792ZM30.0092 41.3005L37.5058 46.8391L38.6942 45.2305L31.1976 39.6919L30.0092 41.3005ZM37.6169 46.9103C38.4233 47.3552 39.3748 47.6081 40.259 47.2094C41.1486 46.8083 41.5981 45.9166 41.7979 44.958L39.8401 44.5497C39.6963 45.2391 39.476 45.3685 39.4369 45.3862C39.3925 45.4062 39.1563 45.4755 38.5831 45.1592L37.6169 46.9103ZM41.7972 44.9615L46.7185 21.7707L44.762 21.3555L39.8408 44.5463L41.7972 44.9615ZM46.7105 21.8051C47.0131 20.5921 46.8425 19.4364 46.0744 18.6936C45.2923 17.9372 44.1788 17.8879 43.237 18.3155L44.0638 20.1366C44.4418 19.965 44.6251 20.0743 44.684 20.1312C44.7568 20.2016 44.9713 20.5141 44.77 21.3211L46.7105 21.8051ZM43.2906 18.293L14.3931 29.4358L15.1127 31.3019L44.0102 20.1591L43.2906 18.293ZM14.3806 29.4407C13.8222 29.6647 13.3419 29.9342 12.9771 30.2565C12.6188 30.5732 12.2937 31.0139 12.2378 31.5732C12.1782 32.17 12.4464 32.6669 12.8101 33.0103C13.1568 33.3375 13.6155 33.5585 14.1006 33.707L14.6861 31.7946C14.3704 31.698 14.2272 31.5976 14.1829 31.5558C14.1651 31.539 14.1821 31.5494 14.2013 31.5938C14.2225 31.643 14.2344 31.7069 14.2279 31.7721C14.2155 31.8961 14.1573 31.8826 14.3016 31.7551C14.4394 31.6333 14.6973 31.4686 15.1252 31.2969L14.3806 29.4407ZM14.0954 33.7054L21.5112 36.02L22.107 34.1108L14.6913 31.7962L14.0954 33.7054ZM22.3427 35.9112L39.5109 25.0799L38.4438 23.3884L21.2755 34.2196L22.3427 35.9112ZM39.4959 25.0892C39.609 25.0206 39.7012 24.9902 39.7543 24.9792C39.8267 24.9643 39.7805 24.992 39.6577 24.9499C39.5906 24.9268 39.4589 24.8674 39.3394 24.7254C39.2064 24.5674 39.1385 24.3647 39.1459 24.1649C39.1525 23.9862 39.2161 23.8693 39.2423 23.8276C39.2699 23.7836 39.2849 23.7763 39.2574 23.8008L40.5849 25.2967C40.7939 25.1112 41.1255 24.754 41.1445 24.2389C41.1554 23.9458 41.0586 23.6622 40.8697 23.4377C40.6941 23.229 40.4792 23.1172 40.3065 23.058C39.9728 22.9436 39.6269 22.9635 39.3508 23.0203C39.0557 23.0811 38.7509 23.202 38.4588 23.3791L39.4959 25.0892ZM39.2512 23.8064L25.3407 36.3595L26.6807 37.8443L40.5911 25.2911L39.2512 23.8064ZM25.49 37.9556L25.4902 37.9558L26.5312 36.248L26.531 36.2479L25.49 37.9556ZM27.0083 37.1674L27.0084 37.1671L25.0126 37.0364L25.0126 37.0367L27.0083 37.1674ZM25.3414 36.3589L25.3409 36.3594L26.6791 37.8456L26.6796 37.8452L25.3414 36.3589ZM25.4163 37.9072L25.4167 37.9075L26.6041 36.2981L26.6037 36.2978L25.4163 37.9072ZM26.4978 44.8166L27.0082 37.1694L25.0126 37.0362L24.5022 44.6834L26.4978 44.8166Z" fill="white"/>
</g>
</svg>
