<svg width="62" height="62" viewBox="0 0 62 62" fill="none" xmlns="http://www.w3.org/2000/svg">
<g id="VK">
<path id="Combined Shape" d="M32.5693 40.8451V41.8451H32.6237L32.6777 41.8392L32.5693 40.8451ZM33.4427 40.4702L34.1682 41.1584L34.1686 41.1581L33.4427 40.4702ZM30.6567 40.8451V39.8451H30.6273L30.5979 39.8468L30.6567 40.8451ZM22.72 37.2962L22.0052 37.9955L22.0054 37.9957L22.72 37.2962ZM15.0869 24.9319L14.1531 25.2897L14.1611 25.3106L14.1701 25.3311L15.0869 24.9319ZM15.1041 24.133L15.8616 24.786L15.8628 24.7845L15.1041 24.133ZM16.0432 23.8212L16.0368 22.8212L16.0266 22.8213L16.0164 22.8215L16.0432 23.8212ZM20.6149 23.792L20.7735 22.8046L20.6916 22.7915L20.6085 22.792L20.6149 23.792ZM21.3537 24.0839L21.9394 23.2734L21.9393 23.2733L21.3537 24.0839ZM21.7512 24.6108L22.6789 24.2372L22.6746 24.227L21.7512 24.6108ZM23.4681 28.1044L22.6067 28.6123L22.6068 28.6124L23.4681 28.1044ZM26.9161 31.7055L26.4446 30.8237L26.4438 30.8241L26.9161 31.7055ZM27.5782 27.1258L26.5782 27.1141L26.5778 27.1547L26.5806 27.1951L27.5782 27.1258ZM27.1024 24.9888L27.9031 24.3898L27.9029 24.3894L27.1024 24.9888ZM25.6828 24.2882L25.553 25.2797L25.5533 25.2798L25.6828 24.2882ZM26.3949 23.4048L26.8273 24.3065L26.8274 24.3065L26.3949 23.4048ZM30.3876 23.0038L30.3979 22.0039L30.3974 22.0039L30.3876 23.0038ZM32.6335 23.2235L32.4019 24.1964L32.403 24.1966L32.6335 23.2235ZM33.7271 26.4196L32.728 26.3785V26.3785L33.7271 26.4196ZM33.6635 29.0671L32.6639 29.0392V29.0392L33.6635 29.0671ZM34.2863 31.6856L33.7503 32.5298L33.7526 32.5313L34.2863 31.6856ZM37.6356 28.1474L38.4931 28.662L38.4931 28.6619L37.6356 28.1474ZM39.412 24.4649L38.5077 24.0381L38.4915 24.0724L38.478 24.1078L39.412 24.4649ZM39.8378 23.9579L39.3318 23.0954L39.3303 23.0962L39.8378 23.9579ZM40.4591 23.8504L40.3268 24.8416L40.3957 24.8508L40.4652 24.8503L40.4591 23.8504ZM45.2703 23.8212L45.2764 24.8211L45.3321 24.8208L45.3874 24.8143L45.2703 23.8212ZM46.9497 24.2928L46.0097 24.6341L46.0106 24.6365L46.9497 24.2928ZM44.4439 29.1061L43.6494 28.4988L43.6493 28.4989L44.4439 29.1061ZM41.755 33.2394L42.7496 33.1351L41.755 33.2394ZM43.5377 35.3758L44.2113 34.6367L44.211 34.6364L43.5377 35.3758ZM46.6863 38.9346L47.5591 38.4466L47.5591 38.4466L46.6863 38.9346ZM46.7149 38.9846L47.567 38.4613L47.5647 38.4575L46.7149 38.9846ZM45.5395 40.8451L45.5531 41.845L45.5765 41.8447L45.5999 41.8433L45.5395 40.8451ZM41.2651 40.9035L41.2515 39.9036L41.1621 39.9048L41.0744 39.9218L41.2651 40.9035ZM39.1397 40.2674L39.6986 39.4382L39.6982 39.4379L39.1397 40.2674ZM37.2992 38.4823L38.0467 37.818L37.2992 38.4823ZM34.8591 36.7554L34.5617 35.8007L34.5611 35.8008L34.8591 36.7554ZM33.704 39.6452L32.7041 39.6595L32.7042 39.6627L33.704 39.6452ZM2 31C2 14.9837 14.9837 2 31 2V0C13.8792 0 0 13.8792 0 31H2ZM31 60C14.9837 60 2 47.0163 2 31H0C0 48.1208 13.8792 62 31 62V60ZM60 31C60 47.0163 47.0163 60 31 60V62C48.1208 62 62 48.1208 62 31H60ZM31 2C47.0163 2 60 14.9837 60 31H62C62 13.8792 48.1208 0 31 0V2ZM32.5693 40.8451C32.6777 41.8392 32.678 41.8392 32.6782 41.8392C32.6783 41.8391 32.6785 41.8391 32.6787 41.8391C32.679 41.8391 32.6794 41.839 32.6797 41.839C32.6804 41.8389 32.6812 41.8388 32.6819 41.8387C32.6835 41.8386 32.6852 41.8384 32.687 41.8382C32.6907 41.8377 32.695 41.8372 32.6999 41.8366C32.7096 41.8354 32.7216 41.8338 32.7357 41.8318C32.7639 41.8278 32.8008 41.822 32.8446 41.814C32.931 41.7981 33.0499 41.7725 33.184 41.732C33.422 41.6601 33.8408 41.5036 34.1682 41.1584L32.7171 39.7821C32.7487 39.7488 32.7308 39.7796 32.6062 39.8173C32.5589 39.8315 32.5149 39.8411 32.4838 39.8468C32.4688 39.8495 32.4583 39.8511 32.4537 39.8518C32.4515 39.8521 32.4508 39.8522 32.4519 39.852C32.4525 39.852 32.4535 39.8518 32.455 39.8517C32.4557 39.8516 32.4566 39.8515 32.4576 39.8514C32.4581 39.8513 32.4586 39.8512 32.4591 39.8512C32.4594 39.8512 32.4597 39.8511 32.46 39.8511C32.4601 39.8511 32.4604 39.8511 32.4604 39.851C32.4607 39.851 32.4609 39.851 32.5693 40.8451ZM30.6567 41.8451H32.5693V39.8451H30.6567V41.8451ZM22.0054 37.9957C24.0098 40.0436 26.161 41.0094 27.8203 41.4599C28.6483 41.6847 29.3541 41.7813 29.8602 41.8215C30.1136 41.8416 30.3177 41.8476 30.4632 41.8484C30.536 41.8487 30.5942 41.8478 30.6366 41.8466C30.6578 41.846 30.6751 41.8453 30.6883 41.8447C30.6949 41.8444 30.7005 41.8442 30.7051 41.8439C30.7074 41.8438 30.7094 41.8437 30.7111 41.8436C30.712 41.8436 30.7128 41.8435 30.7136 41.8435C30.714 41.8435 30.7145 41.8434 30.7147 41.8434C30.7152 41.8434 30.7156 41.8434 30.6567 40.8451C30.5979 39.8468 30.5983 39.8468 30.5987 39.8468C30.5989 39.8468 30.5993 39.8468 30.5995 39.8467C30.6 39.8467 30.6005 39.8467 30.6008 39.8467C30.6015 39.8466 30.602 39.8466 30.6023 39.8466C30.6027 39.8466 30.6022 39.8466 30.6007 39.8467C30.5978 39.8468 30.5909 39.8471 30.5803 39.8474C30.5591 39.848 30.523 39.8486 30.4732 39.8484C30.3734 39.8479 30.2188 39.8437 30.0185 39.8278C29.6173 39.7959 29.0358 39.7175 28.3443 39.5297C26.9646 39.1552 25.1474 38.3466 23.4347 36.5967L22.0054 37.9957ZM15.0869 24.9319C14.1701 25.3311 14.1701 25.3313 14.1702 25.3314C14.1702 25.3315 14.1703 25.3317 14.1704 25.3319C14.1706 25.3323 14.1708 25.3328 14.1711 25.3335C14.1716 25.3347 14.1724 25.3365 14.1734 25.3388C14.1754 25.3433 14.1782 25.3498 14.1819 25.3582C14.1893 25.375 14.2001 25.3995 14.2143 25.4313C14.2425 25.495 14.2841 25.5878 14.3382 25.7069C14.4463 25.9449 14.6047 26.288 14.8071 26.7121C15.2118 27.5596 15.794 28.733 16.5052 30.0386C17.9155 32.6278 19.8774 35.8205 22.0052 37.9955L23.4348 36.5969C21.509 34.6284 19.6543 31.639 18.2615 29.0819C17.5711 27.8144 17.0051 26.6737 16.612 25.8503C16.4155 25.4389 16.2625 25.1073 16.1591 24.8797C16.1074 24.7658 16.0681 24.678 16.0419 24.6192C16.0289 24.5898 16.0191 24.5676 16.0127 24.5531C16.0095 24.5458 16.0072 24.5404 16.0057 24.537C16.0049 24.5353 16.0044 24.5341 16.0041 24.5334C16.0039 24.533 16.0038 24.5328 16.0038 24.5327C16.0037 24.5326 16.0037 24.5326 16.0037 24.5326C16.0038 24.5326 16.0038 24.5327 15.0869 24.9319ZM14.3467 23.4801C13.929 23.9647 13.9924 24.5645 14.0215 24.77C14.0418 24.9135 14.073 25.037 14.0979 25.1227C14.1107 25.1667 14.1226 25.2036 14.1322 25.2316C14.137 25.2457 14.1413 25.2577 14.1448 25.2674C14.1466 25.2723 14.1482 25.2766 14.1496 25.2803C14.1503 25.2821 14.1509 25.2839 14.1515 25.2854C14.1518 25.2862 14.1521 25.287 14.1523 25.2877C14.1525 25.288 14.1526 25.2884 14.1527 25.2887C14.1528 25.2889 14.1529 25.2891 14.1529 25.2892C14.153 25.2894 14.1531 25.2897 15.0869 24.9319C16.0207 24.5742 16.0208 24.5744 16.0209 24.5746C16.0209 24.5747 16.021 24.5749 16.0211 24.5751C16.0212 24.5754 16.0213 24.5757 16.0214 24.576C16.0217 24.5766 16.0219 24.5771 16.0221 24.5776C16.0225 24.5787 16.0228 24.5796 16.0231 24.5805C16.0237 24.5821 16.0242 24.5834 16.0245 24.5842C16.0251 24.5859 16.0252 24.5861 16.0248 24.5849C16.0239 24.5824 16.0215 24.5752 16.0184 24.5645C16.0116 24.541 16.0051 24.5135 16.0017 24.4897C15.9977 24.4614 16.0025 24.4692 15.9975 24.5051C15.9925 24.5408 15.9695 24.6607 15.8616 24.786L14.3467 23.4801ZM16.0432 23.8212C16.0164 22.8215 16.0162 22.8215 16.016 22.8215C16.0159 22.8215 16.0157 22.8215 16.0155 22.8215C16.0152 22.8216 16.0149 22.8216 16.0146 22.8216C16.014 22.8216 16.0133 22.8216 16.0126 22.8216C16.0111 22.8217 16.0095 22.8217 16.0077 22.8218C16.0041 22.8219 15.9998 22.8221 15.9949 22.8223C15.985 22.8227 15.9724 22.8232 15.9574 22.8241C15.9275 22.8258 15.8875 22.8285 15.8399 22.8329C15.7464 22.8415 15.6153 22.8574 15.4691 22.8871C15.3263 22.9161 15.1453 22.963 14.9617 23.042C14.7858 23.1178 14.5447 23.2496 14.3455 23.4815L15.8628 24.7845C15.7896 24.8698 15.7288 24.8893 15.7527 24.879C15.7687 24.8721 15.8068 24.8593 15.8672 24.8471C15.9243 24.8355 15.9808 24.8284 16.0239 24.8244C16.0446 24.8225 16.0603 24.8215 16.069 24.821C16.0733 24.8207 16.0757 24.8206 16.076 24.8206C16.0761 24.8206 16.0757 24.8206 16.0747 24.8207C16.0743 24.8207 16.0736 24.8207 16.0728 24.8207C16.0724 24.8207 16.072 24.8207 16.0715 24.8208C16.0713 24.8208 16.0711 24.8208 16.0708 24.8208C16.0707 24.8208 16.0705 24.8208 16.0704 24.8208C16.0702 24.8208 16.07 24.8208 16.0432 23.8212ZM20.6085 22.792L16.0368 22.8212L16.0496 24.8211L20.6213 24.792L20.6085 22.792ZM21.9393 23.2733C21.6597 23.0713 21.3587 22.9591 21.1637 22.8989C21.0597 22.8668 20.969 22.8444 20.9024 22.8297C20.8688 22.8223 20.8405 22.8167 20.8188 22.8126C20.8079 22.8105 20.7986 22.8089 20.791 22.8076C20.7872 22.8069 20.7839 22.8063 20.7809 22.8058C20.7795 22.8056 20.7781 22.8054 20.7769 22.8052C20.7763 22.8051 20.7757 22.805 20.7751 22.8049C20.7748 22.8048 20.7746 22.8048 20.7743 22.8048C20.7742 22.8047 20.774 22.8047 20.7739 22.8047C20.7737 22.8047 20.7735 22.8046 20.6149 23.792C20.4563 24.7793 20.4562 24.7793 20.456 24.7793C20.4559 24.7792 20.4557 24.7792 20.4556 24.7792C20.4554 24.7792 20.4551 24.7791 20.4549 24.7791C20.4544 24.779 20.454 24.7789 20.4536 24.7789C20.4528 24.7787 20.4521 24.7786 20.4514 24.7785C20.4501 24.7783 20.4492 24.7781 20.4487 24.778C20.4476 24.7779 20.4478 24.7779 20.4493 24.7782C20.4523 24.7787 20.4601 24.7802 20.4716 24.7828C20.4953 24.788 20.5316 24.7969 20.5736 24.8099C20.6709 24.8399 20.7393 24.8737 20.768 24.8944L21.9393 23.2733ZM21.7512 24.6108C22.6746 24.227 22.6745 24.2268 22.6744 24.2266C22.6744 24.2265 22.6743 24.2263 22.6743 24.2261C22.6741 24.2259 22.674 24.2256 22.6739 24.2253C22.6737 24.2247 22.6734 24.2241 22.6731 24.2235C22.6726 24.2222 22.672 24.2209 22.6714 24.2194C22.6702 24.2166 22.6688 24.2133 22.6673 24.2098C22.6642 24.2026 22.6604 24.194 22.656 24.1842C22.6471 24.1646 22.6355 24.1396 22.621 24.1105C22.5925 24.0529 22.5514 23.9756 22.4976 23.889C22.3991 23.7303 22.218 23.4747 21.9394 23.2734L20.768 24.8944C20.7444 24.8774 20.7621 24.8853 20.7986 24.944C20.8123 24.9661 20.8228 24.9859 20.8289 24.9983C20.8318 25.0042 20.8333 25.0075 20.8332 25.0073C20.8332 25.0072 20.8327 25.0062 20.8318 25.0041C20.8314 25.0031 20.8308 25.0018 20.8301 25.0002C20.8298 24.9995 20.8295 24.9986 20.8291 24.9977C20.8289 24.9972 20.8287 24.9967 20.8285 24.9963C20.8284 24.996 20.8283 24.9957 20.8281 24.9955C20.8281 24.9954 20.828 24.9952 20.828 24.9951C20.8279 24.9949 20.8278 24.9947 21.7512 24.6108ZM24.3296 27.5966C23.8639 26.8067 23.4504 25.9663 23.151 25.3168C23.0021 24.9937 22.883 24.7212 22.8015 24.5305C22.7608 24.4352 22.7296 24.3605 22.7088 24.3103C22.6984 24.2852 22.6906 24.2663 22.6856 24.2539C22.6831 24.2477 22.6812 24.2432 22.6801 24.2404C22.6795 24.239 22.6791 24.2381 22.6789 24.2375C22.6788 24.2373 22.6788 24.2371 22.6787 24.2371C22.6787 24.237 22.6787 24.2371 22.6787 24.2371C22.6787 24.2371 22.6788 24.2371 22.6788 24.2372C22.6788 24.2372 22.6788 24.2373 21.7512 24.6108C20.8236 24.9844 20.8236 24.9845 20.8237 24.9846C20.8237 24.9846 20.8237 24.9847 20.8237 24.9847C20.8238 24.9849 20.8239 24.9851 20.824 24.9853C20.8241 24.9857 20.8243 24.9862 20.8246 24.9868C20.8251 24.988 20.8258 24.9897 20.8266 24.9919C20.8283 24.9961 20.8308 25.0021 20.8339 25.0098C20.8402 25.0251 20.8492 25.0472 20.8609 25.0755C20.8844 25.132 20.9185 25.2136 20.9623 25.3162C21.0499 25.5213 21.1767 25.8112 21.3347 26.154C21.6493 26.8365 22.0942 27.7429 22.6067 28.6123L24.3296 27.5966ZM26.4438 30.8241C26.5261 30.78 26.6346 30.7782 26.6894 30.7964C26.6941 30.798 26.5921 30.7609 26.3706 30.5409C25.927 30.1001 25.2817 29.2109 24.3295 27.5964L22.6068 28.6124C23.5656 30.2381 24.3203 31.323 24.9609 31.9596C25.2816 32.2782 25.6427 32.5556 26.0561 32.6935C26.5195 32.8482 26.9821 32.8047 27.3884 32.587L26.4438 30.8241ZM27.5782 27.1258C26.5806 27.1951 26.5806 27.195 26.5806 27.195C26.5806 27.195 26.5805 27.1949 26.5805 27.1949C26.5805 27.1948 26.5805 27.1949 26.5806 27.1949C26.5806 27.1951 26.5806 27.1955 26.5806 27.1962C26.5807 27.1975 26.5809 27.1998 26.5811 27.203C26.5815 27.2094 26.5822 27.2195 26.583 27.2331C26.5847 27.2603 26.5871 27.3013 26.5899 27.3543C26.5954 27.4604 26.6025 27.614 26.6081 27.8005C26.6194 28.1754 26.6248 28.6743 26.6026 29.1824C26.58 29.6996 26.5302 30.1844 26.4448 30.5481C26.402 30.7306 26.3588 30.8443 26.3279 30.9039C26.2918 30.9736 26.3125 30.8943 26.4446 30.8237L27.3876 32.5874C27.7561 32.3904 27.9747 32.0732 28.104 31.8234C28.2386 31.5634 28.3284 31.2759 28.3919 31.0053C28.5192 30.4629 28.576 29.8344 28.6007 29.2698C28.6258 28.6962 28.6194 28.1449 28.6072 27.7401C28.601 27.5367 28.5933 27.3681 28.5871 27.2494C28.584 27.19 28.5812 27.143 28.5792 27.1102C28.5782 27.0939 28.5774 27.081 28.5768 27.072C28.5765 27.0674 28.5763 27.0639 28.5761 27.0613C28.576 27.06 28.5759 27.0589 28.5759 27.0581C28.5758 27.0577 28.5758 27.0574 28.5758 27.0571C28.5758 27.0569 28.5758 27.0568 28.5758 27.0567C28.5758 27.0566 28.5757 27.0564 27.5782 27.1258ZM26.3016 25.5878C26.378 25.6899 26.4771 25.9888 26.5331 26.4303C26.5573 26.621 26.5687 26.7969 26.574 26.9254C26.5766 26.9891 26.5776 27.0397 26.578 27.0728C26.5782 27.0893 26.5782 27.1014 26.5782 27.1085C26.5782 27.112 26.5782 27.1143 26.5782 27.1153C26.5782 27.1158 26.5782 27.1159 26.5782 27.1157C26.5782 27.1156 26.5782 27.1155 26.5782 27.1152C26.5782 27.1151 26.5782 27.1149 26.5782 27.1147C26.5782 27.1146 26.5782 27.1145 26.5782 27.1144C26.5782 27.1143 26.5782 27.1141 27.5782 27.1258C28.5781 27.1374 28.5781 27.1373 28.5781 27.1371C28.5781 27.137 28.5781 27.1368 28.5781 27.1367C28.5781 27.1364 28.5781 27.1361 28.5781 27.1358C28.5781 27.1352 28.5781 27.1345 28.5781 27.1337C28.5781 27.1321 28.5782 27.1301 28.5782 27.1277C28.5782 27.1231 28.5782 27.117 28.5782 27.1095C28.5782 27.0947 28.5782 27.0744 28.5779 27.0492C28.5773 26.9989 28.5758 26.9289 28.5723 26.8437C28.5654 26.6745 28.5503 26.4398 28.5172 26.1786C28.4585 25.7163 28.3197 24.9467 27.9031 24.3898L26.3016 25.5878ZM25.5533 25.2798C25.6636 25.2942 25.8351 25.3269 25.9995 25.3922C26.1698 25.4598 26.2613 25.5339 26.3019 25.5881L27.9029 24.3894C27.5615 23.9335 27.1021 23.6781 26.7376 23.5334C26.3671 23.3862 26.0198 23.3237 25.8122 23.2966L25.5533 25.2798ZM25.9625 22.5032C25.539 22.7063 25.176 23.022 24.9449 23.3214C24.8457 23.45 24.6809 23.6885 24.6249 23.9903C24.5957 24.1477 24.5718 24.4589 24.7634 24.7725C24.9765 25.1215 25.3143 25.2485 25.553 25.2797L25.8126 23.2967C25.9867 23.3195 26.2813 23.4208 26.4702 23.7301C26.6376 24.0041 26.6087 24.2619 26.5913 24.3554C26.559 24.5295 26.4856 24.5985 26.5282 24.5433C26.5808 24.4752 26.7031 24.3661 26.8273 24.3065L25.9625 22.5032ZM30.3974 22.0039C29.54 21.9955 28.7078 21.9962 27.9785 22.053C27.2676 22.1083 26.5465 22.2231 25.9625 22.5032L26.8274 24.3065C27.0666 24.1917 27.4834 24.0976 28.1337 24.0469C28.7657 23.9977 29.5182 23.9953 30.3777 24.0038L30.3974 22.0039ZM32.8651 22.2507C32.2597 22.1066 31.7994 22.0184 30.3979 22.0039L30.3772 24.0038C31.6521 24.017 31.9618 24.0916 32.4019 24.1964L32.8651 22.2507ZM34.7263 26.4607C34.7643 25.5371 34.8122 24.6282 34.6346 23.9356C34.535 23.5471 34.3522 23.1592 34.0172 22.8403C33.6867 22.5258 33.2831 22.3497 32.864 22.2505L32.403 24.1966C32.5905 24.241 32.6371 24.2879 32.6382 24.2889C32.6404 24.291 32.6456 24.296 32.6543 24.3121C32.6641 24.3303 32.6804 24.3668 32.6973 24.4323C32.7836 24.7689 32.7717 25.3145 32.728 26.3785L34.7263 26.4607ZM34.6743 28.5008C34.6743 27.7268 34.7018 27.0556 34.7263 26.4607L32.728 26.3785C32.7035 26.9725 32.6743 27.6811 32.6743 28.5008H34.6743ZM34.6631 29.0949C34.6685 28.9017 34.6743 28.6963 34.6743 28.5008H32.6743C32.6743 28.6634 32.6695 28.8398 32.6639 29.0392L34.6631 29.0949ZM34.8223 30.8414C34.8503 30.8591 34.7555 30.8232 34.696 30.4413C34.639 30.0761 34.6483 29.6271 34.6631 29.0949L32.6639 29.0392C32.6504 29.5254 32.6292 30.1686 32.7198 30.7495C32.8079 31.3138 33.0387 32.078 33.7503 32.5298L34.8223 30.8414ZM36.7782 27.6329C35.7191 29.3976 35.0329 30.229 34.6257 30.59C34.4228 30.7697 34.3545 30.7734 34.4046 30.7603C34.4981 30.736 34.6646 30.7419 34.8199 30.8399L33.7526 32.5313C34.0832 32.7399 34.4882 32.8051 34.9078 32.696C35.284 32.5982 35.6293 32.3729 35.9522 32.0868C36.5963 31.5159 37.4095 30.4676 38.4931 28.662L36.7782 27.6329ZM39.412 24.4649C38.478 24.1078 38.478 24.1077 38.478 24.1076C38.478 24.1076 38.4781 24.1076 38.4781 24.1076C38.4781 24.1075 38.4781 24.1075 38.4781 24.1075C38.4781 24.1076 38.478 24.1077 38.4779 24.108C38.4777 24.1086 38.4773 24.1096 38.4767 24.1111C38.4755 24.1141 38.4737 24.119 38.4711 24.1256C38.4659 24.139 38.4579 24.1594 38.4472 24.1865C38.4259 24.2406 38.3937 24.321 38.3519 24.4234C38.268 24.6282 38.1454 24.9198 37.9919 25.263C37.683 25.9536 37.2573 26.8343 36.7781 27.633L38.4931 28.6619C39.0297 27.7675 39.4922 26.8069 39.8176 26.0796C39.9812 25.7137 40.1123 25.4022 40.2028 25.181C40.2481 25.0704 40.2833 24.9822 40.3075 24.9209C40.3196 24.8902 40.329 24.8663 40.3354 24.8496C40.3387 24.8413 40.3412 24.8348 40.343 24.8302C40.3439 24.8278 40.3446 24.826 40.3451 24.8246C40.3454 24.824 40.3456 24.8234 40.3457 24.823C40.3458 24.8227 40.3459 24.8225 40.346 24.8224C40.346 24.8223 40.346 24.8222 40.346 24.8222C40.3461 24.8221 40.3461 24.822 39.412 24.4649ZM39.3303 23.0962C39.0145 23.2822 38.8084 23.5503 38.7043 23.7015C38.645 23.7876 38.5992 23.8653 38.5674 23.9227C38.5513 23.9518 38.5382 23.9767 38.5283 23.9962C38.5233 24.006 38.5191 24.0144 38.5157 24.0215C38.514 24.025 38.5124 24.0281 38.5111 24.0309C38.5104 24.0323 38.5098 24.0336 38.5092 24.0348C38.509 24.0354 38.5087 24.036 38.5084 24.0365C38.5083 24.0368 38.5082 24.0371 38.508 24.0374C38.508 24.0375 38.5079 24.0377 38.5079 24.0377C38.5078 24.0379 38.5077 24.0381 39.412 24.4649C40.3164 24.8916 40.3163 24.8918 40.3162 24.892C40.3162 24.8921 40.3161 24.8923 40.3161 24.8924C40.3159 24.8926 40.3158 24.8929 40.3157 24.8931C40.3155 24.8936 40.3153 24.894 40.3151 24.8944C40.3147 24.8953 40.3143 24.8961 40.3139 24.8968C40.3133 24.8982 40.3127 24.8994 40.3123 24.9003C40.3114 24.902 40.3111 24.9027 40.3112 24.9025C40.3115 24.9019 40.3135 24.8979 40.3171 24.8914C40.3248 24.8775 40.3369 24.857 40.3518 24.8354C40.396 24.7711 40.4028 24.7857 40.3452 24.8196L39.3303 23.0962ZM40.4591 23.8504C40.5914 22.8591 40.5911 22.8591 40.5909 22.8591C40.5908 22.8591 40.5905 22.859 40.5904 22.859C40.59 22.859 40.5897 22.8589 40.5893 22.8589C40.5886 22.8588 40.5878 22.8587 40.587 22.8586C40.5855 22.8584 40.5838 22.8582 40.5821 22.8579C40.5786 22.8575 40.5746 22.857 40.5704 22.8565C40.5618 22.8555 40.5516 22.8544 40.5401 22.8533C40.5169 22.8511 40.4877 22.8487 40.4534 22.8468C40.3857 22.8431 40.2935 22.8413 40.1865 22.8478C39.9912 22.8598 39.6571 22.9045 39.3318 23.0954L40.3438 24.8204C40.2829 24.8561 40.2595 24.8471 40.3088 24.8441C40.324 24.8431 40.3375 24.8435 40.345 24.8439C40.3483 24.844 40.349 24.8442 40.3465 24.8439C40.3451 24.8438 40.3429 24.8436 40.3397 24.8432C40.3381 24.843 40.3362 24.8428 40.3341 24.8425C40.333 24.8424 40.3319 24.8422 40.3307 24.8421C40.3301 24.842 40.3294 24.8419 40.3288 24.8418C40.3285 24.8418 40.3281 24.8417 40.3278 24.8417C40.3277 24.8417 40.3274 24.8416 40.3273 24.8416C40.3271 24.8416 40.3268 24.8416 40.4591 23.8504ZM45.2642 22.8212L40.453 22.8504L40.4652 24.8503L45.2764 24.8211L45.2642 22.8212ZM47.8896 23.9515C47.7039 23.44 47.3003 23.1691 46.9927 23.0334C46.686 22.898 46.3643 22.8445 46.1184 22.8208C45.8624 22.7961 45.6251 22.7983 45.4572 22.8055C45.3716 22.8091 45.3 22.8143 45.248 22.8187C45.2219 22.8209 45.2005 22.823 45.1846 22.8246C45.1766 22.8254 45.1699 22.8262 45.1646 22.8267C45.162 22.827 45.1597 22.8273 45.1578 22.8275C45.1569 22.8276 45.156 22.8277 45.1552 22.8278C45.1548 22.8279 45.1545 22.8279 45.1541 22.8279C45.154 22.828 45.1537 22.828 45.1536 22.828C45.1534 22.828 45.1532 22.828 45.2703 23.8212C45.3874 24.8143 45.3872 24.8143 45.387 24.8143C45.3869 24.8143 45.3867 24.8144 45.3866 24.8144C45.3863 24.8144 45.3861 24.8144 45.3859 24.8145C45.3854 24.8145 45.3851 24.8146 45.3848 24.8146C45.3843 24.8146 45.3841 24.8147 45.3842 24.8146C45.3845 24.8146 45.386 24.8145 45.3886 24.8142C45.3939 24.8136 45.4039 24.8127 45.4178 24.8115C45.4458 24.8091 45.489 24.8059 45.5426 24.8036C45.6531 24.7989 45.792 24.7986 45.9266 24.8116C46.0714 24.8255 46.155 24.8498 46.1851 24.863C46.2142 24.8759 46.0788 24.8245 46.0097 24.6341L47.8896 23.9515ZM45.2384 29.7134C46.2352 28.4093 46.9639 27.3198 47.4149 26.4451C47.64 26.0086 47.8134 25.5924 47.9089 25.207C48.0005 24.8373 48.0484 24.3854 47.8887 23.9491L46.0106 24.6365C45.9738 24.5359 46.0156 24.5321 45.9676 24.726C45.9235 24.9041 45.8237 25.1671 45.6373 25.5285C45.2654 26.2497 44.6184 27.2311 43.6494 28.4988L45.2384 29.7134ZM42.7496 33.1351C42.7516 33.1547 42.7212 33.0167 43.1825 32.3713C43.6245 31.753 44.2653 30.9867 45.2385 29.7133L43.6493 28.4989C42.7577 29.6657 42.0125 30.5688 41.5554 31.2084C41.1176 31.8209 40.6751 32.5295 40.7605 33.3437L42.7496 33.1351ZM44.211 34.6364C43.6255 34.1033 43.2442 33.7572 42.9912 33.4734C42.7383 33.1897 42.7468 33.109 42.7496 33.1351L40.7605 33.3437C40.8241 33.9504 41.158 34.4226 41.4982 34.8042C41.8384 35.1858 42.3179 35.6176 42.8644 36.1152L44.211 34.6364ZM47.5591 38.4466C47.3495 38.0717 46.6459 36.8555 44.2113 34.6367L42.8641 36.1149C45.1555 38.2032 45.7187 39.2531 45.8134 39.4225L47.5591 38.4466ZM47.5647 38.4575C47.5687 38.464 47.5713 38.4685 47.5721 38.4697C47.5729 38.4712 47.573 38.4714 47.572 38.4695C47.571 38.4678 47.5695 38.4651 47.5672 38.4611C47.5649 38.457 47.5624 38.4525 47.5591 38.4466L45.8134 39.4225C45.8201 39.4346 45.8433 39.4766 45.8651 39.5118L47.5647 38.4575ZM45.5395 40.8451C45.5999 41.8433 45.6003 41.8433 45.6007 41.8432C45.6008 41.8432 45.6012 41.8432 45.6015 41.8432C45.6021 41.8431 45.6028 41.8431 45.6034 41.8431C45.6047 41.843 45.6062 41.8429 45.6078 41.8428C45.611 41.8426 45.6148 41.8423 45.6192 41.842C45.6278 41.8413 45.6387 41.8405 45.6516 41.8393C45.6773 41.8371 45.7114 41.8337 45.7523 41.8288C45.8335 41.8191 45.9447 41.803 46.0733 41.7766C46.3175 41.7264 46.6832 41.6277 47.0296 41.4249C47.3796 41.2201 47.8054 40.8491 47.9513 40.2339C48.0956 39.6251 47.9084 39.0171 47.567 38.4613L45.8628 39.508C46.0512 39.8148 45.982 39.8706 46.0052 39.7725C46.03 39.6678 46.0958 39.6541 46.0195 39.6988C45.9396 39.7455 45.8128 39.7883 45.671 39.8175C45.6066 39.8307 45.5515 39.8386 45.5146 39.843C45.4965 39.8452 45.4835 39.8464 45.4771 39.847C45.4738 39.8473 45.4723 39.8474 45.4726 39.8474C45.4727 39.8473 45.4733 39.8473 45.4744 39.8472C45.4749 39.8472 45.4756 39.8471 45.4764 39.8471C45.4768 39.8471 45.4772 39.847 45.4776 39.847C45.4779 39.847 45.4782 39.847 45.4784 39.847C45.4787 39.8469 45.4791 39.8469 45.5395 40.8451ZM41.2788 41.9034L45.5531 41.845L45.5258 39.8452L41.2515 39.9036L41.2788 41.9034ZM38.5809 41.0967C39.315 41.5914 39.988 41.8016 40.5067 41.8797C40.764 41.9184 40.9792 41.924 41.1409 41.9179C41.2218 41.9148 41.2893 41.9088 41.3422 41.9025C41.3686 41.8993 41.3914 41.8961 41.4104 41.8931C41.4199 41.8916 41.4285 41.8901 41.436 41.8888C41.4398 41.8881 41.4434 41.8875 41.4467 41.8869C41.4483 41.8866 41.4499 41.8863 41.4515 41.886C41.4522 41.8858 41.453 41.8857 41.4537 41.8855C41.4541 41.8855 41.4546 41.8854 41.4548 41.8853C41.4554 41.8852 41.4559 41.8851 41.2651 40.9035C41.0744 39.9218 41.0749 39.9217 41.0754 39.9216C41.0756 39.9216 41.0761 39.9215 41.0765 39.9214C41.0772 39.9213 41.0778 39.9212 41.0785 39.9211C41.0798 39.9208 41.081 39.9206 41.0822 39.9203C41.0847 39.9199 41.0869 39.9195 41.0889 39.9191C41.0929 39.9184 41.0962 39.9179 41.0987 39.9175C41.1037 39.9167 41.1056 39.9165 41.1046 39.9166C41.1026 39.9169 41.089 39.9184 41.065 39.9193C41.0169 39.9212 40.9274 39.9205 40.8043 39.9019C40.5624 39.8655 40.1727 39.7577 39.6986 39.4382L38.5809 41.0967ZM36.5517 39.1465C37.1149 39.7803 37.8215 40.5854 38.5812 41.097L39.6982 39.4379C39.1921 39.0972 38.6617 38.5102 38.0467 37.818L36.5517 39.1465ZM35.1565 37.7102C34.9849 37.7636 34.9966 37.6226 35.3766 37.9319C35.7093 38.2027 36.084 38.6202 36.5517 39.1465L38.0467 37.818C37.6148 37.3319 37.1241 36.7755 36.639 36.3807C36.2012 36.0244 35.4426 35.5263 34.5617 35.8007L35.1565 37.7102ZM33.704 39.6452C34.7039 39.6309 34.7039 39.6312 34.7039 39.6314C34.7039 39.6314 34.7039 39.6316 34.7039 39.6318C34.704 39.632 34.704 39.6322 34.704 39.6324C34.704 39.6327 34.704 39.6329 34.704 39.6329C34.704 39.6329 34.704 39.6324 34.704 39.6314C34.7039 39.6292 34.7039 39.6248 34.7039 39.6183C34.7039 39.6054 34.7041 39.5841 34.7046 39.5556C34.7057 39.4985 34.7085 39.4133 34.715 39.3089C34.7284 39.0968 34.7567 38.82 34.8142 38.5424C34.8734 38.2562 34.9534 38.0197 35.0452 37.8585C35.1364 37.6982 35.186 37.701 35.1571 37.71L34.5611 35.8008C33.9366 35.9958 33.5441 36.4527 33.3071 36.8691C33.0706 37.2846 32.9363 37.7473 32.8557 38.1371C32.7732 38.5354 32.7361 38.9115 32.719 39.1831C32.7104 39.3205 32.7066 39.435 32.705 39.517C32.7042 39.5581 32.704 39.5913 32.7039 39.6154C32.7039 39.6275 32.7039 39.6373 32.704 39.6447C32.704 39.6484 32.704 39.6515 32.7041 39.6539C32.7041 39.6552 32.7041 39.6563 32.7041 39.6572C32.7041 39.6577 32.7041 39.6581 32.7041 39.6585C32.7041 39.6587 32.7041 39.6589 32.7041 39.659C32.7041 39.6593 32.7041 39.6595 33.704 39.6452ZM34.1686 41.1581C34.504 40.804 34.6151 40.3661 34.6583 40.1322C34.683 39.998 34.6942 39.88 34.6994 39.7947C34.7021 39.7514 34.7033 39.7148 34.7038 39.6867C34.704 39.6726 34.7041 39.6606 34.7041 39.6507C34.7041 39.6458 34.7041 39.6414 34.704 39.6376C34.704 39.6356 34.704 39.6339 34.704 39.6323C34.7039 39.6314 34.7039 39.6307 34.7039 39.6299C34.7039 39.6296 34.7039 39.6292 34.7039 39.6288C34.7039 39.6287 34.7039 39.6284 34.7039 39.6283C34.7039 39.6281 34.7039 39.6278 33.704 39.6452C32.7042 39.6627 32.7042 39.6624 32.7042 39.6622C32.7042 39.6621 32.7042 39.6618 32.7042 39.6617C32.7042 39.6614 32.7042 39.661 32.7042 39.6607C32.7042 39.6601 32.7041 39.6596 32.7041 39.659C32.7041 39.6579 32.7041 39.6569 32.7041 39.656C32.7041 39.6543 32.7041 39.6529 32.7041 39.652C32.7041 39.6502 32.7041 39.65 32.7041 39.6512C32.704 39.6537 32.7038 39.6615 32.7031 39.6732C32.7016 39.6979 32.6982 39.7326 32.6915 39.7689C32.6717 39.8761 32.6521 39.8507 32.7168 39.7824L34.1686 41.1581Z" />
</g>
</svg>
