<svg width="62" height="62" viewBox="0 0 62 62" fill="none" xmlns="http://www.w3.org/2000/svg">
<g id="WhatsApp">
<path id="Combined Shape" d="M31.9888 47.6906V48.6906H31.9893L31.9888 47.6906ZM31.9815 47.6906L31.9811 48.6906H31.9815V47.6906ZM49.8277 29.8519L50.8277 29.8523V29.8523L49.8277 29.8519ZM44.6078 17.2318L43.9002 17.9385L43.9003 17.9385L44.6078 17.2318ZM31.9887 12L31.9891 11H31.9887V12ZM14.1496 29.8378L15.1496 29.8382V29.8382L14.1496 29.8378ZM16.5308 38.7561L17.4953 39.0201L17.6055 38.6177L17.3969 38.2563L16.5308 38.7561ZM14 48L13.0355 47.7359L12.578 49.4068L14.2537 48.9673L14 48ZM23.4567 45.5193L23.9355 44.6414L23.587 44.4513L23.2029 44.552L23.4567 45.5193ZM31 62C48.1208 62 62 48.1208 62 31H60C60 47.0163 47.0163 60 31 60V62ZM0 31C0 48.1208 13.8792 62 31 62V60C14.9837 60 2 47.0163 2 31H0ZM31 0C13.8792 0 0 13.8792 0 31H2C2 14.9837 14.9837 2 31 2V0ZM62 31C62 13.8792 48.1208 0 31 0V2C47.0163 2 60 14.9837 60 31H62ZM31.9888 46.6906H31.9815V48.6906H31.9888V46.6906ZM48.8277 29.8515C48.824 39.133 41.2719 46.6869 31.9884 46.6906L31.9893 48.6906C42.3768 48.6864 50.8235 40.2376 50.8277 29.8523L48.8277 29.8515ZM43.9003 17.9385C47.0808 21.1226 48.8295 25.3501 48.8277 29.8515L50.8277 29.8523C50.8297 24.8207 48.8707 20.0844 45.3153 16.5251L43.9003 17.9385ZM31.9882 13C36.4953 13.0019 40.7199 14.7544 43.9002 17.9385L45.3153 16.5251C41.7597 12.9653 37.0263 11.0022 31.9891 11L31.9882 13ZM15.1496 29.8382C15.1533 20.5543 22.7085 13 31.9887 13V11C21.6036 11 13.1537 19.4499 13.1496 29.8374L15.1496 29.8382ZM17.3969 38.2563C15.9238 35.7034 15.1483 32.8072 15.1496 29.8382L13.1496 29.8374C13.1481 33.1565 14.0155 36.3979 15.6646 39.2559L17.3969 38.2563ZM14.9645 48.2641L17.4953 39.0201L15.5663 38.492L13.0355 47.7359L14.9645 48.2641ZM23.2029 44.552L13.7463 47.0327L14.2537 48.9673L23.7104 46.4866L23.2029 44.552ZM31.9818 46.6906C29.163 46.6897 26.394 45.9824 23.9355 44.6414L22.9778 46.3972C25.7305 47.8987 28.8287 48.6896 31.9811 48.6906L31.9818 46.6906Z" fill="white"/>
<path id="Combined Shape_2" d="M40.9759 34.0938L40.1181 34.6078L40.1182 34.6079L40.9759 34.0938ZM40.1217 33.5732L40.5694 32.679L40.5692 32.6789L40.1217 33.5732ZM37.0758 32.123L37.4182 31.1834L37.4179 31.1833L37.0758 32.123ZM36.073 32.3461L35.2407 31.7917L35.2406 31.7918L36.073 32.3461ZM34.6616 34.0938L35.4144 34.7521L35.4145 34.752L34.6616 34.0938ZM33.696 34.2054L34.1439 33.3113L34.1436 33.3111L33.696 34.2054ZM30.1115 31.993L29.4458 32.7393L29.4458 32.7393L30.1115 31.993ZM27.8272 27.9956L28.533 28.7041L28.533 28.704L27.8272 27.9956ZM28.9416 26.4711L29.8361 26.9182L29.8363 26.9177L28.9416 26.4711ZM28.9044 25.6902L28.0098 26.1369L28.0098 26.1371L28.9044 25.6902ZM27.5301 22.3805L28.4534 21.9963L28.4533 21.9962L27.5301 22.3805ZM26.5273 21.6154L26.4771 22.6141L26.4771 22.6141L26.5273 21.6154ZM24.4844 22.1574L25.2219 22.8327L24.4844 22.1574ZM24.7444 30.4868L25.5448 29.8875L25.5446 29.8872L24.7444 30.4868ZM32.3588 37.2173L32.7553 36.2992L32.7552 36.2992L32.3588 37.2173ZM34.8999 38.1562L35.2027 37.2032L35.2023 37.203L34.8999 38.1562ZM37.7073 38.3328L37.5596 37.3438L37.5594 37.3438L37.7073 38.3328ZM40.716 36.2135L41.6579 36.5496L41.658 36.5493L40.716 36.2135ZM41.8337 33.5799C41.6312 33.2418 41.3191 33.0608 41.1555 32.9709C40.9944 32.8825 40.7343 32.7616 40.5694 32.679L39.6739 34.4673C39.7929 34.5269 39.905 34.5805 39.9912 34.6223C40.0835 34.6671 40.1454 34.698 40.1928 34.724C40.2411 34.7505 40.2481 34.7579 40.2362 34.7485C40.2221 34.7373 40.1689 34.6925 40.1181 34.6078L41.8337 33.5799ZM40.5692 32.6789C40.3415 32.5649 39.6779 32.2375 39.0196 31.9197C38.393 31.6172 37.6828 31.2798 37.4182 31.1834L36.7335 33.0626C36.8775 33.115 37.4674 33.3912 38.1501 33.7208C38.8011 34.0351 39.4561 34.3583 39.6741 34.4674L40.5692 32.6789ZM37.4179 31.1833C37.2437 31.1199 36.8506 30.9686 36.4189 31.018C35.8769 31.08 35.4967 31.4074 35.2407 31.7917L36.9053 32.9004C36.9319 32.8604 36.9249 32.8835 36.8726 32.9202C36.8454 32.9394 36.81 32.9593 36.7674 32.9754C36.7248 32.9916 36.6833 33.0008 36.6463 33.005C36.5759 33.0131 36.5389 33.001 36.5622 33.0064C36.5889 33.0126 36.6356 33.0269 36.7338 33.0627L37.4179 31.1833ZM35.2406 31.7918C34.987 32.1727 34.1802 33.1251 33.9087 33.4357L35.4145 34.752C35.6631 34.4676 36.5648 33.4118 36.9053 32.9003L35.2406 31.7918ZM33.9088 33.4356C33.8893 33.4579 33.8988 33.4416 33.9392 33.4167C33.9861 33.3878 34.052 33.3613 34.1278 33.3521C34.1987 33.3435 34.243 33.3543 34.2455 33.355C34.2463 33.3552 34.2385 33.3532 34.2206 33.3462C34.2028 33.3392 34.1776 33.3282 34.1439 33.3113L33.2481 35.0995C33.537 35.2442 33.9269 35.3912 34.369 35.3375C34.8518 35.2789 35.189 35.01 35.4144 34.7521L33.9088 33.4356ZM34.1436 33.3111C33.5999 33.039 32.3501 32.6498 30.7771 31.2468L29.4458 32.7393C31.2779 34.3735 32.9006 34.9255 33.2484 35.0996L34.1436 33.3111ZM30.7771 31.2468C29.5706 30.1705 28.7393 28.8195 28.4959 28.4018L26.7678 29.4087C27.0444 29.8834 28.0022 31.4516 29.4458 32.7393L30.7771 31.2468ZM28.4959 28.4018C28.4826 28.379 28.5041 28.4077 28.5133 28.4799C28.5234 28.5597 28.5123 28.6434 28.4857 28.7148C28.4626 28.7768 28.4368 28.806 28.4442 28.7967C28.4546 28.7839 28.474 28.7628 28.533 28.7041L27.1215 27.2871C27.0367 27.3716 26.7532 27.6353 26.611 28.018C26.4333 28.4963 26.5186 28.9809 26.7678 29.4087L28.4959 28.4018ZM28.533 28.704C28.7679 28.47 29.0971 28.05 29.2554 27.8651L27.7364 26.5641C27.449 26.8997 27.2877 27.1216 27.1215 27.2871L28.533 28.704ZM29.2554 27.8651C29.5771 27.4894 29.7105 27.1694 29.8361 26.9182L28.0471 26.024C27.8755 26.3674 27.8603 26.4194 27.7364 26.5641L29.2554 27.8651ZM29.8363 26.9177C30.1885 26.2122 29.9726 25.5909 29.799 25.2433L28.0098 26.1371C28.0233 26.164 28.0286 26.1782 28.0303 26.1832C28.0317 26.1874 28.0283 26.1785 28.0262 26.1591C28.024 26.1385 28.024 26.1118 28.0291 26.0827C28.0342 26.0535 28.0424 26.0334 28.0469 26.0245L29.8363 26.9177ZM29.7991 25.2434C29.8002 25.2456 29.7854 25.2141 29.7471 25.1252C29.7133 25.0466 29.6694 24.9427 29.6174 24.8184C29.5135 24.5702 29.381 24.2494 29.2395 23.9057C28.9579 23.2217 28.64 22.4448 28.4534 21.9963L26.6069 22.7648C26.7917 23.2088 27.1052 23.9751 27.3901 24.6671C27.6605 25.324 27.9327 25.9826 28.0098 26.1369L29.7991 25.2434ZM28.4533 21.9962C28.2287 21.4565 27.9152 21.0057 27.4228 20.773C27.0128 20.5793 26.4681 20.6112 26.5774 20.6167L26.4771 22.6141C26.5453 22.6176 26.6125 22.6167 26.6397 22.6166C26.6774 22.6163 26.6872 22.6166 26.6917 22.6169C26.6932 22.617 26.6787 22.6163 26.6551 22.6111C26.6303 22.6057 26.6001 22.5963 26.5684 22.5814C26.499 22.5485 26.4718 22.5127 26.4801 22.523C26.4937 22.54 26.5408 22.6061 26.607 22.7649L28.4533 21.9962ZM26.5774 20.6167C26.2912 20.6023 25.9727 20.5996 25.673 20.5996V22.5996C25.9675 22.5996 26.244 22.6024 26.4771 22.6141L26.5774 20.6167ZM25.673 20.5996C25.1465 20.5996 24.3768 20.794 23.7468 21.4821L25.2219 22.8327C25.4091 22.6283 25.6052 22.5996 25.673 22.5996V20.5996ZM23.7468 21.4821C23.3335 21.9335 21.9243 23.265 21.9243 25.8759H23.9243C23.9243 24.0991 24.8181 23.2738 25.2219 22.8327L23.7468 21.4821ZM21.9243 25.8759C21.9243 27.1979 22.3995 28.44 22.8591 29.3453C23.3259 30.2647 23.8222 30.9238 23.9441 31.0865L25.5446 29.8872C25.4437 29.7525 25.0299 29.2031 24.6424 28.4399C24.2477 27.6625 23.9243 26.7479 23.9243 25.8759H21.9243ZM23.9439 31.0862C23.9415 31.083 23.9439 31.0862 23.9557 31.103C23.9662 31.1178 23.9795 31.1369 23.9972 31.1622C24.0318 31.2118 24.0786 31.279 24.1358 31.3598C24.2505 31.522 24.407 31.7391 24.6028 31.9971C24.9938 32.5123 25.5418 33.191 26.229 33.9237C27.5942 35.3794 29.5516 37.0944 31.9624 38.1353L32.7552 36.2992C28.5797 34.4962 25.8211 30.2564 25.5448 29.8875L23.9439 31.0862ZM31.9623 38.1353C33.0695 38.6135 33.9352 38.8993 34.5975 39.1094L35.2023 37.203C34.5697 37.0023 33.775 36.7396 32.7553 36.2992L31.9623 38.1353ZM34.597 39.1092C35.8639 39.5119 37.004 39.4491 37.8552 39.3218L37.5594 37.3438C36.8748 37.4462 36.0713 37.4792 35.2027 37.2032L34.597 39.1092ZM37.855 39.3219C38.4707 39.2299 39.2646 38.886 39.9331 38.4575C40.5776 38.0445 41.3563 37.3946 41.6579 36.5496L39.7742 35.8773C39.7042 36.0735 39.4068 36.4194 38.8539 36.7737C38.325 37.1127 37.8003 37.3078 37.5596 37.3438L37.855 39.3219ZM41.658 36.5493C41.8728 35.9468 41.9835 35.3793 42.0233 34.9188C42.043 34.6896 42.0465 34.4718 42.0314 34.279C42.0207 34.1413 41.9913 33.8428 41.8336 33.5797L40.1182 34.6079C40.0532 34.4995 40.0365 34.4157 40.0363 34.4148C40.033 34.4001 40.0352 34.4049 40.0375 34.435C40.0422 34.4944 40.0434 34.5996 40.0307 34.7469C40.0054 35.0394 39.9306 35.4388 39.7741 35.8777L41.658 36.5493Z" fill="white"/>
</g>
</svg>
