<svg width="42" height="40" viewBox="0 0 42 40" fill="none" xmlns="http://www.w3.org/2000/svg">
<rect width="5671" height="7600" transform="translate(-929 -3609)" fill="#29292F"/>
<path d="M21.9888 37.6906L21.9888 38.6906L21.9893 38.6906L21.9888 37.6906ZM21.9815 37.6906L21.9811 38.6906H21.9815V37.6906ZM39.8277 19.8519L40.8277 19.8523L40.8277 19.8523L39.8277 19.8519ZM34.6078 7.23176L33.9002 7.93846L33.9003 7.93847L34.6078 7.23176ZM21.9887 2L21.9891 1H21.9887V2ZM4.14956 19.8378L5.14956 19.8382L5.14956 19.8382L4.14956 19.8378ZM6.53077 28.7561L7.49528 29.0201L7.60546 28.6177L7.39691 28.2563L6.53077 28.7561ZM4 38L3.03549 37.7359L2.57804 39.4068L4.25374 38.9673L4 38ZM13.4567 35.5193L13.9355 34.6414L13.587 34.4513L13.2029 34.552L13.4567 35.5193ZM30.9759 24.0938L30.1181 24.6078L30.1182 24.6079L30.9759 24.0938ZM30.3654 23.6925L29.9303 24.5928L29.9303 24.5929L30.3654 23.6925ZM30.716 26.2135L31.6579 26.5496L31.658 26.5493L30.716 26.2135ZM27.7073 28.3328L27.5596 27.3438L27.5594 27.3438L27.7073 28.3328ZM24.8999 28.1562L25.2027 27.2032L25.2023 27.203L24.8999 28.1562ZM22.3588 27.2173L22.7553 26.2992L22.7552 26.2992L22.3588 27.2173ZM14.8225 20.5975L14.0022 21.1694L14.0022 21.1694L14.8225 20.5975ZM14.7444 20.4868L15.5448 19.8875L15.5446 19.8872L14.7444 20.4868ZM14.7408 20.4821L15.541 19.8824L15.541 19.8823L14.7408 20.4821ZM14.3971 12.2512L13.6674 11.5674L13.6674 11.5674L14.3971 12.2512ZM14.4844 12.1574L15.2219 12.8327L15.2219 12.8327L14.4844 12.1574ZM16.5273 11.6154L16.4771 12.6141L16.4772 12.6141L16.5273 11.6154ZM16.6271 11.6166L16.6212 10.6166L16.6212 10.6166L16.6271 11.6166ZM17.5301 12.3805L18.4534 11.9963L18.4533 11.9962L17.5301 12.3805ZM18.0226 13.5755L17.0976 13.9554L17.0976 13.9554L18.0226 13.5755ZM18.9044 15.6902L18.0098 16.137L18.0098 16.1371L18.9044 15.6902ZM18.9416 16.4711L19.8361 16.9182L19.8363 16.9177L18.9416 16.4711ZM18.8789 16.5981L17.9809 16.1582L17.9809 16.1582L18.8789 16.5981ZM18.4959 17.2146L17.7364 16.5641L17.7364 16.5641L18.4959 17.2146ZM18.2674 17.4891L17.4946 16.8545L17.4946 16.8545L18.2674 17.4891ZM17.8272 17.9956L18.533 18.7041L18.533 18.704L17.8272 17.9956ZM20.1115 21.993L19.4458 22.7393L19.4458 22.7393L20.1115 21.993ZM23.4014 24.0727L23.0035 24.9901L23.0035 24.9901L23.4014 24.0727ZM23.696 24.2054L24.1439 23.3113L24.1436 23.3111L23.696 24.2054ZM24.6616 24.0938L25.4144 24.7521L25.4145 24.752L24.6616 24.0938ZM26.073 22.3461L25.2407 21.7917L25.2406 21.7918L26.073 22.3461ZM27.0758 22.123L27.4182 21.1834L27.4179 21.1833L27.0758 22.123ZM30.1217 23.5732L30.5694 22.679L30.5692 22.6789L30.1217 23.5732ZM21.9888 36.6906H21.9815V38.6906H21.9888V36.6906ZM38.8277 19.8515C38.824 29.133 31.2719 36.6869 21.9884 36.6906L21.9893 38.6906C32.3768 38.6864 40.8235 30.2376 40.8277 19.8523L38.8277 19.8515ZM33.9003 7.93847C37.0808 11.1226 38.8295 15.3501 38.8277 19.8515L40.8277 19.8523C40.8297 14.8207 38.8707 10.0844 35.3153 6.52505L33.9003 7.93847ZM21.9882 3C26.4953 3.00195 30.7199 4.75436 33.9002 7.93846L35.3153 6.52507C31.7597 2.96531 27.0263 1.00217 21.9891 1L21.9882 3ZM5.14956 19.8382C5.15326 10.5543 12.7085 3 21.9887 3V1C11.6036 1 3.1537 9.4499 3.14956 19.8374L5.14956 19.8382ZM7.39691 28.2563C5.92384 25.7034 5.1483 22.8072 5.14956 19.8382L3.14956 19.8374C3.14815 23.1565 4.01549 26.3979 5.66462 29.2558L7.39691 28.2563ZM4.96451 38.2641L7.49528 29.0201L5.56626 28.492L3.03549 37.7359L4.96451 38.2641ZM13.2029 34.552L3.74626 37.0327L4.25374 38.9673L13.7104 36.4866L13.2029 34.552ZM21.9818 36.6906C19.163 36.6897 16.394 35.9824 13.9355 34.6414L12.9778 36.3972C15.7305 37.8987 18.8287 38.6896 21.9811 38.6906L21.9818 36.6906ZM31.8337 23.5799C31.666 23.3 31.4292 23.1346 31.2762 23.0408C31.1218 22.9461 30.9405 22.8597 30.8006 22.7921L29.9303 24.5929C30.0103 24.6315 30.0719 24.6614 30.1258 24.6888C30.1795 24.7161 30.2116 24.7341 30.2311 24.746C30.2509 24.7582 30.2435 24.7556 30.2234 24.7377C30.2016 24.7184 30.1591 24.6762 30.1181 24.6078L31.8337 23.5799ZM31.658 26.5493C31.8728 25.9468 31.9835 25.3793 32.0233 24.9188C32.043 24.6896 32.0465 24.4718 32.0314 24.279C32.0207 24.1413 31.9913 23.8428 31.8336 23.5797L30.1182 24.6079C30.0532 24.4995 30.0365 24.4157 30.0363 24.4148C30.033 24.4001 30.0352 24.4049 30.0375 24.435C30.0422 24.4944 30.0434 24.5996 30.0307 24.7469C30.0054 25.0394 29.9306 25.4388 29.7741 25.8777L31.658 26.5493ZM27.855 29.3219C28.4707 29.2299 29.2646 28.886 29.9331 28.4575C30.5776 28.0445 31.3563 27.3946 31.6579 26.5496L29.7742 25.8773C29.7042 26.0735 29.4068 26.4194 28.8539 26.7737C28.325 27.1127 27.8003 27.3078 27.5596 27.3438L27.855 29.3219ZM24.597 29.1092C25.8639 29.5119 27.004 29.4491 27.8552 29.3218L27.5594 27.3438C26.8748 27.4462 26.0713 27.4792 25.2027 27.2032L24.597 29.1092ZM21.9623 28.1353C23.0695 28.6135 23.9352 28.8993 24.5975 29.1094L25.2023 27.203C24.5697 27.0023 23.775 26.7396 22.7553 26.2992L21.9623 28.1353ZM14.0022 21.1694C14.5325 21.9299 17.4962 26.2069 21.9624 28.1353L22.7552 26.2992C18.864 24.619 16.1799 20.7959 15.6428 20.0255L14.0022 21.1694ZM13.9439 21.0862C13.9418 21.0834 13.9418 21.0833 13.9448 21.0876C13.9476 21.0915 13.9516 21.0971 13.9572 21.105C13.9686 21.1213 13.983 21.1419 14.0022 21.1694L15.6428 20.0255C15.6118 19.9811 15.5725 19.9244 15.5448 19.8875L13.9439 21.0862ZM13.9405 21.0817L13.9441 21.0865L15.5446 19.8872L15.541 19.8824L13.9405 21.0817ZM11.9243 15.8759C11.9243 17.1912 12.3947 18.4272 12.8518 19.3308C13.3159 20.2482 13.8111 20.909 13.9406 21.0818L15.541 19.8823C15.4346 19.7404 15.0216 19.1894 14.6364 18.428C14.2443 17.6529 13.9243 16.7432 13.9243 15.8759H11.9243ZM13.6674 11.5674C13.1511 12.1183 11.9243 13.4341 11.9243 15.8759H13.9243C13.9243 14.2114 14.7146 13.3748 15.1268 12.935L13.6674 11.5674ZM13.7468 11.4821C13.7253 11.5056 13.7003 11.5323 13.6674 11.5674L15.1268 12.935C15.1575 12.9022 15.191 12.8664 15.2219 12.8327L13.7468 11.4821ZM15.673 10.5996C15.1465 10.5996 14.3768 10.794 13.7468 11.4821L15.2219 12.8327C15.4091 12.6283 15.6052 12.5996 15.673 12.5996V10.5996ZM16.5774 10.6167C16.2912 10.6023 15.9727 10.5996 15.673 10.5996V12.5996C15.9675 12.5996 16.244 12.6024 16.4771 12.6141L16.5774 10.6167ZM16.6212 10.6166C16.6028 10.6167 16.5926 10.6168 16.5839 10.6167C16.5758 10.6167 16.5746 10.6165 16.5774 10.6167L16.4772 12.6141C16.5422 12.6174 16.6042 12.6168 16.633 12.6166L16.6212 10.6166ZM18.4533 11.9962C18.2551 11.5201 17.9883 11.112 17.5839 10.8608C17.1621 10.5988 16.7486 10.6159 16.6212 10.6166L16.633 12.6166C16.6685 12.6164 16.6805 12.6165 16.6895 12.6168C16.6959 12.6171 16.6887 12.6171 16.6736 12.6147C16.6575 12.6121 16.6341 12.607 16.6066 12.5971C16.5787 12.5872 16.5522 12.5744 16.5286 12.5597C16.4798 12.5294 16.4684 12.5068 16.4857 12.5303C16.5053 12.557 16.5489 12.6255 16.607 12.7649L18.4533 11.9962ZM18.9476 13.1955C18.7583 12.7347 18.5774 12.2943 18.4534 11.9963L16.6069 12.7648C16.7287 13.0574 16.9075 13.4927 17.0976 13.9554L18.9476 13.1955ZM19.7991 15.2434C19.802 15.2493 19.7961 15.2374 19.7764 15.1925C19.7592 15.1535 19.7369 15.1014 19.7095 15.0371C19.6549 14.9086 19.5843 14.7395 19.503 14.5437C19.3406 14.1524 19.1396 13.6629 18.9476 13.1955L17.0976 13.9554C17.466 14.8525 17.9135 15.9441 18.0098 16.137L19.7991 15.2434ZM19.8363 16.9177C20.1885 16.2122 19.9726 15.5909 19.799 15.2433L18.0098 16.1371C18.0233 16.164 18.0286 16.1782 18.0303 16.1832C18.0317 16.1874 18.0283 16.1785 18.0262 16.1591C18.024 16.1385 18.024 16.1118 18.0291 16.0827C18.0342 16.0535 18.0424 16.0334 18.0469 16.0245L19.8363 16.9177ZM19.777 17.038C19.7969 16.9973 19.8158 16.9587 19.8361 16.9182L18.0471 16.024C18.0227 16.0728 18.0004 16.1184 17.9809 16.1582L19.777 17.038ZM19.2554 17.8651C19.5328 17.5412 19.6608 17.2753 19.777 17.038L17.9809 16.1582C17.874 16.3765 17.8377 16.4458 17.7364 16.5641L19.2554 17.8651ZM19.0403 18.1237C19.1186 18.0283 19.1889 17.9428 19.2554 17.8651L17.7364 16.5641C17.6539 16.6604 17.5702 16.7624 17.4946 16.8545L19.0403 18.1237ZM18.533 18.704C18.7097 18.528 18.8979 18.297 19.0403 18.1237L17.4946 16.8545C17.3302 17.0546 17.2118 17.1971 17.1215 17.2871L18.533 18.704ZM18.4959 18.4018C18.4826 18.379 18.5041 18.4077 18.5133 18.4799C18.5234 18.5597 18.5123 18.6434 18.4857 18.7148C18.4626 18.7768 18.4368 18.806 18.4442 18.7967C18.4546 18.7839 18.474 18.7628 18.533 18.7041L17.1215 17.2871C17.0367 17.3716 16.7532 17.6353 16.611 18.018C16.4333 18.4963 16.5186 18.9809 16.7678 19.4087L18.4959 18.4018ZM20.7771 21.2468C19.5706 20.1705 18.7393 18.8195 18.4959 18.4018L16.7678 19.4087C17.0444 19.8834 18.0022 21.4516 19.4458 22.7393L20.7771 21.2468ZM23.7993 23.1553C23.2064 22.8981 22.0831 22.4117 20.7771 21.2468L19.4458 22.7393C20.9886 24.1154 22.3414 24.703 23.0035 24.9901L23.7993 23.1553ZM24.1436 23.3111C24.0404 23.2595 23.9113 23.2039 23.7993 23.1553L23.0035 24.9901C23.1366 25.0479 23.206 25.0784 23.2484 25.0996L24.1436 23.3111ZM23.9088 23.4356C23.8893 23.4579 23.8988 23.4416 23.9392 23.4167C23.9861 23.3878 24.052 23.3613 24.1278 23.3521C24.1987 23.3435 24.243 23.3543 24.2455 23.355C24.2463 23.3552 24.2385 23.3532 24.2206 23.3462C24.2028 23.3392 24.1776 23.3282 24.1439 23.3113L23.2481 25.0995C23.537 25.2442 23.9269 25.3912 24.369 25.3375C24.8519 25.2789 25.189 25.01 25.4144 24.7521L23.9088 23.4356ZM25.2406 21.7918C24.987 22.1727 24.1802 23.1251 23.9087 23.4357L25.4145 24.752C25.6631 24.4676 26.5648 23.4118 26.9053 22.9003L25.2406 21.7918ZM27.4179 21.1833C27.2437 21.1199 26.8506 20.9686 26.4189 21.018C25.8769 21.08 25.4967 21.4074 25.2407 21.7917L26.9053 22.9004C26.9319 22.8604 26.9249 22.8835 26.8726 22.9202C26.8454 22.9394 26.81 22.9593 26.7674 22.9754C26.7248 22.9916 26.6833 23.0008 26.6463 23.005C26.5759 23.0131 26.5389 23.001 26.5622 23.0064C26.5889 23.0126 26.6356 23.0269 26.7338 23.0627L27.4179 21.1833ZM30.5692 22.6789C30.3415 22.5649 29.6779 22.2375 29.0196 21.9197C28.393 21.6172 27.6828 21.2798 27.4182 21.1834L26.7335 23.0626C26.8775 23.115 27.4674 23.3912 28.1501 23.7208C28.8011 24.0351 29.4561 24.3583 29.6741 24.4674L30.5692 22.6789ZM30.8006 22.7921C30.7246 22.7554 30.6493 22.719 30.5694 22.679L29.6739 24.4673C29.7681 24.5145 29.8555 24.5567 29.9303 24.5928L30.8006 22.7921Z" fill="white"/>
</svg>
