<svg xmlns="http://www.w3.org/2000/svg" width="30" height="30"><path d="M15-.01a15 15 0 1 0 15 15 15 15 0 0 0-15-15zm0 27.66a12.655 12.655 0 1 1 12.656-12.66A12.659 12.659 0 0 1 15 27.65zm0-20.16a7.5 7.5 0 1 0 7.5 7.5 7.508 7.508 0 0 0-7.5-7.5zm4.6 3.89a5.813 5.813 0 0 1 1.248 3.34 11.552 11.552 0 0 0-2.392-.27h-.011a10.093 10.093 0 0 0-1.7.15c-.13-.32-.26-.62-.391-.91a9.118 9.118 0 0 0 3.241-2.31zM15 9.14a5.834 5.834 0 0 1 3.649 1.29 7.572 7.572 0 0 1-2.874 2.05 20.928 20.928 0 0 0-2.019-3.2A6.354 6.354 0 0 1 15 9.14zm-2.585.61a18 18 0 0 1 2.088 3.19 17.077 17.077 0 0 1-4.621.64h-.559a5.9 5.9 0 0 1 3.092-3.83zm-3.266 5.24v-.08c.166.01.38.01.639.01a18.358 18.358 0 0 0 5.311-.76c.114.25.226.51.337.77a9.317 9.317 0 0 0-3.294 1.95 9.946 9.946 0 0 0-1.613 1.88 5.812 5.812 0 0 1-1.38-3.77zM15 20.85a5.77 5.77 0 0 1-3.477-1.16 8.656 8.656 0 0 1 1.358-1.67 8.069 8.069 0 0 1 3.041-1.84 29.156 29.156 0 0 1 1.155 4.28 5.747 5.747 0 0 1-2.077.39zm3.311-1.04a29.778 29.778 0 0 0-1.079-3.93 7.682 7.682 0 0 1 1.2-.09h.017a10.358 10.358 0 0 1 2.3.28 5.859 5.859 0 0 1-2.438 3.74z" fill="#b2b2b2" fill-rule="evenodd"/></svg>