<svg xmlns="http://www.w3.org/2000/svg" width="30.844" height="30.84"><path d="M15.416.01a15.415 15.415 0 1 0 15.417 15.41A15.413 15.413 0 0 0 15.416.01zm0 28.42a13.005 13.005 0 1 1 13.008-13.01 13.005 13.005 0 0 1-13.008 13.01zm1.329-20.24a5.415 5.415 0 0 0 .755-.48h-5.016c-1 0-3.8 1.14-3.8 3.8s2.894 3.24 3.944 3.2a1.215 1.215 0 0 0 .232 1.71c.314.34.25.44-.126.44s-5.036.05-5.036 3.39 6.189 3.57 8.223 1.78a3.357 3.357 0 0 0 .021-5.4c-1.573-1.12-2.16-1.65-1.153-2.54s1.8-1.6 1.8-3.25a3.119 3.119 0 0 0-1.364-2.5 2.938 2.938 0 0 0 1.52-.15zm-.777 11.89c0 1.44-1.221 2.14-3.295 2.14s-3.188-1.04-3.188-2.58 1.511-2.31 4.343-2.31c.772.59 2.14 1.31 2.14 2.75zm-3-6.03c-2.5 0-3.63-5.83-.692-5.83 2.286-.09 4.006 5.83.692 5.83zm8.275-4.41V7.75h-.981v1.89h-1.919v.99h1.919v1.9h.981v-1.9h1.887v-.99h-1.887z" fill="#b2b2b2" fill-rule="evenodd"/></svg>