<svg xmlns="http://www.w3.org/2000/svg" width="30.5" height="30.5"><path d="M15.25 0A15.25 15.25 0 1 0 30.5 15.25 15.251 15.251 0 0 0 15.25 0zm0 28.12a12.87 12.87 0 1 1 12.867-12.87A12.867 12.867 0 0 1 15.25 28.12zm-7.619-5.25h2.859V11.43H7.631v11.44zm11.437-11.44a5.241 5.241 0 0 0-3.812 1.91v-1.91H12.4v11.44h2.86V16.2a2.427 2.427 0 0 1 2.859-1.91c1.212.08 1.865 1.68 1.906 1.91v6.67l2.848.01v-7.92a3.567 3.567 0 0 0-3.805-3.53zM9.06 7.62a1.43 1.43 0 1 0 1.43 1.43 1.429 1.429 0 0 0-1.43-1.43z" fill="#b2b2b2" fill-rule="evenodd"/></svg>