<svg xmlns="http://www.w3.org/2000/svg" width="47.19" height="54.16"><path data-name="Forma 1" d="M46.99 35.96l-4.05-12a6.719 6.719 0 0 0-3.5-10.33L35.38 1.62A1.968 1.968 0 0 0 33.5.01c-1.25 0-1.93 1.23-2.32 2.39-2.92 11.66-16.11 15.41-16.33 15.47a2.9 2.9 0 0 0-1.91 1.69 2.81 2.81 0 0 0 .1 2.14l4.06 11.99a2.808 2.808 0 0 0 2.75 2 3.29 3.29 0 0 0 1.06-.17 30.507 30.507 0 0 1 9.69-1.7c8.27 0 12.83 4.1 12.87 4.14l.22.17a3.547 3.547 0 0 0 1.76.61 1.71 1.71 0 0 0 1.46-.75 2.15 2.15 0 0 0 .08-2.03zm-16.39-5.1a32.827 32.827 0 0 0-10.69 1.89l-4.08-12.07c1.41-.41 13.62-4.23 17.61-15.52l3.74 11.04 2.4 7.1 3.69 10.89a24.46 24.46 0 0 0-12.67-3.33zm-15.13 9.8s.79-2.55.4-3.73L11.22 22.9a1.486 1.486 0 0 0-2.14-1.13l-5.76 1.95s-4.49 1.74-3 6.15l2.05 6.06S4 41.05 8.46 39.54c0 0 1.76-.52 2.55 2.31l3.7 10.96a1.53 1.53 0 0 0 2.08 1.26s5.43-.95 1.09-5.34c1.26-2.65-2.41-4.43-2.41-8.07zm17.32-28.82a1.177 1.177 0 0 0-1.31 1.01c-.6 4.71-7.58 6.68-7.65 6.7a1.177 1.177 0 0 0 .31 2.31 1.757 1.757 0 0 0 .31-.04c.35-.1 8.56-2.41 9.36-8.67a1.18 1.18 0 0 0-1.02-1.31z" fill-rule="evenodd"/></svg>