<svg xmlns="http://www.w3.org/2000/svg" width="33.688" height="54.25"><path data-name="Forma 1" d="M20.872 3.96a1.076 1.076 0 0 0-1.084-1.07H13.9a1.076 1.076 0 0 0-1.084 1.07v.03A1.076 1.076 0 0 0 13.9 5.06h5.886a1.076 1.076 0 0 0 1.084-1.07v-.03zM29.292 0H4.4A4.367 4.367 0 0 0 .006 4.34v45.57A4.373 4.373 0 0 0 4.4 54.25h24.895a4.373 4.373 0 0 0 4.394-4.34V4.34A4.366 4.366 0 0 0 29.292 0zM16.845 52.62a2.35 2.35 0 1 1 2.38-2.35 2.366 2.366 0 0 1-2.38 2.35zm13.179-7.05a.725.725 0 0 1-.732.72H4.4a.725.725 0 0 1-.732-.72V8.68a.734.734 0 0 1 .732-.73h24.895a.734.734 0 0 1 .732.73v36.89zm-15.559-7.96a.907.907 0 0 0-.769 1.4l-1.5 1.91a.918.918 0 0 0-.289-.05.939.939 0 0 0-.548.18l-1.863-1.23a.817.817 0 0 0 .032-.22.916.916 0 0 0-1.831 0 .88.88 0 0 0 .122.44L6.39 41.66a.959.959 0 0 0-.34-.07.905.905 0 1 0 .916.9.88.88 0 0 0-.122-.44l1.428-1.61a.965.965 0 0 0 .341.07.947.947 0 0 0 .548-.19l1.863 1.23a.78.78 0 0 0-.032.22.916.916 0 0 0 1.831 0 .894.894 0 0 0-.147-.49l1.5-1.91a.923.923 0 0 0 .289.05.905.905 0 1 0 0-1.81zm-4.21-14.83v-3.25a3.638 3.638 0 0 0-3.661 3.61h3.295a.362.362 0 0 0 .366-.36zm3.612.97a3.625 3.625 0 0 0-2.88-4.15v3.54a.733.733 0 0 1-.732.73H6.668a3.671 3.671 0 0 0 7.199-.12zM8.79 13.02h2.2v4.34h-2.2v-4.34zm-2.928 2.17h2.2v2.17h-2.2v-2.17zm5.857-5.07h2.2v7.24h-2.2v-7.24zm5.852 5.79H27.1a.721.721 0 0 0 .725-.72v-.01a.726.726 0 0 0-.725-.72h-9.525a.727.727 0 0 0-.726.72v.01a.721.721 0 0 0 .722.72zM10.48 36.2v-.77a1.729 1.729 0 0 0 1.635-1.71c0-1.88-2.854-1.7-2.854-2.7a.8.8 0 0 1 .905-.71 2.2 2.2 0 0 1 1.33.52l.474-.88a2.426 2.426 0 0 0-1.49-.61v-.77h-.729v.79a1.743 1.743 0 0 0-1.592 1.68c0 1.8 2.862 1.7 2.862 2.7a.762.762 0 0 1-.871.72 2.413 2.413 0 0 1-1.5-.63l-.594.81a2.819 2.819 0 0 0 1.694.79v.77h.729zm16.622-7.27h-9.526a.721.721 0 0 0-.724.72v.01a.72.72 0 0 0 .724.72H27.1a.721.721 0 0 0 .726-.72v-.01a.721.721 0 0 0-.726-.72zm0-5.06h-9.526a.719.719 0 0 0-.724.71v.02a.718.718 0 0 0 .724.71H27.1a.719.719 0 0 0 .726-.71v-.02a.719.719 0 0 0-.726-.71zm-9.531-11.58H27.1a.719.719 0 0 0 .725-.71v-.02a.718.718 0 0 0-.725-.71h-9.525a.719.719 0 0 0-.726.71v.02a.719.719 0 0 0 .722.71zm9.531 28.94h-9.526a.721.721 0 0 0-.724.72v.01a.727.727 0 0 0 .724.72H27.1a.721.721 0 0 0 .726-.72v-.01a.721.721 0 0 0-.726-.72zm0-3.62h-9.526a.721.721 0 0 0-.724.72v.01a.72.72 0 0 0 .724.72H27.1a.721.721 0 0 0 .726-.72v-.01a.721.721 0 0 0-.726-.72zm0-5.06h-9.526a.719.719 0 0 0-.724.71v.02a.718.718 0 0 0 .724.71H27.1a.719.719 0 0 0 .726-.71v-.02a.719.719 0 0 0-.726-.71zm0-12.3h-9.526a.721.721 0 0 0-.724.72v.01a.72.72 0 0 0 .724.72H27.1a.721.721 0 0 0 .726-.72v-.01a.721.721 0 0 0-.726-.72z" fill-rule="evenodd"/></svg>