<svg xmlns="http://www.w3.org/2000/svg" width="56.406" height="45.84"><path data-name="Forma 1" d="M16.747 26.45a11.46 11.46 0 1 0 11.459-11.47 11.457 11.457 0 0 0-11.459 11.47zm36.141-19.4H40.547C39.666 3.53 38.784 0 35.258 0h-14.1c-3.526 0-4.407 3.53-5.289 7.05H3.524a3.54 3.54 0 0 0-3.526 3.53v31.73a3.54 3.54 0 0 0 3.526 3.53h49.364a3.539 3.539 0 0 0 3.526-3.53V10.58a3.539 3.539 0 0 0-3.526-3.53zM28.206 42.09a15.645 15.645 0 1 1 15.647-15.64 15.642 15.642 0 0 1-15.647 15.64zm24.682-24.46h-7.052V14.1h7.052v3.53z" fill-rule="evenodd"/></svg>