<svg xmlns="http://www.w3.org/2000/svg" width="31.5" height="31.5"><path d="M15.75 0A15.75 15.75 0 1 0 31.5 15.75 15.749 15.749 0 0 0 15.75 0zm0 29.04a13.29 13.29 0 1 1 13.289-13.29A13.289 13.289 0 0 1 15.75 29.04zm7.875-18.52a5.614 5.614 0 0 1-1.8.55 3.75 3.75 0 0 0 1.354-1.9 5.083 5.083 0 0 1-2.027.77 3.123 3.123 0 0 0-2.35-1.08 3.384 3.384 0 0 0-3.249 3.5 3.751 3.751 0 0 0 .083.78 9.142 9.142 0 0 1-6.883-3.63 3.66 3.66 0 0 0 .985 4.62 2.019 2.019 0 0 1-1.419-.39 3.356 3.356 0 0 0 2.506 3.42 2.472 2.472 0 0 1-1.352.11 3.123 3.123 0 0 0 2.9 2.37 5.08 5.08 0 0 1-4.5 1.45 9.249 9.249 0 0 0 5.082 1.55c5.242 0 9.313-4.57 9.094-10.22a.117.117 0 0 1 0-.02v-.09a5.967 5.967 0 0 0 1.576-1.79z" fill="#b2b2b2" fill-rule="evenodd"/></svg>