<svg width="137" height="120" viewBox="0 0 137 120" fill="none" xmlns="http://www.w3.org/2000/svg">
<path d="M70.1724 58.8234L81.9864 63.5292L85.4877 60.9128L87.8946 72.9411L84.3488 75.2939L67.8076 72.9411L44.1772 98.8233L39.7161 103.244L30.2642 112.656L27.6147 115.294L21.1748 107.588L23.1749 105.598L32.6265 96.1856L25.5373 89.127L16.0854 96.1856L13.0196 99.2399L6.34668 91.7644L8.99612 89.127L18.4478 79.7151L22.9113 75.2939L37.0901 61.1764L24.8925 61.2492L23.0312 62.1576L21.702 51.0918L25.0996 49.4163L41.8148 49.5623L50.8805 49.4163L70.1724 58.8234Z" fill="#D9D9D9"/>
<path d="M63.0837 58.8229C78.7422 58.8229 91.4359 46.1817 91.4359 30.588C91.4359 14.9942 78.7422 2.35303 63.0837 2.35303C47.4252 2.35303 34.7314 14.9942 34.7314 30.588C34.7314 46.1817 47.4252 58.8229 63.0837 58.8229Z" fill="#D9D9D9"/>
<path d="M60.3888 32.9413L68.7534 5.17652L69.5416 3.11774C67.4639 2.6353 65.3086 2.35303 63.0827 2.35303C47.4217 2.35303 34.7275 14.9955 34.7275 30.5883C34.7275 46.1811 47.4241 58.8235 63.0827 58.8235C73.4827 58.8235 82.5508 53.2306 87.485 44.9176L86.9767 44.706L60.3888 32.9413Z" fill="#D9D9D9"/>
<path d="M122.499 0L126.814 8.74823L136.468 10.1508L129.482 16.9602L131.132 26.5741L122.499 22.033L113.863 26.5741L115.513 16.9602L108.527 10.1508L118.181 8.74823L122.499 0Z" fill="#FBB540"/>
<path d="M112.939 79.9998H108.233V84.7056H112.939V79.9998Z" fill="#F7E4BA"/>
<path d="M112.939 89.4114H108.233V94.1172H112.939V89.4114Z" fill="#F7E4BA"/>
<path d="M117.646 84.707H112.94V89.4129H117.646V84.707Z" fill="#F7E4BA"/>
<path d="M108.234 84.707H103.528V89.4129H108.234V84.707Z" fill="#F7E4BA"/>
<path d="M96.4685 105.881H91.7627V110.587H96.4685V105.881Z" fill="#EA6B65"/>
<path d="M96.4685 115.293H91.7627V119.999H96.4685V115.293Z" fill="#EA6B65"/>
<path d="M101.173 110.588H96.4673V115.294H101.173V110.588Z" fill="#EA6B65"/>
<path d="M91.7615 110.588H87.0557V115.294H91.7615V110.588Z" fill="#EA6B65"/>
<path d="M68.2337 96.4695H63.5278V101.175H68.2337V96.4695Z" fill="#F7E4BA"/>
<path d="M68.2337 105.881H63.5278V110.587H68.2337V105.881Z" fill="#F7E4BA"/>
<path d="M72.9382 101.177H68.2324V105.882H72.9382V101.177Z" fill="#F7E4BA"/>
<path d="M63.5266 101.177H58.8208V105.882H63.5266V101.177Z" fill="#F7E4BA"/>
<path d="M23.5261 16.4717H18.8203V21.1775H23.5261V16.4717Z" fill="#B3E4E8"/>
<path d="M23.5261 25.8833H18.8203V30.5891H23.5261V25.8833Z" fill="#B3E4E8"/>
<path d="M28.2337 21.176H23.5278V25.8819H28.2337V21.176Z" fill="#B3E4E8"/>
<path d="M18.8211 21.176H14.1152V25.8819H18.8211V21.176Z" fill="#B3E4E8"/>
<path d="M59.7989 39.9999C63.0625 39.9999 65.7082 37.3661 65.7082 34.1172C65.7082 30.8684 63.0625 28.2346 59.7989 28.2346C56.5353 28.2346 53.8896 30.8684 53.8896 34.1172C53.8896 37.3661 56.5353 39.9999 59.7989 39.9999Z" fill="#3B869E"/>
<path d="M69.541 3.11768L68.7529 5.17646L60.3882 32.9412L86.9764 44.7059L87.4847 44.9176C89.9812 40.7128 91.4376 35.8258 91.4376 30.5882C91.4376 17.2093 82.0846 6.03073 69.541 3.11768Z" fill="#497BD2"/>
<path d="M81.9858 63.5294L91.4377 56.4708L94.9081 53.8118L101.814 62.8025L98.527 65.8825L84.3482 75.2941L81.9858 63.5294Z" fill="#F27E55"/>
<path d="M91.438 56.4708L98.5275 65.8825L104.137 60.6259C106.182 58.7106 106.464 55.5718 104.793 53.3248C102.949 50.8449 99.4194 50.3531 96.9629 52.2354L91.438 56.4708Z" fill="#B9B9B9"/>
<path d="M24.7859 61.2516L14.2963 66.6656L11.7623 68.0141L7.54346 58.04L10.8094 56.4706L25.0988 49.4163L24.7859 61.2516Z" fill="#F27E55"/>
<path d="M14.2965 66.6658L10.8096 56.4705L2.45902 60.487C0.124899 62.0423 -0.670467 65.0894 0.607343 67.5811C2.01682 70.3294 5.41685 71.3905 8.15079 69.9362L14.2965 66.6658Z" fill="#B9B9B9"/>
<path d="M8.99518 89.1272L3.08697 95.0095C1.12921 96.9577 1.12921 100.12 3.08697 102.068C5.04474 104.017 8.21874 104.017 10.1765 102.068L16.0847 96.1861L8.99518 89.1272Z" fill="#B9B9B9"/>
<path d="M23.1744 105.598L30.2639 112.657L24.3557 118.539C22.3979 120.487 19.2239 120.487 17.2662 118.539C15.3084 116.591 15.3084 113.428 17.2662 111.48L23.1744 105.598Z" fill="#B9B9B9"/>
<path d="M46.541 63.5293L37.0894 72.9412L46.541 82.3529L55.9929 72.9412L46.541 63.5293Z" fill="#277BAA"/>
<path d="M84.6021 25.8825H79.8963C79.8963 18.3956 72.5434 16.4802 72.2305 16.4027L73.3646 11.8357C77.254 12.8003 84.6021 16.9837 84.6021 25.8825Z" fill="#B3E4E8"/>
<path d="M84.6018 30.5881H79.896V35.294H84.6018V30.5881Z" fill="#B3E4E8"/>
<path d="M46.0921 94.7926L24.5794 73.6328L22.9652 75.2374L21.2617 76.9715L42.6876 98.0375L43.758 99.2399L44.177 98.8233L46.965 95.7693L46.0921 94.7926Z" fill="#F27E55"/>
</svg>
