<svg width="120" height="126" viewBox="0 0 120 126" fill="none" xmlns="http://www.w3.org/2000/svg">
<path d="M69.9662 82.8996C60.3614 77.4994 51.4504 83.0191 45.8862 90.7013C44.9783 91.9537 44.1872 93.2497 43.4399 94.5596C43.659 95.0536 43.8708 95.5316 44.1117 96.0716C46.8427 102.173 54.3591 115.554 63.4259 113.015C68.0117 111.73 70.4262 106.815 72.337 103.108C73.8217 100.229 76.6525 95.8005 78.0497 91.8893C76.268 88.27 73.8217 85.0666 69.9662 82.8996Z" fill="#C6BDAF"/>
<path d="M102.514 5.54253C92.0161 -0.832054 77.6357 -1.71907 65.7065 2.93893C65.2683 3.10898 64.8497 3.29971 64.4188 3.43988C62.1503 4.18213 60.9771 4.70377 60.0059 4.95885L50.4937 18.9283L65.0979 30.4181L50.4937 46.504L65.0979 57.9939L50.4937 71.7817L60.1544 80.9024C63.2602 80.4681 66.5681 80.9897 69.966 82.9016C79.6073 88.3226 80.6272 100.093 83.7598 109.204C86.3082 116.618 92.7731 134.142 100.886 120.722C106.012 112.24 107.879 102.609 110.113 93.2012C115.251 71.5519 124.055 45.3182 117.89 23.3174C115.841 15.9983 109.602 9.84435 102.514 5.54253Z" fill="#DDD3C3" fill-opacity="0.66"/>
<path d="M60.1546 80.9024L50.4938 71.7817L65.0981 57.9939L50.4938 46.504L65.0981 30.4181L50.4938 18.9283L60.0061 4.95886C58.5895 5.33113 57.5988 5.1381 54.2812 4.21662C44.545 1.5073 31.221 -0.567772 21.4946 2.68616C3.59458 8.67239 -1.99157 28.0099 0.600696 44.2772C4.28585 67.3995 7.21887 92.0499 16.7603 113.803C18.5104 117.79 21.8134 126 26.5744 126C31.0604 124.208 32.8835 120.2 34.5362 116.197C38.1118 107.538 40.2465 98.4911 45.8862 90.7033C49.4837 85.7373 54.4808 81.6952 60.1546 80.9024Z" fill="#ECE3D2" fill-opacity="0.75"/>
<path d="M12.6343 44.8629C11.4514 44.8629 10.4121 44.0471 10.2319 42.905C8.2847 30.6959 11.9991 15.6142 24.7486 11.3469C26.0143 10.9195 27.4066 11.5468 27.8545 12.7441C28.3048 13.9413 27.6403 15.2535 26.3746 15.6763C16.2246 19.0727 13.3865 31.8173 15.0441 42.2248C15.2436 43.4795 14.3284 44.6492 12.9995 44.8399C12.8778 44.8537 12.7561 44.8629 12.6343 44.8629Z" fill="white"/>
</svg>
