<svg width="120" height="127" viewBox="0 0 120 127" fill="none" xmlns="http://www.w3.org/2000/svg">
<path d="M59.9994 15.073C86.035 15.073 107.142 36.18 107.142 62.2159V79.3587C107.142 105.394 86.0352 126.502 59.9994 126.502C33.9637 126.502 12.8564 105.395 12.8564 79.3587V62.2159C12.8567 36.1803 33.9637 15.073 59.9994 15.073Z" fill="#FBCCAD"/>
<path d="M0 68.6443C0 74.5608 4.7979 79.3587 10.7144 79.3587H12.8573V57.9302H10.7141C4.79766 57.9302 0 62.7281 0 68.6443Z" fill="#FAB98F"/>
<path d="M109.286 57.9302H107.143V79.3587H109.286C115.202 79.3587 120 74.5608 120 68.6443C120 62.7278 115.204 57.9302 109.286 57.9302Z" fill="#FAB98F"/>
<path d="M32.1425 68.6359C35.693 68.6359 38.5712 65.7577 38.5712 62.2072C38.5712 58.6568 35.693 55.7786 32.1425 55.7786C28.5921 55.7786 25.7139 58.6568 25.7139 62.2072C25.7139 65.7577 28.5921 68.6359 32.1425 68.6359Z" fill="#497BD2"/>
<path d="M87.8564 68.6359C91.4069 68.6359 94.2851 65.7577 94.2851 62.2072C94.2851 58.6568 91.4069 55.7786 87.8564 55.7786C84.3059 55.7786 81.4277 58.6568 81.4277 62.2072C81.4277 65.7577 84.3059 68.6359 87.8564 68.6359Z" fill="#497BD2"/>
<path d="M38.5713 77.2161H81.4285C81.4285 89.051 71.8349 98.6446 60 98.6446C48.1671 98.6446 38.5713 89.051 38.5713 77.2161Z" fill="#F28585"/>
<path d="M85.5833 36.7161C85.6884 23.6981 75.2206 13.0611 62.2026 12.9561C62.1984 12.9561 62.1962 12.9561 62.192 12.9561L60.049 12.939L56.3934 12.9111C52.4892 12.8854 49.3433 9.69902 49.369 5.7926C49.3777 4.50677 49.7377 3.24688 50.4083 2.14982H49.431C39.964 2.08558 32.2346 9.70544 32.1704 19.1747C32.1553 21.2233 32.5089 23.2591 33.2141 25.1834C35.6718 31.8927 42.034 36.3734 49.1783 36.429L85.5833 36.7161Z" fill="#F9BC61"/>
<path d="M68.205 36.5018H72.5399C71.4814 29.1711 65.2306 23.709 57.825 23.6448L50.1107 23.5869C45.51 23.5442 41.505 20.4349 40.3199 15.9905C39.0042 11.017 41.97 5.9191 46.9436 4.60337C47.7429 4.39112 48.5679 4.28833 49.3949 4.29476L51.4284 4.31823L51.4605 0.0325324L49.4334 0.000411323C41.9228 -0.0574067 35.7877 5.98754 35.7298 13.4982C35.7212 14.7067 35.8734 15.911 36.182 17.079C37.8642 23.3898 43.5513 27.8039 50.0828 27.864L57.797 27.9218C62.8564 27.971 67.1935 31.5453 68.205 36.5018Z" fill="#F8AC4F"/>
<path d="M60.0001 77.2075H51.4287V85.7789H60.0001V77.2075Z" fill="#E6E6E6"/>
<path d="M68.5714 77.2075H60V85.7789H68.5714V77.2075Z" fill="#E6E6E6"/>
<path d="M62.1431 77.2075H57.8574V85.7789H62.1431V77.2075Z" fill="#DEDEDE"/>
<path d="M98.4342 34.9248C98.5157 36.502 98.5713 38.1048 98.5713 39.7163C98.5713 80.5462 72.1885 113.645 39.6429 113.645C34.8623 113.641 30.1094 112.918 25.543 111.502C43.2795 130.545 73.0951 131.604 92.1387 113.867C101.715 104.947 107.152 92.4453 107.143 79.3589V62.2161C107.156 52.434 104.11 42.8918 98.4342 34.9248Z" fill="#FFC096"/>
</svg>
