<svg width="39" height="43" viewBox="0 0 39 43" fill="none" xmlns="http://www.w3.org/2000/svg">
<path d="M21.9759 2.25722C23.645 3.63496 26.3994 5.51472 28.5748 5.51472C29.2745 5.51472 29.8421 6.08228 29.8421 6.78252C29.8421 7.48277 29.2745 8.04978 28.5748 8.04978C24.2889 8.04978 19.5074 3.48657 19.1348 3.12805C14.9951 -0.646647 7.71056 -0.711635 3.85083 2.99374C-0.0088918 6.69858 0.548377 12.9721 2.37128 17.6089C2.94209 18.9471 3.62608 20.235 4.41623 21.4573C4.87385 22.2111 5.33093 22.9682 5.74956 23.754C7.05472 26.0763 7.90227 28.6276 8.24671 31.2693C8.47958 33.877 8.915 36.4618 9.54971 39.0018C10.0631 40.9195 10.7271 42.9601 12.0999 42.9601C12.5765 42.8095 14.3003 40.2983 15.5795 31.1188C16.023 27.9826 17.4592 26.2588 19.8459 25.9923C19.8952 25.9945 19.9445 25.9994 19.9932 26.0064C20.0393 25.9994 20.0858 25.9956 20.1324 25.994C20.3003 26.0124 20.4671 26.04 20.6317 26.0763C22.7249 26.5036 23.9948 28.1992 24.4146 31.1188C25.6948 40.2983 27.411 42.8068 27.9141 42.9601C29.2529 42.9601 29.9206 40.9157 30.4416 39.0002C31.079 36.4608 31.5161 33.8759 31.7484 31.2682C32.0972 28.627 32.9458 26.0763 34.2493 23.7524C34.668 22.9617 35.1294 22.1987 35.5908 21.4367C36.3755 20.2209 37.0546 18.9401 37.6211 17.6089C39.3628 13.186 40.0197 6.70779 36.1383 3.00241C34.6956 1.65229 32.8814 0.765751 30.9296 0.45706C27.8248 -0.0964183 24.6252 0.54696 21.9759 2.25722V2.25722ZM8.472 6.58106C8.29707 6.68504 4.73521 8.8995 6.76336 14.7354C6.91392 15.1632 6.82348 15.6393 6.52724 15.9826C6.23101 16.326 5.77393 16.4852 5.32822 16.3996C4.88251 16.314 4.51696 15.9967 4.36911 15.5678C2.16982 9.24014 5.26756 5.48331 7.21232 4.38069C7.81995 4.03246 8.59439 4.24313 8.94262 4.85077C9.2903 5.4584 9.07963 6.23284 8.472 6.58106V6.58106ZM11.1175 4.93308C10.4178 4.93308 9.85028 4.36553 9.85028 3.66528C9.85028 2.96558 10.4178 2.39802 11.1175 2.39802C11.8178 2.39802 12.3853 2.96558 12.3853 3.66528C12.3853 4.36553 11.8178 4.93308 11.1175 4.93308Z" fill="#00E676"/>
</svg>