<svg width="1091" height="900" viewBox="0 0 1091 900" fill="none" xmlns="http://www.w3.org/2000/svg">
<path fill-rule="evenodd" clip-rule="evenodd" d="M1180.99 -34.0372C1274.16 0.0430005 1336.31 79.4569 1403.47 152.461C1466.68 221.176 1531.92 287.721 1559.12 377.028C1589.19 475.739 1589.73 579.086 1563.83 678.967C1532.51 799.769 1512.95 958.365 1396.64 1003.69C1278.24 1049.83 1171.6 897.159 1045.55 880.951C915.116 864.179 777.263 971.99 661.724 909.19C541.244 843.703 307.599 846.096 306.999 709C306.418 576.4 588.261 341.69 658.749 229.37C720.017 131.739 742.242 0.145749 845.169 -51.7685C947.758 -103.512 1073.08 -73.5126 1180.99 -34.0372Z" fill="#4F8CF7"/>
<path fill-rule="evenodd" clip-rule="evenodd" d="M177 1210C170.593 1111 205.298 862.901 245 772C282.37 686.438 343.33 592.306 414.07 531.384C492.258 464.047 586.602 421.854 688.441 405.25C811.611 385.168 964.62 339.083 1053.02 427.209C1143.01 516.932 1046.34 676.106 1082.37 797.98C1119.65 924.093 1273.92 1006.73 1263.07 1137.78C1251.76 1274.44 1152.58 1406.67 1027.38 1462.53C906.283 1516.56 773.454 1433.97 642.242 1414.8C528.19 1398.13 398.817 1430.89 309.787 1357.65C221.051 1284.66 184.421 1324.67 177 1210Z" fill="#4F8CF7"/>
</svg>
