<svg width="412" height="512" viewBox="0 0 412 512" fill="none" xmlns="http://www.w3.org/2000/svg">
<rect x="106" y="247" width="213" height="176" fill="white"/>
<path d="M256.519 339.023C252.186 339.023 247.853 342.963 247.853 356.158C247.853 369.354 252.186 373.293 256.519 373.293C260.851 373.293 265.184 369.354 265.184 356.158C265.184 342.962 260.851 339.023 256.519 339.023Z" fill="#FF4949"/>
<path d="M155.483 274.029C151.15 274.029 146.817 277.968 146.817 291.164C146.817 304.36 151.15 308.299 155.483 308.299C159.815 308.299 164.148 304.36 164.148 291.164C164.148 277.968 159.815 274.029 155.483 274.029Z" fill="#FF4949"/>
<path d="M355.919 181.64C312.509 133.695 286.711 91.4888 272.712 64.524C257.551 35.3172 252.582 17.2062 252.544 17.0621L248.031 0L231.913 7.18935C230.029 8.02909 185.496 28.338 160.543 78.2431C148.017 103.296 145.512 131.19 145.617 150.177C145.678 161.226 137.849 170.821 127.002 172.99C119.398 174.509 111.575 172.145 106.086 166.656L76.0624 136.633L65.7343 150.874C64.6623 152.352 39.422 187.162 34.827 194.117C12.3882 228.084 0.687833 267.652 0.991101 308.543C1.39746 363.157 22.8744 414.323 61.4655 452.619C100.055 490.911 151.385 512 206.001 512C319.046 511.999 411.014 420.031 411.014 306.986C411.015 265.999 390.933 220.312 355.919 181.64ZM256.519 394.563C235.642 394.563 219.885 380.777 219.885 356.158C219.885 331.737 235.641 317.752 256.519 317.752C277.396 317.752 293.152 331.736 293.152 356.158C293.152 380.777 277.395 394.563 256.519 394.563ZM236.43 254.728H269.714L175.571 392.594H142.287L236.43 254.728ZM118.85 291.164C118.85 266.742 134.606 252.759 155.483 252.759C176.361 252.759 192.117 266.742 192.117 291.164C192.117 315.783 176.361 329.57 155.483 329.57C134.606 329.57 118.85 315.783 118.85 291.164Z" fill="#FF4949"/>
</svg>
