<svg width="62" height="62" viewBox="0 0 62 62" fill="none" xmlns="http://www.w3.org/2000/svg">
<path d="M34.1269 48.6393V49.6393H35.1269V48.6393H34.1269ZM34.1269 32.3178V31.3178H33.1269V32.3178H34.1269ZM27.3738 48.6393H26.3738V49.6393H27.3738V48.6393ZM27.3738 32.3184H28.3738V31.3184H27.3738V32.3184ZM24 32.3184H23V33.3184H24V32.3184ZM24 26.6939V25.6939H23V26.6939H24ZM27.3738 26.6939V27.6939H28.3738V26.6939H27.3738ZM39.1976 16H40.1976V15H39.1976V16ZM39.1976 21.6251V22.6251H40.1976V21.6251H39.1976ZM34.1346 23.8781L35.1346 23.8809V23.8781H34.1346ZM34.1269 26.6933L33.1269 26.6905L33.1242 27.6933H34.1269V26.6933ZM39.2295 26.6933L40.2239 26.7988L40.3413 25.6933H39.2295V26.6933ZM38.6324 32.3178V33.3178H39.5319L39.6268 32.4233L38.6324 32.3178ZM2 31C2 14.9837 14.9837 2 31 2V0C13.8792 0 0 13.8792 0 31H2ZM31 60C14.9837 60 2 47.0163 2 31H0C0 48.1208 13.8792 62 31 62V60ZM60 31C60 47.0163 47.0163 60 31 60V62C48.1208 62 62 48.1208 62 31H60ZM31 2C47.0163 2 60 14.9837 60 31H62C62 13.8792 48.1208 0 31 0V2ZM35.1269 48.6393V32.3178H33.1269V48.6393H35.1269ZM27.3738 49.6393H34.1269V47.6393H27.3738V49.6393ZM26.3738 32.3184V48.6393H28.3738V32.3184H26.3738ZM24 33.3184H27.3738V31.3184H24V33.3184ZM23 26.6939V32.3184H25V26.6939H23ZM27.3738 25.6939H24V27.6939H27.3738V25.6939ZM26.3738 23.317V26.6939H28.3738V23.317H26.3738ZM34.6915 15C31.8299 15 29.6791 15.7228 28.2663 17.2615C26.8693 18.7832 26.3738 20.9108 26.3738 23.317H28.3738C28.3738 21.1346 28.831 19.6038 29.7396 18.6141C30.6325 17.6415 32.1405 17 34.6915 17V15ZM39.1976 15H34.6915V17H39.1976V15ZM40.1976 21.6251V16H38.1976V21.6251H40.1976ZM36.381 22.6251H39.1976V20.6251H36.381V22.6251ZM35.1346 23.8781C35.1346 23.5136 35.1445 23.2614 35.1761 23.0693C35.2063 22.8852 35.2458 22.8298 35.2542 22.819C35.2584 22.8137 35.2664 22.8044 35.2875 22.7908C35.3105 22.7759 35.3564 22.7513 35.4392 22.7254C35.6138 22.6709 35.9054 22.6251 36.381 22.6251V20.6251C35.2761 20.6251 34.2845 20.8154 33.6811 21.584C33.3914 21.9531 33.2643 22.3693 33.2025 22.7451C33.1421 23.113 33.1346 23.5092 33.1346 23.8781H35.1346ZM35.1269 26.696L35.1346 23.8809L33.1346 23.8754L33.1269 26.6905L35.1269 26.696ZM39.2295 25.6933H34.1269V27.6933H39.2295V25.6933ZM39.6268 32.4233L40.2239 26.7988L38.2351 26.5877L37.638 32.2122L39.6268 32.4233ZM34.1269 33.3178H38.6324V31.3178H34.1269V33.3178Z" fill="url(#paint0_linear)"/>
<defs>
<linearGradient id="paint0_linear" x1="31" y1="1" x2="31" y2="61" gradientUnits="userSpaceOnUse">
<stop stop-color="#8941FF"/>
<stop offset="1" stop-color="#8941FF" stop-opacity="0"/>
</linearGradient>
</defs>
</svg>
