<svg width="62" height="62" viewBox="0 0 62 62" fill="none" xmlns="http://www.w3.org/2000/svg">
<g id="Instagram">
<path id="Combined Shape" d="M2 31C2 14.9837 14.9837 2 31 2V0C13.8792 0 0 13.8792 0 31H2ZM31 2C47.0163 2 60 14.9837 60 31H62C62 13.8792 48.1208 0 31 0V2ZM60 31C60 47.0163 47.0163 60 31 60V62C48.1208 62 62 48.1208 62 31H60ZM31 60C14.9837 60 2 47.0163 2 31H0C0 48.1208 13.8792 62 31 62V60Z" fill="white"/>
<path id="Combined Shape_2" d="M29.4101 16.0046H28.4101V17.0062L29.4116 17.0046L29.4101 16.0046ZM30.4456 16.0044L30.4452 17.0044L30.4456 16.0044ZM29.4101 16H30.4101V14.9989L29.4089 15L29.4101 16ZM23.6357 16.1033L23.5905 15.1043L23.5898 15.1044L23.6357 16.1033ZM20.225 16.7366L20.5878 17.6685L20.5884 17.6683L20.225 16.7366ZM16.7382 20.2235L15.806 19.8614L15.806 19.8615L16.7382 20.2235ZM16.1056 23.6338L15.1067 23.5881L15.1066 23.5883L16.1056 23.6338ZM16.1056 38.4765L15.1066 38.5219L15.1066 38.522L16.1056 38.4765ZM16.7382 41.886L15.8061 42.2484L15.8062 42.2487L16.7382 41.886ZM18.1127 43.9972L18.8198 43.2901L18.8198 43.2901L18.1127 43.9972ZM20.225 45.371L19.8629 46.3031L19.8632 46.3032L20.225 45.371ZM23.6357 46.0043L23.5896 47.0032L23.5903 47.0032L23.6357 46.0043ZM38.48 46.0043L38.5254 47.0032L38.5256 47.0032L38.48 46.0043ZM41.8902 45.3713L41.5283 44.4391L41.5265 44.4398L41.8902 45.3713ZM44.001 43.9976L43.2941 43.2903L43.2939 43.2905L44.001 43.9976ZM45.3755 41.8876L44.4435 41.5252L44.4434 41.5255L45.3755 41.8876ZM46.0081 38.478L47.007 38.5237L47.0071 38.5234L46.0081 38.478ZM46.0081 23.6383L47.0071 23.5929L47.0071 23.5929L46.0081 23.6383ZM45.3755 20.2288L46.3076 19.8665L46.3074 19.866L45.3755 20.2288ZM44.001 18.1165L43.2937 18.8234L43.2939 18.8236L44.001 18.1165ZM41.8902 16.7427L42.2523 15.8106L42.2522 15.8106L41.8902 16.7427ZM38.48 16.1102L38.5256 15.1113L38.5254 15.1112L38.48 16.1102ZM40.8624 19.0544V20.0544H41.8624V19.0544H40.8624ZM40.8624 19.0537V18.0537H39.8624V19.0537H40.8624ZM29.4116 17.0046C29.7304 17.0041 30.0735 17.0042 30.4452 17.0044L30.4461 15.0044C30.0749 15.0042 29.7296 15.0041 29.4085 15.0046L29.4116 17.0046ZM28.4101 16V16.0046H30.4101V16H28.4101ZM23.6808 17.1023C25.3563 17.0266 25.9975 17.0038 29.4112 17L29.4089 15C25.976 15.0038 25.3039 15.0269 23.5905 15.1043L23.6808 17.1023ZM20.5884 17.6683C21.1351 17.455 22.0002 17.1795 23.6816 17.1023L23.5898 15.1044C21.6894 15.1917 20.6098 15.5131 19.8616 15.805L20.5884 17.6683ZM18.8198 18.8183C19.3632 18.2748 19.8577 17.9527 20.5878 17.6685L19.8622 15.8047C18.8779 16.1879 18.1479 16.6617 17.4056 17.404L18.8198 18.8183ZM17.6703 20.5855C17.9535 19.8565 18.276 19.3621 18.8198 18.8183L17.4056 17.404C16.6636 18.146 16.1887 18.8761 15.806 19.8614L17.6703 20.5855ZM17.1046 23.6794C17.1814 21.9989 17.4575 21.1336 17.6703 20.5854L15.806 19.8615C15.516 20.6082 15.1936 21.6869 15.1067 23.5881L17.1046 23.6794ZM17 31.0536C17 26.1524 17.0176 25.5921 17.1046 23.6792L15.1066 23.5883C15.0176 25.5479 15 26.1448 15 31.0536H17ZM17.1046 38.4311C17.0176 36.5181 17 35.9548 17 31.0536H15C15 35.9624 15.0176 36.5623 15.1066 38.5219L17.1046 38.4311ZM17.6702 41.5237C17.4574 40.9764 17.1811 40.1113 17.1046 38.431L15.1066 38.522C15.1932 40.4234 15.5161 41.5023 15.8061 42.2484L17.6702 41.5237ZM18.8198 43.2901C18.2759 42.7462 17.954 42.2531 17.6701 41.5234L15.8062 42.2487C16.1897 43.2341 16.6637 43.9624 17.4056 44.7043L18.8198 43.2901ZM20.587 44.4388C19.8575 44.1555 19.3632 43.8335 18.8198 43.2901L17.4056 44.7043C18.1479 45.4466 18.8781 45.9206 19.8629 46.3031L20.587 44.4388ZM23.6818 45.0053C22.0011 44.9278 21.1356 44.6517 20.5868 44.4387L19.8632 46.3032C20.6101 46.5931 21.6885 46.9155 23.5896 47.0032L23.6818 45.0053ZM31.0578 45.1114C26.1577 45.1114 25.5944 45.0923 23.6811 45.0053L23.5903 47.0032C25.5495 47.0923 26.1487 47.1114 31.0578 47.1114V45.1114ZM38.4345 45.0053C36.5212 45.0923 35.9575 45.1114 31.0578 45.1114V47.1114C35.9665 47.1114 36.5661 47.0923 38.5254 47.0032L38.4345 45.0053ZM41.5265 44.4398C40.9809 44.6529 40.1156 44.9284 38.4343 45.0053L38.5256 47.0032C40.426 46.9163 41.5062 46.5949 42.254 46.3028L41.5265 44.4398ZM43.2939 43.2905C42.7499 43.8345 42.2573 44.1561 41.5283 44.4391L42.2521 46.3036C43.2383 45.9207 43.9664 45.4464 44.7081 44.7047L43.2939 43.2905ZM44.4434 41.5255C44.1606 42.2537 43.8384 42.7464 43.2941 43.2903L44.7079 44.7049C45.4494 43.9638 45.9247 43.2358 46.3077 42.2496L44.4434 41.5255ZM45.0091 38.4324C44.9323 40.113 44.6562 40.9781 44.4435 41.5252L46.3076 42.2499C46.5977 41.5036 46.9201 40.4248 47.007 38.5237L45.0091 38.4324ZM45.1152 31.0582C45.1152 35.9556 45.0961 36.5193 45.0091 38.4326L47.0071 38.5234C47.0961 36.5642 47.1152 35.9646 47.1152 31.0582H45.1152ZM45.0091 23.6838C45.0961 25.5971 45.1152 26.1608 45.1152 31.0582H47.1152C47.1152 26.1518 47.0961 25.5522 47.0071 23.5929L45.0091 23.6838ZM44.4435 20.5912C44.6563 21.1385 44.9326 22.0035 45.0091 23.6838L47.0071 23.5929C46.9205 21.6914 46.5976 20.6126 46.3076 19.8665L44.4435 20.5912ZM43.2939 18.8236C43.8373 19.367 44.1595 19.8616 44.4437 20.5916L46.3074 19.866C45.9242 18.8817 45.4505 18.1517 44.7081 17.4094L43.2939 18.8236ZM41.5282 17.6749C42.2572 17.9581 42.7504 18.2798 43.2937 18.8234L44.7083 17.4096C43.9666 16.6675 43.2376 16.1933 42.2523 15.8106L41.5282 17.6749ZM38.4343 17.1092C40.1148 17.186 40.9801 17.4621 41.5283 17.6749L42.2522 15.8106C41.5055 15.5206 40.4268 15.1982 38.5256 15.1113L38.4343 17.1092ZM31.0578 17.0046C35.9582 17.0046 36.5212 17.0222 38.4346 17.1092L38.5254 15.1112C36.5654 15.0222 35.9658 15.0046 31.0578 15.0046V17.0046ZM30.4452 17.0044C30.6414 17.0045 30.8456 17.0046 31.0578 17.0046V15.0046C30.8461 15.0046 30.6424 15.0045 30.4461 15.0044L30.4452 17.0044ZM40.8624 18.0544C39.0938 18.0544 37.6583 19.4877 37.6583 21.2578H39.6583C39.6583 20.5934 40.1973 20.0544 40.8624 20.0544V18.0544ZM39.8624 19.0537V19.0544H41.8624V19.0537H39.8624ZM44.0666 21.2578C44.0666 19.4886 42.6316 18.0537 40.8624 18.0537V20.0537C41.527 20.0537 42.0666 20.5932 42.0666 21.2578H44.0666ZM40.8624 24.4619C42.6316 24.4619 44.0666 23.0269 44.0666 21.2578H42.0666C42.0666 21.9224 41.527 22.4619 40.8624 22.4619V24.4619ZM37.6583 21.2578C37.6583 23.0269 39.0933 24.4619 40.8624 24.4619V22.4619C40.1978 22.4619 39.6583 21.9224 39.6583 21.2578H37.6583Z" fill="white"/>
<path id="Shape" fill-rule="evenodd" clip-rule="evenodd" d="M31.0014 25.6667C33.9467 25.6667 36.3347 28.0544 36.3347 31.0001C36.3347 33.9455 33.9467 36.3335 31.0014 36.3335C28.0557 36.3335 25.668 33.9455 25.668 31.0001C25.668 28.0544 28.0557 25.6667 31.0014 25.6667V25.6667Z" stroke="white" stroke-width="2"/>
</g>
</svg>
