<svg width="33" height="34" viewBox="0 0 33 34" fill="none" xmlns="http://www.w3.org/2000/svg">
<path d="M14.4101 2.00459H13.4101V3.00616L14.4116 3.00459L14.4101 2.00459ZM15.4456 2.00441L15.4452 3.00441L15.4456 2.00441ZM14.4101 2H15.4101V0.998882L14.4089 1L14.4101 2ZM8.63567 2.10332L8.59055 1.10434L8.58978 1.10437L8.63567 2.10332ZM5.22499 2.73663L5.58776 3.66851L5.58839 3.66826L5.22499 2.73663ZM1.73816 6.22346L0.805997 5.86141L0.805967 5.86149L1.73816 6.22346ZM1.10562 9.63375L0.106659 9.58808L0.106647 9.58835L1.10562 9.63375ZM1.10562 24.4765L0.106647 24.5219L0.106649 24.522L1.10562 24.4765ZM1.73816 27.886L0.806112 28.2484L0.806224 28.2487L1.73816 27.886ZM3.11269 29.9972L3.81979 29.2901L3.81979 29.2901L3.11269 29.9972ZM5.22499 31.371L4.86294 32.3031L4.8632 32.3032L5.22499 31.371ZM8.63567 32.0043L8.58956 33.0032L8.59026 33.0032L8.63567 32.0043ZM23.48 32.0043L23.5254 33.0032L23.5256 33.0032L23.48 32.0043ZM26.8902 31.3713L26.5283 30.4391L26.5265 30.4398L26.8902 31.3713ZM29.001 29.9976L28.2941 29.2903L28.2939 29.2905L29.001 29.9976ZM30.3755 27.8876L29.4435 27.5252L29.4434 27.5255L30.3755 27.8876ZM31.0081 24.478L32.007 24.5237L32.0071 24.5234L31.0081 24.478ZM31.0081 9.63835L32.0071 9.59294L32.0071 9.59288L31.0081 9.63835ZM30.3755 6.22881L31.3076 5.86648L31.3074 5.86605L30.3755 6.22881ZM29.001 4.11651L28.2937 4.82341L28.2939 4.82362L29.001 4.11651ZM26.8902 2.74275L27.2523 1.81059L27.2522 1.81056L26.8902 2.74275ZM23.48 2.11021L23.5256 1.11125L23.5254 1.11124L23.48 2.11021ZM25.8624 5.05442V6.05442H26.8624V5.05442H25.8624ZM25.8624 5.05365V4.05365H24.8624V5.05365H25.8624ZM14.4116 3.00459C14.7304 3.00409 15.0735 3.00425 15.4452 3.00441L15.4461 1.00441C15.0749 1.00425 14.7296 1.00409 14.4085 1.00459L14.4116 3.00459ZM13.4101 2V2.00459H15.4101V2H13.4101ZM8.68079 3.1023C10.3563 3.02662 10.9975 3.00382 14.4112 3L14.4089 1C10.976 1.00384 10.3039 1.02695 8.59055 1.10434L8.68079 3.1023ZM5.58839 3.66826C6.1351 3.45501 7.00024 3.17951 8.68156 3.10227L8.58978 1.10437C6.68936 1.19168 5.60981 1.51313 4.86159 1.805L5.58839 3.66826ZM3.81979 4.81826C4.36321 4.27484 4.85773 3.9527 5.58776 3.66851L4.86222 1.80475C3.87791 2.18792 3.14791 2.66172 2.40558 3.40405L3.81979 4.81826ZM2.67032 6.5855C2.95346 5.85651 3.276 5.36206 3.81979 4.81826L2.40558 3.40405C1.66363 4.146 1.18869 4.87608 0.805997 5.86141L2.67032 6.5855ZM2.10457 9.67943C2.18142 7.9989 2.45748 7.13364 2.67035 6.58542L0.805967 5.86149C0.516018 6.60821 0.193594 7.68688 0.106659 9.58808L2.10457 9.67943ZM2 17.0536C2 12.1524 2.01763 11.5921 2.10458 9.67916L0.106647 9.58835C0.0175751 11.5479 0 12.1448 0 17.0536H2ZM2.10458 24.4311C2.01763 22.5181 2 21.9548 2 17.0536H0C0 21.9624 0.0175746 22.5623 0.106647 24.5219L2.10458 24.4311ZM2.6702 27.5237C2.45743 26.9764 2.18106 26.1113 2.10458 24.431L0.106649 24.522C0.193189 26.4234 0.516062 27.5023 0.806112 28.2484L2.6702 27.5237ZM3.81979 29.2901C3.27591 28.7462 2.95402 28.2531 2.67009 27.5234L0.806224 28.2487C1.18966 29.2341 1.66372 29.9624 2.40558 30.7043L3.81979 29.2901ZM5.58703 30.4388C4.85753 30.1555 4.36321 29.8335 3.81979 29.2901L2.40558 30.7043C3.14791 31.4466 3.87811 31.9206 4.86294 32.3031L5.58703 30.4388ZM8.68177 31.0053C7.00107 30.9278 6.1356 30.6517 5.58677 30.4387L4.8632 32.3032C5.61007 32.5931 6.68853 32.9155 8.58956 33.0032L8.68177 31.0053ZM16.0578 31.1114C11.1577 31.1114 10.5944 31.0923 8.68108 31.0053L8.59026 33.0032C10.5495 33.0923 11.1487 33.1114 16.0578 33.1114V31.1114ZM23.4345 31.0053C21.5212 31.0923 20.9575 31.1114 16.0578 31.1114V33.1114C20.9665 33.1114 21.5661 33.0923 23.5254 33.0032L23.4345 31.0053ZM26.5265 30.4398C25.9809 30.6529 25.1156 30.9284 23.4343 31.0053L23.5256 33.0032C25.426 32.9163 26.5062 32.5949 27.254 32.3028L26.5265 30.4398ZM28.2939 29.2905C27.7499 29.8345 27.2573 30.1561 26.5283 30.4391L27.2522 32.3036C28.2383 31.9207 28.9664 31.4464 29.7081 30.7047L28.2939 29.2905ZM29.4434 27.5255C29.1606 28.2537 28.8384 28.7464 28.2941 29.2903L29.7079 30.7049C30.4494 29.9638 30.9247 29.2358 31.3077 28.2496L29.4434 27.5255ZM30.0091 24.4324C29.9323 26.113 29.6562 26.9781 29.4435 27.5252L31.3076 28.2499C31.5977 27.5036 31.9201 26.4248 32.007 24.5237L30.0091 24.4324ZM30.1152 17.0582C30.1152 21.9556 30.0961 22.5193 30.0091 24.4326L32.0071 24.5234C32.0961 22.5642 32.1152 21.9646 32.1152 17.0582H30.1152ZM30.0091 9.68375C30.0961 11.5971 30.1152 12.1608 30.1152 17.0582H32.1152C32.1152 12.1518 32.0961 11.5522 32.0071 9.59294L30.0091 9.68375ZM29.4435 6.59115C29.6563 7.13846 29.9326 8.00352 30.0091 9.68381L32.0071 9.59288C31.9205 7.69145 31.5976 6.61257 31.3076 5.86648L29.4435 6.59115ZM28.2939 4.82362C28.8373 5.36704 29.1595 5.86156 29.4437 6.59158L31.3074 5.86605C30.9243 4.88174 30.4505 4.15173 29.7081 3.40941L28.2939 4.82362ZM26.5282 3.67491C27.2572 3.95806 27.7504 4.2798 28.2937 4.82341L29.7083 3.40962C28.9666 2.66747 28.2376 2.19328 27.2523 1.81059L26.5282 3.67491ZM23.4343 3.10916C25.1148 3.18601 25.9801 3.46207 26.5283 3.67494L27.2522 1.81056C26.5055 1.52061 25.4268 1.19819 23.5256 1.11125L23.4343 3.10916ZM16.0578 3.00459C20.9582 3.00459 21.5212 3.02222 23.4346 3.10918L23.5254 1.11124C21.5654 1.02217 20.9658 1.00459 16.0578 1.00459V3.00459ZM15.4452 3.00441C15.6414 3.0045 15.8456 3.00459 16.0578 3.00459V1.00459C15.8461 1.00459 15.6424 1.0045 15.4461 1.00441L15.4452 3.00441ZM25.8624 4.05442C24.0938 4.05442 22.6583 5.48769 22.6583 7.2578H24.6583C24.6583 6.59339 25.1973 6.05442 25.8624 6.05442V4.05442ZM24.8624 5.05365V5.05442H26.8624V5.05365H24.8624ZM29.0666 7.2578C29.0666 5.48864 27.6316 4.05365 25.8624 4.05365V6.05365C26.527 6.05365 27.0666 6.59321 27.0666 7.2578H29.0666ZM25.8624 10.4619C27.6316 10.4619 29.0666 9.02695 29.0666 7.2578H27.0666C27.0666 7.92238 26.527 8.46194 25.8624 8.46194V10.4619ZM22.6583 7.2578C22.6583 9.02695 24.0933 10.4619 25.8624 10.4619V8.46194C25.1978 8.46194 24.6583 7.92238 24.6583 7.2578H22.6583Z" fill="white"/>
<path fill-rule="evenodd" clip-rule="evenodd" d="M16.0014 11.6667C18.9467 11.6667 21.3347 14.0544 21.3347 17.0001C21.3347 19.9455 18.9467 22.3335 16.0014 22.3335C13.0557 22.3335 10.668 19.9455 10.668 17.0001C10.668 14.0544 13.0557 11.6667 16.0014 11.6667V11.6667Z" stroke="white" stroke-width="2"/>
</svg>
