<svg width="494" height="92" viewBox="0 0 494 92" fill="none" xmlns="http://www.w3.org/2000/svg">
<path d="M119.216 86.456V84.416C116.784 84.384 114.84 83.704 113.384 82.376C111.928 81.048 111.2 79.336 111.2 77.24C111.2 75.096 111.936 73.384 113.408 72.104C114.896 70.824 116.832 70.152 119.216 70.088V68.576H120.944V70.088C123.328 70.152 125.256 70.824 126.728 72.104C128.216 73.384 128.96 75.096 128.96 77.24C128.96 79.336 128.232 81.048 126.776 82.376C125.32 83.704 123.376 84.384 120.944 84.416V86.456H119.216ZM119.216 82.904V71.6C117.264 71.664 115.744 72.224 114.656 73.28C113.568 74.32 113.024 75.648 113.024 77.264C113.024 78.928 113.552 80.256 114.608 81.248C115.68 82.24 117.216 82.792 119.216 82.904ZM120.944 82.904C122.944 82.792 124.472 82.24 125.528 81.248C126.6 80.256 127.136 78.928 127.136 77.264C127.136 75.648 126.592 74.32 125.504 73.28C124.416 72.224 122.896 71.664 120.944 71.6V82.904Z" fill="#FFA841"/>
<path d="M137.308 86.288C135.644 86.288 134.26 85.728 133.156 84.608C132.052 83.488 131.5 82.08 131.5 80.384C131.5 78.704 132.044 77.304 133.132 76.184C134.22 75.048 135.564 74.48 137.164 74.48C138.86 74.48 140.18 75.008 141.124 76.064C142.068 77.104 142.54 78.432 142.54 80.048C142.54 80.368 142.532 80.624 142.516 80.816H133.204C133.236 81.952 133.644 82.92 134.428 83.72C135.212 84.504 136.172 84.896 137.308 84.896C138.092 84.896 138.804 84.712 139.444 84.344C140.084 83.96 140.572 83.496 140.908 82.952L142.132 83.912C140.884 85.496 139.276 86.288 137.308 86.288ZM133.228 79.52H140.884C140.836 78.432 140.484 77.552 139.828 76.88C139.188 76.192 138.3 75.848 137.164 75.848C136.108 75.848 135.204 76.216 134.452 76.952C133.716 77.672 133.308 78.528 133.228 79.52Z" fill="#FFA841"/>
<path d="M144.467 89.648V84.584H145.763C146.963 83.048 147.563 80.768 147.563 77.744V74.768H155.723V84.584H157.523V89.648H156.011V86H145.979V89.648H144.467ZM147.611 84.584H154.115V76.136H149.147V78.2C149.147 80.616 148.635 82.744 147.611 84.584Z" fill="#FFA841"/>
<path d="M165.504 86.288C163.84 86.288 162.456 85.728 161.352 84.608C160.248 83.488 159.696 82.08 159.696 80.384C159.696 78.704 160.24 77.304 161.328 76.184C162.416 75.048 163.76 74.48 165.36 74.48C167.056 74.48 168.376 75.008 169.32 76.064C170.264 77.104 170.736 78.432 170.736 80.048C170.736 80.368 170.728 80.624 170.712 80.816H161.4C161.432 81.952 161.84 82.92 162.624 83.72C163.408 84.504 164.368 84.896 165.504 84.896C166.288 84.896 167 84.712 167.64 84.344C168.28 83.96 168.768 83.496 169.104 82.952L170.328 83.912C169.08 85.496 167.472 86.288 165.504 86.288ZM161.424 79.52H169.08C169.032 78.432 168.68 77.552 168.024 76.88C167.384 76.192 166.496 75.848 165.36 75.848C164.304 75.848 163.4 76.216 162.648 76.952C161.912 77.672 161.504 78.528 161.424 79.52Z" fill="#FFA841"/>
<path d="M174.246 91.76V74.768H175.878V76.712H175.95C176.398 76.008 177.006 75.464 177.774 75.08C178.542 74.68 179.342 74.48 180.174 74.48C181.902 74.48 183.302 75.048 184.374 76.184C185.446 77.304 185.982 78.704 185.982 80.384C185.982 82.064 185.446 83.472 184.374 84.608C183.302 85.728 181.902 86.288 180.174 86.288C179.358 86.288 178.566 86.096 177.798 85.712C177.03 85.328 176.414 84.792 175.95 84.104H175.878V91.76H174.246ZM180.006 84.896C181.318 84.896 182.35 84.472 183.102 83.624C183.87 82.76 184.254 81.68 184.254 80.384C184.254 79.088 183.87 78.008 183.102 77.144C182.35 76.28 181.318 75.848 180.006 75.848C178.758 75.848 177.726 76.28 176.91 77.144C176.094 78.008 175.686 79.088 175.686 80.384C175.686 81.68 176.094 82.76 176.91 83.624C177.726 84.472 178.758 84.896 180.006 84.896Z" fill="#FFA841"/>
<path d="M192.529 86.288C191.521 86.288 190.617 86.008 189.817 85.448C189.033 84.872 188.641 84.016 188.641 82.88C188.641 82.32 188.737 81.832 188.929 81.416C189.121 80.984 189.409 80.632 189.793 80.36C190.177 80.088 190.593 79.872 191.041 79.712C191.489 79.536 192.041 79.408 192.697 79.328C193.353 79.232 193.961 79.176 194.521 79.16C195.097 79.128 195.777 79.112 196.561 79.112V78.752C196.561 76.816 195.561 75.848 193.561 75.848C192.217 75.848 191.105 76.288 190.225 77.168L189.313 76.088C190.385 75.016 191.857 74.48 193.729 74.48C195.009 74.48 196.057 74.832 196.873 75.536C197.689 76.24 198.097 77.248 198.097 78.56V83.48C198.097 84.488 198.161 85.328 198.289 86H196.825C196.713 85.36 196.657 84.752 196.657 84.176H196.609C195.633 85.584 194.273 86.288 192.529 86.288ZM192.961 84.944C194.065 84.944 194.937 84.584 195.577 83.864C196.233 83.144 196.561 82.264 196.561 81.224V80.384H196.081C195.313 80.384 194.625 80.416 194.017 80.48C193.425 80.528 192.825 80.632 192.217 80.792C191.625 80.952 191.161 81.2 190.825 81.536C190.489 81.872 190.321 82.296 190.321 82.808C190.321 83.544 190.577 84.088 191.089 84.44C191.601 84.776 192.225 84.944 192.961 84.944Z" fill="#FFA841"/>
<path d="M201.581 86.12C201.117 86.12 200.709 86.072 200.357 85.976L200.549 84.56C200.789 84.64 201.045 84.68 201.317 84.68C202.197 84.68 202.845 84.216 203.261 83.288C203.693 82.344 203.909 80.768 203.909 78.56V74.768H211.949V86H210.317V76.136H205.493V79.136C205.493 81.392 205.189 83.12 204.581 84.32C203.989 85.52 202.989 86.12 201.581 86.12Z" fill="#FFA841"/>
<path d="M216.27 86V74.768H217.902V78.992H220.614C222.006 78.992 223.086 79.296 223.854 79.904C224.638 80.512 225.03 81.384 225.03 82.52C225.03 83.64 224.646 84.504 223.878 85.112C223.126 85.704 222.046 86 220.638 86H216.27ZM217.902 84.584H220.806C222.502 84.584 223.35 83.896 223.35 82.52C223.35 81.08 222.502 80.36 220.806 80.36H217.902V84.584Z" fill="#FFA841"/>
<path d="M228.27 86V74.768H229.902V79.472H236.358V74.768H237.99V86H236.358V80.84H229.902V86H228.27Z" fill="#FFA841"/>
<path d="M245.357 86.288C244.349 86.288 243.445 86.008 242.645 85.448C241.861 84.872 241.469 84.016 241.469 82.88C241.469 82.32 241.565 81.832 241.757 81.416C241.949 80.984 242.237 80.632 242.621 80.36C243.005 80.088 243.421 79.872 243.869 79.712C244.317 79.536 244.869 79.408 245.525 79.328C246.181 79.232 246.789 79.176 247.349 79.16C247.925 79.128 248.605 79.112 249.389 79.112V78.752C249.389 76.816 248.389 75.848 246.389 75.848C245.045 75.848 243.933 76.288 243.053 77.168L242.141 76.088C243.213 75.016 244.685 74.48 246.557 74.48C247.837 74.48 248.885 74.832 249.701 75.536C250.517 76.24 250.925 77.248 250.925 78.56V83.48C250.925 84.488 250.989 85.328 251.117 86H249.653C249.541 85.36 249.485 84.752 249.485 84.176H249.437C248.461 85.584 247.101 86.288 245.357 86.288ZM245.789 84.944C246.893 84.944 247.765 84.584 248.405 83.864C249.061 83.144 249.389 82.264 249.389 81.224V80.384H248.909C248.141 80.384 247.453 80.416 246.845 80.48C246.253 80.528 245.653 80.632 245.045 80.792C244.453 80.952 243.989 81.2 243.653 81.536C243.317 81.872 243.149 82.296 243.149 82.808C243.149 83.544 243.405 84.088 243.917 84.44C244.429 84.776 245.053 84.944 245.789 84.944Z" fill="#FFA841"/>
<path d="M254.409 86L257.409 81.44C256.545 81.248 255.865 80.88 255.369 80.336C254.889 79.776 254.649 79.056 254.649 78.176C254.649 77.088 255.033 76.248 255.801 75.656C256.569 75.064 257.609 74.768 258.921 74.768H263.745V86H262.113V81.584H259.161L256.401 86H254.409ZM259.017 80.192H262.113V76.136H259.017C257.209 76.136 256.305 76.816 256.305 78.176C256.305 79.52 257.209 80.192 259.017 80.192Z" fill="#FFA841"/>
<path d="M279.226 86.288C277.498 86.288 276.066 85.728 274.93 84.608C273.81 83.488 273.25 82.08 273.25 80.384C273.25 78.688 273.81 77.28 274.93 76.16C276.066 75.04 277.498 74.48 279.226 74.48C280.97 74.48 282.402 75.04 283.522 76.16C284.658 77.28 285.226 78.688 285.226 80.384C285.226 82.08 284.658 83.488 283.522 84.608C282.402 85.728 280.97 86.288 279.226 86.288ZM279.226 84.896C280.506 84.896 281.538 84.472 282.322 83.624C283.106 82.76 283.498 81.68 283.498 80.384C283.498 79.088 283.106 78.008 282.322 77.144C281.538 76.28 280.506 75.848 279.226 75.848C277.962 75.848 276.938 76.28 276.154 77.144C275.37 78.008 274.978 79.088 274.978 80.384C274.978 81.664 275.37 82.736 276.154 83.6C276.938 84.464 277.962 84.896 279.226 84.896Z" fill="#FFA841"/>
<path d="M288.738 86V74.768H290.37V79.472H296.826V74.768H298.458V86H296.826V80.84H290.37V86H288.738Z" fill="#FFA841"/>
<path d="M302.057 86.12C301.593 86.12 301.185 86.072 300.833 85.976L301.025 84.56C301.265 84.64 301.521 84.68 301.793 84.68C302.673 84.68 303.321 84.216 303.737 83.288C304.169 82.344 304.385 80.768 304.385 78.56V74.768H312.425V86H310.793V76.136H305.969V79.136C305.969 81.392 305.665 83.12 305.057 84.32C304.465 85.52 303.465 86.12 302.057 86.12Z" fill="#FFA841"/>
<path d="M319.794 86.288C318.786 86.288 317.882 86.008 317.082 85.448C316.298 84.872 315.906 84.016 315.906 82.88C315.906 82.32 316.002 81.832 316.194 81.416C316.386 80.984 316.674 80.632 317.058 80.36C317.442 80.088 317.858 79.872 318.306 79.712C318.754 79.536 319.306 79.408 319.962 79.328C320.618 79.232 321.226 79.176 321.786 79.16C322.362 79.128 323.042 79.112 323.826 79.112V78.752C323.826 76.816 322.826 75.848 320.826 75.848C319.482 75.848 318.37 76.288 317.49 77.168L316.578 76.088C317.65 75.016 319.122 74.48 320.994 74.48C322.274 74.48 323.322 74.832 324.138 75.536C324.954 76.24 325.362 77.248 325.362 78.56V83.48C325.362 84.488 325.426 85.328 325.554 86H324.09C323.978 85.36 323.922 84.752 323.922 84.176H323.874C322.898 85.584 321.538 86.288 319.794 86.288ZM320.226 84.944C321.33 84.944 322.202 84.584 322.842 83.864C323.498 83.144 323.826 82.264 323.826 81.224V80.384H323.346C322.578 80.384 321.89 80.416 321.282 80.48C320.69 80.528 320.09 80.632 319.482 80.792C318.89 80.952 318.426 81.2 318.09 81.536C317.754 81.872 317.586 82.296 317.586 82.808C317.586 83.544 317.842 84.088 318.354 84.44C318.866 84.776 319.49 84.944 320.226 84.944Z" fill="#FFA841"/>
<path d="M329.566 86V74.768H331.198V83.744H331.222L337.87 74.768H339.646V86H338.038V76.928H337.99L331.342 86H329.566ZM336.91 71.36C336.286 71.904 335.486 72.176 334.51 72.176C333.534 72.176 332.726 71.904 332.086 71.36C331.462 70.8 331.102 70.048 331.006 69.104L332.11 68.888C332.222 69.496 332.494 69.984 332.926 70.352C333.374 70.704 333.902 70.88 334.51 70.88C335.118 70.88 335.638 70.704 336.07 70.352C336.518 69.984 336.798 69.496 336.91 68.888L338.014 69.104C337.918 70.048 337.55 70.8 336.91 71.36Z" fill="#FFA841"/>
<path d="M343.957 86V74.768H345.589V79.472H352.045V74.768H353.677V86H352.045V80.84H345.589V86H343.957Z" fill="#FFA841"/>
<path d="M367.044 86.288C366.036 86.288 365.132 86.008 364.332 85.448C363.548 84.872 363.156 84.016 363.156 82.88C363.156 82.32 363.252 81.832 363.444 81.416C363.636 80.984 363.924 80.632 364.308 80.36C364.692 80.088 365.108 79.872 365.556 79.712C366.004 79.536 366.556 79.408 367.212 79.328C367.868 79.232 368.476 79.176 369.036 79.16C369.612 79.128 370.292 79.112 371.076 79.112V78.752C371.076 76.816 370.076 75.848 368.076 75.848C366.732 75.848 365.62 76.288 364.74 77.168L363.828 76.088C364.9 75.016 366.372 74.48 368.244 74.48C369.524 74.48 370.572 74.832 371.388 75.536C372.204 76.24 372.612 77.248 372.612 78.56V83.48C372.612 84.488 372.676 85.328 372.804 86H371.34C371.228 85.36 371.172 84.752 371.172 84.176H371.124C370.148 85.584 368.788 86.288 367.044 86.288ZM367.476 84.944C368.58 84.944 369.452 84.584 370.092 83.864C370.748 83.144 371.076 82.264 371.076 81.224V80.384H370.596C369.828 80.384 369.14 80.416 368.532 80.48C367.94 80.528 367.34 80.632 366.732 80.792C366.14 80.952 365.676 81.2 365.34 81.536C365.004 81.872 364.836 82.296 364.836 82.808C364.836 83.544 365.092 84.088 365.604 84.44C366.116 84.776 366.74 84.944 367.476 84.944Z" fill="#FFA841"/>
<path d="M376.816 86V74.768H382.072C383.096 74.768 383.952 74.992 384.64 75.44C385.344 75.888 385.696 76.624 385.696 77.648C385.696 78.24 385.512 78.76 385.144 79.208C384.792 79.64 384.32 79.92 383.728 80.048V80.072C384.48 80.152 385.088 80.44 385.552 80.936C386.016 81.432 386.248 82.08 386.248 82.88C386.248 83.824 385.872 84.584 385.12 85.16C384.368 85.72 383.352 86 382.072 86H376.816ZM378.448 84.608H381.88C382.664 84.608 383.304 84.456 383.8 84.152C384.312 83.848 384.568 83.376 384.568 82.736C384.568 81.472 383.736 80.84 382.072 80.84H378.448V84.608ZM378.448 79.496H382.024C382.584 79.496 383.064 79.36 383.464 79.088C383.88 78.816 384.088 78.392 384.088 77.816C384.088 76.68 383.304 76.112 381.736 76.112H378.448V79.496Z" fill="#FFA841"/>
<path d="M392.13 86V76.136H388.074V74.768H397.818V76.136H393.762V86H392.13Z" fill="#FFA841"/>
<path d="M405.344 86.288C403.616 86.288 402.184 85.728 401.048 84.608C399.928 83.488 399.368 82.08 399.368 80.384C399.368 78.688 399.928 77.28 401.048 76.16C402.184 75.04 403.616 74.48 405.344 74.48C407.088 74.48 408.52 75.04 409.64 76.16C410.776 77.28 411.344 78.688 411.344 80.384C411.344 82.08 410.776 83.488 409.64 84.608C408.52 85.728 407.088 86.288 405.344 86.288ZM405.344 84.896C406.624 84.896 407.656 84.472 408.44 83.624C409.224 82.76 409.616 81.68 409.616 80.384C409.616 79.088 409.224 78.008 408.44 77.144C407.656 76.28 406.624 75.848 405.344 75.848C404.08 75.848 403.056 76.28 402.272 77.144C401.488 78.008 401.096 79.088 401.096 80.384C401.096 81.664 401.488 82.736 402.272 83.6C403.056 84.464 404.08 84.896 405.344 84.896Z" fill="#FFA841"/>
<path d="M414.855 86V74.768H416.487V84.584H421.935V74.768H423.568V84.584H429.016V74.768H430.647V86H414.855Z" fill="#FFA841"/>
<path d="M435.013 86V74.768H436.645V80.072H436.717L441.901 74.768H444.253L438.589 80.144L444.829 86H442.429L436.717 80.336H436.645V86H435.013Z" fill="#FFA841"/>
<path d="M451.937 86.288C450.209 86.288 448.777 85.728 447.641 84.608C446.521 83.488 445.961 82.08 445.961 80.384C445.961 78.688 446.521 77.28 447.641 76.16C448.777 75.04 450.209 74.48 451.937 74.48C453.681 74.48 455.113 75.04 456.233 76.16C457.369 77.28 457.937 78.688 457.937 80.384C457.937 82.08 457.369 83.488 456.233 84.608C455.113 85.728 453.681 86.288 451.937 86.288ZM451.937 84.896C453.217 84.896 454.249 84.472 455.033 83.624C455.817 82.76 456.209 81.68 456.209 80.384C456.209 79.088 455.817 78.008 455.033 77.144C454.249 76.28 453.217 75.848 451.937 75.848C450.673 75.848 449.649 76.28 448.865 77.144C448.081 78.008 447.689 79.088 447.689 80.384C447.689 81.664 448.081 82.736 448.865 83.6C449.649 84.464 450.673 84.896 451.937 84.896Z" fill="#FFA841"/>
<path d="M460.448 86.12C459.984 86.12 459.576 86.072 459.224 85.976L459.416 84.56C459.656 84.64 459.912 84.68 460.184 84.68C461.064 84.68 461.712 84.216 462.128 83.288C462.56 82.344 462.776 80.768 462.776 78.56V74.768H470.816V86H469.184V76.136H464.36V79.136C464.36 81.392 464.056 83.12 463.448 84.32C462.856 85.52 461.856 86.12 460.448 86.12Z" fill="#FFA841"/>
<path d="M478.185 86.288C477.177 86.288 476.273 86.008 475.473 85.448C474.689 84.872 474.297 84.016 474.297 82.88C474.297 82.32 474.393 81.832 474.585 81.416C474.777 80.984 475.065 80.632 475.449 80.36C475.833 80.088 476.249 79.872 476.697 79.712C477.145 79.536 477.697 79.408 478.353 79.328C479.009 79.232 479.617 79.176 480.177 79.16C480.753 79.128 481.433 79.112 482.217 79.112V78.752C482.217 76.816 481.217 75.848 479.217 75.848C477.873 75.848 476.761 76.288 475.881 77.168L474.969 76.088C476.041 75.016 477.513 74.48 479.385 74.48C480.665 74.48 481.713 74.832 482.529 75.536C483.345 76.24 483.753 77.248 483.753 78.56V83.48C483.753 84.488 483.817 85.328 483.945 86H482.481C482.369 85.36 482.313 84.752 482.313 84.176H482.265C481.289 85.584 479.929 86.288 478.185 86.288ZM478.617 84.944C479.721 84.944 480.593 84.584 481.233 83.864C481.889 83.144 482.217 82.264 482.217 81.224V80.384H481.737C480.969 80.384 480.281 80.416 479.673 80.48C479.081 80.528 478.481 80.632 477.873 80.792C477.281 80.952 476.817 81.2 476.481 81.536C476.145 81.872 475.977 82.296 475.977 82.808C475.977 83.544 476.233 84.088 476.745 84.44C477.257 84.776 477.881 84.944 478.617 84.944Z" fill="#FFA841"/>
<path d="M135.296 48L132.8 39.84H120.32L117.824 48H110L122.096 13.584H130.976L143.12 48H135.296ZM131.072 33.744L128.576 25.776C128.416 25.232 128.208 24.544 127.952 23.712C127.696 22.88 127.44 22.032 127.184 21.168C126.928 20.304 126.72 19.552 126.56 18.912C126.4 19.552 126.176 20.352 125.888 21.312C125.632 22.24 125.376 23.136 125.12 24C124.896 24.832 124.72 25.424 124.592 25.776L122.144 33.744H131.072Z" fill="#FFA841"/>
<path d="M154.661 13.728H165.317C169.893 13.728 173.349 14.368 175.685 15.648C178.021 16.928 179.189 19.184 179.189 22.416C179.189 24.368 178.725 26.016 177.797 27.36C176.901 28.704 175.605 29.52 173.909 29.808V30.048C175.061 30.272 176.101 30.672 177.029 31.248C177.957 31.824 178.693 32.656 179.237 33.744C179.781 34.832 180.053 36.272 180.053 38.064C180.053 41.168 178.933 43.6 176.693 45.36C174.453 47.12 171.381 48 167.477 48H154.661V13.728ZM161.909 27.312H166.133C168.245 27.312 169.701 26.976 170.501 26.304C171.333 25.632 171.749 24.656 171.749 23.376C171.749 22.064 171.269 21.12 170.309 20.544C169.349 19.968 167.829 19.68 165.749 19.68H161.909V27.312ZM161.909 33.072V42H166.661C168.837 42 170.357 41.584 171.221 40.752C172.085 39.888 172.517 38.752 172.517 37.344C172.517 36.064 172.069 35.04 171.173 34.272C170.309 33.472 168.725 33.072 166.421 33.072H161.909Z" fill="#FFA841"/>
<path d="M207.311 48H200.063V19.776H190.751V13.728H216.623V19.776H207.311V48Z" fill="#FFA841"/>
<path d="M259.274 30.816C259.274 34.368 258.682 37.472 257.498 40.128C256.346 42.752 254.57 44.8 252.17 46.272C249.77 47.744 246.698 48.48 242.954 48.48C239.242 48.48 236.17 47.744 233.738 46.272C231.338 44.8 229.546 42.736 228.362 40.08C227.21 37.424 226.634 34.32 226.634 30.768C226.634 27.216 227.21 24.128 228.362 21.504C229.546 18.88 231.338 16.848 233.738 15.408C236.17 13.936 239.258 13.2 243.002 13.2C246.714 13.2 249.77 13.936 252.17 15.408C254.57 16.848 256.346 18.896 257.498 21.552C258.682 24.176 259.274 27.264 259.274 30.816ZM234.266 30.816C234.266 34.4 234.954 37.232 236.33 39.312C237.706 41.36 239.914 42.384 242.954 42.384C246.058 42.384 248.282 41.36 249.626 39.312C250.97 37.232 251.642 34.4 251.642 30.816C251.642 27.2 250.97 24.368 249.626 22.32C248.282 20.272 246.074 19.248 243.002 19.248C239.93 19.248 237.706 20.272 236.33 22.32C234.954 24.368 234.266 27.2 234.266 30.816Z" fill="#FFA841"/>
<path d="M300.14 13.728L289.532 37.968C288.572 40.144 287.548 42.032 286.46 43.632C285.404 45.2 284.044 46.4 282.38 47.232C280.716 48.064 278.54 48.48 275.852 48.48C275.02 48.48 274.108 48.416 273.116 48.288C272.124 48.16 271.212 47.984 270.38 47.76V41.52C271.148 41.84 271.996 42.064 272.924 42.192C273.852 42.32 274.716 42.384 275.516 42.384C277.116 42.384 278.268 42 278.972 41.232C279.676 40.432 280.236 39.472 280.652 38.352L268.796 13.728H276.476L282.86 28.56C283.084 29.04 283.388 29.728 283.772 30.624C284.156 31.488 284.444 32.224 284.636 32.832H284.876C285.068 32.256 285.34 31.504 285.692 30.576C286.076 29.648 286.412 28.832 286.7 28.128L292.652 13.728H300.14Z" fill="#FFA841"/>
<path d="M337.968 48H330.72V34.752C328.704 35.456 326.848 35.984 325.152 36.336C323.488 36.688 321.808 36.864 320.112 36.864C316.912 36.864 314.4 36.096 312.576 34.56C310.784 32.992 309.888 30.768 309.888 27.888V13.728H317.136V25.824C317.136 27.488 317.52 28.736 318.288 29.568C319.056 30.4 320.352 30.816 322.176 30.816C323.52 30.816 324.864 30.672 326.208 30.384C327.552 30.096 329.056 29.664 330.72 29.088V13.728H337.968V48Z" fill="#FFA841"/>
<path d="M373.514 48H353.786V13.728H373.514V19.68H361.034V27.216H372.65V33.168H361.034V42H373.514V48Z" fill="#FFA841"/>
<path d="M387.845 48V13.728H409.493V19.728H395.093V26.88H397.973C401.205 26.88 403.845 27.328 405.893 28.224C407.973 29.12 409.509 30.352 410.501 31.92C411.493 33.488 411.989 35.28 411.989 37.296C411.989 40.688 410.853 43.328 408.581 45.216C406.341 47.072 402.757 48 397.829 48H387.845ZM395.093 42.048H397.541C399.749 42.048 401.477 41.696 402.725 40.992C404.005 40.288 404.645 39.056 404.645 37.296C404.645 35.472 403.957 34.272 402.581 33.696C401.205 33.12 399.333 32.832 396.965 32.832H395.093V42.048Z" fill="#FFA841"/>
<path d="M453.59 48H445.334L432.902 30.624V48H425.654V13.728H432.902V30.336L445.19 13.728H452.918L440.438 30.192L453.59 48Z" fill="#FFA841"/>
<path d="M486.08 48L483.584 39.84H471.104L468.608 48H460.784L472.88 13.584H481.76L493.904 48H486.08ZM481.856 33.744L479.36 25.776C479.2 25.232 478.992 24.544 478.736 23.712C478.48 22.88 478.224 22.032 477.968 21.168C477.712 20.304 477.504 19.552 477.344 18.912C477.184 19.552 476.96 20.352 476.672 21.312C476.416 22.24 476.16 23.136 475.904 24C475.68 24.832 475.504 25.424 475.376 25.776L472.928 33.744H481.856Z" fill="#FFA841"/>
<path d="M59.9062 56.6478H52.0414C42.5 56.6478 37.4488 56.6478 33.9995 56.6478H19.4459C15.9967 56.6478 15.9583 56.6478 12 56.6478H8.09277C5.34711 57.841 3 60.5734 3 63.7538V79.2538C3 81.3938 4.73505 83.1288 6.875 83.1288V87.0036C6.875 89.1438 8.60981 90.8788 10.75 90.8788H14.6252C16.7652 90.8788 18.5002 89.1438 18.5002 87.0038L18.4986 83.1288H49.5L49.4998 87.0036C49.4998 89.1438 51.2346 90.8788 53.3748 90.8788H57.25C59.3902 90.8788 61.125 89.1438 61.125 87.0038V83.129C63.2649 83.129 65 81.3938 65 79.2538V63.7538C65 60.5734 62.6518 57.841 59.9062 56.6478ZM22.3749 56.6478C22.3749 56.6478 34.4238 56.6478 43 56.6478C46.5 56.6478 52.0414 56.6478 52.0414 56.6478H16H22.3749ZM18.4999 73.4413C16.3597 73.4413 14.6249 71.7063 14.6249 69.5663C14.6249 67.4261 16.3597 65.6913 18.4999 65.6913C20.6401 65.6913 22.3749 67.4261 22.3749 69.5663C22.3749 71.7063 20.6401 73.4413 18.4999 73.4413ZM49.4999 73.4413C47.3597 73.4413 45.6249 71.7063 45.6249 69.5663C45.6249 67.4261 47.3597 65.6913 49.4999 65.6913C51.6401 65.6913 53.3749 67.4261 53.3749 69.5663C53.3749 71.7063 51.6401 73.4413 49.4999 73.4413Z" fill="#FFA841"/>
<path d="M38.3644 53.8948C37.1541 54.637 35.6042 55.0459 34 55.0459C32.3958 55.0459 30.8459 54.6372 29.6356 53.8948L9.8762 41.7762C9.8762 41.7762 8.09277 40.6831 8.09277 43.1595C8.09277 45.9718 8.09277 54.4085 8.09277 54.4085C8.09277 54.521 8.09277 56.6478 8.09277 56.6478C8.09277 56.6478 19.6917 56.6478 33.9995 56.6478C48.3073 56.6478 59.9062 56.6478 59.9062 56.6478C59.9062 56.6478 59.9062 54.521 59.9062 54.4085C59.9062 54.4085 59.9062 45.4601 59.9062 42.4773C59.9062 40.4894 58.6383 41.4608 58.6383 41.4608L38.3644 53.8948Z" fill="#FFA841"/>
<path d="M66.8613 28.1368C68.3796 27.2056 68.3796 25.6819 66.8613 24.7506L36.7604 9.69833C35.2422 8.76722 32.7577 8.76722 31.2394 9.69833L1.1387 24.7506C-0.379567 25.6817 -0.379567 27.2055 1.1387 28.1368L31.2394 46.5978C32.7577 47.5289 35.2422 47.5289 36.7604 46.5978" fill="#FFA841"/>
<path d="M70.971 54.854C70.971 49.7568 70.971 34.4652 70.971 34.4652C70.971 34.4652 70.9852 33.4995 70.4121 33.8184C69.9525 34.0742 68.8257 34.7023 68.4288 35.0476C67.9704 35.4459 68.0737 36.34 68.0737 36.34C68.0737 36.34 68.0737 50.2255 68.0737 54.854C68.0737 55.1168 67.8479 55.2422 67.7402 55.3056C66.6996 55.9173 66 57.0465 66 58.341C66 60.2864 67.5769 61.8634 69.5225 61.8634C71.4678 61.8634 73.0447 60.2864 73.0447 58.341C73.0447 57.0415 72.34 55.9088 71.2928 55.2986C71.1887 55.238 70.971 55.1166 70.971 54.854Z" fill="#FFA841"/>
</svg>
