<svg width="473" height="124" viewBox="0 0 473 124" fill="none" xmlns="http://www.w3.org/2000/svg">
<path d="M1.23224 106.768C0.25592 105.791 0.25592 104.209 1.23224 103.232L17.1422 87.3223C18.1184 86.346 19.7014 86.346 20.6777 87.3223C21.654 88.2986 21.654 89.8816 20.6777 90.8579L6.53552 105L20.6777 119.142C21.654 120.118 21.654 121.701 20.6777 122.678C19.7014 123.654 18.1184 123.654 17.1422 122.678L1.23224 106.768ZM472.5 0V65H467.5V0H472.5ZM430 107.5H3V102.5H430V107.5ZM472.5 65C472.5 88.4721 453.472 107.5 430 107.5V102.5C450.711 102.5 467.5 85.7107 467.5 65H472.5Z" fill="#F6F6F6"/>
</svg>
