<svg width="40" height="40" viewBox="0 0 40 40" fill="none" xmlns="http://www.w3.org/2000/svg">
<rect width="5671" height="7600" transform="translate(-1030 -3607)" fill="#29292F"/>
<path d="M16.7366 30.9879L16.0392 30.2712L16.039 30.2714L16.7366 30.9879ZM15.2705 31.7049L14.2727 31.6383L14.2015 32.7049H15.2705V31.7049ZM16.7705 30.9549L16.0734 30.2379L16.0731 30.2382L16.7705 30.9549ZM20.3738 27.4512L20.968 26.6469L20.2853 26.1424L19.6767 26.7342L20.3738 27.4512ZM27.8703 32.9897L27.2761 33.794L27.3293 33.8333L27.3872 33.8652L27.8703 32.9897ZM30.5893 31.7088L29.6111 31.5012L29.6104 31.5047L30.5893 31.7088ZM35.5106 8.51806L34.5403 8.27605L34.536 8.29319L34.5323 8.31047L35.5106 8.51806ZM33.4207 6.18102L33.7805 7.11405L33.8076 7.10359L33.8341 7.09157L33.4207 6.18102ZM4.52321 17.3238L4.1634 16.3906L4.15094 16.3956L4.52321 17.3238ZM4.16366 19.7058L4.4616 18.7512L4.45643 18.7496L4.16366 19.7058ZM11.5794 22.0203L11.2815 22.9749L11.7224 23.1125L12.113 22.8661L11.5794 22.0203ZM28.7477 11.1891L28.2291 10.334L28.2216 10.3386L28.2141 10.3433L28.7477 11.1891ZM29.6915 11.5037L29.0277 10.7557L29.0215 10.7613L29.6915 11.5037ZM15.7811 24.0567L15.2666 24.9142L15.9015 25.2951L16.4511 24.7991L15.7811 24.0567ZM15.781 24.0566L16.2955 23.1991L14.9234 22.3759L14.7848 23.97L15.781 24.0566ZM15.781 24.0568L16.4541 24.7964L16.7433 24.5331L16.7772 24.1434L15.781 24.0568ZM15.7803 24.0574L15.1072 23.3179L14.2055 24.1385L15.1868 24.8622L15.7803 24.0574ZM15.7809 24.0579L16.7787 24.1245L16.8152 23.5781L16.3745 23.2531L15.7809 24.0579ZM90 24C90 52.251 81.5494 77.7878 67.9355 96.2383C54.3213 114.689 35.5944 126 15 126V128C36.3792 128 55.6524 116.254 69.5448 97.4257C83.4374 78.5975 92 52.6343 92 24H90ZM15 -78C35.5944 -78 54.3213 -66.6891 67.9355 -48.2383C81.5494 -29.7878 90 -4.25099 90 24H92C92 -4.63434 83.4374 -30.5975 69.5448 -49.4257C55.6524 -68.2536 36.3792 -80 15 -80V-78ZM-60 24C-60 -4.25099 -51.5494 -29.7878 -37.9355 -48.2383C-24.3213 -66.6891 -5.59441 -78 15 -78V-80C-6.37923 -80 -25.6524 -68.2536 -39.5448 -49.4257C-53.4374 -30.5975 -62 -4.63434 -62 24H-60ZM15 126C-5.59441 126 -24.3213 114.689 -37.9355 96.2383C-51.5494 77.7878 -60 52.251 -60 24H-62C-62 52.6343 -53.4374 78.5975 -39.5448 97.4257C-25.6524 116.254 -6.37923 128 15 128V126ZM16.039 30.2714C15.8207 30.4839 15.724 30.5708 15.6251 30.6281C15.5608 30.6652 15.4694 30.7049 15.2705 30.7049V32.7049C15.8012 32.7049 16.2414 32.5822 16.627 32.359C16.978 32.1558 17.2495 31.8842 17.4342 31.7044L16.039 30.2714ZM16.0731 30.2382L16.0392 30.2712L17.4341 31.7045L17.468 31.6715L16.0731 30.2382ZM19.6767 26.7342L16.0734 30.2379L17.4676 31.6718L21.0709 28.1681L19.6767 26.7342ZM19.7796 28.2555L27.2761 33.794L28.4645 32.1854L20.968 26.6469L19.7796 28.2555ZM27.3872 33.8652C28.1936 34.3102 29.1451 34.563 30.0294 34.1643C30.9189 33.7632 31.3684 32.8715 31.5683 31.9129L29.6104 31.5047C29.4666 32.1941 29.2463 32.3235 29.2072 32.3411C29.1629 32.3611 28.9266 32.4304 28.3534 32.1141L27.3872 33.8652ZM31.5675 31.9164L36.4888 8.72564L34.5323 8.31047L29.6111 31.5012L31.5675 31.9164ZM36.4808 8.76007C36.7834 7.54705 36.6128 6.39136 35.8447 5.6485C35.0627 4.89213 33.9491 4.84288 33.0073 5.27046L33.8341 7.09157C34.2121 6.91994 34.3954 7.02919 34.4543 7.08613C34.5272 7.15658 34.7416 7.46902 34.5403 8.27605L36.4808 8.76007ZM33.0609 5.24798L4.16343 16.3907L4.88298 18.2568L33.7805 7.11405L33.0609 5.24798ZM4.15094 16.3956C3.59255 16.6196 3.11218 16.8891 2.74742 17.2115C2.38912 17.5281 2.06404 17.9688 2.00814 18.5281C1.9485 19.1249 2.21669 19.6219 2.58044 19.9652C2.92711 20.2924 3.38583 20.5134 3.87088 20.6619L4.45643 18.7496C4.14075 18.6529 3.99748 18.5525 3.95322 18.5107C3.93545 18.494 3.95241 18.5043 3.97158 18.5487C3.99283 18.5979 4.00474 18.6618 3.99823 18.727C3.98583 18.851 3.92763 18.8376 4.0719 18.7101C4.20971 18.5883 4.4676 18.4235 4.89548 18.2519L4.15094 16.3956ZM3.86572 20.6603L11.2815 22.9749L11.8773 21.0658L4.4616 18.7512L3.86572 20.6603ZM12.113 22.8661L29.2812 12.0348L28.2141 10.3433L11.0458 21.1746L12.113 22.8661ZM29.2662 12.0442C29.3793 11.9755 29.4715 11.9451 29.5247 11.9341C29.597 11.9192 29.5508 11.9469 29.428 11.9048C29.3609 11.8818 29.2292 11.8224 29.1097 11.6803C28.9767 11.5223 28.9088 11.3197 28.9162 11.1198C28.9228 10.9411 28.9864 10.8243 29.0126 10.7825C29.0402 10.7386 29.0553 10.7313 29.0277 10.7558L30.3552 12.2516C30.5642 12.0662 30.8958 11.7089 30.9148 11.1938C30.9257 10.9007 30.829 10.6172 30.64 10.3926C30.4644 10.1839 30.2495 10.0722 30.0769 10.013C29.7431 9.89851 29.3972 9.91841 29.1212 9.97527C28.826 10.0361 28.5212 10.1569 28.2291 10.334L29.2662 12.0442ZM29.0215 10.7613L15.1112 23.3143L16.4511 24.7991L30.3614 12.2461L29.0215 10.7613ZM15.2665 24.9141L15.2666 24.9142L16.2956 23.1992L16.2955 23.1991L15.2665 24.9141ZM16.7772 24.1434L16.7772 24.1433L14.7848 23.97L14.7848 23.9702L16.7772 24.1434ZM15.1079 23.3173L15.1072 23.3179L16.4534 24.797L16.4541 24.7964L15.1079 23.3173ZM15.1868 24.8622L15.1874 24.8627L16.3745 23.2531L16.3739 23.2526L15.1868 24.8622ZM16.2683 31.7715L16.7787 24.1245L14.7831 23.9913L14.2727 31.6383L16.2683 31.7715Z" fill="white"/>
</svg>
