<svg width="60" height="60" viewBox="0 0 60 60" fill="none" xmlns="http://www.w3.org/2000/svg">
<g id="Telegram">
<path id="Combined Shape" fill-rule="evenodd" clip-rule="evenodd" d="M30 60C46.5685 60 60 46.5685 60 30C60 13.4315 46.5685 0 30 0C13.4315 0 0 13.4315 0 30C0 46.5685 13.4315 60 30 60ZM24.5 43.75C25.2296 43.75 25.5631 43.4254 25.9661 43.033L26 43L29.6034 39.4962L37.1 45.0348C38.4796 45.796 39.4753 45.4018 39.819 43.7539L44.7402 20.5631C45.2441 18.5431 43.9702 17.6269 42.6504 18.2261L13.7529 29.3688C11.7804 30.16 11.7919 31.2605 13.3933 31.7508L20.8091 34.0654L37.9773 23.2341C38.7878 22.7427 39.5317 23.0069 38.9212 23.5487L25.0107 36.1019L25.0105 36.1017L25.0105 36.1021L25.01 36.1025L25.0104 36.1028L24.5 43.75Z" fill="#8941FF"/>
</g>
</svg>
