<svg width="206" height="226" viewBox="0 0 206 226" fill="none" xmlns="http://www.w3.org/2000/svg">
<g filter="url(#filter0_d)">
<path d="M170.676 94.5376C177.342 98.3866 177.342 108.009 170.676 111.858L45.4581 184.153C38.7915 188.002 30.4582 183.19 30.4582 175.492L30.4582 30.9034C30.4582 23.2054 38.7915 18.3942 45.4582 22.2432L170.676 94.5376Z" fill="#29292F"/>
<path d="M32.4582 30.9034C32.4582 29.1712 32.9778 27.6423 33.8336 26.395L32.1843 25.2636C33.8962 22.7682 36.6938 21.153 39.7108 20.9182L39.866 22.9121C41.3742 22.7947 42.958 23.1091 44.4582 23.9752L53.4023 29.1391L54.4023 27.407L67.8184 35.1529L66.8184 36.8849L84.7067 47.2127L85.7067 45.4807L99.1229 53.2265L98.1229 54.9585L116.011 65.2863L117.011 63.5543L130.427 71.3001L129.427 73.0321L147.315 83.3599L148.315 81.6279L161.732 89.3737L160.732 91.1058L169.676 96.2696C171.176 97.1358 172.24 98.3502 172.893 99.715L174.697 98.8524C176.002 101.583 176.002 104.813 174.697 107.543L172.892 106.681C172.24 108.045 171.176 109.26 169.676 110.126L160.732 115.29L161.732 117.022L148.315 124.768L147.315 123.036L129.427 133.364L130.427 135.096L117.011 142.841L116.011 141.109L98.1228 151.437L99.1228 153.169L85.7067 160.915L84.7067 159.183L66.8184 169.511L67.8184 171.243L54.4023 178.989L53.4023 177.257L44.4581 182.42C42.958 183.287 41.3742 183.601 39.866 183.484L39.7108 185.478C36.6938 185.243 33.8962 183.628 32.1843 181.132L33.8335 180.001C32.9778 178.753 32.4582 177.224 32.4582 175.492L32.4582 165.164L30.4582 165.164L30.4582 149.673L32.4582 149.673L32.4582 129.017L30.4582 129.017L30.4582 113.526L32.4582 113.526L32.4582 92.8701L30.4582 92.8701L30.4582 77.3784L32.4582 77.3784L32.4582 56.7228L30.4582 56.7228L30.4582 41.2312L32.4582 41.2312L32.4582 30.9034Z" stroke="#F6F6F6" stroke-width="4" stroke-dasharray="20 15"/>
</g>
<defs>
<filter id="filter0_d" x="0.458008" y="0.888489" width="205.218" height="224.619" filterUnits="userSpaceOnUse" color-interpolation-filters="sRGB">
<feFlood flood-opacity="0" result="BackgroundImageFix"/>
<feColorMatrix in="SourceAlpha" type="matrix" values="0 0 0 0 0 0 0 0 0 0 0 0 0 0 0 0 0 0 127 0"/>
<feOffset dy="10"/>
<feGaussianBlur stdDeviation="15"/>
<feColorMatrix type="matrix" values="0 0 0 0 0 0 0 0 0 0 0 0 0 0 0 0 0 0 0.5 0"/>
<feBlend mode="normal" in2="BackgroundImageFix" result="effect1_dropShadow"/>
<feBlend mode="normal" in="SourceGraphic" in2="effect1_dropShadow" result="shape"/>
</filter>
</defs>
</svg>
