<svg width="60" height="60" viewBox="0 0 60 60" fill="none" xmlns="http://www.w3.org/2000/svg">
<g id="VK">
<path id="Combined Shape" fill-rule="evenodd" clip-rule="evenodd" d="M30 0C13.4315 0 0 13.4315 0 30C0 46.5685 13.4315 60 30 60C46.5685 60 60 46.5685 60 30C60 13.4315 46.5685 0 30 0ZM32.4427 39.4702C32.1469 39.7821 31.5693 39.8451 31.5693 39.8451H29.6567C29.6567 39.8451 25.4372 40.094 21.72 36.2962C17.6664 32.1528 14.0869 23.9319 14.0869 23.9319C14.0869 23.9319 13.8803 23.3927 14.1041 23.133C14.3561 22.8396 15.0432 22.8212 15.0432 22.8212L19.6149 22.792C19.6149 22.792 20.0453 22.8611 20.3537 23.0839C20.6088 23.2682 20.7512 23.6108 20.7512 23.6108C20.7512 23.6108 21.4899 25.4452 22.4681 27.1044C24.3792 30.3445 25.2682 31.0528 25.9161 30.7055C26.8614 30.2001 26.5782 26.1258 26.5782 26.1258C26.5782 26.1258 26.5954 24.6478 26.1024 23.9888C25.7205 23.4787 25.0005 23.3297 24.6828 23.2882C24.4245 23.2544 24.8471 22.6675 25.3949 22.4048C26.2182 22.01 27.6706 21.9869 29.3876 22.0038C30.7257 22.0177 31.1107 22.0991 31.6335 22.2235C32.8467 22.5109 32.8089 23.4319 32.7271 25.4196C32.7027 26.0141 32.6743 26.7039 32.6743 27.5008C32.6743 27.6799 32.669 27.8707 32.6635 28.0671C32.6351 29.0854 32.6027 30.2515 33.2863 30.6856C33.6369 30.9068 34.493 30.7178 36.6356 27.1474C37.6514 25.4544 38.412 23.4649 38.412 23.4649C38.412 23.4649 38.5795 23.11 38.8378 22.9579C39.1023 22.8027 39.4591 22.8504 39.4591 22.8504L44.2703 22.8212C44.2703 22.8212 45.7165 22.6506 45.9497 23.2928C46.1954 23.9642 45.4097 25.5343 43.4439 28.1061C41.5792 30.5463 40.6717 31.4448 40.755 32.2394C40.8159 32.82 41.4058 33.3451 42.5377 34.3758C44.9007 36.5293 45.5341 37.6624 45.6863 37.9346C45.6989 37.9571 45.7082 37.9738 45.7149 37.9846C46.7745 39.7099 44.5395 39.8451 44.5395 39.8451L40.2651 39.9035C40.2651 39.9035 39.348 40.0817 38.1397 39.2674C37.5068 38.8413 36.8883 38.1452 36.2992 37.4823C35.3995 36.4698 34.5685 35.5345 33.8591 35.7554C32.668 36.1272 32.704 38.6452 32.704 38.6452C32.704 38.6452 32.7134 39.1845 32.4427 39.4702Z" fill="#8941FF"/>
</g>
</svg>
