<svg width="34" height="20" viewBox="0 0 34 20" fill="none" xmlns="http://www.w3.org/2000/svg">
<path d="M18.5693 18.8451V19.8451H18.6237L18.6778 19.8392L18.5693 18.8451ZM19.4427 18.4702L20.1682 19.1584L20.1686 19.158L19.4427 18.4702ZM19.704 17.6452L18.7041 17.6595L18.7042 17.6626L19.704 17.6452ZM20.8591 14.7554L20.5617 13.8007L20.5611 13.8008L20.8591 14.7554ZM25.1397 18.2674L25.6986 17.4382L25.6982 17.4379L25.1397 18.2674ZM27.2651 18.9035L27.2515 17.9036L27.1621 17.9048L27.0744 17.9218L27.2651 18.9035ZM31.5395 18.8451L31.5531 19.845L31.5765 19.8447L31.5999 19.8433L31.5395 18.8451ZM32.7149 16.9846L33.567 16.4613L33.5648 16.4576L32.7149 16.9846ZM29.5377 13.3758L30.2113 12.6367L30.211 12.6364L29.5377 13.3758ZM30.4439 7.1061L29.6494 6.49882L29.6493 6.49892L30.4439 7.1061ZM32.9497 2.29281L32.0097 2.63415L32.0106 2.63652L32.9497 2.29281ZM31.2703 1.82116L31.2764 2.82115L31.3321 2.82081L31.3874 2.81428L31.2703 1.82116ZM26.4591 1.85035L26.3268 2.84157L26.3957 2.85076L26.4652 2.85034L26.4591 1.85035ZM25.8378 1.9579L25.3318 1.09536L25.3303 1.09623L25.8378 1.9579ZM25.412 2.46488L24.5077 2.03812L24.4915 2.07238L24.478 2.10777L25.412 2.46488ZM23.6356 6.14744L24.4931 6.662L24.4931 6.66191L23.6356 6.14744ZM20.2863 9.68557L19.7503 10.5298L19.7526 10.5313L20.2863 9.68557ZM18.6335 1.22354L18.4019 2.19635L18.403 2.19661L18.6335 1.22354ZM16.3875 1.00384L16.3979 0.00389718L16.3974 0.00389236L16.3875 1.00384ZM12.3949 1.40482L12.8273 2.30649L12.8274 2.30649L12.3949 1.40482ZM11.6828 2.28821L11.553 3.27975L11.5533 3.27979L11.6828 2.28821ZM13.1024 2.98877L13.9031 2.38977L13.9029 2.38942L13.1024 2.98877ZM13.5782 5.12578L12.5782 5.11414L12.5778 5.15469L12.5806 5.19515L13.5782 5.12578ZM12.9161 9.70555L12.4446 8.82369L12.4438 8.82412L12.9161 9.70555ZM9.46815 6.10442L8.60671 6.61228L8.6068 6.61244L9.46815 6.10442ZM7.75121 2.61083L8.67887 2.23724L8.6746 2.22696L7.75121 2.61083ZM7.35367 2.08388L7.93939 1.27336L7.93931 1.2733L7.35367 2.08388ZM6.61493 1.79197L6.77352 0.804631L6.69156 0.791465L6.60855 0.791995L6.61493 1.79197ZM2.04321 1.82116L2.03683 0.821185L2.02661 0.821251L2.01639 0.821525L2.04321 1.82116ZM1.10414 2.13304L1.86157 2.78596L1.8628 2.78453L1.10414 2.13304ZM1.08692 2.93192L0.153111 3.28968L0.161124 3.3106L0.170065 3.33113L1.08692 2.93192ZM8.72002 15.2962L8.00521 15.9955L8.00537 15.9957L8.72002 15.2962ZM16.6567 18.8451V17.8451H16.6273L16.5979 17.8468L16.6567 18.8451ZM18.5693 18.8451C18.6778 19.8392 18.678 19.8392 18.6782 19.8392C18.6783 19.8391 18.6785 19.8391 18.6787 19.8391C18.679 19.8391 18.6794 19.839 18.6797 19.839C18.6804 19.8389 18.6812 19.8388 18.6819 19.8387C18.6835 19.8386 18.6852 19.8384 18.687 19.8382C18.6907 19.8377 18.695 19.8372 18.6999 19.8366C18.7096 19.8354 18.7216 19.8338 18.7357 19.8318C18.7639 19.8278 18.8008 19.822 18.8446 19.814C18.931 19.7981 19.0499 19.7725 19.184 19.732C19.422 19.6601 19.8408 19.5036 20.1682 19.1584L18.7171 17.7821C18.7487 17.7488 18.7308 17.7796 18.6062 17.8173C18.5589 17.8315 18.5149 17.8411 18.4838 17.8468C18.4688 17.8495 18.4583 17.8511 18.4537 17.8518C18.4515 17.8521 18.4508 17.8522 18.4519 17.852C18.4525 17.852 18.4535 17.8518 18.455 17.8517C18.4557 17.8516 18.4566 17.8515 18.4576 17.8514C18.4581 17.8513 18.4586 17.8513 18.4591 17.8512C18.4594 17.8512 18.4597 17.8511 18.46 17.8511C18.4601 17.8511 18.4604 17.8511 18.4604 17.851C18.4607 17.851 18.4609 17.851 18.5693 18.8451ZM20.1686 19.158C20.504 18.804 20.6151 18.3661 20.6583 18.1322C20.683 17.998 20.6942 17.88 20.6994 17.7947C20.7021 17.7514 20.7033 17.7148 20.7038 17.6867C20.704 17.6726 20.7041 17.6606 20.7041 17.6507C20.7041 17.6458 20.7041 17.6414 20.704 17.6376C20.704 17.6356 20.704 17.6339 20.704 17.6323C20.7039 17.6314 20.7039 17.6307 20.7039 17.6299C20.7039 17.6296 20.7039 17.6292 20.7039 17.6289C20.7039 17.6287 20.7039 17.6284 20.7039 17.6283C20.7039 17.6281 20.7039 17.6278 19.704 17.6452C18.7042 17.6626 18.7042 17.6624 18.7042 17.6622C18.7042 17.6621 18.7042 17.6618 18.7042 17.6617C18.7042 17.6614 18.7042 17.661 18.7042 17.6607C18.7042 17.6601 18.7041 17.6596 18.7041 17.659C18.7041 17.6579 18.7041 17.6569 18.7041 17.656C18.7041 17.6543 18.7041 17.6529 18.7041 17.652C18.7041 17.6502 18.7041 17.65 18.7041 17.6512C18.704 17.6537 18.7038 17.6615 18.7031 17.6732C18.7016 17.6979 18.6982 17.7326 18.6915 17.7689C18.6717 17.8761 18.6521 17.8507 18.7168 17.7824L20.1686 19.158ZM19.704 17.6452C20.7039 17.6309 20.7039 17.6312 20.7039 17.6314C20.7039 17.6314 20.7039 17.6316 20.7039 17.6318C20.704 17.632 20.704 17.6322 20.704 17.6324C20.704 17.6327 20.704 17.6329 20.704 17.6329C20.704 17.6329 20.704 17.6324 20.704 17.6314C20.7039 17.6292 20.7039 17.6248 20.7039 17.6183C20.7039 17.6054 20.7041 17.5841 20.7046 17.5556C20.7057 17.4985 20.7085 17.4133 20.715 17.3089C20.7284 17.0968 20.7567 16.82 20.8142 16.5424C20.8734 16.2562 20.9534 16.0197 21.0452 15.8585C21.1364 15.6982 21.186 15.701 21.1571 15.71L20.5611 13.8008C19.9366 13.9958 19.5441 14.4527 19.3071 14.8691C19.0706 15.2846 18.9363 15.7473 18.8557 16.1371C18.7732 16.5354 18.7361 16.9115 18.719 17.1831C18.7104 17.3205 18.7066 17.435 18.705 17.517C18.7042 17.5581 18.704 17.5913 18.7039 17.6154C18.7039 17.6275 18.7039 17.6373 18.704 17.6447C18.704 17.6484 18.704 17.6515 18.7041 17.6539C18.7041 17.6552 18.7041 17.6563 18.7041 17.6572C18.7041 17.6577 18.7041 17.6581 18.7041 17.6585C18.7041 17.6587 18.7041 17.6589 18.7041 17.659C18.7041 17.6593 18.7041 17.6595 19.704 17.6452ZM21.1565 15.7102C21.0069 15.7568 20.986 15.6535 21.2314 15.8223C21.4611 15.9804 21.7437 16.2548 22.1027 16.6463C22.4162 16.9882 22.8578 17.5 23.2332 17.8986C23.6321 18.3221 24.0872 18.7644 24.5812 19.097L25.6982 17.4379C25.3924 17.2321 25.0593 16.9204 24.6891 16.5273C24.2953 16.1093 23.9868 15.7418 23.5768 15.2947C23.2123 14.897 22.7981 14.4725 22.365 14.1746C21.9477 13.8875 21.2983 13.5712 20.5617 13.8007L21.1565 15.7102ZM24.5809 19.0967C25.315 19.5914 25.988 19.8016 26.5067 19.8797C26.764 19.9184 26.9792 19.924 27.1409 19.9179C27.2218 19.9148 27.2893 19.9088 27.3422 19.9025C27.3686 19.8993 27.3914 19.8961 27.4104 19.8931C27.4199 19.8916 27.4285 19.8901 27.436 19.8888C27.4398 19.8881 27.4434 19.8875 27.4467 19.8869C27.4483 19.8866 27.4499 19.8863 27.4515 19.886C27.4522 19.8858 27.453 19.8857 27.4537 19.8855C27.4541 19.8855 27.4546 19.8854 27.4548 19.8853C27.4554 19.8852 27.4559 19.8851 27.2651 18.9035C27.0744 17.9218 27.0749 17.9217 27.0754 17.9216C27.0756 17.9216 27.0761 17.9215 27.0765 17.9214C27.0772 17.9213 27.0778 17.9212 27.0785 17.9211C27.0798 17.9208 27.081 17.9206 27.0822 17.9203C27.0847 17.9199 27.0869 17.9195 27.0889 17.9191C27.0929 17.9184 27.0962 17.9179 27.0987 17.9175C27.1037 17.9167 27.1056 17.9165 27.1046 17.9166C27.1026 17.9169 27.089 17.9184 27.065 17.9193C27.017 17.9212 26.9274 17.9205 26.8043 17.9019C26.5624 17.8655 26.1727 17.7577 25.6986 17.4382L24.5809 19.0967ZM27.2788 19.9034L31.5531 19.845L31.5258 17.8452L27.2515 17.9036L27.2788 19.9034ZM31.5395 18.8451C31.5999 19.8433 31.6003 19.8433 31.6007 19.8432C31.6008 19.8432 31.6012 19.8432 31.6015 19.8432C31.6021 19.8431 31.6028 19.8431 31.6034 19.8431C31.6047 19.843 31.6062 19.8429 31.6078 19.8428C31.611 19.8426 31.6148 19.8423 31.6192 19.842C31.6278 19.8413 31.6387 19.8405 31.6516 19.8393C31.6773 19.8371 31.7114 19.8337 31.7523 19.8288C31.8335 19.8191 31.9447 19.803 32.0733 19.7766C32.3175 19.7264 32.6831 19.6277 33.0296 19.4249C33.3796 19.2201 33.8054 18.8491 33.9513 18.2339C34.0956 17.6251 33.9084 17.0171 33.567 16.4613L31.8628 17.508C32.0512 17.8148 31.982 17.8706 32.0052 17.7725C32.03 17.6678 32.0958 17.6541 32.0195 17.6988C31.9396 17.7455 31.8128 17.7883 31.671 17.8175C31.6066 17.8307 31.5515 17.8386 31.5146 17.843C31.4965 17.8452 31.4835 17.8464 31.4771 17.847C31.4738 17.8473 31.4723 17.8474 31.4726 17.8474C31.4727 17.8473 31.4733 17.8473 31.4744 17.8472C31.4749 17.8472 31.4756 17.8471 31.4764 17.8471C31.4768 17.8471 31.4772 17.847 31.4776 17.847C31.4779 17.847 31.4782 17.847 31.4784 17.847C31.4787 17.8469 31.4791 17.8469 31.5395 18.8451ZM33.5648 16.4576C33.5668 16.4609 33.5766 16.4769 33.5278 16.3909C33.4944 16.332 33.4489 16.2541 33.3886 16.1578C33.2679 15.9653 33.0935 15.7091 32.841 15.386C32.3369 14.7411 31.5244 13.8334 30.2113 12.6367L28.8641 14.1149C30.1099 15.2503 30.8422 16.0764 31.2651 16.6175C31.6843 17.1539 31.79 17.3906 31.865 17.5116L33.5648 16.4576ZM30.211 12.6364C29.5077 11.9961 29.1084 11.6318 28.8803 11.3419C28.7777 11.2114 28.7542 11.1489 28.75 11.1352C28.7486 11.1307 28.7496 11.1327 28.7497 11.1375C28.7499 11.1419 28.749 11.1374 28.7527 11.1199C28.7794 10.996 28.905 10.7367 29.3642 10.1237C29.8233 9.51062 30.3868 8.82778 31.2385 7.71327L29.6493 6.49892C28.8874 7.49608 28.1956 8.34764 27.7634 8.92467C27.3312 9.50171 26.9292 10.0881 26.7976 10.6986C26.6343 11.4562 26.9052 12.0659 27.3084 12.5785C27.6661 13.0331 28.2272 13.5349 28.8644 14.1152L30.211 12.6364ZM31.2384 7.71338C32.2352 6.40925 32.9639 5.31976 33.4149 4.44509C33.64 4.00861 33.8134 3.59242 33.9089 3.20696C34.0005 2.83729 34.0484 2.38537 33.8887 1.94911L32.0106 2.63652C31.9738 2.53594 32.0156 2.53206 31.9676 2.72597C31.9235 2.9041 31.8237 3.16705 31.6373 3.52851C31.2654 4.24968 30.6184 5.23115 29.6494 6.49882L31.2384 7.71338ZM33.8896 1.95148C33.7039 1.44005 33.3003 1.16913 32.9927 1.03336C32.686 0.897998 32.3644 0.844474 32.1184 0.820781C31.8624 0.796111 31.6251 0.798285 31.4572 0.805466C31.3716 0.809127 31.3 0.814273 31.248 0.818703C31.2219 0.820925 31.2005 0.822987 31.1846 0.824625C31.1766 0.825445 31.1699 0.826162 31.1646 0.826742C31.162 0.827032 31.1597 0.827288 31.1578 0.827507C31.1569 0.827616 31.156 0.827716 31.1552 0.827806C31.1548 0.827851 31.1545 0.827894 31.1541 0.827933C31.154 0.827953 31.1537 0.827982 31.1536 0.827992C31.1534 0.828019 31.1532 0.828046 31.2703 1.82116C31.3874 2.81428 31.3872 2.81431 31.387 2.81433C31.3869 2.81434 31.3867 2.81437 31.3866 2.81438C31.3863 2.81441 31.3861 2.81444 31.3859 2.81446C31.3854 2.81451 31.3851 2.81455 31.3848 2.81458C31.3843 2.81464 31.3841 2.81466 31.3842 2.81465C31.3845 2.81462 31.386 2.81446 31.3886 2.81419C31.3939 2.81364 31.4039 2.81267 31.4178 2.81148C31.4458 2.80909 31.489 2.80593 31.5426 2.80364C31.6531 2.79892 31.792 2.79859 31.9266 2.81156C32.0714 2.82551 32.155 2.84976 32.1851 2.86304C32.2142 2.87591 32.0788 2.82449 32.0097 2.63415L33.8896 1.95148ZM31.2642 0.821183L26.453 0.850373L26.4652 2.85034L31.2764 2.82115L31.2642 0.821183ZM26.4591 1.85035C26.5914 0.859144 26.5911 0.85911 26.5909 0.859076C26.5908 0.859064 26.5905 0.85903 26.5904 0.859006C26.59 0.85896 26.5897 0.858913 26.5893 0.858865C26.5886 0.858769 26.5878 0.858671 26.587 0.858571C26.5855 0.85837 26.5838 0.858159 26.5821 0.85794C26.5786 0.857501 26.5746 0.857028 26.5704 0.85653C26.5618 0.855535 26.5516 0.854434 26.5401 0.853307C26.5169 0.85106 26.4877 0.84867 26.4534 0.846808C26.3857 0.843134 26.2935 0.841251 26.1865 0.847809C25.9912 0.859773 25.6571 0.904517 25.3318 1.09536L26.3437 2.82043C26.2829 2.85611 26.2595 2.84708 26.3088 2.84407C26.324 2.84314 26.3375 2.84346 26.345 2.84387C26.3483 2.84405 26.349 2.84416 26.3465 2.84392C26.3451 2.84379 26.3429 2.84356 26.3397 2.84319C26.3381 2.843 26.3362 2.84277 26.3341 2.84251C26.333 2.84237 26.3319 2.84223 26.3307 2.84207C26.3301 2.84199 26.3294 2.84191 26.3288 2.84183C26.3285 2.84179 26.3281 2.84174 26.3278 2.8417C26.3277 2.84168 26.3274 2.84164 26.3273 2.84163C26.3271 2.8416 26.3268 2.84157 26.4591 1.85035ZM25.3303 1.09623C25.0145 1.28223 24.8084 1.55028 24.7043 1.70148C24.645 1.78757 24.5992 1.86528 24.5674 1.9227C24.5513 1.95181 24.5382 1.97674 24.5283 1.99621C24.5233 2.00597 24.5191 2.01444 24.5157 2.02146C24.514 2.02497 24.5124 2.02812 24.5111 2.03091C24.5104 2.0323 24.5098 2.0336 24.5092 2.0348C24.509 2.0354 24.5087 2.03598 24.5084 2.03653C24.5083 2.03681 24.5082 2.03708 24.508 2.03735C24.508 2.03748 24.5079 2.03767 24.5079 2.03774C24.5078 2.03793 24.5077 2.03812 25.412 2.46488C26.3164 2.89164 26.3163 2.89183 26.3162 2.89202C26.3162 2.89208 26.3161 2.89226 26.3161 2.89238C26.3159 2.89263 26.3158 2.89287 26.3157 2.8931C26.3155 2.89357 26.3153 2.89402 26.3151 2.89445C26.3147 2.89531 26.3143 2.8961 26.3139 2.89681C26.3133 2.89824 26.3127 2.89939 26.3123 2.90026C26.3114 2.90201 26.3111 2.9027 26.3112 2.90246C26.3115 2.90193 26.3135 2.89795 26.3171 2.8914C26.3248 2.87753 26.3369 2.85701 26.3518 2.83537C26.396 2.7711 26.4028 2.78566 26.3452 2.81956L25.3303 1.09623ZM25.412 2.46488C24.478 2.10777 24.478 2.1077 24.478 2.10764C24.478 2.10763 24.478 2.10758 24.4781 2.10756C24.4781 2.10752 24.4781 2.10752 24.4781 2.10754C24.478 2.10758 24.478 2.10774 24.4779 2.10803C24.4777 2.10859 24.4773 2.10963 24.4767 2.11113C24.4755 2.11413 24.4737 2.11899 24.4711 2.12565C24.4659 2.13895 24.4579 2.15941 24.4472 2.18646C24.4259 2.24058 24.3937 2.32102 24.3519 2.42335C24.268 2.62819 24.1454 2.9198 23.9919 3.26297C23.683 3.95363 23.2573 4.8343 22.7781 5.63296L24.4931 6.66191C25.0297 5.76755 25.4922 4.80694 25.8176 4.07958C25.9812 3.71374 26.1123 3.40216 26.2028 3.18105C26.2481 3.07041 26.2833 2.98219 26.3075 2.92089C26.3196 2.89024 26.329 2.8663 26.3354 2.84963C26.3387 2.8413 26.3412 2.83478 26.343 2.83015C26.3439 2.82784 26.3446 2.826 26.3451 2.82463C26.3453 2.82395 26.3456 2.82339 26.3457 2.82295C26.3458 2.82273 26.3459 2.82254 26.346 2.82238C26.346 2.8223 26.346 2.82221 26.346 2.82217C26.3461 2.82208 26.3461 2.822 25.412 2.46488ZM22.7782 5.63287C21.7191 7.39764 21.0329 8.22902 20.6257 8.58998C20.4228 8.76975 20.3545 8.77336 20.4046 8.76034C20.4981 8.73602 20.6646 8.74188 20.8199 8.83987L19.7526 10.5313C20.0832 10.7399 20.4882 10.8051 20.9078 10.696C21.284 10.5982 21.6293 10.3729 21.9522 10.0868C22.5963 9.51594 23.4095 8.46764 24.4931 6.662L22.7782 5.63287ZM20.8223 8.84137C20.8465 8.85672 20.7189 8.78737 20.6708 8.22862C20.6241 7.68623 20.6743 7.17285 20.6743 6.50079H18.6743C18.6743 6.93641 18.6228 7.75655 18.6782 8.4002C18.7322 9.02749 18.9106 9.99669 19.7503 10.5298L20.8223 8.84137ZM20.6743 6.50079C20.6743 5.65958 20.7067 4.94156 20.7325 4.30914C20.7575 3.69573 20.7789 3.11803 20.7421 2.62915C20.7056 2.14384 20.6047 1.60293 20.2768 1.14048C19.925 0.644315 19.418 0.381683 18.864 0.250463L18.403 2.19661C18.5254 2.22561 18.5877 2.25582 18.6152 2.27241C18.6376 2.28587 18.6423 2.29301 18.6453 2.29723C18.6603 2.31843 18.7211 2.42451 18.7477 2.77918C18.7742 3.13028 18.7603 3.58556 18.7341 4.2278C18.7088 4.85103 18.6743 5.61134 18.6743 6.50079H20.6743ZM18.8651 0.250722C18.2597 0.106605 17.7994 0.0183785 16.3979 0.0038973L16.3772 2.00379C17.6521 2.01696 17.9618 2.09159 18.4019 2.19635L18.8651 0.250722ZM16.3974 0.00389236C15.54 -0.0045468 14.7078 -0.00384094 13.9785 0.0529518C13.2676 0.10831 12.5465 0.22308 11.9625 0.50316L12.8274 2.30649C13.0666 2.19173 13.4834 2.09756 14.1337 2.04692C14.7657 1.9977 15.5182 1.99534 16.3777 2.0038L16.3974 0.00389236ZM11.9625 0.503152C11.539 0.706263 11.176 1.02197 10.9449 1.32138C10.8457 1.44996 10.6809 1.6885 10.6249 1.9903C10.5957 2.14773 10.5718 2.45891 10.7634 2.77255C10.9765 3.12146 11.3143 3.24851 11.553 3.27975L11.8126 1.29666C11.9867 1.31945 12.2813 1.42076 12.4702 1.73009C12.6376 2.00414 12.6087 2.26187 12.5913 2.35542C12.559 2.52947 12.4856 2.59853 12.5282 2.54333C12.5808 2.47518 12.7031 2.36609 12.8273 2.30649L11.9625 0.503152ZM11.5533 3.27979C11.6636 3.29418 11.8351 3.32691 11.9995 3.39218C12.1698 3.45982 12.2613 3.53393 12.3019 3.58811L13.9029 2.38942C13.5615 1.93355 13.1021 1.67811 12.7376 1.53336C12.3671 1.38624 12.0198 1.32371 11.8123 1.29662L11.5533 3.27979ZM12.3016 3.58776C12.378 3.6899 12.4771 3.98879 12.5331 4.43028C12.5573 4.62096 12.5687 4.79688 12.574 4.92543C12.5766 4.98911 12.5776 5.03966 12.578 5.07279C12.5782 5.08932 12.5782 5.10141 12.5782 5.1085C12.5782 5.11205 12.5782 5.11434 12.5782 5.1153C12.5782 5.11578 12.5782 5.11593 12.5782 5.11574C12.5782 5.11565 12.5782 5.11546 12.5782 5.1152C12.5782 5.11506 12.5782 5.11491 12.5782 5.11473C12.5782 5.11464 12.5782 5.11449 12.5782 5.11445C12.5782 5.1143 12.5782 5.11414 13.5782 5.12578C14.5781 5.13743 14.5781 5.13726 14.5781 5.13708C14.5781 5.13702 14.5781 5.13683 14.5781 5.1367C14.5781 5.13643 14.5781 5.13614 14.5781 5.13583C14.5781 5.13521 14.5781 5.13449 14.5781 5.13368C14.5781 5.13206 14.5782 5.13008 14.5782 5.12775C14.5782 5.12308 14.5782 5.11699 14.5782 5.10955C14.5782 5.09467 14.5782 5.07436 14.5779 5.04919C14.5773 4.99892 14.5758 4.92886 14.5723 4.84368C14.5654 4.67452 14.5503 4.43977 14.5172 4.17858C14.4585 3.71634 14.3197 2.94671 13.9031 2.38978L12.3016 3.58776ZM13.5782 5.12578C12.5806 5.19515 12.5806 5.19505 12.5806 5.19496C12.5806 5.19495 12.5805 5.19488 12.5805 5.19486C12.5805 5.19483 12.5805 5.19486 12.5806 5.19495C12.5806 5.19513 12.5806 5.19555 12.5806 5.19621C12.5807 5.19753 12.5809 5.1998 12.5811 5.203C12.5815 5.20941 12.5822 5.21951 12.583 5.23309C12.5847 5.26025 12.5871 5.30126 12.5899 5.35426C12.5954 5.46035 12.6025 5.61401 12.6081 5.80051C12.6194 6.17545 12.6248 6.67425 12.6026 7.1824C12.58 7.69963 12.5302 8.18443 12.4448 8.54813C12.402 8.73063 12.3588 8.84432 12.3279 8.90387C12.2918 8.97362 12.3125 8.89433 12.4446 8.82369L13.3876 10.5874C13.7561 10.3904 13.9747 10.0732 14.104 9.82342C14.2386 9.5634 14.3284 9.27586 14.3919 9.00531C14.5192 8.46292 14.576 7.83437 14.6007 7.26985C14.6258 6.69623 14.6194 6.14487 14.6072 5.74007C14.601 5.53672 14.5933 5.36811 14.5871 5.24942C14.584 5.19003 14.5812 5.14301 14.5792 5.11024C14.5782 5.09385 14.5774 5.08102 14.5768 5.07197C14.5765 5.06745 14.5763 5.06387 14.5761 5.06127C14.576 5.05997 14.5759 5.05891 14.5759 5.0581C14.5758 5.0577 14.5758 5.05736 14.5758 5.05708C14.5758 5.05694 14.5758 5.05677 14.5758 5.0567C14.5758 5.05655 14.5757 5.05642 13.5782 5.12578ZM12.4438 8.82412C12.5261 8.77999 12.6346 8.77816 12.6894 8.79643C12.6941 8.79802 12.5921 8.76088 12.3706 8.54086C11.927 8.10007 11.2817 7.21088 10.3295 5.5964L8.6068 6.61244C9.56559 8.23805 10.3203 9.32303 10.9609 9.95958C11.2816 10.2782 11.6427 10.5556 12.0561 10.6935C12.5195 10.8482 12.9821 10.8047 13.3884 10.587L12.4438 8.82412ZM10.3296 5.59655C9.86391 4.80668 9.45037 3.96629 9.15103 3.31683C9.00208 2.99367 8.88299 2.72123 8.80152 2.53053C8.76082 2.43524 8.72958 2.36054 8.70879 2.31033C8.6984 2.28523 8.69062 2.26626 8.68558 2.25392C8.68307 2.24775 8.68123 2.24323 8.6801 2.24044C8.67953 2.23904 8.67914 2.23807 8.67892 2.23754C8.67882 2.23727 8.67875 2.23712 8.67874 2.23707C8.67873 2.23705 8.67873 2.23705 8.67874 2.23709C8.67875 2.2371 8.67877 2.23715 8.67877 2.23716C8.67879 2.23721 8.67881 2.23727 7.75121 2.61083C6.82361 2.9844 6.82364 2.98447 6.82367 2.98455C6.82368 2.98459 6.82372 2.98467 6.82375 2.98475C6.8238 2.98489 6.82387 2.98506 6.82395 2.98526C6.82412 2.98566 6.82432 2.98617 6.82457 2.9868C6.82508 2.98804 6.82576 2.98973 6.82662 2.99185C6.82834 2.9961 6.83078 3.00209 6.83391 3.00976C6.84017 3.02509 6.84922 3.04716 6.86093 3.07546C6.88436 3.13204 6.91849 3.21362 6.96232 3.31623C7.04993 3.52132 7.17666 3.81117 7.33468 4.154C7.64926 4.83653 8.09418 5.74294 8.60671 6.61228L10.3296 5.59655ZM7.75121 2.61083C8.6746 2.22696 8.67451 2.22676 8.67443 2.22655C8.6744 2.22649 8.67431 2.22628 8.67426 2.22614C8.67414 2.22586 8.67402 2.22558 8.6739 2.22529C8.67366 2.22471 8.6734 2.2241 8.67314 2.22348C8.67261 2.22222 8.67205 2.22088 8.67144 2.21944C8.67022 2.21657 8.66884 2.21334 8.66729 2.20976C8.66419 2.20261 8.66042 2.19404 8.65598 2.18421C8.64712 2.16459 8.63547 2.13964 8.62104 2.11051C8.5925 2.0529 8.55142 1.97555 8.49764 1.88895C8.39913 1.73032 8.21802 1.47471 7.93939 1.27336L6.76795 2.89439C6.74444 2.8774 6.76209 2.88527 6.79857 2.94402C6.81229 2.96612 6.82276 2.98595 6.8289 2.99833C6.83181 3.0042 6.83328 3.00746 6.8332 3.00729C6.83315 3.00719 6.83269 3.00617 6.83181 3.00412C6.83136 3.0031 6.83081 3.00181 6.83015 3.00025C6.82982 2.99946 6.82946 2.99861 6.82907 2.99769C6.82888 2.99723 6.82868 2.99675 6.82847 2.99625C6.82836 2.996 6.82826 2.99575 6.82815 2.99549C6.8281 2.99536 6.82802 2.99517 6.82799 2.9951C6.82791 2.9949 6.82782 2.9947 7.75121 2.61083ZM7.93931 1.2733C7.65971 1.0713 7.3587 0.959113 7.16373 0.898907C7.05965 0.866767 6.96904 0.84443 6.90238 0.829727C6.86877 0.822314 6.8405 0.816677 6.81877 0.812593C6.80788 0.810547 6.79858 0.808879 6.79101 0.807563C6.78722 0.806905 6.78385 0.806334 6.78094 0.805846C6.77948 0.805603 6.77813 0.80538 6.77689 0.805177C6.77627 0.805076 6.77569 0.80498 6.77512 0.804889C6.77484 0.804843 6.77457 0.804799 6.7743 0.804756C6.77417 0.804734 6.77397 0.804703 6.77391 0.804692C6.77372 0.804661 6.77352 0.804631 6.61493 1.79197C6.45634 2.77932 6.45615 2.77929 6.45597 2.77926C6.45591 2.77925 6.45572 2.77922 6.4556 2.7792C6.45536 2.77916 6.45513 2.77912 6.4549 2.77909C6.45444 2.77901 6.45401 2.77894 6.4536 2.77887C6.45278 2.77874 6.45205 2.77862 6.45142 2.77851C6.45015 2.7783 6.44924 2.77815 6.44868 2.77805C6.44756 2.77785 6.4478 2.77789 6.44929 2.77817C6.4523 2.77873 6.46006 2.78024 6.47162 2.78279C6.4953 2.78801 6.53156 2.79688 6.57362 2.80987C6.67094 2.83992 6.7393 2.87369 6.76803 2.89445L7.93931 1.2733ZM6.60855 0.791995L2.03683 0.821185L2.0496 2.82114L6.62132 2.79195L6.60855 0.791995ZM2.04321 1.82116C2.01639 0.821525 2.01618 0.82153 2.01598 0.821536C2.0159 0.821538 2.01569 0.821544 2.01554 0.821548C2.01525 0.821556 2.01494 0.821564 2.01463 0.821573C2.01399 0.821592 2.01332 0.821611 2.01259 0.821633C2.01115 0.821677 2.00953 0.821728 2.00773 0.821788C2.00414 0.821909 1.99985 0.822065 1.9949 0.822266C1.985 0.822667 1.97241 0.82325 1.95741 0.824087C1.92752 0.825758 1.88754 0.828472 1.83995 0.832869C1.74638 0.841511 1.61533 0.857376 1.46911 0.887074C1.32629 0.916085 1.14531 0.962979 0.961703 1.04204C0.785842 1.11776 0.544679 1.24958 0.345481 1.48155L1.8628 2.78453C1.78959 2.86977 1.72881 2.88926 1.75265 2.87899C1.76874 2.87206 1.80678 2.85933 1.86723 2.84705C1.92429 2.83546 1.98075 2.82838 2.02389 2.82439C2.04464 2.82248 2.06032 2.82146 2.06898 2.82097C2.07327 2.82073 2.07568 2.82063 2.07597 2.82062C2.07611 2.82062 2.07571 2.82063 2.07474 2.82067C2.07425 2.82068 2.07362 2.8207 2.07283 2.82073C2.07244 2.82074 2.07201 2.82075 2.07155 2.82076C2.07132 2.82077 2.07107 2.82078 2.07082 2.82078C2.07069 2.82079 2.0705 2.82079 2.07044 2.82079C2.07024 2.8208 2.07004 2.82081 2.04321 1.82116ZM0.346711 1.48012C-0.0709623 1.96465 -0.00761223 2.56448 0.0214695 2.76997C0.0417778 2.91347 0.0729777 3.03703 0.0978718 3.12268C0.110653 3.16666 0.122637 3.2036 0.132209 3.23161C0.137017 3.24568 0.141279 3.25768 0.144809 3.26739C0.146576 3.27225 0.148166 3.27656 0.149555 3.28028C0.15025 3.28214 0.150896 3.28386 0.151489 3.28542C0.151786 3.28621 0.15207 3.28695 0.15234 3.28767C0.152475 3.28802 0.152607 3.28837 0.152736 3.2887C0.1528 3.28887 0.152894 3.28912 0.152926 3.2892C0.153019 3.28944 0.153111 3.28968 1.08692 2.93192C2.02074 2.57416 2.02083 2.5744 2.02092 2.57463C2.02095 2.57471 2.02104 2.57494 2.02109 2.57509C2.02121 2.5754 2.02132 2.57569 2.02143 2.57598C2.02165 2.57656 2.02186 2.57711 2.02206 2.57764C2.02246 2.57869 2.02281 2.57962 2.02312 2.58046C2.02374 2.58212 2.0242 2.58337 2.02451 2.58421C2.02512 2.5859 2.02516 2.58606 2.02476 2.58488C2.02391 2.58239 2.0215 2.57516 2.01841 2.56453C2.01156 2.54097 2.0051 2.51349 2.00174 2.48972C1.99773 2.46138 2.00249 2.46924 1.9975 2.50511C1.99254 2.54078 1.96952 2.66072 1.86157 2.78595L0.346711 1.48012ZM1.08692 2.93192C0.170065 3.33113 0.170123 3.33127 0.170195 3.33143C0.170238 3.33153 0.170324 3.33173 0.170408 3.33192C0.170577 3.33231 0.170801 3.33282 0.17108 3.33346C0.171636 3.33474 0.172411 3.33651 0.173401 3.33877C0.175383 3.3433 0.178229 3.34979 0.181929 3.35821C0.18933 3.37503 0.200145 3.39954 0.214279 3.43135C0.242548 3.49496 0.284103 3.5878 0.338187 3.70685C0.446339 3.94493 0.604681 4.28804 0.807142 4.71205C1.21182 5.55957 1.79403 6.73301 2.50517 8.03861C3.91549 10.6278 5.87735 13.8205 8.00521 15.9955L9.43483 14.5969C7.50902 12.6284 5.65434 9.639 4.26153 7.08194C3.57111 5.81439 3.0051 4.67366 2.61196 3.85029C2.41551 3.43886 2.26254 3.10734 2.1591 2.87965C2.1074 2.76583 2.06809 2.678 2.04195 2.61917C2.02887 2.58975 2.0191 2.56759 2.0127 2.55306C2.00951 2.54579 2.00716 2.54043 2.00567 2.53702C2.00492 2.53532 2.00439 2.5341 2.00408 2.53338C2.00392 2.53302 2.00382 2.53279 2.00377 2.53268C2.00374 2.53262 2.00375 2.53263 2.00374 2.5326C2.00375 2.53264 2.00378 2.53271 1.08692 2.93192ZM8.00537 15.9957C10.0098 18.0436 12.161 19.0094 13.8203 19.4599C14.6483 19.6847 15.3541 19.7813 15.8602 19.8215C16.1136 19.8416 16.3177 19.8476 16.4632 19.8484C16.536 19.8487 16.5942 19.8478 16.6366 19.8466C16.6578 19.846 16.6751 19.8453 16.6883 19.8447C16.6949 19.8444 16.7005 19.8442 16.7051 19.8439C16.7074 19.8438 16.7094 19.8437 16.7111 19.8436C16.712 19.8436 16.7128 19.8435 16.7136 19.8435C16.714 19.8435 16.7145 19.8434 16.7147 19.8434C16.7152 19.8434 16.7156 19.8434 16.6567 18.8451C16.5979 17.8468 16.5983 17.8468 16.5987 17.8468C16.5989 17.8468 16.5993 17.8468 16.5995 17.8467C16.6 17.8467 16.6004 17.8467 16.6008 17.8467C16.6015 17.8466 16.602 17.8466 16.6023 17.8466C16.6027 17.8466 16.6022 17.8466 16.6007 17.8467C16.5978 17.8468 16.5909 17.8471 16.5803 17.8474C16.5591 17.848 16.523 17.8486 16.4732 17.8484C16.3734 17.8479 16.2188 17.8437 16.0185 17.8278C15.6173 17.7959 15.0358 17.7175 14.3443 17.5297C12.9646 17.1552 11.1474 16.3466 9.43467 14.5967L8.00537 15.9957ZM16.6567 19.8451H18.5693V17.8451H16.6567V19.8451Z"/>
</svg>
