<svg width="60" height="60" viewBox="0 0 60 60" fill="none" xmlns="http://www.w3.org/2000/svg">
<g id="WhatsApp">
<path id="Combined Shape" fill-rule="evenodd" clip-rule="evenodd" d="M60 30C60 46.5685 46.5685 60 30 60C13.4315 60 0 46.5685 0 30C0 13.4315 13.4315 0 30 0C46.5685 0 60 13.4315 60 30ZM30.9815 46.6906H30.9888C40.8244 46.6866 48.8237 38.6853 48.8277 28.8519C48.8296 24.0854 46.9757 19.6035 43.6078 16.2318C40.2398 12.8598 35.7608 11.0021 30.9887 11C21.156 11 13.1535 19.0021 13.1496 28.8378C13.1482 31.9819 13.9697 35.0507 15.5308 37.7561L13 47L22.4567 44.5193C25.0623 45.9405 27.9959 46.6896 30.9815 46.6906Z" fill="#8941FF"/>
<path id="Combined Shape_2" fill-rule="evenodd" clip-rule="evenodd" d="M23.4364 41.6111L22.895 41.2898L17.2833 42.7618L18.7811 37.2904L18.4286 36.7294C16.9444 34.3688 16.1605 31.6404 16.1616 28.8387C16.1649 20.6638 22.8163 14.0129 30.9948 14.0129C34.9551 14.0143 38.6779 15.5585 41.4772 18.3611C44.2766 21.1637 45.8174 24.8889 45.8158 28.8507C45.8126 37.0263 39.1612 43.6778 30.989 43.6778H30.983C28.3224 43.6768 25.7129 42.962 23.4364 41.6111ZM39.3657 32.6925C39.6765 32.8427 39.8865 32.9442 39.9761 33.0938C40.0875 33.2797 40.0875 34.1721 39.7163 35.2135C39.3447 36.2546 37.564 37.2049 36.7075 37.3328C35.9396 37.4476 34.9678 37.4955 33.9001 37.1562C33.2527 36.9508 32.4225 36.6765 31.359 36.2172C27.1804 34.4129 24.3564 30.3629 23.8227 29.5974C23.7853 29.5438 23.7592 29.5063 23.7446 29.4868L23.741 29.482C23.5051 29.1673 21.9245 27.0584 21.9245 24.8759C21.9245 22.8227 22.9331 21.7465 23.3973 21.2512C23.4291 21.2172 23.4584 21.186 23.4846 21.1574C23.8931 20.7111 24.3761 20.5996 24.6732 20.5996C24.9703 20.5996 25.2678 20.6023 25.5275 20.6154C25.5595 20.617 25.5929 20.6168 25.6273 20.6166C25.8871 20.6151 26.2109 20.6132 26.5304 21.3805C26.6533 21.6758 26.8331 22.1137 27.0228 22.5754C27.4063 23.5092 27.8301 24.5409 27.9047 24.6902C28.0161 24.9133 28.0904 25.1735 27.9418 25.4711C27.9195 25.5157 27.8989 25.5578 27.8792 25.5981C27.7676 25.8259 27.6855 25.9935 27.4961 26.2146C27.4216 26.3016 27.3446 26.3953 27.2677 26.489C27.1143 26.6758 26.961 26.8625 26.8275 26.9955C26.6043 27.2178 26.372 27.459 26.632 27.9052C26.8921 28.3515 27.7866 29.811 29.1117 30.993C30.5361 32.2635 31.7741 32.8005 32.4016 33.0727C32.5242 33.1259 32.6234 33.1689 32.6962 33.2054C33.1418 33.4285 33.4018 33.3912 33.6619 33.0938C33.9219 32.7963 34.7761 31.7922 35.0732 31.3461C35.3703 30.9 35.6676 30.9743 36.0761 31.123C36.4847 31.2719 38.6762 32.35 39.1219 32.5731C39.2089 32.6167 39.2902 32.656 39.3657 32.6925Z" fill="#8941FF"/>
</g>
</svg>
