<svg width="23" height="22" viewBox="0 0 23 22" fill="none" xmlns="http://www.w3.org/2000/svg">
<path d="M11.0051 0C4.93948 0 0.00512695 4.93436 0.00512695 11C0.00512695 17.0656 4.93948 22 11.0051 22C17.0708 22 22.0051 17.0656 22.0051 11C22.0051 4.93436 17.0708 0 11.0051 0ZM16.2366 16.6897C16.0578 16.8684 15.8232 16.9584 15.5885 16.9584C15.3539 16.9584 15.119 16.8684 14.9405 16.6897L10.3571 12.1064C10.1847 11.9351 10.0885 11.7021 10.0885 11.4584V5.5C10.0885 4.9931 10.4991 4.58339 11.0051 4.58339C11.5112 4.58339 11.9217 4.9931 11.9217 5.5V11.0789L16.2366 15.3936C16.5949 15.7521 16.5949 16.3313 16.2366 16.6897Z" fill="#DCBA97"/>
</svg>
