<svg width="20" height="21" viewBox="0 0 20 21" fill="none" xmlns="http://www.w3.org/2000/svg">
<path d="M7 12.6923L9.56108 15.1877C9.78775 15.4086 10.16 15.3659 10.3309 15.0996L13.75 9.76923M1 6.84615V19.5C1 19.7761 1.22386 20 1.5 20H18.5C18.7761 20 19 19.7761 19 19.5V6.84615M1 6.84615V3.69231C1 3.41617 1.22386 3.19231 1.5 3.19231H4M1 6.84615H19M19 6.84615V3.69231C19 3.41617 18.7761 3.19231 18.5 3.19231H16M4 3.19231V1.5C4 1.22386 4.22386 1 4.5 1H5C5.27614 1 5.5 1.22386 5.5 1.5V3.19231M4 3.19231V4.88462C4 5.16076 4.22386 5.38462 4.5 5.38462H5C5.27614 5.38462 5.5 5.16076 5.5 4.88461V3.19231M5.5 3.19231H14.5M14.5 3.19231V1.5C14.5 1.22386 14.7239 1 15 1H15.5C15.7761 1 16 1.22386 16 1.5V3.19231M14.5 3.19231V4.88462C14.5 5.16076 14.7239 5.38462 15 5.38462H15.5C15.7761 5.38462 16 5.16076 16 4.88461V3.19231" stroke="white" stroke-linecap="round"/>
</svg>
