<svg width="15" height="16" viewBox="0 0 15 16" fill="none" xmlns="http://www.w3.org/2000/svg">
<path d="M7.77129 0.832901C5.45541 0.832901 3.57129 2.60715 3.57129 4.78798C3.57129 6.96881 5.45541 8.74306 7.77129 8.74306C10.0872 8.74306 11.9713 6.96881 11.9713 4.78798C11.9713 2.60715 10.0872 0.832901 7.77129 0.832901Z" fill="#DCBA97"/>
<path d="M12.9971 11.3269C11.8472 10.2274 10.3229 9.62196 8.70482 9.62196H6.83815C5.22012 9.62196 3.69574 10.2274 2.54588 11.3269C1.40164 12.421 0.771484 13.8651 0.771484 15.3934C0.771484 15.6361 0.980427 15.8329 1.23815 15.8329H14.3048C14.5625 15.8329 14.7715 15.6361 14.7715 15.3934C14.7715 13.8651 14.1413 12.421 12.9971 11.3269Z" fill="#DCBA97"/>
</svg>
