<svg width="28" height="27" viewBox="0 0 28 27" fill="none" xmlns="http://www.w3.org/2000/svg">
<path d="M19.7226 0H7.3399C3.30984 0 0.03125 3.27859 0.03125 7.30865V19.6916C0.03125 23.7214 3.30984 27 7.3399 27H19.7228C23.7527 27 27.0312 23.7214 27.0312 19.6916V7.30865C27.0312 3.27859 23.7527 0 19.7226 0V0ZM13.5312 20.8826C9.4604 20.8826 6.14864 17.5708 6.14864 13.5C6.14864 9.42915 9.4604 6.11739 13.5312 6.11739C17.6021 6.11739 20.9139 9.42915 20.9139 13.5C20.9139 17.5708 17.6021 20.8826 13.5312 20.8826ZM21.0904 7.85845C19.8874 7.85845 18.9089 6.87998 18.9089 5.67698C18.9089 4.47398 19.8874 3.4953 21.0904 3.4953C22.2934 3.4953 23.2721 4.47398 23.2721 5.67698C23.2721 6.87998 22.2934 7.85845 21.0904 7.85845Z" fill="white"/>
<path d="M13.5317 7.69975C10.3338 7.69975 7.73193 10.3014 7.73193 13.4995C7.73193 16.6973 10.3338 19.2992 13.5317 19.2992C16.7297 19.2992 19.3314 16.6973 19.3314 13.4995C19.3314 10.3014 16.7297 7.69975 13.5317 7.69975Z" fill="white"/>
<path d="M21.0903 5.07832C20.7603 5.07832 20.4917 5.34694 20.4917 5.67694C20.4917 6.00694 20.7603 6.27556 21.0903 6.27556C21.4205 6.27556 21.6891 6.00715 21.6891 5.67694C21.6891 5.34673 21.4205 5.07832 21.0903 5.07832Z" fill="white"/>
</svg>
