<svg width="20" height="20" viewBox="0 0 20 20" fill="none" xmlns="http://www.w3.org/2000/svg">
<path d="M11.1049 10L19.7712 1.33372C20.0763 1.0286 20.0763 0.533916 19.7712 0.228838C19.4661 -0.0762402 18.9714 -0.0762793 18.6663 0.228838L10 8.89516L1.33372 0.228838C1.0286 -0.0762793 0.533916 -0.0762793 0.228838 0.228838C-0.0762402 0.533955 -0.0762793 1.02864 0.228838 1.33372L8.89512 10L0.228838 18.6663C-0.0762793 18.9714 -0.0762793 19.4661 0.228838 19.7712C0.381377 19.9237 0.581338 20 0.781298 20C0.981259 20 1.18118 19.9237 1.33376 19.7712L10 11.1049L18.6663 19.7712C18.8188 19.9237 19.0188 20 19.2188 20C19.4187 20 19.6186 19.9237 19.7712 19.7712C20.0763 19.4661 20.0763 18.9714 19.7712 18.6663L11.1049 10Z" fill="white"/>
</svg>
