<svg width="36" height="20" viewBox="0 0 36 20" fill="none" xmlns="http://www.w3.org/2000/svg">
<path d="M34.7448 17.8387C34.6506 17.681 34.0678 16.4146 31.2634 13.8118C28.3275 11.0863 28.7219 11.5289 32.2581 6.81617C34.4117 3.94605 35.2728 2.19331 35.0033 1.44401C34.747 0.729766 33.1629 0.918186 33.1629 0.918186L27.8959 0.948858C27.8959 0.948858 27.5059 0.896276 27.2145 1.06936C26.9319 1.24025 26.7501 1.63462 26.7501 1.63462C26.7501 1.63462 25.9153 3.85622 24.8023 5.7448C22.4558 9.73011 21.5159 9.94044 21.1325 9.69286C20.2408 9.11665 20.4643 7.37486 20.4643 6.13917C20.4643 2.27656 21.0493 0.666228 19.3228 0.249952C18.7488 0.111923 18.3281 0.019904 16.8624 0.00456746C14.9826 -0.0151509 13.3898 0.0111402 12.4893 0.451517C11.889 0.745102 11.4267 1.40019 11.7093 1.43744C12.0577 1.48345 12.8464 1.64996 13.2649 2.2196C13.806 2.95356 13.7863 4.60552 13.7863 4.60552C13.7863 4.60552 14.0974 9.1517 13.0611 9.71696C12.3491 10.1048 11.3741 9.31383 9.28177 5.6966C8.21041 3.84527 7.39976 1.79675 7.39976 1.79675C7.39976 1.79675 7.24421 1.41553 6.96596 1.21177C6.62855 0.964195 6.15531 0.885322 6.15531 0.885322L1.14685 0.915995C1.14685 0.915995 0.395358 0.937904 0.1193 1.26435C-0.126084 1.55575 0.0995819 2.15606 0.0995819 2.15606C0.0995819 2.15606 4.02135 11.3295 8.46017 15.9545C12.5331 20.194 17.156 19.9157 17.156 19.9157H19.2505C19.2505 19.9157 19.8837 19.8456 20.2057 19.4973C20.5037 19.1774 20.4928 18.5771 20.4928 18.5771C20.4928 18.5771 20.4511 15.7661 21.7569 15.352C23.043 14.9445 24.695 18.0688 26.4455 19.2716C27.7688 20.1808 28.7745 19.9815 28.7745 19.9815L33.4565 19.9157C33.4565 19.9157 35.906 19.7646 34.7448 17.8387Z" fill="white"/>
</svg>
