<svg width="29" height="35" viewBox="0 0 29 35" fill="none" xmlns="http://www.w3.org/2000/svg">
<path d="M27.2547 13.4167C27.2547 18.6993 24.1884 23.3402 19.6225 25.525C19.5413 25.5639 19.4556 25.5823 19.3711 25.5823C18.7541 25.5823 18.5594 24.7404 19.119 24.4727C23.3525 22.4468 26.0881 18.1071 26.0881 13.4167C26.0881 13.0946 26.3492 12.8334 26.6714 12.8334C26.9935 12.8334 27.2547 13.0945 27.2547 13.4167ZM17.411 27.5583C17.0888 27.5583 16.8276 27.8195 16.8276 28.1416V32.6667C16.8276 33.3099 16.3042 33.8333 15.661 33.8333H12.0151C11.3719 33.8333 10.8485 33.3099 10.8485 32.6667V28.9844H14.5672C14.8894 28.9844 15.1506 28.7232 15.1506 28.401C15.1506 28.0789 14.8894 27.8177 14.5672 27.8177H10.8351C10.7204 26.3829 9.85024 25.0921 8.55232 24.4703C4.3217 22.4436 1.58805 18.1048 1.58805 13.4167C1.58805 6.65241 7.06023 1.16667 13.838 1.16667C16.0756 1.16667 18.2623 1.76881 20.1606 2.9093C20.4369 3.07526 20.7952 2.98586 20.9611 2.70973C21.1269 2.43352 21.0376 2.07521 20.7615 1.90925C18.7377 0.693438 16.3524 0 13.838 0C6.43008 0 0.421387 5.99309 0.421387 13.4167C0.421387 18.6973 3.48527 23.3365 8.04825 25.5224C9.04057 25.9979 9.6818 27.0258 9.6818 28.1414V32.6667C9.6818 33.9533 10.7285 35 12.0151 35H15.661C16.9476 35 17.9943 33.9533 17.9943 32.6667V28.1416C17.9943 27.8194 17.7332 27.5583 17.411 27.5583ZM24.3345 11.0822C24.7619 11.5096 24.762 12.2014 24.3344 12.6289C23.9071 13.0563 23.2151 13.0565 22.7877 12.6289C22.3613 12.2025 22.3613 11.5087 22.7877 11.0822C23.215 10.6547 23.907 10.6546 24.3345 11.0822ZM26.2422 9.99935C26.4701 9.77156 26.4701 9.40224 26.2422 9.17445C24.7605 7.69264 22.3619 7.69242 20.88 9.17445C20.5113 9.54304 20.7775 10.1703 21.2925 10.1703C21.4417 10.1703 21.5911 10.1133 21.705 9.99943C22.7308 8.97356 24.3912 8.97349 25.4173 9.99943C25.645 10.2271 26.0144 10.2271 26.2422 9.99935ZM28.4077 7.00897C25.729 4.33023 21.3935 4.32994 18.7145 7.00897C18.4866 7.23676 18.4866 7.60608 18.7145 7.83387C18.9424 8.06174 19.3116 8.06167 19.5394 7.83387C21.7621 5.61116 25.3598 5.61086 27.5828 7.83387C27.8106 8.06167 28.1799 8.06167 28.4077 7.83387C28.6355 7.60608 28.6355 7.23676 28.4077 7.00897ZM18.8693 15.8958C18.8693 17.102 17.888 18.0833 16.6818 18.0833H15.661V24.7917C15.661 25.1138 15.3998 25.375 15.0776 25.375C14.7555 25.375 14.4943 25.1138 14.4943 24.7917V18.0833H13.1818V25.5208C13.1818 25.843 12.9206 26.1042 12.5985 26.1042C12.2763 26.1042 12.0151 25.843 12.0151 25.5208V18.0833H10.9943C9.78812 18.0833 8.8068 17.102 8.8068 15.8958C8.8068 14.6896 9.78812 13.7083 10.9943 13.7083C12.2005 13.7083 13.1818 14.6896 13.1818 15.8958V16.9167H14.4943V15.8958C14.4943 14.6896 15.4756 13.7083 16.6818 13.7083C17.888 13.7083 18.8693 14.6896 18.8693 15.8958ZM10.9943 16.9167H12.0151V15.8958C12.0151 15.3329 11.5572 14.875 10.9943 14.875C10.4314 14.875 9.97347 15.3329 9.97347 15.8958C9.97347 16.4587 10.4314 16.9167 10.9943 16.9167ZM17.7026 15.8958C17.7026 15.3329 17.2447 14.875 16.6818 14.875C16.1189 14.875 15.661 15.3329 15.661 15.8958V16.9167H16.6818C17.2447 16.9167 17.7026 16.4587 17.7026 15.8958Z" fill="url(#paint0_linear)"/>
<defs>
<linearGradient id="paint0_linear" x1="14.5" y1="0" x2="14.5" y2="35" gradientUnits="userSpaceOnUse">
<stop/>
<stop offset="1" stop-color="#3D4356"/>
</linearGradient>
</defs>
</svg>
