<svg width="40" height="32" viewBox="0 0 40 32" fill="none" xmlns="http://www.w3.org/2000/svg">
<path d="M38 0.666504H2C0.895469 0.666504 0 1.56189 0 2.6665V29.3331C0 30.4377 0.895391 31.3331 2 31.3331H38C39.1045 31.3331 40 30.4378 40 29.3331V2.6665C40 1.56197 39.1046 0.666504 38 0.666504ZM38.6666 29.3332C38.6666 29.7014 38.3682 29.9999 38 29.9999H2C1.6318 29.9999 1.33336 29.7014 1.33336 29.3332V2.6665C1.33336 2.2983 1.6318 1.99986 2 1.99986H38C38.3682 1.99986 38.6666 2.2983 38.6666 2.6665V29.3332Z" fill="url(#paint0_linear)"/>
<path d="M36.7246 3.33607C36.5484 3.32068 36.3733 3.37591 36.2379 3.48966L20.8578 16.4096C20.3618 16.8265 19.6378 16.8265 19.1418 16.4096L3.7619 3.48959C3.57948 3.33646 3.32917 3.29224 3.10534 3.37365C2.88151 3.45505 2.71808 3.64974 2.67667 3.88435C2.63526 4.11896 2.72214 4.35779 2.90456 4.51091L18.2846 17.4302C19.2758 18.2648 20.7239 18.2648 21.7153 17.4302L37.0952 4.51099C37.2307 4.39732 37.3153 4.23451 37.3307 4.05834C37.3461 3.88216 37.2909 3.70709 37.1771 3.5717C37.0635 3.43615 36.9007 3.35146 36.7246 3.33607Z" fill="url(#paint1_linear)"/>
<path d="M12.8222 17.3383C12.5862 17.2856 12.3402 17.3648 12.1793 17.5453L2.84593 27.5453C2.67703 27.7183 2.615 27.9692 2.6839 28.2009C2.75281 28.4327 2.94179 28.609 3.17773 28.6616C3.41375 28.7143 3.65968 28.6351 3.82062 28.4546L13.154 18.4546C13.3229 18.2816 13.3849 18.0307 13.316 17.799C13.2471 17.5673 13.0582 17.3909 12.8222 17.3383Z" fill="url(#paint2_linear)"/>
<path d="M27.8206 17.5453C27.6598 17.3648 27.4137 17.2856 27.1777 17.3383C26.9417 17.3909 26.7528 17.5673 26.6839 17.799C26.615 18.0308 26.677 18.2816 26.8459 18.4546L36.1793 28.4546C36.4324 28.7138 36.8462 28.7235 37.1111 28.4763C37.376 28.2291 37.3951 27.8157 37.154 27.5452L27.8206 17.5453Z" fill="url(#paint3_linear)"/>
<defs>
<linearGradient id="paint0_linear" x1="20" y1="0.666504" x2="20" y2="31.3331" gradientUnits="userSpaceOnUse">
<stop/>
<stop offset="1" stop-color="#3D4356"/>
</linearGradient>
<linearGradient id="paint1_linear" x1="19.9999" y1="3.3335" x2="19.9999" y2="18.0562" gradientUnits="userSpaceOnUse">
<stop/>
<stop offset="1" stop-color="#3D4356"/>
</linearGradient>
<linearGradient id="paint2_linear" x1="7.99996" y1="17.3223" x2="7.99996" y2="28.6777" gradientUnits="userSpaceOnUse">
<stop/>
<stop offset="1" stop-color="#3D4356"/>
</linearGradient>
<linearGradient id="paint3_linear" x1="31.9896" y1="17.3223" x2="31.9896" y2="28.6556" gradientUnits="userSpaceOnUse">
<stop/>
<stop offset="1" stop-color="#3D4356"/>
</linearGradient>
</defs>
</svg>
