<svg width="20" height="13" viewBox="0 0 20 13" fill="none" xmlns="http://www.w3.org/2000/svg">
<path d="M19.8779 6.62287L13.6279 1.06998C13.4652 0.925363 13.2015 0.925363 13.0387 1.06998C12.876 1.2146 12.876 1.44886 13.0387 1.59344L18.5775 6.51441H0.41668C0.186367 6.51441 0 6.68 0 6.88462C0 7.08924 0.186367 7.25482 0.41668 7.25482H18.5775L13.0387 12.1758C12.876 12.3204 12.876 12.5546 13.0387 12.6992C13.1201 12.7715 13.2268 12.8077 13.3334 12.8077C13.44 12.8077 13.5466 12.7715 13.628 12.6992L19.878 7.14633C20.0407 7.00175 20.0407 6.76749 19.8779 6.62287Z" fill="#15171D"/>
</svg>
