<svg width="42" height="41" viewBox="0 0 42 41" fill="none" xmlns="http://www.w3.org/2000/svg">
<path d="M26.1233 30.4811H16.5343C16.3837 30.4811 16.2394 30.4234 16.1329 30.3209C16.0265 30.2184 15.9667 30.0793 15.9667 29.9343C15.9667 29.7892 16.0265 29.6502 16.1329 29.5476C16.2394 29.4451 16.3837 29.3875 16.5343 29.3875H26.1233C26.3189 29.3885 26.5128 29.3522 26.6938 29.2807C26.8748 29.2092 27.0393 29.1039 27.1779 28.9708C27.2034 28.9462 27.225 28.9227 27.246 28.9003C27.2573 28.8836 27.2696 28.8675 27.2829 28.8522C27.5036 28.5961 27.6242 28.2735 27.6234 27.9407C27.623 27.5571 27.4646 27.1893 27.183 26.9181C26.9015 26.6468 26.5198 26.4943 26.1216 26.4938H20.7638C20.6847 26.4938 20.6064 26.4778 20.5341 26.4469C20.4618 26.4161 20.397 26.3709 20.3438 26.3145C19.6289 25.5583 18.7581 24.9541 17.787 24.5405C16.816 24.1269 15.7661 23.913 14.7044 23.9124H7.81757C7.66704 23.9124 7.52268 23.8548 7.41624 23.7523C7.3098 23.6497 7.25 23.5107 7.25 23.3656C7.25 23.2206 7.3098 23.0815 7.41624 22.979C7.52268 22.8765 7.66704 22.8188 7.81757 22.8188H14.7061C15.8831 22.8195 17.048 23.0484 18.1313 23.4918C19.2146 23.9351 20.1942 24.584 21.0118 25.3997H26.1233C26.8222 25.4004 27.4922 25.6681 27.9865 26.144C28.4808 26.6199 28.759 27.2652 28.7602 27.9385C28.7605 28.5055 28.5619 29.056 28.1966 29.5007C28.1823 29.5232 28.1662 29.5446 28.1484 29.5646C28.0916 29.6259 28.0428 29.6816 27.9844 29.738C27.7404 29.974 27.4504 30.1612 27.131 30.2887C26.8115 30.4163 26.4691 30.4816 26.1233 30.4811Z" fill="url(#paint0_linear)"/>
<path d="M21.3073 36.9483C19.9087 36.9492 18.5206 36.7151 17.2055 36.2567L7.62381 32.9052C7.48231 32.8557 7.36703 32.7541 7.30333 32.6227C7.23962 32.4913 7.23271 32.3409 7.28412 32.2046C7.33552 32.0683 7.44103 31.9572 7.57743 31.8959C7.71384 31.8345 7.86996 31.8278 8.01146 31.8774L17.5943 35.2294C19.0032 35.7181 20.501 35.9241 21.9956 35.8348C23.4902 35.7455 24.95 35.3627 26.2854 34.71L39.2873 28.3132C38.5846 27.7725 37.7498 27.4141 36.8626 27.2724C35.9753 27.1306 35.0652 27.2102 34.2189 27.5035L27.9836 29.6904C27.9024 29.7328 27.8115 29.755 27.7191 29.7549C27.6044 29.7561 27.4919 29.7236 27.3967 29.6619C27.3015 29.6003 27.2279 29.5122 27.1856 29.4094C27.1434 29.3066 27.1345 29.1939 27.1602 29.0862C27.1858 28.9784 27.2447 28.8806 27.3292 28.8058C27.385 28.7539 27.4515 28.7139 27.5244 28.6883L33.8318 26.4762C34.8892 26.1099 36.028 26.0181 37.1339 26.21C38.2397 26.402 39.2737 26.8709 40.1318 27.5697L40.6676 28.0169C40.7378 28.0755 40.792 28.1499 40.8254 28.2334C40.8588 28.3169 40.8704 28.4071 40.8592 28.4959C40.848 28.5848 40.8143 28.6696 40.7611 28.743C40.7079 28.8164 40.6368 28.8761 40.5541 28.9168L26.7991 35.6837C25.0973 36.5158 23.2157 36.9491 21.3073 36.9483Z" fill="url(#paint1_linear)"/>
<path d="M7.81552 34.4519H1.70282C1.55229 34.4519 1.40793 34.3943 1.30149 34.2918C1.19505 34.1892 1.13525 34.0502 1.13525 33.9052V22.0006C1.13525 21.8556 1.19505 21.7165 1.30149 21.614C1.40793 21.5115 1.55229 21.4539 1.70282 21.4539H7.81552C7.96605 21.4539 8.11041 21.5115 8.21685 21.614C8.32329 21.7165 8.38309 21.8556 8.38309 22.0006V33.9052C8.38309 34.0502 8.32329 34.1892 8.21685 34.2918C8.11041 34.3943 7.96605 34.4519 7.81552 34.4519ZM2.27039 33.3584H7.24796V22.5473H2.27039V33.3584Z" fill="url(#paint2_linear)"/>
<path d="M26.3919 23.0069C24.3901 23.0069 22.4332 22.435 20.7688 21.3637C19.1043 20.2924 17.807 18.7697 17.041 16.9881C16.2749 15.2065 16.0745 13.2462 16.465 11.3549C16.8555 9.46357 17.8195 7.72631 19.235 6.36276C20.6505 4.99922 22.454 4.07063 24.4174 3.69443C26.3807 3.31822 28.4158 3.5113 30.2653 4.24925C32.1147 4.9872 33.6955 6.23686 34.8076 7.84023C35.9198 9.44359 36.5134 11.3286 36.5134 13.257C36.5102 15.8419 35.4428 18.32 33.5454 20.1478C31.6479 21.9756 29.0753 23.0038 26.3919 23.0069ZM26.3919 4.6C24.6146 4.6 22.8773 5.10768 21.3995 6.05884C19.9217 7.00999 18.7699 8.36191 18.0897 9.94363C17.4096 11.5254 17.2316 13.2658 17.5783 14.945C17.925 16.6242 18.7808 18.1666 20.0375 19.3773C21.2942 20.5879 22.8953 21.4124 24.6385 21.7465C26.3816 22.0805 28.1884 21.9092 29.8305 21.2541C31.4725 20.599 32.876 19.4895 33.8635 18.0661C34.851 16.6426 35.3781 14.969 35.3782 13.257C35.3755 10.9619 34.4279 8.76167 32.7432 7.13884C31.0586 5.51601 28.7744 4.60316 26.3919 4.60055V4.6Z" fill="url(#paint3_linear)"/>
<path d="M26.3919 13.8048C25.7807 13.7864 25.1888 13.5949 24.6899 13.2543C24.191 12.9137 23.8073 12.4391 23.5866 11.8897C23.366 11.3403 23.3182 10.7405 23.4493 10.1651C23.5803 9.5897 23.8843 9.06424 24.3234 8.6543C24.7625 8.24436 25.3173 7.9681 25.9183 7.86C26.5194 7.75191 27.1402 7.81676 27.7032 8.04647C28.2663 8.27618 28.7466 8.66057 29.0843 9.15166C29.422 9.64275 29.6021 10.2188 29.602 10.8079C29.602 10.9529 29.5422 11.092 29.4358 11.1945C29.3294 11.297 29.185 11.3547 29.0345 11.3547C28.8839 11.3547 28.7396 11.297 28.6331 11.1945C28.5267 11.092 28.4669 10.9529 28.4669 10.8079C28.4873 10.4082 28.383 10.0118 28.1673 9.6699C27.9516 9.32796 27.6345 9.05612 27.2569 8.88949C26.8793 8.72285 26.4585 8.66905 26.0489 8.73504C25.6392 8.80102 25.2595 8.98376 24.9587 9.25967C24.6579 9.53558 24.4499 9.89201 24.3614 10.2829C24.2729 10.6739 24.3081 11.0814 24.4623 11.4529C24.6166 11.8244 24.8828 12.1429 25.2268 12.3672C25.5707 12.5915 25.9765 12.7113 26.3919 12.7112C26.5424 12.7112 26.6868 12.7689 26.7932 12.8714C26.8996 12.9739 26.9594 13.113 26.9594 13.258C26.9594 13.4031 26.8996 13.5421 26.7932 13.6447C26.6868 13.7472 26.5424 13.8048 26.3919 13.8048Z" fill="url(#paint4_linear)"/>
<path d="M26.3918 18.7033C25.5539 18.7148 24.7455 18.4058 24.1437 17.844C23.542 17.2822 23.196 16.5135 23.1816 15.7063C23.1816 15.5613 23.2414 15.4222 23.3479 15.3197C23.4543 15.2171 23.5987 15.1595 23.7492 15.1595C23.8997 15.1595 24.0441 15.2171 24.1505 15.3197C24.257 15.4222 24.3168 15.5613 24.3168 15.7063C24.2962 16.106 24.4005 16.5024 24.6161 16.8444C24.8317 17.1864 25.1488 17.4583 25.5264 17.6251C25.9039 17.7918 26.3247 17.8457 26.7344 17.7797C27.1441 17.7138 27.5238 17.5311 27.8247 17.2552C28.1255 16.9794 28.3337 16.6229 28.4222 16.232C28.5107 15.841 28.4756 15.4335 28.3214 15.062C28.1672 14.6904 27.9009 14.3719 27.5569 14.1476C27.213 13.9233 26.8072 13.8034 26.3918 13.8035C26.2413 13.8035 26.0969 13.7459 25.9905 13.6433C25.884 13.5408 25.8242 13.4017 25.8242 13.2567C25.8242 13.1117 25.884 12.9726 25.9905 12.87C26.0969 12.7675 26.2413 12.7099 26.3918 12.7099C26.809 12.6966 27.2247 12.7643 27.6142 12.9089C28.0036 13.0535 28.3589 13.2721 28.6589 13.5517C28.9589 13.8314 29.1975 14.1662 29.3604 14.5365C29.5233 14.9067 29.6073 15.3047 29.6073 15.7069C29.6073 16.109 29.5233 16.507 29.3604 16.8773C29.1975 17.2475 28.9589 17.5824 28.6589 17.862C28.3589 18.1416 28.0036 18.3602 27.6142 18.5048C27.2247 18.6495 26.809 18.7171 26.3918 18.7038V18.7033Z" fill="url(#paint5_linear)"/>
<path d="M26.3918 19.6223C26.2413 19.6223 26.0969 19.5647 25.9905 19.4621C25.884 19.3596 25.8242 19.2205 25.8242 19.0755V7.43614C25.8242 7.29113 25.884 7.15207 25.9905 7.04954C26.0969 6.94701 26.2413 6.8894 26.3918 6.8894C26.5423 6.8894 26.6867 6.94701 26.7931 7.04954C26.8996 7.15207 26.9594 7.29113 26.9594 7.43614V19.0755C26.9594 19.2205 26.8996 19.3596 26.7931 19.4621C26.6867 19.5647 26.5423 19.6223 26.3918 19.6223Z" fill="url(#paint6_linear)"/>
<defs>
<linearGradient id="paint0_linear" x1="18.0051" y1="22.8188" x2="18.0051" y2="30.4811" gradientUnits="userSpaceOnUse">
<stop/>
<stop offset="1" stop-color="#3D4356"/>
</linearGradient>
<linearGradient id="paint1_linear" x1="24.0567" y1="26.1123" x2="24.0567" y2="36.9483" gradientUnits="userSpaceOnUse">
<stop/>
<stop offset="1" stop-color="#3D4356"/>
</linearGradient>
<linearGradient id="paint2_linear" x1="4.75917" y1="21.4539" x2="4.75917" y2="34.4519" gradientUnits="userSpaceOnUse">
<stop/>
<stop offset="1" stop-color="#3D4356"/>
</linearGradient>
<linearGradient id="paint3_linear" x1="26.3919" y1="3.50708" x2="26.3919" y2="23.0069" gradientUnits="userSpaceOnUse">
<stop/>
<stop offset="1" stop-color="#3D4356"/>
</linearGradient>
<linearGradient id="paint4_linear" x1="26.4895" y1="7.80908" x2="26.4895" y2="13.8048" gradientUnits="userSpaceOnUse">
<stop/>
<stop offset="1" stop-color="#3D4356"/>
</linearGradient>
<linearGradient id="paint5_linear" x1="26.3945" y1="12.7083" x2="26.3945" y2="18.7055" gradientUnits="userSpaceOnUse">
<stop/>
<stop offset="1" stop-color="#3D4356"/>
</linearGradient>
<linearGradient id="paint6_linear" x1="26.3918" y1="6.8894" x2="26.3918" y2="19.6223" gradientUnits="userSpaceOnUse">
<stop/>
<stop offset="1" stop-color="#3D4356"/>
</linearGradient>
</defs>
</svg>
