<svg width="35" height="35" viewBox="0 0 35 35" fill="none" xmlns="http://www.w3.org/2000/svg">
<path d="M34.8839 29.8607C34.8497 28.5357 34.2889 27.317 33.3046 26.4292L22.5071 16.6904L32.0541 7.14348C32.1168 7.12475 32.1788 7.10144 32.2386 7.06986L34.306 5.9787C34.5916 5.8279 34.7832 5.55816 34.8314 5.23885C34.8796 4.91948 34.7763 4.6053 34.548 4.3767L32.2202 2.049C31.9917 1.82061 31.6778 1.71732 31.3581 1.76558C31.0388 1.81377 30.7691 2.00532 30.6182 2.29099L29.527 4.35824C29.4952 4.41861 29.4707 4.48102 29.4519 4.54439L24.9457 9.05064C24.7362 9.26016 24.7362 9.59963 24.9457 9.80915C25.1552 10.0185 25.4946 10.0185 25.7042 9.80915L29.8394 5.67389L30.9231 6.75759L20.3479 17.3328L19.2642 16.2491L23.8801 11.6332C24.0896 11.4237 24.0896 11.0842 23.8801 10.8747C23.6706 10.6654 23.3311 10.6654 23.1216 10.8747L19.7724 14.2239L16.1274 10.9362C17.1608 7.96147 16.4124 4.65185 14.1706 2.41007C11.8743 0.113811 8.42955 -0.617976 5.39453 0.545979C5.22493 0.611057 5.09977 0.757483 5.06203 0.935149C5.0243 1.11282 5.07892 1.29752 5.20736 1.42597L9.41775 5.63643C9.5423 5.76098 9.611 5.92661 9.611 6.10278C9.611 6.27894 9.54237 6.44457 9.41775 6.56919L6.68345 9.3035C6.5589 9.42812 6.39326 9.49675 6.2171 9.49675C6.04094 9.49675 5.8753 9.42819 5.75068 9.3035L1.54023 5.09304C1.41171 4.96459 1.22714 4.90997 1.0494 4.94771C0.871739 4.98551 0.725313 5.11061 0.660235 5.28021C-0.50372 8.31509 0.228067 11.7599 2.52439 14.0563C4.71128 16.2431 7.95678 17.013 10.8847 16.067L13.7029 19.1488C13.5675 19.4134 13.3914 19.6602 13.1742 19.8774C12.3619 20.6898 11.1443 20.9457 10.0721 20.5295C9.87391 20.4524 9.64908 20.4999 9.49869 20.6502L2.93216 27.2167C1.15454 28.9944 1.15454 31.8868 2.93216 33.6644C3.79342 34.5258 4.93837 35 6.15619 35C7.37394 35 8.51896 34.5258 9.38009 33.6647L15.9466 27.0982C16.0969 26.9479 16.1442 26.723 16.0673 26.5248C15.651 25.4527 15.907 24.235 16.7193 23.4226C17.5318 22.6102 18.7494 22.3543 19.8216 22.7704C20.0199 22.8475 20.2446 22.8 20.395 22.6498L21.6336 21.4111C22.0066 21.0381 22.212 20.5422 22.212 20.0148C22.212 19.4874 22.0066 18.9915 21.6336 18.6185L21.1064 18.0912L21.7478 17.4498L32.5863 27.2257C33.35 27.9145 33.7853 28.8602 33.8117 29.8884C33.8382 30.9165 33.4522 31.8833 32.7249 32.6105C32.0012 33.3344 31.0368 33.7197 30.0155 33.6976C28.992 33.6748 28.048 33.2462 27.3572 32.4907L19.2984 23.6782C19.0983 23.4595 18.7593 23.4445 18.5407 23.6443C18.3222 23.8443 18.307 24.1835 18.5069 24.402L26.5656 33.2146C27.4559 34.1881 28.6726 34.7404 29.9915 34.7699C30.0284 34.7707 30.0652 34.7711 30.1021 34.7711C31.3796 34.7711 32.5766 34.2756 33.4834 33.3689C34.4206 32.4317 34.9179 31.1857 34.8839 29.8607ZM30.4983 4.81591L31.525 2.87081L33.7261 5.07192L31.781 6.09861L30.4983 4.81591ZM11.438 15.0827C11.2904 14.9214 11.0597 14.8658 10.8548 14.9422C8.23233 15.9204 5.25993 15.275 3.28277 13.298C1.48752 11.5027 0.791895 8.89997 1.40487 6.47472L4.99217 10.062C5.3194 10.3892 5.75437 10.5693 6.21703 10.5693C6.67969 10.5693 7.11466 10.3892 7.44183 10.062L10.1761 7.32771C10.5033 7.00047 10.6834 6.5655 10.6834 6.10284C10.6834 5.64019 10.5033 5.20522 10.1761 4.87805L6.58891 1.29062C9.01396 0.677366 11.6169 1.3732 13.4121 3.16852C15.4396 5.19585 16.0626 8.22732 14.9996 10.8916C14.9164 11.1001 14.9717 11.3383 15.1385 11.4886L19.013 14.9833L18.5057 15.4906L17.9784 14.9634C17.6054 14.5904 17.1095 14.3851 16.5821 14.3851C16.0547 14.3851 15.5587 14.5904 15.1858 14.9634L13.9471 16.2021C13.7969 16.3524 13.7495 16.5773 13.8265 16.7755C13.9691 17.1429 14.031 17.5272 14.0204 17.9067L11.438 15.0827ZM20.8751 20.6527L19.8714 21.6564C18.4911 21.2585 16.9891 21.6359 15.9609 22.6641H15.9608C14.9327 23.6923 14.5552 25.194 14.9532 26.5746L8.62164 32.9061C7.96307 33.5647 7.08752 33.9274 6.15626 33.9274C5.225 33.9274 4.34932 33.5647 3.69088 32.9061C2.33142 31.5467 2.33142 29.3347 3.69088 27.9752L10.0224 21.6437C11.4028 22.0419 12.9046 21.6641 13.9329 20.636C14.961 19.6078 15.3386 18.106 14.9406 16.7255L15.9443 15.7218C16.2959 15.3701 16.8683 15.3701 17.2199 15.7218L18.1265 16.6283L19.9685 18.4704L20.8751 19.3769C21.2268 19.7287 21.2268 20.301 20.8751 20.6527Z" fill="url(#paint0_linear)"/>
<defs>
<linearGradient id="paint0_linear" x1="17.4999" y1="0" x2="17.4999" y2="35" gradientUnits="userSpaceOnUse">
<stop/>
<stop offset="1" stop-color="#3D4356"/>
</linearGradient>
</defs>
</svg>
