<svg width="29" height="28" viewBox="0 0 29 28" fill="none" xmlns="http://www.w3.org/2000/svg">
<g clip-path="url(#clip0)">
<path d="M24.8941 12.5802L23.6707 11.8868C23.6344 11.7448 23.5947 11.6036 23.5513 11.4645L24.4216 10.1956C24.5139 10.0611 24.5275 9.89028 24.4575 9.74386C24.1533 9.11083 23.7825 8.50946 23.3512 7.94917C23.254 7.82528 23.1001 7.75498 22.9392 7.76098L21.3175 7.83779C21.2155 7.73712 21.1114 7.63889 21.005 7.54316L21.0862 6.02966C21.0948 5.86992 21.0177 5.71711 20.8819 5.62504C20.2845 5.21874 19.6465 4.87086 18.9775 4.58641C18.8305 4.52379 18.6609 4.53578 18.5249 4.61847L17.1657 5.44342C17.0184 5.40274 16.8683 5.36498 16.7168 5.3307L15.9764 3.97497C15.8928 3.82198 15.7282 3.72613 15.5488 3.72607H13.4514C13.272 3.72613 13.1073 3.82198 13.0238 3.97497L12.2838 5.3307C12.1327 5.3648 11.983 5.4024 11.8345 5.44342L10.4757 4.61847C10.34 4.53589 10.1705 4.52379 10.0236 4.58617C9.35419 4.87057 8.71589 5.21862 8.11831 5.62522C7.98287 5.71734 7.9059 5.86986 7.91442 6.02937L7.99561 7.5431C7.88893 7.63883 7.78478 7.73683 7.68317 7.83727L6.06101 7.76045C5.9002 7.75626 5.74694 7.82627 5.64853 7.94888C5.21798 8.50952 4.84766 9.11083 4.54319 9.74357C4.47323 9.88987 4.48665 10.0606 4.57859 10.195L5.44881 11.4645C5.40537 11.6036 5.36575 11.7447 5.32938 11.8868L4.10606 12.5799C3.95835 12.6635 3.86768 12.8161 3.86768 12.9811V14.9549C3.86768 15.1199 3.95835 15.2725 4.106 15.3562L5.32932 16.0492C5.36568 16.1913 5.40531 16.3325 5.44875 16.4718L4.57847 17.7405C4.48616 17.8749 4.47257 18.0458 4.54259 18.1922C4.84682 18.8253 5.2175 19.4267 5.64889 19.9871C5.74639 20.1106 5.90002 20.1807 6.06089 20.1753L7.68256 20.0985C7.78454 20.1993 7.88862 20.2974 7.99501 20.3932L7.91388 21.9064C7.9053 22.0661 7.98244 22.2189 8.11825 22.311C8.71565 22.7173 9.35359 23.0653 10.0226 23.3498C10.1696 23.4122 10.3392 23.4002 10.4752 23.3178L11.8344 22.4928C11.9816 22.5335 12.1318 22.5713 12.2833 22.6056L13.0238 23.9613C13.1073 24.1143 13.272 24.2101 13.4514 24.2102H15.5488C15.7282 24.2102 15.8929 24.1143 15.9764 23.9613L16.7164 22.6056C16.8674 22.5715 17.0172 22.5339 17.1657 22.4929L18.5245 23.3178C18.6603 23.4002 18.8297 23.4123 18.9766 23.3501C19.646 23.0657 20.2843 22.7177 20.8819 22.3111C21.0174 22.219 21.0943 22.0664 21.0858 21.9069L21.0046 20.3932C21.1113 20.2975 21.2155 20.1994 21.3171 20.0988L22.9392 20.1756C23.1004 20.1823 23.2546 20.1118 23.3512 19.9874C23.7821 19.4268 24.1526 18.8254 24.457 18.1925C24.527 18.0462 24.5136 17.8755 24.4216 17.741L23.5514 16.4719C23.5948 16.3328 23.6344 16.1916 23.6708 16.0495L24.8941 15.3564C25.0418 15.2729 25.1325 15.1202 25.1324 14.9553V12.9815C25.1324 12.8164 25.0418 12.6637 24.8941 12.5802ZM24.1658 14.6888L23.0019 15.3482C22.8861 15.4138 22.8038 15.5228 22.7749 15.6492C22.7168 15.9034 22.6451 16.1557 22.5625 16.3992C22.5166 16.5341 22.5371 16.6818 22.6182 16.8004L23.4639 18.034C23.2487 18.451 23.0014 18.8518 22.7239 19.2331L21.1433 19.1583C21.0014 19.1544 20.8644 19.2082 20.7658 19.3066C20.5831 19.4955 20.3896 19.678 20.1895 19.8492C20.0796 19.943 20.02 20.0798 20.0276 20.2211L20.1064 21.6945C19.6958 21.9586 19.2654 22.1931 18.8189 22.3961L17.4951 21.5922C17.3753 21.5193 17.2282 21.5009 17.093 21.542C16.8334 21.6202 16.5644 21.6877 16.294 21.7425C16.1529 21.7708 16.0324 21.8585 15.9655 21.9814L15.2571 23.2791H13.743L13.0345 21.9814C12.9676 21.8587 12.8473 21.7711 12.7065 21.7425C12.4337 21.687 12.1647 21.6198 11.907 21.542C11.7719 21.5008 11.6247 21.5192 11.5049 21.5922L10.1806 22.396C9.73412 22.1928 9.30381 21.9581 8.89308 21.694L8.9724 20.221C8.97989 20.0795 8.92014 19.9424 8.81001 19.8485C8.61084 19.6784 8.41686 19.4959 8.23375 19.3063C8.13589 19.2069 7.99833 19.1529 7.85618 19.1581L6.27608 19.2329C5.99831 18.8518 5.7508 18.451 5.53556 18.034L6.38131 16.8006C6.46275 16.6821 6.48347 16.5342 6.43749 16.3992C6.35491 16.1557 6.28314 15.9032 6.22509 15.649C6.19615 15.5226 6.11393 15.4135 5.99807 15.348L4.83419 14.6886V13.2476L5.99807 12.5881C6.11387 12.5226 6.19615 12.4135 6.22509 12.2871C6.28314 12.033 6.35485 11.7807 6.43749 11.5372C6.48341 11.4023 6.46287 11.2546 6.3818 11.136L5.53604 9.90209C5.75135 9.48519 5.99873 9.08435 6.27608 8.70301L7.85667 8.77802C7.99912 8.78489 8.13734 8.7306 8.23424 8.62981C8.41686 8.44091 8.61041 8.25836 8.81049 8.08721C8.92038 7.9934 8.97995 7.85653 8.9724 7.7153L8.89356 6.24184C9.30417 5.97775 9.73454 5.74329 10.181 5.54031L11.5049 6.34414C11.6248 6.41688 11.7718 6.43521 11.907 6.39436C12.1666 6.31615 12.4356 6.24865 12.706 6.19388C12.8471 6.16554 12.9676 6.07791 13.0345 5.955L13.7429 4.65723H15.257L15.9654 5.955C16.0324 6.07767 16.1527 6.16525 16.2935 6.19388C16.5663 6.24934 16.8353 6.31661 17.0929 6.39436C17.2281 6.43492 17.3751 6.41659 17.495 6.34414L18.8194 5.54037C19.2659 5.74353 19.6962 5.97805 20.107 6.24213L20.0277 7.71535C20.0202 7.85688 20.0799 7.99398 20.19 8.08791C20.3892 8.25795 20.5832 8.4405 20.7663 8.63004C20.8639 8.72984 21.0017 8.7839 21.1439 8.77826L22.724 8.70348C23.0017 9.08459 23.2492 9.48537 23.4645 9.90238L22.6187 11.1358C22.5373 11.2543 22.5166 11.4022 22.5626 11.5372C22.6451 11.7807 22.7169 12.033 22.775 12.2871C22.8039 12.4135 22.8861 12.5226 23.002 12.5881L24.1659 13.2476V14.6888H24.1658Z" fill="url(#paint0_linear)"/>
<path d="M14.4998 6.98535C10.4961 6.98535 7.25049 10.1119 7.25049 13.9686C7.25049 17.8253 10.4961 20.9518 14.4998 20.9518C18.5035 20.9518 21.7491 17.8253 21.7491 13.9686C21.7447 10.1136 18.5016 6.9896 14.4998 6.98535ZM14.4998 20.0207C11.0299 20.0207 8.21706 17.3111 8.21706 13.9686C8.21706 10.6261 11.0299 7.91645 14.4998 7.91645C17.9697 7.91645 20.7825 10.6261 20.7825 13.9686C20.7786 17.3095 17.968 20.0169 14.4998 20.0207Z" fill="url(#paint1_linear)"/>
<path d="M24.6492 1.86353V4.65711H21.7495V5.5883H25.1325C25.3994 5.58836 25.6158 5.38 25.6158 5.12294C25.6158 5.12288 25.6158 5.12276 25.6158 5.1227V1.86353H24.6492Z" fill="url(#paint2_linear)"/>
<path d="M3.86756 22.3477C3.60073 22.3476 3.38434 22.556 3.38428 22.813C3.38428 22.8131 3.38428 22.8132 3.38428 22.8133V26.0724H4.35085V23.2788H7.25058V22.3477H3.86756Z" fill="url(#paint3_linear)"/>
<path d="M2.50074 6.12931C0.872185 8.44238 0.00142254 11.1729 0.00099966 13.9678C-0.00419568 16.7649 0.867171 19.4983 2.50098 21.8105L3.30046 21.2868C-0.894773 15.3278 0.719043 7.22096 6.90512 3.17971C11.4915 0.183449 17.5107 0.183391 22.0972 3.17954L22.6409 2.40941C16.013 -1.92083 6.99591 -0.255329 2.50074 6.12931Z" fill="url(#paint4_linear)"/>
<path d="M26.5937 6.2627L25.7876 6.77689C29.9098 12.7831 28.197 20.8711 21.962 24.842C17.3877 27.7552 11.4406 27.7216 6.9021 24.7569L6.3584 25.527C12.9864 29.8571 22.0036 28.1915 26.4987 21.8067C29.7966 17.1225 29.8341 10.984 26.5937 6.2627Z" fill="url(#paint5_linear)"/>
</g>
<defs>
<linearGradient id="paint0_linear" x1="14.5001" y1="3.72607" x2="14.5001" y2="24.2102" gradientUnits="userSpaceOnUse">
<stop/>
<stop offset="1" stop-color="#3D4356"/>
</linearGradient>
<linearGradient id="paint1_linear" x1="14.4998" y1="6.98535" x2="14.4998" y2="20.9518" gradientUnits="userSpaceOnUse">
<stop/>
<stop offset="1" stop-color="#3D4356"/>
</linearGradient>
<linearGradient id="paint2_linear" x1="23.6827" y1="1.86353" x2="23.6827" y2="5.5883" gradientUnits="userSpaceOnUse">
<stop/>
<stop offset="1" stop-color="#3D4356"/>
</linearGradient>
<linearGradient id="paint3_linear" x1="5.31743" y1="22.3477" x2="5.31743" y2="26.0724" gradientUnits="userSpaceOnUse">
<stop/>
<stop offset="1" stop-color="#3D4356"/>
</linearGradient>
<linearGradient id="paint4_linear" x1="11.321" y1="0" x2="11.321" y2="21.8105" gradientUnits="userSpaceOnUse">
<stop/>
<stop offset="1" stop-color="#3D4356"/>
</linearGradient>
<linearGradient id="paint5_linear" x1="17.6784" y1="6.2627" x2="17.6784" y2="27.9363" gradientUnits="userSpaceOnUse">
<stop/>
<stop offset="1" stop-color="#3D4356"/>
</linearGradient>
<clipPath id="clip0">
<rect width="29" height="27.9355" fill="white"/>
</clipPath>
</defs>
</svg>
