<svg width="12" height="11" viewBox="0 0 12 11" fill="none" xmlns="http://www.w3.org/2000/svg">
<path d="M5.61947 1.5772L6 2.02366L6.38053 1.5772C6.94268 0.917668 7.80722 0.5 8.7 0.5C10.2723 0.5 11.5 1.72725 11.5 3.297C11.5 4.26558 11.0685 5.18357 10.2069 6.23606C9.33949 7.29555 8.08937 8.42933 6.5343 9.83817L6.53358 9.83883L5.99872 10.3253L5.4661 9.84453C5.46589 9.84434 5.46568 9.84415 5.46547 9.84396C3.91058 8.43225 2.66062 7.29715 1.79324 6.23694C0.931485 5.1836 0.5 4.26559 0.5 3.297C0.5 1.72725 1.72771 0.5 3.3 0.5C4.19278 0.5 5.05732 0.917668 5.61947 1.5772Z" fill="#CCCCCC" stroke="#CCCCCC"/>
</svg>
