<svg width="14" height="14" viewBox="0 0 14 14" fill="none" xmlns="http://www.w3.org/2000/svg">
<path d="M6.61741 2.30257L7 2.75726L7.38259 2.30257C8.05457 1.50392 9.08565 1 10.15 1C12.0242 1 13.5 2.48491 13.5 4.39646C13.5 5.57313 12.9816 6.67886 11.9705 7.92993C10.9535 9.18832 9.48939 10.5331 7.67692 12.1965L7.67621 12.1971L6.99871 12.8213L6.32347 12.2039L6.32263 12.2031C4.51044 10.5365 3.04657 9.19014 2.02961 7.93094C1.01841 6.67889 0.5 5.57314 0.5 4.39646C0.5 2.48491 1.97578 1 3.85 1C4.91435 1 5.94543 1.50392 6.61741 2.30257Z" stroke="#6D6D6D"/>
</svg>
