<svg width="12" height="12" viewBox="0 0 12 12" fill="none" xmlns="http://www.w3.org/2000/svg">
<path d="M6.34362 0.875C6.58093 0.875 6.77709 1.05126 6.80817 1.28005L6.81246 1.34365L6.81322 5.875H11.3464C11.6053 5.875 11.8151 6.08487 11.8151 6.34375C11.8151 6.58106 11.6388 6.77718 11.41 6.80822L11.3464 6.8125H6.81322L6.8145 11.3432C6.81455 11.6021 6.60472 11.812 6.34584 11.812C6.10853 11.812 5.91237 11.6358 5.88129 11.407L5.877 11.3434L5.87572 6.8125H1.34509C1.08621 6.8125 0.876343 6.60263 0.876343 6.34375C0.876343 6.10644 1.05269 5.91032 1.28149 5.87928L1.34509 5.875H5.87572L5.87496 1.34385C5.87491 1.08496 6.08473 0.875 6.34362 0.875Z" fill="#404040"/>
</svg>
