<svg width="22" height="20" viewBox="0 0 22 20" fill="none" xmlns="http://www.w3.org/2000/svg">
<g opacity="0.6">
<path d="M21.8167 3.63612V2.72709C21.8167 2.00382 21.5294 1.31017 21.018 0.798745C20.5065 0.287317 19.8129 0 19.0896 0C18.3663 0 17.6727 0.287317 17.1613 0.798745C16.6498 1.31017 16.3625 2.00382 16.3625 2.72709V5.45417H11.8174V2.72709C11.8174 2.486 11.9131 2.25478 12.0836 2.08431C12.2541 1.91383 12.4853 1.81806 12.7264 1.81806C12.9675 1.81806 13.1987 1.91383 13.3692 2.08431C13.5397 2.25478 13.6354 2.486 13.6354 2.72709V3.63612H15.4535V2.72709C15.4535 2.00382 15.1662 1.31017 14.6547 0.798746C14.1433 0.287317 13.4497 5.74691e-08 12.7264 5.74691e-08C12.0031 5.74691e-08 11.3095 0.287317 10.7981 0.798746C10.2866 1.31017 9.99932 2.00382 9.99932 2.72709V12.8411C9.58015 12.761 9.15409 12.7226 8.72736 12.7264C7.85469 12.7072 6.98906 12.8865 6.19583 13.2508C5.6241 13.5224 4.99602 13.6542 4.36334 13.6354C3.73071 13.6542 3.10268 13.5223 2.53096 13.2508C1.73792 12.8866 0.872484 12.7073 0 12.7264L0 14.5445C0.632562 14.5257 1.26052 14.6576 1.83215 14.9291C2.62528 15.2933 3.49078 15.4726 4.36334 15.4535C5.23601 15.4727 6.10163 15.2934 6.89487 14.9291C7.4666 14.6575 8.09468 14.5257 8.72736 14.5445C9.35985 14.5257 9.98773 14.6576 10.5593 14.9291C11.3523 15.2933 12.2176 15.4726 13.09 15.4535C13.9626 15.4727 14.8281 15.2934 15.6212 14.9291C16.1928 14.6576 16.8208 14.5257 17.4534 14.5445C18.0858 14.5257 18.7137 14.6576 19.2853 14.9291C20.0785 15.2934 20.9441 15.4727 21.8167 15.4535V13.6354C21.1843 13.6541 20.5564 13.5223 19.9849 13.2509C19.4144 12.9898 18.8048 12.8243 18.1806 12.7611V2.72709C18.1806 2.486 18.2764 2.25478 18.4468 2.08431C18.6173 1.91383 18.8485 1.81806 19.0896 1.81806C19.3307 1.81806 19.5619 1.91383 19.7324 2.08431C19.9029 2.25478 19.9986 2.486 19.9986 2.72709V3.63612H21.8167ZM16.3625 7.27223V9.09029H11.8174V7.27223H16.3625ZM14.9224 13.2508C14.3507 13.5224 13.7227 13.6542 13.09 13.6354C12.6594 13.6472 12.2297 13.5897 11.8174 13.465V10.9083H16.3625V12.8084C15.8657 12.8944 15.3818 13.043 14.9224 13.2508Z" fill="white"/>
<path d="M17.4534 17.2715C16.5808 17.2524 15.7152 17.4317 14.9221 17.7959C14.3505 18.0675 13.7225 18.1993 13.09 18.1806C12.4575 18.1993 11.8296 18.0675 11.2581 17.7959C10.4651 17.4317 9.59977 17.2524 8.72736 17.2715C7.85469 17.2524 6.98907 17.4317 6.19583 17.7959C5.6241 18.0675 4.99602 18.1994 4.36334 18.1806C3.73071 18.1993 3.10267 18.0675 2.53096 17.7959C1.73792 17.4317 0.872484 17.2524 0 17.2715L0 19.0896C0.632562 19.0709 1.26052 19.2027 1.83215 19.4742C2.62528 19.8385 3.49078 20.0178 4.36334 19.9986C5.23601 20.0178 6.10163 19.8385 6.89487 19.4742C7.4666 19.2027 8.09468 19.0708 8.72736 19.0896C9.35985 19.0709 9.98773 19.2027 10.5593 19.4742C11.3523 19.8385 12.2176 20.0178 13.09 19.9986C13.9626 20.0178 14.8281 19.8385 15.6212 19.4742C16.1928 19.2027 16.8208 19.0709 17.4534 19.0896C18.0858 19.0709 18.7137 19.2027 19.2853 19.4742C20.0785 19.8386 20.9441 20.0179 21.8167 19.9986V18.1806C21.1843 18.1993 20.5564 18.0675 19.9849 17.7961C19.1917 17.4316 18.326 17.2523 17.4534 17.2715Z" fill="white"/>
</g>
</svg>
