<svg width="20" height="18" viewBox="0 0 20 18" fill="none" xmlns="http://www.w3.org/2000/svg">
<path d="M19.8484 5.77495L8.51834 0.362438C8.38668 0.298768 8.22751 0.353805 8.16546 0.484923L5.69958 5.64599H7.04313L8.85288 1.85383L18.6759 6.546L15.6041 12.9751L13.8747 12.1495V15.5483L14.9382 16.0561C15.071 16.1203 15.228 16.0625 15.2911 15.9309L19.9736 6.12621C20.0373 5.99563 19.9811 5.83754 19.8484 5.77495Z" fill="white"/>
<path d="M12.8225 6.26923H0.265472C0.120326 6.26923 0 6.38739 0 6.53254V17.3991C0 17.5448 0.120326 17.664 0.265472 17.664H12.822C12.9682 17.664 13.0875 17.5448 13.0875 17.3991V6.53254C13.088 6.38739 12.9688 6.26923 12.8225 6.26923ZM12.0973 14.5971H11.3015C10.838 13.4084 10.2676 11.7443 9.40161 11.9666C8.38666 12.2256 7.88 14.5971 7.88 14.5971C7.88 14.5971 7.36038 11.9213 5.92834 10.4887C4.49576 9.05615 3.10797 14.5971 3.10797 14.5971H1.21189V7.47087H12.0973V14.5971Z" fill="white"/>
<path d="M2.96883 9.88817C3.45934 9.88817 3.85698 9.49053 3.85698 9.00002C3.85698 8.50951 3.45934 8.11188 2.96883 8.11188C2.47832 8.11188 2.08069 8.50951 2.08069 9.00002C2.08069 9.49053 2.47832 9.88817 2.96883 9.88817Z" fill="white"/>
<path d="M8.9273 9.62699C9.1264 9.62699 9.3131 9.60595 9.47929 9.57303C9.67299 9.65505 9.90933 9.70523 10.1635 9.70523C10.8191 9.70523 11.3489 9.38526 11.3489 8.99029C11.3489 8.5964 10.8191 8.27643 10.1635 8.27643C9.91796 8.27643 9.69026 8.32121 9.50141 8.39945C9.42317 8.32337 9.31903 8.27643 9.20302 8.27643H9.03144C8.81129 8.27643 8.63808 8.44316 8.61326 8.65521C8.0834 8.71079 7.68896 8.90288 7.68896 9.13166C7.68896 9.40523 8.24311 9.62699 8.9273 9.62699Z" fill="white"/>
</svg>
