<svg width="20" height="20" viewBox="0 0 20 20" fill="none" xmlns="http://www.w3.org/2000/svg">
<g opacity="0.6" clip-path="url(#clip0)">
<path d="M19.9712 12.8313C19.8927 12.5899 19.6677 12.4264 19.4139 12.4264H16.2438L15.2642 9.41162C15.1857 9.17007 14.9608 9.00665 14.7069 9.00665C14.4531 9.00665 14.2281 9.17007 14.1497 9.41162L13.17 12.4264H6.82988L5.85011 9.41162C5.77168 9.17007 5.54677 9.00665 5.29286 9.00665C5.03911 9.00665 4.81404 9.17007 4.73561 9.41162L3.756 12.4264H0.585842C0.332089 12.4264 0.107023 12.59 0.0285925 12.8313C-0.0498375 13.0728 0.0360693 13.3372 0.241452 13.4865L2.80614 15.3499L1.82653 18.3648C1.7481 18.6062 1.83401 18.8707 2.03939 19.0199C2.24477 19.1691 2.52294 19.1691 2.72817 19.0199L5.29286 17.1565L7.85755 19.0199C7.96024 19.0945 8.08109 19.1318 8.20194 19.1318C8.32279 19.1318 8.44364 19.0945 8.54633 19.0199C8.75172 18.8707 8.83762 18.6062 8.75919 18.3648L7.77958 15.3499L9.99988 13.7367L12.2202 15.3499L11.2406 18.3648C11.1621 18.6062 11.248 18.8707 11.4534 19.0199C11.6587 19.1691 11.9368 19.1691 12.1422 19.0199L14.7069 17.1565L17.2716 19.0199C17.3743 19.0945 17.495 19.1318 17.616 19.1318C17.7368 19.1318 17.8577 19.0945 17.9602 19.0199C18.1656 18.8707 18.2517 18.6062 18.1731 18.3648L17.1936 15.3499L19.7582 13.4865C19.9637 13.3372 20.0496 13.0728 19.9712 12.8313Z" fill="white"/>
<path d="M4.94848 5.37833L7.51318 7.24173L6.53357 10.2567C6.45514 10.4981 6.54104 10.7625 6.74643 10.9118C6.95181 11.061 7.22998 11.061 7.43521 10.9118L9.9999 9.04852L12.5646 10.9118C12.6673 10.9864 12.7881 11.0238 12.909 11.0238C13.0298 11.0238 13.1507 10.9864 13.2534 10.9118C13.4588 10.7627 13.5447 10.4981 13.4662 10.2567L12.4866 7.24173L15.0513 5.37833C15.2567 5.22909 15.3426 4.96466 15.2642 4.72327C15.1858 4.48187 14.9607 4.31845 14.7069 4.31845H11.5368L10.5572 1.30347C10.4787 1.06192 10.2537 0.898499 9.9999 0.898499C9.746 0.898499 9.52108 1.06192 9.44265 1.30347L8.46304 4.31845H5.29287C5.03912 4.31845 4.81405 4.48187 4.73562 4.72327C4.65719 4.96466 4.7431 5.22909 4.94848 5.37833Z" fill="white"/>
</g>
<defs>
<clipPath id="clip0">
<rect width="20" height="20" fill="white"/>
</clipPath>
</defs>
</svg>
