<svg width="20" height="20" viewBox="0 0 20 20" fill="none" xmlns="http://www.w3.org/2000/svg">
<path d="M2.41754 4.34233H0.866906V5.66101H2.41754V9.34066H0.659302V10.6593H2.41754V14.339H0.659302V15.6577H2.41754V20H5.49446V0H2.41754V4.34233Z" fill="white"/>
<path d="M6.81311 0V20H19.3406V0H6.81311ZM13.0768 5.97196C14.1484 5.97196 15.017 6.84057 15.017 7.91209C15.017 8.9836 14.1484 9.85222 13.0768 9.85222C12.0053 9.85222 11.1367 8.9836 11.1367 7.91209C11.1367 6.84057 12.0053 5.97196 13.0768 5.97196ZM9.56036 14.028C9.56036 12.0859 11.1347 10.5116 13.0768 10.5116C15.019 10.5116 16.5933 12.0859 16.5933 14.028H9.56036Z" fill="white"/>
</svg>
