<svg width="20" height="20" viewBox="0 0 20 20" fill="none" xmlns="http://www.w3.org/2000/svg">
<path d="M0.548771 16.8019C-0.182924 17.5336 -0.182924 18.7185 0.548771 19.4502C0.914619 19.8161 1.39408 19.9984 1.87358 19.9984C2.35308 19.9984 2.83254 19.8161 3.19838 19.4502L9.34789 13.2995L6.69827 10.6523L0.548771 16.8019Z" fill="white"/>
<path d="M15.9182 5.40438L18.5965 4.01961L19.9987 1.30883L18.6914 0.00152588L15.9818 1.40499L14.5946 4.08081L11.3369 7.34222L12.658 8.66579L15.9182 5.40438Z" fill="white"/>
<path d="M16.505 12.5128L16.2528 12.4879C15.7958 12.4879 15.3625 12.5815 14.958 12.7314L7.27013 5.04227C7.41997 4.63773 7.51362 4.20444 7.51362 3.74745L7.48864 3.49521C7.3563 1.54608 5.75055 0.00152588 3.76773 0.00152588C3.19085 0.00152588 2.65019 0.142616 2.16198 0.376122L4.6505 2.86464C4.78161 2.99575 4.87152 3.15056 4.93145 3.31416C5.095 3.75616 5.00637 4.27312 4.6505 4.63022C4.40701 4.8737 4.08737 4.99606 3.76773 4.99606C3.6204 4.99606 3.4743 4.96361 3.33444 4.91116C3.17088 4.84873 3.01603 4.76132 2.88493 4.62898L0.396447 2.1417C0.16294 2.6299 0.0218506 3.17056 0.0218506 3.74745C0.0218506 5.73026 1.5664 7.33602 3.51554 7.46836L3.76777 7.49333C4.22477 7.49333 4.65806 7.39968 5.0626 7.25112L12.7492 14.939C12.6018 15.3435 12.5082 15.7768 12.5082 16.2338L12.5344 16.486C12.6643 18.4364 14.2713 19.9797 16.2541 19.9797C16.831 19.9797 17.3729 19.8411 17.8598 19.6051L15.3713 17.1166C15.2414 16.9867 15.1503 16.8307 15.0879 16.6684C14.9243 16.2264 15.0129 15.7082 15.3713 15.3511C15.6123 15.1076 15.9344 14.9852 16.2541 14.9852C16.4014 14.9852 16.5462 15.0164 16.6886 15.0701C16.8522 15.1313 17.0082 15.2187 17.1368 15.3511L19.6254 17.8396C19.8601 17.3501 20 16.8107 20 16.2338C19.9987 14.2509 18.4542 12.6452 16.505 12.5128Z" fill="white"/>
</svg>
