<svg width="39" height="40" viewBox="0 0 39 40" fill="none" xmlns="http://www.w3.org/2000/svg">
<path d="M38.037 32.1881H29.7503C29.4851 32.1881 29.2688 32.4062 29.2688 32.6735C29.2688 32.9408 29.4851 33.1588 29.7503 33.1588H38.037C38.3022 33.1588 38.5185 32.9408 38.5185 32.6735C38.5185 32.4062 38.3022 32.1881 38.037 32.1881Z" fill="white"/>
<path d="M38.037 38.34H28.7459C28.4807 38.34 28.2644 38.558 28.2644 38.8253C28.2644 39.0926 28.4807 39.3107 28.7459 39.3107H38.037C38.3022 39.3107 38.5185 39.0926 38.5185 38.8253C38.5185 38.558 38.3022 38.34 38.037 38.34Z" fill="white"/>
<path d="M0.481481 35.6916H7.9743C8.23949 35.6916 8.45578 35.4736 8.45578 35.2063C8.45578 34.939 8.23949 34.721 7.9743 34.721H0.481481C0.216291 34.721 0 34.939 0 35.2063C0 35.4755 0.216291 35.6916 0.481481 35.6916Z" fill="white"/>
<path fill-rule="evenodd" clip-rule="evenodd" d="M3.74481 0.534672C3.93098 0.441782 4.15292 0.479695 4.29962 0.627566L4.29986 0.627794C4.44468 0.775641 4.48229 1.00124 4.38825 1.18892C4.08921 1.79178 3.93875 2.43443 3.93875 3.09985C3.93875 5.47712 5.86843 7.41271 8.23823 7.41271C8.90215 7.41271 9.54348 7.25915 10.1453 6.95962C10.3315 6.86673 10.5534 6.90464 10.7001 7.05252C10.8468 7.20036 10.8826 7.42596 10.7904 7.61174C9.89328 9.426 8.08772 10.5521 6.07903 10.5521C3.1768 10.5521 0.816437 8.18029 0.816437 5.2665C0.816437 3.24749 1.93925 1.43518 3.74481 0.534672ZM9.12763 8.30709C8.83421 8.35827 8.53892 8.38292 8.23799 8.38292L8.23811 8.38309C5.33594 8.38309 2.97557 6.01324 2.97745 3.09945C2.97745 2.79613 3.0019 2.49847 3.05268 2.20463C2.24772 2.99894 1.7794 4.0909 1.7794 5.26629C1.7794 7.64545 3.70908 9.58104 6.07889 9.58104C7.25062 9.58104 8.33583 9.11281 9.12763 8.30709Z" fill="white"/>
<path fill-rule="evenodd" clip-rule="evenodd" d="M38.039 24.41H38.0371C37.7719 24.41 37.5575 24.6261 37.5556 24.8934L37.5443 27.4849L19.677 0.92356C19.4983 0.656258 19.0601 0.656258 18.8796 0.92356L1.02529 27.466L1.03658 24.7152C1.03846 24.4479 0.822169 24.228 0.556979 24.228H0.555098C0.289908 24.228 0.0754995 24.4441 0.0736169 24.7114L0.05669 29.0527C0.0548088 29.2669 0.193989 29.4546 0.395229 29.5191C0.442249 29.5342 0.489267 29.5399 0.538171 29.5399C0.694277 29.5399 0.84474 29.4622 0.936896 29.3276L3.74677 25.1512V29.0565C3.74677 29.3238 3.96306 29.5418 4.22826 29.5418H14.9523C15.4996 31.3314 17.1603 32.6357 19.1201 32.6357C19.1266 32.6357 19.1327 32.6352 19.1388 32.6348L19.1389 32.6348C19.145 32.6343 19.1511 32.6338 19.1577 32.6338C19.1605 32.6338 19.1638 32.6343 19.1671 32.6348L19.1671 32.6348L19.1672 32.6348C19.1704 32.6352 19.1737 32.6357 19.1765 32.6357C19.1825 32.6357 19.1884 32.6351 19.1944 32.6344L19.2047 32.6329C19.2141 32.6314 19.2235 32.63 19.2329 32.63C21.1419 32.5807 22.75 31.2954 23.2861 29.5418H34.3303C34.5955 29.5418 34.8118 29.3238 34.8118 29.0565V25.1512L37.6216 29.3276C37.7401 29.5039 37.9583 29.5816 38.1595 29.5191C38.3608 29.4565 38.5 29.2688 38.5 29.0565L38.5188 24.8972C38.5207 24.628 38.3062 24.4119 38.0392 24.41L38.039 24.41ZM19.2328 31.6597L19.2274 31.66C19.2031 31.6618 19.1803 31.6634 19.1575 31.6634C18.3225 31.6521 17.6454 30.9696 17.6454 30.1317C17.6454 29.58 18.4504 28.3099 19.1764 27.3525C19.9023 28.3099 20.7073 29.58 20.7073 30.1317C20.7073 30.9563 20.0509 31.6293 19.2328 31.6597L19.2328 31.6597ZM21.6684 30.1298C21.6684 30.2738 21.6496 30.4103 21.627 30.5468L21.627 30.5469C22.1781 29.9402 22.5166 29.1383 22.5129 28.2568C22.5129 26.8027 20.3236 23.7088 19.1161 22.1695C17.9106 23.7088 15.7194 26.8046 15.7194 28.2568C15.7194 29.2122 16.1163 30.0767 16.7501 30.6966C16.7087 30.5127 16.6805 30.325 16.6805 30.1298C16.6805 28.9013 18.4503 26.6927 18.8039 26.2624C18.9864 26.0406 19.3625 26.0406 19.545 26.2624C19.9005 26.6927 21.6684 28.9013 21.6684 30.1298ZM19.4905 21.089C19.308 20.8672 18.9319 20.8672 18.7494 21.089C18.3413 21.5838 14.7602 25.997 14.7602 28.2571C14.7602 28.3332 14.7651 28.4083 14.7699 28.4832V28.4832C14.7718 28.5128 14.7737 28.5423 14.7753 28.5718H9.92677V25.3717C10.555 24.8599 12.637 23.0854 14.7454 20.4521C16.457 18.3156 18.4111 15.2956 19.2969 11.8528C20.1828 15.2974 22.1369 18.3152 23.8484 20.4521C25.9568 23.0853 28.0388 24.8597 28.6671 25.3717V28.5718H23.4628C23.4703 28.4675 23.4778 28.3633 23.4778 28.2571C23.4797 25.9974 19.8987 21.584 19.4906 21.089H19.4905ZM29.6278 28.5716H33.8482L33.8507 23.7203L19.2801 2.06115L4.70954 23.7203V28.5716H8.96199V25.1365C8.96199 24.9848 9.03158 24.8426 9.15006 24.7516L9.15041 24.7514C9.26656 24.6596 18.8134 17.1172 18.8134 8.19022C18.8134 7.92291 19.0297 7.7049 19.2949 7.7049C19.5601 7.7049 19.7764 7.92291 19.7764 8.19022C19.7764 17.1141 29.3165 24.6542 29.4392 24.7513L29.4397 24.7516C29.5582 24.8445 29.6278 24.9867 29.6278 25.1365V28.5716Z" fill="white"/>
<path fill-rule="evenodd" clip-rule="evenodd" d="M26.596 34.433C26.6393 34.5543 26.6299 34.6908 26.5735 34.8064L26.5738 34.8064C26.5155 34.924 26.4158 35.0131 26.2917 35.0548L24.5106 35.6482L26.2221 36.1354C26.3462 36.1714 26.4515 36.2548 26.5136 36.3686C26.5757 36.4823 26.5888 36.615 26.5531 36.7401L25.9381 38.8293C25.8761 39.0397 25.6861 39.1762 25.4773 39.1762C25.4341 39.1762 25.3889 39.1686 25.3457 39.1572L19.2179 37.4112L13.5941 39.2861C13.5452 39.3032 13.4945 39.3108 13.4437 39.3108C13.2443 39.3108 13.0581 39.1857 12.9923 38.9847L12.2832 36.924C12.24 36.8027 12.2494 36.6662 12.3058 36.5506C12.3622 36.433 12.4638 36.3458 12.586 36.3041L14.0718 35.8093L12.287 35.3012C12.1628 35.2652 12.0575 35.1818 11.9955 35.0681C11.9334 34.9543 11.9202 34.8216 11.956 34.6965L12.571 32.6074C12.6462 32.3514 12.9095 32.2055 13.1634 32.2775L19.3644 34.0443L25.2813 32.0708C25.5315 31.9874 25.8004 32.122 25.8869 32.3723L26.596 34.433ZM13.3592 33.341L13.0169 34.4993L15.7026 35.2652L17.7339 34.5884L13.3592 33.341ZM25.4901 36.9354L25.1478 38.0937L20.8483 36.8671L22.8796 36.1904L25.4901 36.9354ZM13.3499 37.0718L13.7429 38.215L25.5262 34.287L25.1331 33.1438L13.3499 37.0718Z" fill="white"/>
</svg>
