<svg width="52" height="33" viewBox="0 0 52 33" fill="none" xmlns="http://www.w3.org/2000/svg">
<path fill-rule="evenodd" clip-rule="evenodd" d="M49.75 22.2762V25.0227L49.7496 25.0228C50.3199 25.1388 50.7496 25.6394 50.7496 26.2346V27.2223C50.7496 27.8214 50.3199 28.3201 49.7496 28.4361V28.4612H43.1851C42.8218 30.7013 40.8628 32.4195 38.4995 32.4195C36.1362 32.4195 34.1773 30.7013 33.8159 28.4612H16.4349C16.0716 30.7013 14.1127 32.4195 11.7494 32.4195C9.38609 32.4195 7.42517 30.6993 7.06384 28.4612H3.24939L2.50134 28.4631C1.80994 28.4631 1.24939 27.9065 1.24939 27.2242V26.2366C1.24939 25.5524 1.81189 24.9977 2.50134 24.9977H3.24939V13.8668C3.24939 10.4554 6.05414 7.67995 9.50139 7.67995L15.2709 7.67608V5.70271C9.18539 5.1287 4.02894 4.05599 2.46839 2.5117C2.23597 2.28365 2.18128 1.93186 2.33362 1.64388C2.48597 1.35783 2.8063 1.19934 3.13052 1.25732C8.10702 2.13866 15.8455 2.25656 22.7555 2.25656C24.2243 2.25656 25.6677 2.25269 27.0544 2.24689C27.407 2.24583 27.7559 2.24463 28.1008 2.24344L28.1009 2.24344L28.101 2.24344L28.1011 2.24344L28.1014 2.24344L28.1017 2.24344L28.1018 2.24344C29.0154 2.24028 29.9006 2.23723 30.7497 2.23723L37.1872 2.23916H37.1891C41.5466 2.23916 44.2302 2.21017 47.7106 2.04202C48.0544 2.02846 48.3727 2.24881 48.4684 2.57931C48.5641 2.90983 48.4176 3.26354 48.1149 3.43169C47.613 3.71001 46.988 3.96899 46.2477 4.20866V5.71045C46.2477 6.37921 45.8883 6.95709 45.2848 7.25861C45.029 7.38617 44.7594 7.44995 44.4919 7.44995C44.1286 7.44995 43.7673 7.33398 43.4548 7.10398L41.0349 5.32778C37.9529 5.77233 34.1366 6.05452 29.7499 6.15502V7.6819L34.9979 7.67997C38.3419 7.67997 41.4258 8.78746 43.9024 10.6487L44.1074 10.8072C46.1797 12.4209 47.8047 14.5721 48.7676 17.048L48.7735 17.0596L48.7871 17.0925C48.8007 17.1307 48.8154 17.1679 48.83 17.2048L48.8301 17.2049L48.8301 17.205L48.8302 17.2052L48.8302 17.2053L48.8303 17.2054C48.8429 17.2373 48.8555 17.2691 48.8672 17.3012L49.166 18.0685H49.1231C49.5293 19.4021 49.75 20.815 49.75 22.2762ZM36.0002 16.586H46.9317H46.9319C46.0921 14.8716 44.8811 13.3505 43.3792 12.1329H36.0002C35.8654 12.1329 35.7502 12.2469 35.7502 12.3803V16.3386C35.7502 16.4719 35.8654 16.586 36.0002 16.586ZM44.75 5.71046C44.75 5.8129 44.7051 5.88634 44.6113 5.93273C44.5176 5.97912 44.4336 5.97139 44.3496 5.90954L43.0918 4.98759C43.6817 4.87549 44.2344 4.75566 44.75 4.63003L44.75 5.71046ZM26.0908 3.7361L26.0906 3.7361C25.0042 3.73944 23.8892 3.74287 22.758 3.74287L22.7585 3.74283C18.319 3.74283 13.5376 3.69258 9.33647 3.42392C13.3715 4.17774 19.1745 4.71117 26.0005 4.71117C32.2735 4.71117 37.7601 4.34785 41.7425 3.70808C40.385 3.72354 38.9182 3.72934 37.1917 3.72934H37.1897L30.7502 3.72354C29.5823 3.72354 28.3459 3.72741 27.0608 3.73321L26.0908 3.7361ZM16.7715 5.83609C19.7813 6.07382 22.957 6.19558 26 6.19558C26.7637 6.19558 27.5137 6.18979 28.25 6.18012V7.67993H16.7715V5.83609ZM8.50002 27.7192C8.50002 29.4935 9.95707 30.9354 11.75 30.9354C13.543 30.9354 15 29.4935 15 27.7192C15 25.945 13.543 24.5031 11.75 24.5031C9.95707 24.5031 8.50002 25.945 8.50002 27.7192ZM38.5 30.9354C36.7071 30.9354 35.25 29.4935 35.25 27.7192C35.25 25.945 36.7071 24.5031 38.5 24.5031C40.293 24.5031 41.75 25.945 41.75 27.7192C41.75 29.4935 40.293 30.9354 38.5 30.9354ZM38.5 23.0187C40.8633 23.0187 42.8242 24.737 43.1856 26.9771H49.25V26.4823H44.75V24.9979H48.25V22.2785C48.25 20.8057 48 19.3928 47.5469 18.0708H35.9999C35.035 18.0708 34.2499 17.2938 34.2499 16.339V12.3807C34.2499 11.4259 35.035 10.6489 35.9999 10.6489H41.1114C39.2811 9.70378 37.201 9.16455 34.9979 9.16455H9.50187C6.88077 9.16455 4.74992 11.2751 4.74992 13.867V16.5864H12.2849V18.0708H4.74992V24.9979H5.74992V26.4823H2.74992V26.9771H7.06437C7.42767 24.737 9.38662 23.0187 11.7499 23.0187C14.1132 23.0187 16.0741 24.737 16.4355 26.9771H33.8145C34.1778 24.737 36.1367 23.0187 38.5 23.0187Z" fill="white"/>
<path d="M49.75 25.0227L49.8336 25.3108L50.05 25.248V25.0227H49.75ZM49.7496 25.0228L49.666 24.7347L49.6898 25.3168L49.7496 25.0228ZM49.7496 28.4361L49.6898 28.1421L49.4496 28.1909V28.4361H49.7496ZM49.7496 28.4612V28.7612H50.0496V28.4612H49.7496ZM43.1851 28.4612V28.1612H42.9298L42.889 28.4132L43.1851 28.4612ZM33.8159 28.4612L34.1121 28.4134L34.0714 28.1612H33.8159V28.4612ZM16.4349 28.4612V28.1612H16.1797L16.1388 28.4132L16.4349 28.4612ZM7.06384 28.4612L7.36 28.4134L7.31929 28.1612H7.06384V28.4612ZM3.24939 28.4612V28.1612L3.24861 28.1612L3.24939 28.4612ZM2.50134 28.4631V28.7631L2.50211 28.7631L2.50134 28.4631ZM3.24939 24.9977V25.2977H3.54939V24.9977H3.24939ZM9.50139 7.67995V7.97995L9.50159 7.97995L9.50139 7.67995ZM15.2709 7.67608L15.2711 7.97608L15.5709 7.97588V7.67608H15.2709ZM15.2709 5.70271H15.5709V5.42967L15.2991 5.40403L15.2709 5.70271ZM2.46839 2.5117L2.67941 2.29845L2.6785 2.29756L2.46839 2.5117ZM2.33362 1.64388L2.06884 1.50286L2.06844 1.5036L2.33362 1.64388ZM3.13052 1.25732L3.07771 1.55264L3.07821 1.55273L3.13052 1.25732ZM27.0544 2.24689L27.0535 1.94689L27.0531 1.9469L27.0544 2.24689ZM28.1008 2.24344L28.1018 2.54344L28.1019 2.54344L28.1008 2.24344ZM28.1011 2.24344L28.1 1.94344L28.1 1.94344L28.1011 2.24344ZM28.1014 2.24344L28.1005 1.94344L28.1004 1.94344L28.1014 2.24344ZM28.1017 2.24344L28.1026 2.54344L28.1028 2.54343L28.1017 2.24344ZM28.1018 2.24344L28.1007 1.94344L28.1006 1.94344L28.1018 2.24344ZM30.7497 2.23723L30.7498 1.93723H30.7497V2.23723ZM37.1872 2.23916L37.1871 2.53916H37.1872V2.23916ZM47.7106 2.04202L47.6988 1.74224L47.6962 1.74237L47.7106 2.04202ZM48.4684 2.57931L48.7566 2.49587V2.49587L48.4684 2.57931ZM48.1149 3.43169L48.2604 3.69406L48.2606 3.69395L48.1149 3.43169ZM46.2477 4.20866L46.1553 3.92325L45.9477 3.99046V4.20866H46.2477ZM45.2848 7.25861L45.4187 7.52709L45.4189 7.52698L45.2848 7.25861ZM43.4548 7.10398L43.6326 6.86237L43.6323 6.86214L43.4548 7.10398ZM41.0349 5.32778L41.2124 5.08594L41.1135 5.01334L40.992 5.03085L41.0349 5.32778ZM29.7499 6.15502L29.743 5.8551L29.4499 5.86182V6.15502H29.7499ZM29.7499 7.6819H29.4499V7.98201L29.75 7.9819L29.7499 7.6819ZM34.9979 7.67997V7.37997H34.9978L34.9979 7.67997ZM43.9024 10.6487L44.0858 10.4113L44.0826 10.4089L43.9024 10.6487ZM44.1074 10.8072L44.2918 10.5705L44.2909 10.5698L44.1074 10.8072ZM48.7676 17.048L48.488 17.1567L48.4933 17.1703L48.4998 17.1833L48.7676 17.048ZM48.7735 17.0596L49.0504 16.9444L49.0462 16.9342L49.0412 16.9243L48.7735 17.0596ZM48.7871 17.0925L49.0698 16.9921L49.0672 16.9846L49.0641 16.9772L48.7871 17.0925ZM48.83 17.2048L48.5511 17.3152L48.5515 17.3162L48.83 17.2048ZM48.8301 17.2049L49.1099 17.0966L49.1086 17.0935L48.8301 17.2049ZM48.8301 17.205L48.5503 17.3133L48.5516 17.3165L48.8301 17.205ZM48.8302 17.2052L49.11 17.0969L49.1087 17.0938L48.8302 17.2052ZM48.8302 17.2053L48.5504 17.3136L48.5517 17.3167L48.8302 17.2053ZM48.8303 17.2054L49.1092 17.095L49.1088 17.094L48.8303 17.2054ZM48.8672 17.3012L48.5853 17.4041L48.5877 17.4101L48.8672 17.3012ZM49.166 18.0685V18.3685H49.6048L49.4456 17.9597L49.166 18.0685ZM49.1231 18.0685V17.7685H48.7181L48.8361 18.1559L49.1231 18.0685ZM46.9319 16.586V16.886H47.4129L47.2013 16.454L46.9319 16.586ZM43.3792 12.1329L43.5681 11.8998L43.4855 11.8329H43.3792V12.1329ZM44.6113 5.93273L44.4783 5.66384L44.4783 5.66385L44.6113 5.93273ZM44.75 5.71046L44.45 5.71046V5.71046H44.75ZM44.3496 5.90954L44.5275 5.66797L44.527 5.66758L44.3496 5.90954ZM43.0918 4.98759L43.0358 4.69287L42.358 4.82168L42.9145 5.22955L43.0918 4.98759ZM44.75 4.63003L45.05 4.63003L45.05 4.24815L44.679 4.33855L44.75 4.63003ZM26.0906 3.7361L26.0915 4.0361L26.0918 4.0361L26.0906 3.7361ZM26.0908 3.7361L26.0899 3.4361L26.0896 3.4361L26.0908 3.7361ZM22.758 3.74287L22.7309 3.4441L22.758 4.04287V3.74287ZM22.7585 3.74283L22.7856 4.0416L22.7585 3.44283V3.74283ZM9.33647 3.42392L9.35561 3.12453L9.28138 3.71882L9.33647 3.42392ZM41.7425 3.70808L41.7901 4.00428L41.739 3.4081L41.7425 3.70808ZM37.1897 3.72934L37.1894 4.02934H37.1897V3.72934ZM30.7502 3.72354L30.7505 3.42354H30.7502V3.72354ZM27.0608 3.73321L27.0617 4.03321L27.0621 4.03321L27.0608 3.73321ZM16.7715 5.83609L16.7951 5.53702L16.4715 5.51146V5.83609H16.7715ZM28.25 6.18012H28.55V5.87616L28.2461 5.88015L28.25 6.18012ZM28.25 7.67993V7.97993H28.55V7.67993H28.25ZM16.7715 7.67993H16.4715V7.97993H16.7715V7.67993ZM43.1856 26.9771L42.8894 27.0248L42.9301 27.2771H43.1856V26.9771ZM49.25 26.9771V27.2771H49.55V26.9771H49.25ZM49.25 26.4823H49.55V26.1823H49.25V26.4823ZM44.75 26.4823H44.45V26.7823H44.75V26.4823ZM44.75 24.9979V24.6979H44.45V24.9979H44.75ZM48.25 24.9979V25.2979H48.55V24.9979H48.25ZM47.5469 18.0708L47.8307 17.9735L47.7612 17.7708H47.5469V18.0708ZM41.1114 10.6489V10.9489L41.249 10.3824L41.1114 10.6489ZM4.74992 16.5864H4.44992V16.8864H4.74992V16.5864ZM12.2849 16.5864H12.5849V16.2864H12.2849V16.5864ZM12.2849 18.0708V18.3708H12.5849V18.0708H12.2849ZM4.74992 18.0708V17.7708H4.44992V18.0708H4.74992ZM4.74992 24.9979H4.44992V25.2979H4.74992V24.9979ZM5.74992 24.9979H6.04992V24.6979H5.74992V24.9979ZM5.74992 26.4823V26.7823H6.04992V26.4823H5.74992ZM2.74992 26.4823V26.1823H2.44992V26.4823H2.74992ZM2.74992 26.9771H2.44992V27.2771H2.74992V26.9771ZM7.06437 26.9771V27.2771H7.31963L7.3605 27.0251L7.06437 26.9771ZM16.4355 26.9771L16.1393 27.0248L16.18 27.2771H16.4355V26.9771ZM33.8145 26.9771V27.2771H34.0697L34.1106 27.0251L33.8145 26.9771ZM50.05 25.0227V22.2762H49.45V25.0227H50.05ZM49.8332 25.3109L49.8336 25.3108L49.6664 24.7346L49.666 24.7347L49.8332 25.3109ZM51.0496 26.2346C51.0496 25.4913 50.5141 24.8721 49.8094 24.7288L49.6898 25.3168C50.1257 25.4054 50.4496 25.7874 50.4496 26.2346H51.0496ZM51.0496 27.2223V26.2346H50.4496V27.2223H51.0496ZM49.8094 28.7301C50.5141 28.5868 51.0496 27.9695 51.0496 27.2223H50.4496C50.4496 27.6734 50.1257 28.0534 49.6898 28.1421L49.8094 28.7301ZM50.0496 28.4612V28.4361H49.4496V28.4612H50.0496ZM43.1851 28.7612H49.7496V28.1612H43.1851V28.7612ZM38.4995 32.7195C41.011 32.7195 43.0945 30.8935 43.4812 28.5092L42.889 28.4132C42.549 30.509 40.7146 32.1195 38.4995 32.1195V32.7195ZM33.5198 28.509C33.9044 30.8935 35.9881 32.7195 38.4995 32.7195V32.1195C36.2844 32.1195 34.4501 30.509 34.1121 28.4134L33.5198 28.509ZM16.4349 28.7612H33.8159V28.1612H16.4349V28.7612ZM11.7494 32.7195C14.2609 32.7195 16.3444 30.8935 16.7311 28.5092L16.1388 28.4132C15.7989 30.509 13.9645 32.1195 11.7494 32.1195V32.7195ZM6.76767 28.509C7.15233 30.8916 9.23799 32.7195 11.7494 32.7195V32.1195C9.53419 32.1195 7.69801 30.507 7.36 28.4134L6.76767 28.509ZM3.24939 28.7612H7.06384V28.1612H3.24939V28.7612ZM2.50211 28.7631L3.25016 28.7612L3.24861 28.1612L2.50056 28.1631L2.50211 28.7631ZM0.94939 27.2242C0.94939 28.0748 1.64692 28.7631 2.50134 28.7631V28.1631C1.97296 28.1631 1.54939 27.7382 1.54939 27.2242H0.94939ZM0.94939 26.2366V27.2242H1.54939V26.2366H0.94939ZM2.50134 24.6977C1.64948 24.6977 0.94939 25.3834 0.94939 26.2366H1.54939C1.54939 25.7213 1.9743 25.2977 2.50134 25.2977V24.6977ZM3.24939 24.6977H2.50134V25.2977H3.24939V24.6977ZM2.94939 13.8668V24.9977H3.54939V13.8668H2.94939ZM9.50139 7.37995C5.89143 7.37995 2.94939 10.2868 2.94939 13.8668H3.54939C3.54939 10.6241 6.21685 7.97995 9.50139 7.97995V7.37995ZM15.2707 7.37608L9.50119 7.37995L9.50159 7.97995L15.2711 7.97608L15.2707 7.37608ZM14.9709 5.70271V7.67608H15.5709V5.70271H14.9709ZM2.25737 2.72494C2.68842 3.15149 3.34535 3.52611 4.15769 3.8587C4.97484 4.19326 5.97196 4.4943 7.10349 4.76295C9.36682 5.30029 12.1923 5.71365 15.2427 6.00138L15.2991 5.40403C12.264 5.11775 9.46849 4.70775 7.24208 4.17917C6.12874 3.91485 5.1638 3.62228 4.38503 3.30344C3.60147 2.98263 3.02864 2.64405 2.67941 2.29846L2.25737 2.72494ZM2.06844 1.5036C1.85405 1.90888 1.93111 2.40482 2.25828 2.72583L2.6785 2.29756C2.54083 2.16248 2.50851 1.95485 2.59881 1.78416L2.06844 1.5036ZM3.18334 0.96201C2.73018 0.880966 2.28199 1.10265 2.06884 1.50286L2.59841 1.7849C2.68996 1.61301 2.88243 1.51771 3.07771 1.55264L3.18334 0.96201ZM22.7555 1.95656C15.8393 1.95656 8.12849 1.83779 3.18284 0.961921L3.07821 1.55273C8.08556 2.43952 15.8518 2.55656 22.7555 2.55656V1.95656ZM27.0531 1.9469C25.6667 1.95269 24.2238 1.95656 22.7555 1.95656V2.55656C24.2248 2.55656 25.6686 2.55269 27.0556 2.54689L27.0531 1.9469ZM28.0998 1.94344C27.7549 1.94463 27.406 1.94584 27.0535 1.94689L27.0553 2.54689C27.408 2.54583 27.757 2.54463 28.1018 2.54344L28.0998 1.94344ZM28.0998 1.94344L28.0997 1.94344L28.1019 2.54344L28.102 2.54344L28.0998 1.94344ZM28.0999 1.94344L28.0998 1.94344L28.102 2.54344L28.1021 2.54344L28.0999 1.94344ZM28.1 1.94344L28.0999 1.94344L28.1021 2.54344L28.1022 2.54344L28.1 1.94344ZM28.1004 1.94344L28.1 1.94344L28.1022 2.54344L28.1025 2.54344L28.1004 1.94344ZM28.1007 1.94344L28.1005 1.94344L28.1024 2.54344L28.1026 2.54344L28.1007 1.94344ZM28.1006 1.94344L28.1005 1.94344L28.1028 2.54343L28.1029 2.54343L28.1006 1.94344ZM30.7497 1.93723C29.9 1.93723 29.0143 1.94029 28.1007 1.94344L28.1028 2.54343C29.0166 2.54028 29.9012 2.53723 30.7497 2.53723V1.93723ZM37.1873 1.93916L30.7498 1.93723L30.7496 2.53723L37.1871 2.53916L37.1873 1.93916ZM37.1891 1.93916H37.1872V2.53916H37.1891V1.93916ZM47.6962 1.74237C44.2229 1.91017 41.545 1.93916 37.1891 1.93916V2.53916C41.5482 2.53916 44.2374 2.51017 47.7251 2.34167L47.6962 1.74237ZM48.7566 2.49587C48.6209 2.02737 48.1746 1.72348 47.6988 1.74225L47.7225 2.34178C47.9341 2.33343 48.1245 2.47024 48.1803 2.66275L48.7566 2.49587ZM48.2606 3.69395C48.6847 3.45838 48.8915 2.96175 48.7566 2.49587L48.1803 2.66275C48.2368 2.85792 48.1506 3.0687 47.9692 3.16943L48.2606 3.69395ZM46.3401 4.49407C47.0923 4.25056 47.7365 3.98457 48.2604 3.69406L47.9694 3.16932C47.4895 3.43545 46.8837 3.68743 46.1553 3.92325L46.3401 4.49407ZM46.5477 5.71045V4.20866H45.9477V5.71045H46.5477ZM45.4189 7.52698C46.1229 7.17522 46.5477 6.49413 46.5477 5.71045H45.9477C45.9477 6.26429 45.6537 6.73896 45.1507 6.99024L45.4189 7.52698ZM44.4919 7.74995C44.8077 7.74995 45.1229 7.67456 45.4187 7.52709L45.151 6.99012C44.935 7.09777 44.7112 7.14995 44.4919 7.14995V7.74995ZM43.2769 7.3456C43.6404 7.61307 44.0639 7.74995 44.4919 7.74995V7.14995C44.1934 7.14995 43.8942 7.05489 43.6326 6.86237L43.2769 7.3456ZM40.8573 5.56962L43.2772 7.34583L43.6323 6.86214L41.2124 5.08594L40.8573 5.56962ZM29.7567 6.45494C34.1512 6.35426 37.9802 6.07149 41.0777 5.62471L40.992 5.03085C37.9255 5.47317 34.1219 5.75478 29.743 5.8551L29.7567 6.45494ZM30.0499 7.6819V6.15502H29.4499V7.6819H30.0499ZM34.9978 7.37997L29.7498 7.3819L29.75 7.9819L34.998 7.97997L34.9978 7.37997ZM44.0826 10.4089C41.556 8.50998 38.4092 7.37997 34.9979 7.37997V7.97997C38.2746 7.97997 41.2957 9.06493 43.7221 10.8885L44.0826 10.4089ZM44.2909 10.5698L44.0858 10.4113L43.7189 10.8861L43.924 11.0446L44.2909 10.5698ZM49.0472 16.9393C48.0642 14.4118 46.4058 12.2168 44.2918 10.5705L43.9231 11.0439C45.9536 12.6251 47.5451 14.7324 48.488 17.1567L49.0472 16.9393ZM49.0412 16.9243L49.0354 16.9127L48.4998 17.1833L48.5057 17.1949L49.0412 16.9243ZM49.0641 16.9772L49.0504 16.9444L48.4965 17.1749L48.5101 17.2077L49.0641 16.9772ZM49.109 17.0944C49.094 17.0567 49.0813 17.0245 49.0698 16.9921L48.5044 17.1928C48.5201 17.237 48.5368 17.2791 48.5511 17.3152L49.109 17.0944ZM49.1086 17.0935L49.1086 17.0934L48.5515 17.3162L48.5515 17.3164L49.1086 17.0935ZM49.1099 17.0967L49.1099 17.0967L48.5503 17.3132L48.5504 17.3133L49.1099 17.0967ZM49.1087 17.0938L49.1087 17.0936L48.5516 17.3165L48.5516 17.3166L49.1087 17.0938ZM49.11 17.097L49.11 17.0969L48.5504 17.3135L48.5504 17.3136L49.11 17.097ZM49.1088 17.094L49.1088 17.0939L48.5517 17.3167L48.5517 17.3168L49.1088 17.094ZM49.149 17.1984C49.1357 17.1618 49.1216 17.1263 49.1092 17.095L48.5513 17.3159C48.5642 17.3484 48.5753 17.3763 48.5854 17.4041L49.149 17.1984ZM49.4456 17.9597L49.1468 17.1923L48.5877 17.4101L48.8865 18.1774L49.4456 17.9597ZM49.1231 18.3685H49.166V17.7685H49.1231V18.3685ZM50.05 22.2762C50.05 20.7847 49.8247 19.3423 49.41 17.9811L48.8361 18.1559C49.2339 19.4619 49.45 20.8454 49.45 22.2762H50.05ZM46.9317 16.286H36.0002V16.886H46.9317V16.286ZM46.9319 16.286H46.9317V16.886H46.9319V16.286ZM43.1902 12.3659C44.6585 13.5562 45.8419 15.043 46.6625 16.718L47.2013 16.454C46.3422 14.7003 45.1037 13.1447 43.5681 11.8998L43.1902 12.3659ZM36.0002 12.4329H43.3792V11.8329H36.0002V12.4329ZM36.0502 12.3803C36.0502 12.4013 36.0413 12.4142 36.0356 12.4198C36.03 12.4254 36.0184 12.4329 36.0002 12.4329V11.8329C35.7027 11.8329 35.4502 12.0783 35.4502 12.3803H36.0502ZM36.0502 16.3386V12.3803H35.4502V16.3386H36.0502ZM36.0002 16.286C36.0184 16.286 36.03 16.2934 36.0356 16.2991C36.0413 16.3047 36.0502 16.3176 36.0502 16.3386H35.4502C35.4502 16.6406 35.7027 16.886 36.0002 16.886V16.286ZM44.7444 6.20162C44.8315 6.15852 44.9129 6.09392 44.9707 6.00085C45.0285 5.90778 45.05 5.80653 45.05 5.71046H44.45C44.45 5.71419 44.4496 5.71251 44.451 5.70698C44.4525 5.70111 44.4556 5.69303 44.461 5.68438C44.4663 5.67573 44.4722 5.66951 44.4766 5.6657C44.4807 5.66213 44.4821 5.66196 44.4783 5.66384L44.7444 6.20162ZM44.1717 6.1511C44.248 6.20729 44.3411 6.25078 44.4501 6.26053C44.5592 6.27029 44.6588 6.24396 44.7444 6.20161L44.4783 5.66385C44.4737 5.66611 44.4743 5.66524 44.4794 5.66414C44.4849 5.66294 44.4934 5.662 44.5036 5.66292C44.5137 5.66383 44.5218 5.66624 44.5269 5.66832C44.5315 5.67025 44.5318 5.6711 44.5275 5.66797L44.1717 6.1511ZM42.9145 5.22955L44.1723 6.1515L44.527 5.66758L43.2692 4.74563L42.9145 5.22955ZM44.679 4.33855C44.1687 4.4629 43.6209 4.58167 43.0358 4.69287L43.1478 5.28232C43.7424 5.16932 44.3002 5.04841 44.821 4.9215L44.679 4.33855ZM45.05 5.71046L45.05 4.63003L44.45 4.63002L44.45 5.71046L45.05 5.71046ZM26.0918 4.0361L26.092 4.0361L26.0896 3.4361L26.0895 3.4361L26.0918 4.0361ZM22.758 4.04287C23.8897 4.04287 25.0052 4.03944 26.0915 4.0361L26.0897 3.4361C25.0032 3.43944 23.8887 3.44287 22.758 3.44287V4.04287ZM22.7313 3.44406L22.7309 3.4441L22.7852 4.04164L22.7856 4.0416L22.7313 3.44406ZM9.31732 3.72331C13.5287 3.99262 18.3181 4.04283 22.7585 4.04283V3.44283C18.3198 3.44283 13.5466 3.39254 9.35561 3.12453L9.31732 3.72331ZM26.0005 4.41117C19.1881 4.41117 13.4041 3.87865 9.39156 3.12903L9.28138 3.71882C13.3388 4.47682 19.1609 5.01117 26.0005 5.01117V4.41117ZM41.6949 3.41188C37.7337 4.04823 32.2643 4.41117 26.0005 4.41117V5.01117C32.2826 5.01117 37.7864 4.64746 41.7901 4.00428L41.6949 3.41188ZM37.1917 4.02934C38.9188 4.02934 40.3869 4.02354 41.7459 4.00806L41.739 3.4081C40.3832 3.42355 38.9176 3.42934 37.1917 3.42934V4.02934ZM37.1897 4.02934H37.1917V3.42934H37.1897V4.02934ZM30.7499 4.02354L37.1894 4.02934L37.19 3.42934L30.7505 3.42354L30.7499 4.02354ZM27.0621 4.03321C28.347 4.02741 29.5829 4.02354 30.7502 4.02354V3.42354C29.5816 3.42354 28.3448 3.42741 27.0594 3.43321L27.0621 4.03321ZM26.0917 4.0361L27.0617 4.03321L27.0599 3.43321L26.0899 3.4361L26.0917 4.0361ZM26 5.89558C22.9646 5.89558 19.7968 5.77411 16.7951 5.53702L16.7479 6.13516C19.7658 6.37353 22.9494 6.49558 26 6.49558V5.89558ZM28.2461 5.88015C27.5108 5.8898 26.7622 5.89558 26 5.89558V6.49558C26.7652 6.49558 27.5165 6.48977 28.254 6.4801L28.2461 5.88015ZM28.55 7.67993V6.18012H27.95V7.67993H28.55ZM16.7715 7.97993H28.25V7.37993H16.7715V7.97993ZM16.4715 5.83609V7.67993H17.0715V5.83609H16.4715ZM11.75 30.6354C10.1198 30.6354 8.80002 29.3249 8.80002 27.7192H8.20002C8.20002 29.6622 9.79435 31.2354 11.75 31.2354V30.6354ZM14.7 27.7192C14.7 29.3249 13.3802 30.6354 11.75 30.6354V31.2354C13.7057 31.2354 15.3 29.6622 15.3 27.7192H14.7ZM11.75 24.8031C13.3802 24.8031 14.7 26.1136 14.7 27.7192H15.3C15.3 25.7763 13.7057 24.2031 11.75 24.2031V24.8031ZM8.80002 27.7192C8.80002 26.1136 10.1198 24.8031 11.75 24.8031V24.2031C9.79435 24.2031 8.20002 25.7763 8.20002 27.7192H8.80002ZM34.95 27.7192C34.95 29.6622 36.5443 31.2354 38.5 31.2354V30.6354C36.8698 30.6354 35.55 29.3249 35.55 27.7192H34.95ZM38.5 24.2031C36.5443 24.2031 34.95 25.7763 34.95 27.7192H35.55C35.55 26.1136 36.8698 24.8031 38.5 24.8031V24.2031ZM42.05 27.7192C42.05 25.7763 40.4557 24.2031 38.5 24.2031V24.8031C40.1302 24.8031 41.45 26.1136 41.45 27.7192H42.05ZM38.5 31.2354C40.4557 31.2354 42.05 29.6622 42.05 27.7192H41.45C41.45 29.3249 40.1302 30.6354 38.5 30.6354V31.2354ZM43.4817 26.9293C43.0971 24.5446 41.0113 22.7187 38.5 22.7187V23.3187C40.7153 23.3187 42.5514 24.9294 42.8894 27.0248L43.4817 26.9293ZM49.25 26.6771H43.1856V27.2771H49.25V26.6771ZM48.95 26.4823V26.9771H49.55V26.4823H48.95ZM44.75 26.7823H49.25V26.1823H44.75V26.7823ZM44.45 24.9979V26.4823H45.05V24.9979H44.45ZM48.25 24.6979H44.75V25.2979H48.25V24.6979ZM47.95 22.2785V24.9979H48.55V22.2785H47.95ZM47.2631 18.1681C47.7058 19.4599 47.95 20.8399 47.95 22.2785H48.55C48.55 20.7714 48.2941 19.3258 47.8307 17.9735L47.2631 18.1681ZM35.9999 18.3708H47.5469V17.7708H35.9999V18.3708ZM33.9499 16.339C33.9499 17.4625 34.8723 18.3708 35.9999 18.3708V17.7708C35.1977 17.7708 34.5499 17.1252 34.5499 16.339H33.9499ZM33.9499 12.3807V16.339H34.5499V12.3807H33.9499ZM35.9999 10.3489C34.8723 10.3489 33.9499 11.2573 33.9499 12.3807H34.5499C34.5499 11.5945 35.1977 10.9489 35.9999 10.9489V10.3489ZM41.1114 10.3489H35.9999V10.9489H41.1114V10.3489ZM34.9979 9.46455C37.1515 9.46455 39.1846 9.99159 40.9737 10.9155L41.249 10.3824C39.3776 9.41596 37.2504 8.86455 34.9979 8.86455V9.46455ZM9.50187 9.46455H34.9979V8.86455H9.50187V9.46455ZM5.04992 13.867C5.04992 11.4437 7.04356 9.46455 9.50187 9.46455V8.86455C6.71797 8.86455 4.44992 11.1066 4.44992 13.867H5.04992ZM5.04992 16.5864V13.867H4.44992V16.5864H5.04992ZM12.2849 16.2864H4.74992V16.8864H12.2849V16.2864ZM12.5849 18.0708V16.5864H11.9849V18.0708H12.5849ZM4.74992 18.3708H12.2849V17.7708H4.74992V18.3708ZM5.04992 24.9979V18.0708H4.44992V24.9979H5.04992ZM5.74992 24.6979H4.74992V25.2979H5.74992V24.6979ZM6.04992 26.4823V24.9979H5.44992V26.4823H6.04992ZM2.74992 26.7823H5.74992V26.1823H2.74992V26.7823ZM3.04992 26.9771V26.4823H2.44992V26.9771H3.04992ZM7.06437 26.6771H2.74992V27.2771H7.06437V26.6771ZM11.7499 22.7187C9.23842 22.7187 7.15492 24.5447 6.76823 26.929L7.3605 27.0251C7.70041 24.9292 9.53481 23.3187 11.7499 23.3187V22.7187ZM16.7316 26.9293C16.347 24.5446 14.2612 22.7187 11.7499 22.7187V23.3187C13.9652 23.3187 15.8013 24.9294 16.1393 27.0248L16.7316 26.9293ZM33.8145 26.6771H16.4355V27.2771H33.8145V26.6771ZM38.5 22.7187C35.9885 22.7187 33.905 24.5447 33.5183 26.929L34.1106 27.0251C34.4505 24.9292 36.2849 23.3187 38.5 23.3187V22.7187Z" fill="#222532"/>
<path fill-rule="evenodd" clip-rule="evenodd" d="M23.75 12.3803V16.3386C23.75 17.2934 22.9648 18.0704 22 18.0704H17C16.0351 18.0704 15.25 17.2934 15.25 16.3386V12.3803C15.25 11.4255 16.0351 10.6485 17 10.6485H22C22.9648 10.6485 23.75 11.4255 23.75 12.3803ZM16.75 12.3803V16.3386C16.75 16.4739 16.8652 16.586 17 16.586H22C22.1348 16.586 22.25 16.4719 22.25 16.3386V12.3803C22.25 12.2469 22.1348 12.1329 22 12.1329H17C16.8652 12.1329 16.75 12.2469 16.75 12.3803Z" fill="white"/>
<path d="M24.05 16.3386V12.3803H23.45V16.3386H24.05ZM22 18.3704C23.1276 18.3704 24.05 17.462 24.05 16.3386H23.45C23.45 17.1247 22.8021 17.7704 22 17.7704V18.3704ZM17 18.3704H22V17.7704H17V18.3704ZM14.95 16.3386C14.95 17.462 15.8724 18.3704 17 18.3704V17.7704C16.1979 17.7704 15.55 17.1247 15.55 16.3386H14.95ZM14.95 12.3803V16.3386H15.55V12.3803H14.95ZM17 10.3485C15.8724 10.3485 14.95 11.2568 14.95 12.3803H15.55C15.55 11.5941 16.1979 10.9485 17 10.9485V10.3485ZM22 10.3485H17V10.9485H22V10.3485ZM24.05 12.3803C24.05 11.2568 23.1276 10.3485 22 10.3485V10.9485C22.8021 10.9485 23.45 11.5941 23.45 12.3803H24.05ZM17.05 16.3386V12.3803H16.45V16.3386H17.05ZM17 16.286C17.0167 16.286 17.0284 16.2928 17.0349 16.2992C17.0417 16.3059 17.05 16.3193 17.05 16.3386H16.45C16.45 16.644 16.704 16.886 17 16.886V16.286ZM22 16.286H17V16.886H22V16.286ZM21.95 16.3386C21.95 16.3176 21.9589 16.3047 21.9645 16.2991C21.9702 16.2934 21.9818 16.286 22 16.286V16.886C22.2975 16.886 22.55 16.6406 22.55 16.3386H21.95ZM21.95 12.3803V16.3386H22.55V12.3803H21.95ZM22 12.4329C21.9818 12.4329 21.9702 12.4254 21.9645 12.4198C21.9589 12.4142 21.95 12.4013 21.95 12.3803H22.55C22.55 12.0783 22.2975 11.8329 22 11.8329V12.4329ZM17 12.4329H22V11.8329H17V12.4329ZM17.05 12.3803C17.05 12.4013 17.0411 12.4142 17.0355 12.4198C17.0298 12.4254 17.0182 12.4329 17 12.4329V11.8329C16.7025 11.8329 16.45 12.0783 16.45 12.3803H17.05Z" fill="#222532"/>
<path fill-rule="evenodd" clip-rule="evenodd" d="M26.5 10.6485H31.5C32.4648 10.6485 33.25 11.4255 33.25 12.3803V16.3386C33.25 17.2934 32.4648 18.0704 31.5 18.0704H26.5C25.5351 18.0704 24.75 17.2934 24.75 16.3386V12.3803C24.75 11.4255 25.5351 10.6485 26.5 10.6485ZM31.5 16.586C31.6348 16.586 31.75 16.4719 31.75 16.3386V12.3803C31.75 12.2469 31.6348 12.1329 31.5 12.1329H26.5C26.3652 12.1329 26.25 12.2469 26.25 12.3803V16.3386C26.25 16.4719 26.3652 16.586 26.5 16.586H31.5Z" fill="white"/>
<path d="M31.5 10.3485H26.5V10.9485H31.5V10.3485ZM33.55 12.3803C33.55 11.2568 32.6276 10.3485 31.5 10.3485V10.9485C32.3021 10.9485 32.95 11.5941 32.95 12.3803H33.55ZM33.55 16.3386V12.3803H32.95V16.3386H33.55ZM31.5 18.3704C32.6276 18.3704 33.55 17.462 33.55 16.3386H32.95C32.95 17.1247 32.3021 17.7704 31.5 17.7704V18.3704ZM26.5 18.3704H31.5V17.7704H26.5V18.3704ZM24.45 16.3386C24.45 17.462 25.3724 18.3704 26.5 18.3704V17.7704C25.6979 17.7704 25.05 17.1247 25.05 16.3386H24.45ZM24.45 12.3803V16.3386H25.05V12.3803H24.45ZM26.5 10.3485C25.3724 10.3485 24.45 11.2568 24.45 12.3803H25.05C25.05 11.5941 25.6979 10.9485 26.5 10.9485V10.3485ZM31.45 16.3386C31.45 16.3176 31.4589 16.3047 31.4645 16.2991C31.4702 16.2934 31.4818 16.286 31.5 16.286V16.886C31.7975 16.886 32.05 16.6406 32.05 16.3386H31.45ZM31.45 12.3803V16.3386H32.05V12.3803H31.45ZM31.5 12.4329C31.4818 12.4329 31.4702 12.4254 31.4645 12.4198C31.4589 12.4142 31.45 12.4013 31.45 12.3803H32.05C32.05 12.0783 31.7975 11.8329 31.5 11.8329V12.4329ZM26.5 12.4329H31.5V11.8329H26.5V12.4329ZM26.55 12.3803C26.55 12.4013 26.5411 12.4142 26.5355 12.4198C26.5298 12.4254 26.5182 12.4329 26.5 12.4329V11.8329C26.2025 11.8329 25.95 12.0783 25.95 12.3803H26.55ZM26.55 16.3386V12.3803H25.95V16.3386H26.55ZM26.5 16.286C26.5182 16.286 26.5298 16.2934 26.5355 16.2991C26.5411 16.3047 26.55 16.3176 26.55 16.3386H25.95C25.95 16.6406 26.2025 16.886 26.5 16.886V16.286ZM31.5 16.286H26.5V16.886H31.5V16.286Z" fill="#222532"/>
<path fill-rule="evenodd" clip-rule="evenodd" d="M36.5 27.7188C36.5 26.6268 37.3965 25.7396 38.5 25.7396C39.6035 25.7396 40.5 26.6287 40.5 27.7188C40.5 28.8108 39.6035 29.698 38.5 29.698C37.3965 29.698 36.5 28.8108 36.5 27.7188ZM38 27.7188C38 27.9913 38.2246 28.2136 38.5 28.2136C38.7754 28.2136 39 27.9913 39 27.7188C39 27.4463 38.7754 27.224 38.5 27.224C38.2246 27.224 38 27.4463 38 27.7188Z" fill="white"/>
<path d="M38.5 25.4396C37.2338 25.4396 36.2 26.4581 36.2 27.7188H36.8C36.8 26.7954 37.5592 26.0396 38.5 26.0396V25.4396ZM40.8 27.7188C40.8 26.4603 39.7664 25.4396 38.5 25.4396V26.0396C39.4406 26.0396 40.2 26.7972 40.2 27.7188H40.8ZM38.5 29.998C39.7662 29.998 40.8 28.9794 40.8 27.7188H40.2C40.2 28.6422 39.4408 29.398 38.5 29.398V29.998ZM36.2 27.7188C36.2 28.9794 37.2338 29.998 38.5 29.998V29.398C37.5592 29.398 36.8 28.6422 36.8 27.7188H36.2ZM38.5 27.9136C38.3873 27.9136 38.3 27.8227 38.3 27.7188H37.7C37.7 28.16 38.0619 28.5136 38.5 28.5136V27.9136ZM38.7 27.7188C38.7 27.8227 38.6127 27.9136 38.5 27.9136V28.5136C38.9381 28.5136 39.3 28.16 39.3 27.7188H38.7ZM38.5 27.524C38.6127 27.524 38.7 27.6149 38.7 27.7188H39.3C39.3 27.2776 38.9381 26.924 38.5 26.924V27.524ZM38.3 27.7188C38.3 27.6149 38.3873 27.524 38.5 27.524V26.924C38.0619 26.924 37.7 27.2776 37.7 27.7188H38.3Z" fill="#222532"/>
<path fill-rule="evenodd" clip-rule="evenodd" d="M9.75 27.7188C9.75 26.6268 10.6465 25.7396 11.75 25.7396C12.8535 25.7396 13.75 26.6287 13.75 27.7188C13.75 28.8108 12.8535 29.698 11.75 29.698C10.6465 29.698 9.75 28.8089 9.75 27.7188ZM11.25 27.7188C11.25 27.9913 11.4746 28.2136 11.75 28.2136C12.0254 28.2136 12.25 27.9913 12.25 27.7188C12.25 27.4463 12.0254 27.224 11.75 27.224C11.4746 27.224 11.25 27.4463 11.25 27.7188Z" fill="white"/>
<path d="M11.75 25.4396C10.4838 25.4396 9.45 26.4581 9.45 27.7188H10.05C10.05 26.7954 10.8092 26.0396 11.75 26.0396V25.4396ZM14.05 27.7188C14.05 26.4603 13.0164 25.4396 11.75 25.4396V26.0396C12.6906 26.0396 13.45 26.7972 13.45 27.7188H14.05ZM11.75 29.998C13.0162 29.998 14.05 28.9794 14.05 27.7188H13.45C13.45 28.6422 12.6908 29.398 11.75 29.398V29.998ZM9.45 27.7188C9.45 28.9773 10.4836 29.998 11.75 29.998V29.398C10.8094 29.398 10.05 28.6404 10.05 27.7188H9.45ZM11.75 27.9136C11.6373 27.9136 11.55 27.8227 11.55 27.7188H10.95C10.95 28.16 11.3119 28.5136 11.75 28.5136V27.9136ZM11.95 27.7188C11.95 27.8227 11.8627 27.9136 11.75 27.9136V28.5136C12.1881 28.5136 12.55 28.16 12.55 27.7188H11.95ZM11.75 27.524C11.8627 27.524 11.95 27.6149 11.95 27.7188H12.55C12.55 27.2776 12.1881 26.924 11.75 26.924V27.524ZM11.55 27.7188C11.55 27.6149 11.6373 27.524 11.75 27.524V26.924C11.3119 26.924 10.95 27.2776 10.95 27.7188H11.55Z" fill="#222532"/>
<path d="M17.25 24.9974H32.75V26.4818H17.25V24.9974Z" fill="white" stroke="#222532" stroke-width="0.6"/>
</svg>
