<svg width="21" height="21" viewBox="0 0 21 21" fill="none" xmlns="http://www.w3.org/2000/svg">
<path fill-rule="evenodd" clip-rule="evenodd" d="M6.76598 13.5765L6.76934 13.5763H17.9238C18.1984 13.5763 18.4399 13.3941 18.5154 13.1301L20.9763 4.51681C21.0293 4.33112 20.9922 4.13148 20.876 3.97736C20.7597 3.82323 20.5778 3.73254 20.3848 3.73254H5.34709L4.9073 1.75338C4.84465 1.47188 4.59503 1.27161 4.30664 1.27161H0.615234C0.275414 1.27161 0 1.54702 0 1.88684C0 2.22666 0.275414 2.50208 0.615234 2.50208H3.81317L6.03442 12.498C6.21923 13.2621 6.36006 13.5636 6.76598 13.5765ZM17.4597 12.3458L19.5691 4.96301H5.62042L7.26105 12.3458H17.4597Z" fill="#C5CCDD"/>
<path d="M6 17C6 18.1028 6.89722 19 8 19C9.10278 19 10 18.1028 10 17C10 15.8972 9.10278 15 8 15C6.89722 15 6 15.8972 6 17ZM8 16.3333C8.36753 16.3333 8.66667 16.6325 8.66667 17C8.66667 17.3675 8.36753 17.6667 8 17.6667C7.63247 17.6667 7.33333 17.3675 7.33333 17C7.33333 16.6325 7.63247 16.3333 8 16.3333Z" fill="#C5CCDD"/>
<path d="M15 17C15 18.1028 15.8972 19 17 19C18.1028 19 19 18.1028 19 17C19 15.8972 18.1028 15 17 15C15.8972 15 15 15.8972 15 17ZM17 16.3333C17.3675 16.3333 17.6667 16.6325 17.6667 17C17.6667 17.3675 17.3675 17.6667 17 17.6667C16.6325 17.6667 16.3333 17.3675 16.3333 17C16.3333 16.6325 16.6325 16.3333 17 16.3333Z" fill="#C5CCDD"/>
</svg>
