<svg width="14" height="14" viewBox="0 0 14 14" fill="none" xmlns="http://www.w3.org/2000/svg">
<path d="M11.9843 0H1.64062C0.735984 0 0 0.735984 0 1.64062V12.3594C0 13.264 0.735984 14 1.64062 14H12.3594C13.264 14 14 13.264 14 12.3594V2.01567L11.9843 0ZM3.28125 1.09375H9.57031V4.32031H3.28125V1.09375ZM10.7188 12.9062H3.28125V8.58594H10.7188V12.9062ZM12.9062 12.3594C12.9062 12.6609 12.6609 12.9062 12.3594 12.9062H11.8125V7.49219H2.1875V12.9062H1.64062C1.33908 12.9062 1.09375 12.6609 1.09375 12.3594V1.64062C1.09375 1.33908 1.33908 1.09375 1.64062 1.09375H2.1875V5.41406H10.6641V1.09375H11.5313L12.9062 2.4687V12.3594Z" fill="#4081FF"/>
</svg>
