<svg width="14" height="13" viewBox="0 0 14 13" fill="none" xmlns="http://www.w3.org/2000/svg">
<path d="M12 13H2C1.46957 13 0.960888 12.7892 0.585815 12.4142C0.210743 12.0391 0 11.5304 0 11V4.99999V2.49999C0 1.83695 0.263337 1.20107 0.732178 0.732228C1.20102 0.263387 1.83696 -1.04383e-05 2.5 -1.04383e-05H10C10.2631 -0.0103659 10.5255 0.0346681 10.7701 0.132192C11.0148 0.229715 11.2362 0.377567 11.42 0.566121C11.6039 0.754676 11.746 0.979724 11.8373 1.22674C11.9286 1.47375 11.967 1.7372 11.95 1.99999H2V2.99999H12C12.5304 2.99999 13.0391 3.2107 13.4142 3.58577C13.7893 3.96085 14 4.46956 14 4.99999V11C14 11.5304 13.7893 12.0391 13.4142 12.4142C13.0391 12.7892 12.5304 13 12 13ZM12 4.99999H2V11H12V4.99999ZM9 6.99999H10C10.2652 6.99999 10.5196 7.10536 10.7072 7.2929C10.8947 7.48043 11 7.73477 11 7.99999C11 8.26521 10.8947 8.51955 10.7072 8.70708C10.5196 8.89462 10.2652 8.99999 10 8.99999H9C8.73478 8.99999 8.48038 8.89462 8.29285 8.70708C8.10531 8.51955 8 8.26521 8 7.99999C8 7.73477 8.10531 7.48043 8.29285 7.2929C8.48038 7.10536 8.73478 6.99999 9 6.99999Z" fill="#999999"/>
</svg>
