<svg width="12" height="12" viewBox="0 0 12 12" fill="none" xmlns="http://www.w3.org/2000/svg">
<path d="M4.64 8.336V9.232H8.096V10.56H4.64V12H2.032V10.56H0.48V9.232H2.032V0.799999H6.88C8.40533 0.799999 9.59467 1.12 10.448 1.76C11.312 2.4 11.744 3.33867 11.744 4.576C11.744 5.80267 11.312 6.736 10.448 7.376C9.59467 8.016 8.40533 8.336 6.88 8.336H4.64ZM9.12 4.592C9.12 4.048 8.92267 3.632 8.528 3.344C8.144 3.056 7.58933 2.912 6.864 2.912H4.64V6.304H6.864C7.58933 6.304 8.144 6.16 8.528 5.872C8.92267 5.57333 9.12 5.14667 9.12 4.592Z" fill="#CCCCCC"/>
</svg>
