<svg width="16" height="4" viewBox="0 0 16 4" fill="none" xmlns="http://www.w3.org/2000/svg">
<path d="M7.62426 0C8.52132 0 9.24852 0.727207 9.24852 1.62426C9.24852 2.52132 8.52132 3.24852 7.62426 3.24852C6.72721 3.24852 6 2.52132 6 1.62426C6 0.727207 6.72721 0 7.62426 0ZM13.6243 0C14.5213 0 15.2485 0.727207 15.2485 1.62426C15.2485 2.52132 14.5213 3.24852 13.6243 3.24852C12.7272 3.24852 12 2.52132 12 1.62426C12 0.727207 12.7272 0 13.6243 0ZM1.62426 0C2.52132 0 3.24852 0.727207 3.24852 1.62426C3.24852 2.52132 2.52132 3.24852 1.62426 3.24852C0.727207 3.24852 0 2.52132 0 1.62426C0 0.727207 0.727207 0 1.62426 0Z" fill="#5F6368"/>
</svg>
