<svg width="33" height="34" viewBox="0 0 33 34" fill="none" xmlns="http://www.w3.org/2000/svg">
<path fill-rule="evenodd" clip-rule="evenodd" d="M8.57977 0.260376C3.8413 0.260376 0 4.10155 0 8.83987V24.9117C0 29.6501 3.8413 33.4912 8.57977 33.4912H24.0645C28.803 33.4912 32.6442 29.6501 32.6442 24.9117V8.83987C32.6442 4.10155 28.803 0.260376 24.0645 0.260376H8.57977ZM8.96174 4.19754C6.13812 4.19754 3.84914 6.48644 3.84914 9.30998V24.4416C3.84914 27.2652 6.13812 29.5541 8.96174 29.5541H23.6825C26.5061 29.5541 28.7951 27.2652 28.7951 24.4416V9.30998C28.7951 6.48644 26.5061 4.19754 23.6825 4.19754H8.96174Z" fill="white"/>
<path d="M16.9244 6.6501C18.713 6.6501 20.5043 6.60843 22.2901 6.66955C23.4316 6.70842 24.3842 7.22504 25.1174 8.12218C26.5727 9.90537 26.1061 12.5468 24.2343 13.8245C23.4899 14.3328 22.6623 14.5355 21.7791 14.4689C20.6293 14.38 19.674 13.8689 18.9935 12.9412C17.7715 11.2747 17.5021 8.56938 16.9244 6.6501Z" fill="#4081FF"/>
</svg>
