<svg width="375" height="55" viewBox="0 0 375 55" fill="none" xmlns="http://www.w3.org/2000/svg">
<path d="M467 35.8094C467 35.8094 452.606 27.3022 439.395 26.7086C425.987 26.1151 414.551 26.7086 398.185 29.6763C375.904 33.6331 332.919 49.6583 310.046 40.9532C287.174 32.2482 286.188 31.8525 274.554 26.313C261.54 19.982 235.119 7.32014 202.387 7.91367C167.486 8.50719 104.192 40.7554 78.1647 39.1727C75.4042 38.9748 65.151 37.5899 57.461 35.2158C49.9683 32.8417 38.9263 27.6978 23.9407 25.9173C17.631 25.1259 7.57495 23.741 -4.05856 24.1367C-7.01623 24.3345 -16.4808 24.9281 -27.7199 27.3022C-38.9591 29.6763 -49.4095 33.4353 -58.8741 34.6223C-79.1834 36.7986 -92 33.6331 -92 33.6331V55H467V35.8094ZM422.241 32.6439C420.86 34.6223 418.297 33.4353 413.762 33.4353C409.227 33.4353 401.734 35.8094 402.326 35.6115C402.917 35.4137 408.438 32.6439 414.156 31.8525C420.072 30.8633 423.424 30.6655 422.241 32.6439ZM385.96 37.9856C385.96 37.9856 381.228 38.3813 374.918 39.7662C368.608 41.3489 354.608 45.3058 345.144 46.6906C328.975 48.8669 313.99 46.6906 315.37 46.4928C316.947 46.295 334.299 47.6799 350.073 44.3165C356.58 42.9317 368.411 39.964 374.523 38.9748C381.03 37.7878 385.96 37.9856 385.96 37.9856ZM273.174 38.1835C276.526 39.5683 246.949 28.8849 236.696 26.1151C232.555 24.9281 224.471 22.9496 216.978 22.1583C209.288 21.3669 199.429 21.3669 199.626 21.1691C199.626 20.7734 211.063 19.5863 221.71 21.1691C232.358 22.7518 231.964 23.3453 236.696 24.3345C244.189 25.9173 269.822 36.7986 273.174 38.1835ZM300.582 41.3489C300.976 41.3489 299.004 42.1403 291.117 39.1727C283.23 36.205 277.906 32.2482 277.512 31.8525C277.117 31.6547 284.413 35.4137 290.526 37.7878C296.441 40.1619 300.384 41.3489 300.582 41.3489ZM466.014 43.1295C465.817 42.9317 462.268 40.9532 456.55 38.1835C450.831 35.4137 442.944 32.6439 443.339 32.8417C443.733 32.8417 450.24 34.0288 457.93 37.7878C465.62 41.5468 466.211 43.3273 466.014 43.1295ZM-30.2832 32.0504C-30.0861 32.446 -34.0296 32.446 -39.1563 34.4245C-44.2829 36.4029 -49.8039 37.5899 -54.5362 38.3813C-62.4233 39.964 -77.606 38.1835 -76.8173 37.9856C-76.2257 37.7878 -60.6487 38.5791 -52.17 36.6007C-47.8321 35.6115 -47.4377 35.6115 -40.9309 33.4353C-34.424 31.259 -30.4804 31.4568 -30.2832 32.0504ZM51.94 36.7986C52.7287 36.9964 58.8413 39.964 68.503 41.9424C78.1647 44.1187 86.0518 42.9317 86.0518 43.5252C86.0518 44.1187 84.0801 45.3058 73.8268 44.1187C63.5735 42.9317 51.1513 36.6007 51.94 36.7986ZM49.1795 41.7446C49.5739 41.5468 55.8836 44.3165 60.4187 45.1079C64.9538 45.7014 64.1651 46.0971 64.1651 46.295C64.1651 46.4928 61.9961 46.6906 58.8413 45.8993C55.4892 44.9101 48.7852 41.9424 49.1795 41.7446ZM92.5587 46.295C92.7559 45.8993 99.46 44.7122 103.601 42.7338C107.741 40.7554 107.15 41.5468 107.347 41.7446C107.544 41.9424 105.77 43.3273 102.615 44.3165C99.46 45.5036 92.3615 46.6906 92.5587 46.295ZM36.9545 33.0396C36.7573 32.446 37.546 32.0504 40.7009 33.4353C43.8557 34.8201 45.8275 36.0072 45.0388 35.8094C44.2501 35.6115 43.2642 35.018 40.1093 34.2266C36.7573 33.4353 37.1517 33.6331 36.9545 33.0396ZM-23.9735 30.4676C-24.3679 30.4676 -19.8328 28.8849 -17.4667 28.687C-15.1005 28.4892 -13.5231 28.4892 -13.5231 29.0827C-13.5231 29.6763 -13.7203 30.0719 -16.678 29.8741C-19.8328 29.6763 -23.5792 30.4676 -23.9735 30.4676ZM208.105 13.2554C207.908 13.0576 203.373 13.8489 193.317 13.8489C183.458 13.8489 166.501 18.5971 159.402 20.7734C152.304 22.9496 179.12 13.0576 191.936 12.6619C204.753 12.2662 208.302 13.4532 208.105 13.2554Z" fill="white"/>
<path d="M356.383 35.6116C355.989 35.8094 347.51 37.59 337.651 37.9857C327.792 38.3814 312.609 36.7986 313.398 36.9965C313.99 37.1943 325.032 40.5576 339.623 39.3706C354.214 38.1835 356.777 35.4138 356.383 35.6116Z" fill="white"/>
<path d="M311.229 28.489C311.032 28.6868 315.173 30.4674 317.539 30.6653C319.905 30.8631 321.483 30.6652 321.483 30.0717C321.483 29.4782 321.285 29.0825 318.328 29.2804C314.976 29.4782 311.427 28.2911 311.229 28.489Z" fill="white"/>
<path d="M304.328 34.0286C304.328 34.2265 295.652 31.6545 291.906 29.6761C288.16 27.8955 279.681 23.543 279.878 23.543C280.075 23.3452 288.16 26.7085 292.3 28.6869C296.441 30.6653 304.328 33.8308 304.328 34.0286Z" fill="white"/>
<path d="M212.64 2.17647C212.443 2.37431 203.57 1.58294 198.443 2.17647C184.049 3.56136 164.923 8.5074 165.712 7.91388C166.501 7.32035 192.725 1.78079 199.232 1.3851C208.894 0.593737 212.837 1.97863 212.64 2.17647Z" fill="white"/>
<path d="M-9.38245 16.8165C-9.38245 16.8165 -7.01631 17.41 -3.66428 17.0143C-0.312255 16.6187 7.77205 15.2338 12.5043 15.6295C20.7858 16.4208 27.0955 20.9712 26.3068 20.7733C25.5181 20.7733 17.8281 16.4208 9.34948 17.0143C5.80027 17.2122 -0.706609 18.0036 -3.86146 17.8057C-7.01631 17.6079 -9.38245 16.8165 -9.38245 16.8165Z" fill="white"/>
<path d="M56.8694 30.0719C57.2637 29.8741 60.8129 31.6547 65.3481 32.2482C69.8832 32.6439 69.4888 32.8417 69.4888 33.2374C69.4888 33.4352 65.9396 34.0288 62.7847 33.2374C59.6299 32.2482 56.475 30.2698 56.8694 30.0719Z" fill="white"/>
</svg>
