<svg width="16" height="16" viewBox="0 0 16 16" fill="none" xmlns="http://www.w3.org/2000/svg">
<path d="M7.83323 2C8.08636 2 8.29559 2.18801 8.32875 2.43205L8.33333 2.4999L8.33413 7.33333H13.1695C13.4457 7.33333 13.6695 7.55719 13.6695 7.83333C13.6695 8.08646 13.4814 8.29566 13.2374 8.32877L13.1695 8.33333H8.33413L8.33549 13.1661C8.33555 13.4422 8.11174 13.6662 7.8356 13.6662C7.58247 13.6662 7.37323 13.4782 7.34007 13.2341L7.33549 13.1663L7.33413 8.33333H2.50146C2.22532 8.33333 2.00146 8.10948 2.00146 7.83333C2.00146 7.5802 2.18957 7.37101 2.43362 7.3379L2.50146 7.33333H7.33413L7.33333 2.5001C7.33327 2.22396 7.55708 2 7.83323 2Z" fill="#5F6368"/>
</svg>
