<svg width="88" height="78" viewBox="0 0 88 78" fill="none" xmlns="http://www.w3.org/2000/svg">
<path d="M65.3945 28.2569L47.633 1.61466C46.8255 0.807324 45.6147 -1.52588e-05 44.4037 -1.52588e-05C43.1927 -1.52588e-05 41.9817 0.403655 41.1743 1.61466L23.4128 28.2569H4.0367C1.61468 28.2569 0 29.8715 0 32.2936C0 32.6972 0 33.1009 0 33.5046L10.0917 71.0459C10.8991 74.2752 14.1284 77.1009 17.7615 77.1009H70.2385C73.8716 77.1009 77.1009 74.6789 77.9082 71.0459L88 33.5046C88 33.1009 88 32.6972 88 32.2936C88 29.8715 86.3853 28.2569 83.9633 28.2569H65.3945ZM32.2936 28.2569L44.4037 10.4954L56.5138 28.2569H32.2936ZM44.4037 60.5504C39.9633 60.5504 36.3303 56.9174 36.3303 52.4771C36.3303 48.0367 39.9633 44.4037 44.4037 44.4037C48.844 44.4037 52.4771 48.0367 52.4771 52.4771C52.4771 56.9174 48.844 60.5504 44.4037 60.5504Z" fill="#4081FF"/>
</svg>
