<svg width="114" height="81" viewBox="0 0 114 81" fill="none" xmlns="http://www.w3.org/2000/svg">
<path d="M24.2501 47.2754C19.0961 47.2754 14.91 51.4594 14.91 56.599C14.91 61.7386 19.0973 65.9215 24.2501 65.9215C29.404 65.9215 33.5912 61.7386 33.5912 56.6002C33.5935 51.4594 29.404 47.2754 24.2501 47.2754Z" fill="#22A0BB"/>
<path d="M24.2467 32.4061C10.8767 32.4061 0 43.2575 0 56.6013C0 69.944 10.8779 80.7999 24.2467 80.7999C37.6189 80.7999 48.5013 69.9428 48.5013 56.6013C48.5024 43.2575 37.6189 32.4061 24.2467 32.4061ZM24.2501 70.2272C16.7215 70.2272 10.5952 64.1162 10.5952 56.6002C10.5952 49.0842 16.7204 42.972 24.2501 42.972C31.7798 42.972 37.905 49.0853 37.905 56.6002C37.905 64.115 31.7798 70.2272 24.2501 70.2272Z" fill="#22A0BB"/>
<path d="M96.7256 46.3289C87.2009 46.3289 79.4591 54.0588 79.4591 63.561C79.4591 73.0643 87.1997 80.7976 96.7256 80.7976C106.247 80.7976 113.999 73.0643 113.999 63.561C114 54.0588 106.247 46.3289 96.7256 46.3289ZM96.7256 71.6719C92.2362 71.6719 88.5985 68.0419 88.5985 63.5621C88.5985 59.0824 92.2351 55.4546 96.7256 55.4546C101.215 55.4546 104.855 59.0812 104.855 63.5621C104.855 68.0408 101.215 71.6719 96.7256 71.6719Z" fill="#22A0BB"/>
<path d="M82.7298 47.9705C79.1183 45.1504 73.3055 41.6683 65.4246 39.9562V37.7698C74.2733 39.5808 80.6562 43.4736 84.482 46.553C87.9328 44.064 92.1531 42.5795 96.7256 42.5795C99.2063 42.5795 101.575 43.0334 103.78 43.8274C103.549 38.425 102.879 32.7349 101.076 32.0535C92.1998 28.7556 80.6345 26.783 71.3082 25.9503V8.79678C71.3082 6.38853 72.5109 5.82998 72.6796 5.76172C73.8287 5.43979 74.4967 4.2476 74.1696 3.10434C73.8458 1.96334 72.6671 1.30469 71.5077 1.62207C69.8307 2.09644 66.9944 4.13612 66.9944 8.79678V25.6318C66.3344 25.5943 65.7119 25.5715 65.0929 25.5465L60.0472 3.88358C59.85 3.04291 59.1729 2.40017 58.3224 2.25115C57.2827 2.06914 32.6485 -2.20475 14.1201 1.51741C12.9538 1.75175 12.1957 2.88592 12.4283 4.05194C12.6631 5.21682 13.7952 5.97786 14.9694 5.73669C15.227 5.6855 15.4949 5.65024 15.7537 5.60246L12.3519 25.3486C12.3462 25.3895 12.361 25.4305 12.3553 25.4748H11.5904C7.51377 25.4748 6.70209 28.0981 6.70209 28.0981L4.20435 34.3457L6.28029 35.3752C11.1355 31.2753 17.4055 28.7897 24.2455 28.7897C39.6196 28.7897 52.122 41.269 52.122 56.6024C52.122 59.2928 51.7184 61.8853 51.0002 64.3471H75.8089C75.7986 64.0627 75.7667 63.7828 75.7667 63.4939C75.7667 57.3316 78.4651 51.803 82.7298 47.9705ZM90.9641 32.8816C91.5158 32.6666 92.1405 32.9374 92.3651 33.4902L94.1139 37.9393C94.3316 38.491 94.0557 39.1144 93.504 39.334C93.374 39.3817 93.2429 39.4068 93.1084 39.4068C92.6798 39.4068 92.2751 39.1474 92.1052 38.7254L90.3542 34.2763C90.1376 33.7234 90.41 33.0977 90.9641 32.8816ZM85.8819 32.8816C86.428 32.6666 87.0596 32.9374 87.2796 33.4902L89.0306 37.9393C89.2472 38.491 88.9725 39.1144 88.4196 39.334C88.2896 39.3817 88.1574 39.4068 88.024 39.4068C87.5919 39.4068 87.1884 39.1474 87.0197 38.7254L85.2709 34.2763C85.0532 33.7234 85.3256 33.0977 85.8819 32.8816ZM35.2864 26.5419C33.5913 25.9879 31.9542 25.5886 30.5167 25.4748H16.7079L19.8942 6.9812H35.2864V26.5419ZM61.1086 43.1141L53.2962 43.105C50.7027 36.1567 45.144 31.1923 39.5979 28.3233V6.98234H56.34L61.1063 27.4576V43.1153H61.1086V43.1141Z" fill="#22A0BB"/>
</svg>
