<svg width="20" height="20" viewBox="0 0 20 20" fill="none" xmlns="http://www.w3.org/2000/svg">
<path d="M8.46141 0H0.769294C0.344374 0 0 0.344374 0 0.769294V8.46141C0 8.88633 0.344374 9.23071 0.769294 9.23071H8.46141C8.88633 9.23071 9.23071 8.88633 9.23071 8.46141V0.769294C9.23071 0.344374 8.88633 0 8.46141 0Z" fill="white"/>
<path d="M19.2307 0H11.5386C11.1137 0 10.7693 0.344374 10.7693 0.769294V8.46141C10.7693 8.88633 11.1137 9.23071 11.5386 9.23071H19.2307C19.6556 9.23071 20 8.88633 20 8.46141V0.769294C20 0.344374 19.6556 0 19.2307 0ZM18.4614 7.69212H12.3079V1.53859H18.4614V7.69212Z" fill="white"/>
<path d="M8.46141 10.7693H0.769294C0.344374 10.7693 0 11.1137 0 11.5386V19.2307C0 19.6556 0.344374 20 0.769294 20H8.46141C8.88633 20 9.23071 19.6556 9.23071 19.2307V11.5386C9.23071 11.1128 8.88633 10.7693 8.46141 10.7693ZM3.63278 18.4614C3.7651 18.2346 3.84647 17.974 3.84647 17.6921C3.84647 16.8423 3.15772 16.1535 2.30788 16.1535C2.02597 16.1535 1.76543 16.2349 1.53859 16.3672V14.4021C1.76543 14.5344 2.02597 14.6158 2.30788 14.6158C3.15772 14.6158 3.84647 13.927 3.84647 13.0772C3.84647 12.7953 3.7651 12.5347 3.63278 12.3079H5.59793C5.4656 12.5347 5.38424 12.7953 5.38424 13.0772C5.38424 13.927 6.07298 14.6158 6.92282 14.6158C7.20473 14.6158 7.46528 14.5344 7.69212 14.4021V16.3672C7.46528 16.2349 7.20473 16.1535 6.92282 16.1535C6.07298 16.1535 5.38424 16.8423 5.38424 17.6921C5.38424 17.974 5.4656 18.2346 5.59793 18.4614H3.63278Z" fill="white"/>
<path d="M19.2307 10.7693H11.5386C11.1137 10.7693 10.7693 11.1137 10.7693 11.5386V15.3842V19.2299C10.7693 19.6548 11.1137 19.9992 11.5386 19.9992H15.3842H19.2299C19.6548 19.9992 19.9992 19.6548 19.9992 19.2299V11.5378C20 11.1128 19.6556 10.7693 19.2307 10.7693ZM12.3079 15.7031L15.7031 12.3079H17.374L12.3079 17.374V15.7031ZM12.3079 12.3079H13.5276L12.3079 13.5276V12.3079ZM18.4614 13.3952V15.0653L15.0662 18.4614H13.3952L18.4614 13.3952ZM18.4614 18.4614H17.2409L18.4614 17.2409V18.4614Z" fill="white"/>
<path d="M4.61561 16.9228C5.46535 16.9228 6.1542 16.234 6.1542 15.3842C6.1542 14.5345 5.46535 13.8456 4.61561 13.8456C3.76588 13.8456 3.07703 14.5345 3.07703 15.3842C3.07703 16.234 3.76588 16.9228 4.61561 16.9228Z" fill="white"/>
</svg>
