<svg width="20" height="14" viewBox="0 0 20 14" fill="none" xmlns="http://www.w3.org/2000/svg">
<path d="M2.54088 3.23596L7.16894 3.83094C7.33046 4.24105 8.14428 6.25972 8.29729 6.62095C8.29729 6.62095 8.29729 6.62095 8.29515 6.62095C6.95433 7.28393 5.6135 7.94477 4.27268 8.60775C4.73804 8.52275 5.20977 8.48025 5.68363 8.48025C6.3041 8.48025 6.91183 8.55462 7.49193 8.70124C8.66276 8.99873 9.72097 9.47469 10.7431 9.93582C11.6546 10.3459 12.5174 10.7348 13.3779 10.9579C13.4991 10.9898 13.6159 11.0174 13.7328 11.0408C12.7128 8.95198 9.96958 3.32308 9.42773 2.08426C9.17274 1.49991 8.82213 1.28316 8.32492 1.21942L2.88938 0.52032C2.13929 0.424699 1.45294 0.953803 1.35519 1.7039C1.26168 2.45399 1.79078 3.14034 2.54088 3.23596Z" fill="white"/>
<path d="M0.354317 12.9978C0.505186 13.1062 0.677305 13.1572 0.849423 13.1572C0.887671 13.1572 0.923795 13.155 0.959918 13.1487C1.18516 13.1189 1.39765 12.9999 1.54002 12.8023C2.09037 12.0352 2.94246 11.4318 3.9348 11.1002C4.50428 10.9112 5.09925 10.8155 5.6836 10.8155C7.80214 10.8155 9.61895 12.082 11.5314 12.8108C12.5556 13.2018 13.6244 13.4908 14.7867 13.4908C15.2755 13.4908 15.7812 13.4398 16.306 13.3229C17.5406 13.0509 18.5988 12.4645 19.3638 11.6421C19.5465 11.4445 19.7123 11.2362 19.8589 11.0131C20.1181 10.6221 20.0098 10.0952 19.6188 9.83593C19.4743 9.7403 19.3128 9.69568 19.1513 9.69568C18.8751 9.69568 18.6052 9.82955 18.4416 10.076C18.3757 10.1759 18.3035 10.2715 18.2248 10.365C17.6936 10.9983 16.8968 11.453 15.9405 11.6634C15.0587 11.8567 14.0855 11.7993 13.2164 11.5741C12.3027 11.3361 11.4187 10.9388 10.4795 10.5159C9.48081 10.0675 8.45022 9.60218 7.33254 9.31747C6.80131 9.18147 6.24458 9.1156 5.68148 9.1156C4.91438 9.1156 4.13454 9.24095 3.39295 9.48746C2.74485 9.7042 2.1435 10.0059 1.60377 10.3863C1.03429 10.7879 0.547685 11.266 0.1567 11.81C0.131201 11.8461 0.109952 11.8822 0.0908279 11.9205C-0.0940397 12.2881 0.00795627 12.7492 0.354317 12.9978Z" fill="white"/>
<path d="M15.743 9.05396C17.3989 9.05396 18.7413 7.7116 18.7413 6.0557C18.7413 4.3998 17.3989 3.05743 15.743 3.05743C14.0871 3.05743 12.7448 4.3998 12.7448 6.0557C12.7448 7.7116 14.0871 9.05396 15.743 9.05396Z" fill="white"/>
</svg>
