<svg width="78" height="28" viewBox="0 0 78 28" fill="none" xmlns="http://www.w3.org/2000/svg">
<path fill-rule="evenodd" clip-rule="evenodd" d="M30.2892 0.218008C30.1999 0.360028 29.7559 0.655883 29.3025 0.875283C28.5835 1.22326 28.394 1.51101 27.8185 3.12766C27.0232 5.36198 24.8544 10.6994 24.3597 11.6398C24.1644 12.0114 23.6403 12.465 23.1953 12.6478C21.783 13.2279 22.256 13.4374 24.9783 13.4374C27.7092 13.4374 28.1739 13.2282 26.7458 12.6413C25.8006 12.253 25.7697 12.07 26.3334 10.1841L26.7458 8.80449L28.9002 8.80403L31.0548 8.8038L31.4557 10.4126C31.6762 11.2974 31.7884 12.1295 31.7052 12.2623C31.6218 12.3948 31.2214 12.588 30.8154 12.6914C30.4094 12.7949 30.0344 13.0051 29.9826 13.1584C29.9116 13.3674 30.7529 13.4374 33.3386 13.4374C36.8973 13.4374 37.3 13.2984 35.6749 12.6309C34.6413 12.2062 34.4255 11.7274 32.3837 5.32861C31.5096 2.58901 30.7171 0.260174 30.6231 0.153602C30.5288 0.0467978 30.3787 0.0759893 30.2892 0.218008ZM68.6783 0.255311C68.5899 0.395709 68.1549 0.65959 67.7114 0.841922C67.2681 1.02402 66.8691 1.29995 66.825 1.45541C66.5653 2.37123 63.8977 9.19116 63.2451 10.6072C62.5952 12.0176 62.3308 12.3508 61.6332 12.6374C60.195 13.2282 60.6545 13.4374 63.3908 13.4374C66.1376 13.4374 66.587 13.2284 65.1283 12.629C64.2971 12.2878 64.2776 12.2516 64.4277 11.3291C64.5125 10.8071 64.7329 10.0254 64.9169 9.59197L65.252 8.8038H67.3595H69.4673L69.8681 10.4126C70.0887 11.2974 70.2009 12.1295 70.1177 12.2623C70.0342 12.3948 69.6339 12.588 69.2278 12.6914C68.8218 12.7949 68.4468 13.0051 68.395 13.1584C68.3241 13.3672 69.1364 13.4374 71.6193 13.4374C75.0524 13.4374 75.618 13.2594 74.1288 12.6478C73.6839 12.465 73.1655 12.0207 72.9769 11.6602C72.7884 11.2997 71.8217 8.52879 70.8289 5.50237C69.8361 2.47618 68.982 0 68.9314 0C68.8805 0 68.7666 0.114914 68.6783 0.255311ZM4.39942 0.615803C4.08481 0.925095 4.25236 1.12411 4.95534 1.27586C6.26207 1.55804 6.41642 2.1099 6.13175 5.47828C5.70945 10.4767 5.46648 11.8515 4.90184 12.4423C4.62235 12.7347 4.25331 12.974 4.08151 12.974C3.90972 12.974 3.76903 13.0783 3.76903 13.2057C3.76903 13.3454 4.75102 13.4374 6.24345 13.4374C8.64717 13.4374 9.45619 13.1702 8.00288 12.8566C6.70982 12.5771 6.53401 11.9903 6.70487 8.52207C6.87407 5.08998 7.00015 4.23602 7.2919 4.54206C7.4611 4.71976 10.7111 12.0735 11.1527 13.2782C11.2375 13.5094 11.399 13.6424 11.5116 13.5741C11.624 13.5057 12.5952 11.4922 13.6695 9.09942C14.7439 6.70687 15.703 4.66022 15.8008 4.55133C16.0636 4.25849 16.3011 7.42345 16.2158 10.078L16.1411 12.3948L15.3752 12.7261C14.9541 12.9084 14.6093 13.1431 14.6093 13.2474C14.6093 13.3519 16.041 13.4374 17.7907 13.4374C21.0134 13.4374 21.6777 13.2388 20.1327 12.7377C19.6157 12.5697 19.2106 12.2514 19.0781 11.9085C18.9596 11.6025 18.7909 9.22522 18.703 6.62555L18.5432 1.89907L19.5221 1.40814C21.0461 0.643836 20.7742 0.410534 18.5566 0.580586C16.0596 0.772185 16.1091 0.751566 15.9321 1.67921C15.7304 2.73682 12.6331 9.53706 12.3546 9.53382C12.2337 9.53243 11.332 7.59675 10.351 5.232C9.3697 2.86749 8.52133 0.893584 8.46571 0.845626C8.26446 0.673026 4.55472 0.463127 4.39942 0.615803ZM59.5613 0.632019C58.4273 0.676502 57.5017 0.787245 57.5045 0.877832C57.5073 0.968418 57.8519 1.19894 58.2704 1.39007C59.4228 1.91645 59.3669 2.62492 57.8709 6.46129C57.1564 8.29364 56.5185 9.84542 56.453 9.9096C56.3877 9.97377 56.2423 9.77731 56.1299 9.47312C56.0175 9.16869 55.3704 7.43411 54.6919 5.61845C54.0134 3.80278 53.4929 2.14373 53.5348 1.93197C53.5765 1.72022 53.9479 1.4334 54.3599 1.29485C55.8209 0.802768 55.418 0.695037 52.1185 0.695037C50.0499 0.695037 48.7799 0.783075 48.7799 0.926715C48.7799 1.05414 48.9234 1.15839 49.099 1.15839C49.9556 1.15839 50.6569 2.40853 52.9049 7.94241C54.1843 11.0921 55.3574 13.6691 55.5115 13.6691C55.8181 13.6691 55.9904 13.3014 58.7151 6.83453C60.5622 2.4507 61.3905 1.15839 62.3536 1.15839C62.8867 1.15839 62.6171 0.581976 62.0763 0.565064C61.8272 0.557418 60.6955 0.587537 59.5613 0.632019ZM37.7039 0.908414C37.7039 1.02564 38.023 1.19037 38.4128 1.2747C38.8028 1.3588 39.227 1.62083 39.3554 1.85714C39.4881 2.1004 39.5892 4.32684 39.5892 6.99948C39.5892 12.108 39.4933 12.5412 38.2985 12.8362C37.9714 12.9168 37.7039 13.0852 37.7039 13.2101C37.7039 13.3519 39.6547 13.4374 42.884 13.4374H48.064L48.1969 12.8003C48.2702 12.45 48.4311 11.7862 48.5549 11.3254C49.0095 9.63251 48.6498 9.46478 47.7614 10.9554C46.9477 12.3205 46.4163 12.5452 44.1959 12.4634C42.3509 12.3955 42.3297 12.3876 42.1228 11.6998C41.8402 10.7606 42.1096 2.10179 42.4334 1.71836C42.5719 1.5541 42.9961 1.35277 43.376 1.27076C44.9323 0.934593 43.8956 0.695037 40.8853 0.695037C39.1045 0.695037 37.7039 0.788868 37.7039 0.908414ZM30.6179 7.58748C30.6295 7.79252 30.1638 7.87708 29.0239 7.87708C28.1381 7.87708 27.3557 7.82009 27.2847 7.75058C27.1815 7.64911 28.204 4.65744 28.9042 3.01183C29.0359 2.7023 30.5738 6.80904 30.6179 7.58748ZM69.0303 7.58748C69.0419 7.79252 68.5762 7.87708 67.4363 7.87708C66.5505 7.87708 65.7681 7.82009 65.6972 7.75058C65.594 7.64911 66.6165 4.65744 67.3166 3.01183C67.4484 2.7023 68.9863 6.80904 69.0303 7.58748ZM45.7046 16.4763C44.9309 16.8741 44.7737 17.1549 43.6204 20.1998C41.6024 25.5264 41.0765 26.556 40.1536 26.9866C39.7136 27.1919 39.3536 27.4519 39.3536 27.5642C39.3536 27.8068 43.7208 27.7554 43.9708 27.5098C44.0656 27.4164 43.7957 27.2211 43.3711 27.0756C42.6356 26.8235 42.6045 26.7654 42.7169 25.8581C42.7819 25.3343 42.9507 24.6187 43.0916 24.2684C43.3411 23.6484 43.3982 23.6312 45.2102 23.6312H47.0723L47.423 25.0002C47.817 26.5379 47.7567 26.7401 46.7983 27.0983C46.4264 27.2373 46.1924 27.4201 46.2782 27.5042C46.4971 27.7195 51.8392 27.7639 51.9726 27.5517C52.033 27.456 51.6837 27.1864 51.1968 26.9524C50.3119 26.5272 50.3115 26.5263 48.5443 21.2626C47.5722 18.367 46.7238 16.0088 46.659 16.0222C46.5942 16.0354 46.1646 16.2398 45.7046 16.4763ZM0.0710653 16.5226C-0.0689162 16.7437 -0.0769293 16.7372 0.769323 17.0947L1.4221 17.3704L1.35847 22.0616L1.29461 26.7531L0.646545 27.0582C-0.725227 27.7042 -0.0609037 27.8408 4.0636 27.7611C7.71585 27.6905 8.22794 27.6305 9.10506 27.1708C11.2333 26.0551 12.7092 23.3657 12.4022 21.1627C12.1279 19.1955 11.1508 17.8935 9.18919 16.8808C8.19636 16.3683 7.87563 16.3334 4.15975 16.3334C1.97684 16.3334 0.136814 16.4184 0.0710653 16.5226ZM14.6812 16.5226C14.5422 16.7437 14.5346 16.7374 15.3752 17.0923L16.0233 17.366V22.0164V26.6667L15.1891 27.0094C14.7302 27.1979 14.4079 27.4368 14.4729 27.5401C14.648 27.8186 19.9213 27.7343 19.8653 27.4539C19.8396 27.3265 19.6275 27.185 19.3939 27.1393C18.501 26.9653 18.3799 26.6377 18.3799 24.3981C18.3799 22.2389 18.387 22.212 18.9101 22.3603C19.516 22.5322 19.5966 22.6265 21.2705 25.1242C21.949 26.1364 22.7877 27.1676 23.1346 27.4155C24.0173 28.0466 25.9754 28.2032 26.7496 27.7046C27.4683 27.2415 27.3196 26.8747 26.4133 26.8747C26.0513 26.8747 25.3964 26.637 24.9578 26.3465C24.1071 25.7831 21.4472 22.5475 21.4449 22.0734C21.4442 21.9173 21.7597 21.6288 22.1464 21.4324C23.103 20.9461 23.6478 19.8489 23.4937 18.7192C23.2276 16.7689 22.2709 16.3498 18.0629 16.3405C16.2686 16.3366 14.7467 16.4184 14.6812 16.5226ZM28.8302 16.5076C28.7699 16.6033 28.9855 16.7807 29.3095 16.9019C29.6336 17.0231 30.0111 17.3287 30.1485 17.5812C30.4348 18.1073 30.4928 26.1387 30.2133 26.5706C30.1155 26.7221 29.746 26.954 29.3922 27.0863C27.9319 27.6321 28.7857 27.8015 32.9966 27.8015H37.2444L37.4949 27.1643C37.6325 26.814 37.7982 26.1623 37.863 25.7164L37.9806 24.9055L37.1157 25.8901L36.2509 26.8747H34.5075C32.4558 26.8747 32.4542 26.8724 32.5668 24.0918L32.6373 22.357L33.8622 22.2875C35.0266 22.2212 35.1063 22.2539 35.4704 22.9459C35.681 23.3465 35.9087 23.6199 35.9763 23.5536C36.1799 23.3532 36.1552 20.3901 35.9497 20.3736C35.8448 20.3653 35.6367 20.5997 35.4873 20.8944C35.2531 21.3566 35.0384 21.4303 33.9263 21.4303H32.6373L32.568 19.4654C32.4886 17.2177 32.6835 16.9126 34.1987 16.9126C35.5759 16.9126 36.2735 17.2802 36.671 18.2157C37.149 19.3403 37.489 18.9453 37.28 17.5087L37.1141 16.3683L33.027 16.3507C30.7793 16.3412 28.8908 16.4117 28.8302 16.5076ZM53.8664 16.4177C53.7679 16.5745 54.0775 16.822 54.6594 17.0506L55.614 17.4262L55.6067 19.0808C55.5971 21.2375 55.0164 26.0092 54.6907 26.6074C54.5507 26.8646 54.2241 27.1412 53.9647 27.2223C52.944 27.5406 53.5914 27.7463 55.614 27.7463C57.7628 27.7463 58.2614 27.5234 57.0916 27.0863C56.7379 26.954 56.3684 26.7221 56.2706 26.5706C56.0507 26.2307 56.0714 20.9507 56.2956 20.1584C56.5051 19.4186 56.4805 19.3758 58.4417 23.9118C59.3372 25.9835 60.1545 27.7053 60.2575 27.7378C60.3607 27.7702 61.2378 26.0173 62.2066 23.8421C63.1756 21.6668 64.0396 19.844 64.1265 19.7912C64.2135 19.7383 64.3615 21.2065 64.4553 23.0537C64.6388 26.6644 64.5752 26.9385 63.4893 27.2063C63.1653 27.2862 62.9539 27.4373 63.0196 27.5417C63.1803 27.7973 68.5753 27.8008 68.5753 27.5455C68.5753 27.4347 68.214 27.1959 67.7726 27.0147C66.9818 26.6899 66.9674 26.6577 66.7965 24.8684C66.7013 23.8694 66.6118 21.8058 66.5976 20.2828L66.5722 17.5135L67.4797 17.0094C67.9788 16.7323 68.2913 16.4471 68.174 16.376C68.0568 16.3046 67.1498 16.3067 66.1586 16.3804C64.3681 16.5136 64.3553 16.5192 64.213 17.2348C64.0353 18.127 61.2486 24.3263 61.0252 24.3263C60.8782 24.3263 58.2567 18.2229 57.8658 16.9705C57.7503 16.6 57.5203 16.4485 57.0711 16.4471C56.7233 16.4462 55.8964 16.3811 55.2334 16.3028C54.4555 16.2108 53.9708 16.2516 53.8664 16.4177ZM72.7625 16.6945C71.7211 17.2351 71.1032 18.2903 71.1032 19.5289C71.1032 20.7253 71.6697 21.4233 73.7753 22.8211C74.7359 23.4586 75.6587 24.2614 75.8263 24.6052C76.4348 25.853 75.5414 27.1991 74.1048 27.1991C73.1284 27.1991 72.014 26.255 71.6261 25.0989C71.2776 24.061 70.6962 24.0756 70.6962 25.1221C70.6962 27.0594 71.7039 27.8585 74.1298 27.8448C76.6417 27.8304 78 26.6771 78 24.558C78 23.15 77.3668 22.2097 75.7122 21.1604C73.6825 19.8734 73.0528 19.2412 73.0528 18.491C73.0528 17.6322 73.8119 16.9126 74.718 16.9126C75.7537 16.9126 76.2844 17.2642 76.8274 18.3103C77.0896 18.8158 77.4083 19.2293 77.535 19.2293C77.7884 19.2293 77.8402 18.0188 77.6213 17.2168C77.3385 16.18 74.3687 15.8607 72.7625 16.6945ZM7.58623 17.5247C10.1057 18.7695 10.7219 23.64 8.64175 25.8663C7.81647 26.7494 6.48712 27.1796 5.25722 26.9619C3.80815 26.7052 3.75135 26.4946 3.82252 21.6379L3.88686 17.2601L4.71166 17.1259C5.71463 16.9631 6.73645 17.1046 7.58623 17.5247ZM20.7954 17.634C21.0725 17.9621 21.2078 18.5206 21.2078 19.3371C21.2078 20.8956 20.4879 21.7778 19.216 21.7778H18.3799V19.6232C18.3799 18.2104 18.4812 17.3676 18.6745 17.1753C19.081 16.7703 20.2864 17.0312 20.7954 17.634ZM46.535 21.9824L46.6965 22.7045H45.151H43.6055L44.2199 21.0249C45.3737 17.8699 45.2288 17.9864 45.8363 19.7235C46.1321 20.5687 46.4464 21.5853 46.535 21.9824Z" fill="white"/>
</svg>
