<svg width="290" height="107" viewBox="0 0 290 107" fill="none" xmlns="http://www.w3.org/2000/svg">
<path fill-rule="evenodd" clip-rule="evenodd" d="M101.947 2.31183C101.358 3.55245 98.4793 10.0353 95.5482 16.7174C92.6178 23.3996 89.4618 30.4878 88.5347 32.4685C87.6075 34.4499 86.8488 36.3001 86.8488 36.5798C86.8488 37.2421 85.0321 41.2771 81.9346 47.4962C80.0573 51.2645 78.9179 52.712 77.2362 53.4639C76.0146 54.0103 75.0157 54.8698 75.0157 55.3731C75.0157 56.0868 77.0949 56.2895 84.4126 56.2895C92.3011 56.2895 93.8095 56.1222 93.8095 55.2481C93.8095 54.6275 93.1691 54.2067 92.2245 54.2067C90.0932 54.2067 87.5449 52.3406 87.5449 50.7806C87.5449 49.4553 88.7832 46.1521 91.1401 41.1896L92.5412 38.2391H101.759C112.077 38.2391 111.029 37.7212 113.693 44.1402C115.885 49.4227 116.099 51.4145 114.632 52.878C113.899 53.609 112.673 54.2067 111.907 54.2067C111.134 54.2067 110.515 54.6698 110.515 55.2481C110.515 56.1333 112.294 56.2895 122.348 56.2895C134.471 56.2895 136.249 55.8465 131.919 53.9061C130.674 53.348 129.169 52.485 128.572 51.9873C127.306 50.9306 125.059 46.2507 121.304 36.8506C120.313 34.3687 119.214 31.7132 118.862 30.9495C117.202 27.3436 111.014 11.9549 110.428 9.97353C110.065 8.7468 109.466 7.55617 109.097 7.32916C108.728 7.10214 108.427 6.43496 108.427 5.84693C108.427 5.25891 107.921 3.7156 107.303 2.41667C105.79 -0.764371 103.428 -0.810887 101.947 2.31183ZM258.229 1.61759C257.799 2.47706 256.617 5.20128 255.602 7.67211C254.587 10.1436 252.889 14.0488 251.829 16.3502C250.768 18.6523 248.098 24.7533 245.895 29.9081C243.691 35.0629 241.681 39.5929 241.426 39.9747C241.172 40.3565 240.219 42.5434 239.308 44.8344C237.236 50.0475 234.856 53.2515 232.643 53.8055C231.703 54.0408 230.934 54.6962 230.934 55.2613C230.934 56.1187 232.496 56.2895 240.331 56.2895C247.885 56.2895 249.728 56.1007 249.728 55.3252C249.728 54.7788 248.703 54.1699 247.361 53.9186C243.784 53.2494 243.058 51.9949 244.2 48.457C244.72 46.8463 245.885 43.8882 246.791 41.8839L248.438 38.2391H257.644C266.87 38.2391 268.521 38.6348 268.521 40.846C268.521 41.3632 269.112 43.0974 269.835 44.699C272.145 49.8233 272.304 51.8345 270.496 53.098C269.622 53.7076 268.351 54.2067 267.67 54.2067C266.99 54.2067 266.433 54.6754 266.433 55.2481C266.433 56.1333 268.212 56.2895 278.266 56.2895C290.328 56.2895 292.243 55.8243 287.837 53.9645C284.027 52.3566 283.211 51.0195 277.606 37.1977C276.367 34.143 275.101 31.1529 274.794 30.5531C274.486 29.9539 273.394 27.2985 272.368 24.652C271.341 22.0062 270.069 18.9043 269.543 17.7588C269.015 16.6133 267.748 13.4892 266.728 10.8164C263.36 2.0022 262.244 0.0555329 260.558 0.0555329C259.65 0.0555329 258.689 0.701182 258.229 1.61759ZM0.53692 3.17964C1.01372 3.7524 2.1483 4.22101 3.05806 4.22101C3.96851 4.22101 5.33976 4.84583 6.10543 5.6095C7.43909 6.93968 7.49756 7.92343 7.49756 29.0813C7.49756 53.6097 7.53793 53.3862 2.97314 54.1262C1.50514 54.3643 0.172873 54.9482 0.0141708 55.4245C-0.20857 56.0895 2.1504 56.2895 10.224 56.2895C19.0919 56.2895 20.7228 56.1277 20.7228 55.2481C20.7228 54.5629 20.0351 54.2067 18.7118 54.2067C17.6058 54.2067 16.0306 53.6597 15.2127 52.9918C13.7545 51.8019 13.728 51.4228 13.9174 34.4881C14.0705 20.7712 14.2772 17.5436 14.9176 18.8675C15.6951 20.474 16.7476 22.8053 20.0573 30.2553C20.9051 32.1644 22.9961 36.6944 24.7036 40.3218C29.1424 49.7532 30.9285 53.6868 31.4018 55.0746C31.6454 55.7903 32.5197 56.2895 33.5276 56.2895C35.3164 56.2895 35.6714 55.7112 40.5606 44.8344C42.9752 39.463 44.8908 35.3184 48.8423 26.9159C50.6041 23.1698 52.0554 19.8895 52.0679 19.6263C52.0797 19.3625 52.5496 18.5405 53.112 17.7998C54.019 16.6029 54.1338 18.3767 54.1338 33.6251V50.7987L52.425 52.5024C51.3593 53.566 49.9199 54.2067 48.5966 54.2067C47.1767 54.2067 46.4771 54.5504 46.4771 55.2481C46.4771 56.134 48.2945 56.2895 58.6582 56.2895C69.0219 56.2895 70.8394 56.134 70.8394 55.2481C70.8394 54.6157 70.1927 54.2067 69.1932 54.2067C68.2876 54.2067 66.7215 53.559 65.7129 52.7676L63.8787 51.3291V28.9237C63.8787 8.09977 63.9685 6.43774 65.1518 5.36999C65.8521 4.73822 67.4182 4.22101 68.6321 4.22101C70.1496 4.22101 70.8394 3.88916 70.8394 3.15812C70.8394 2.25212 69.6024 2.12438 62.4413 2.29031C54.289 2.47984 54.0155 2.53608 53.1009 4.22101C50.8651 8.33928 49.2614 11.9737 49.2614 12.9206C49.2614 13.4816 48.9482 13.9405 48.5653 13.9405C48.1825 13.9405 47.8693 14.3105 47.8693 14.7625C47.8693 15.2151 47.2003 17.0111 46.3832 18.7544C45.5653 20.4976 43.869 24.1112 42.6133 26.784C38.9666 34.5443 37.4283 38.1148 37.4283 38.8209C37.4283 39.1826 37.0079 39.6401 36.4949 39.8365C35.6234 40.1698 34.983 38.993 29.3902 26.784C28.866 25.6385 26.7569 21.1086 24.7049 16.7174C22.6523 12.3263 20.3685 7.2507 19.6299 5.43872L18.2865 2.14313L8.97878 2.14105C0.78333 2.13827 -0.225966 2.26254 0.53692 3.17964ZM137.136 3.00608C137.293 3.48372 138.643 4.03009 140.135 4.22101C144.6 4.79238 144.656 5.12353 144.453 29.7964L144.274 51.554L142.631 52.88C141.727 53.6097 140.082 54.2067 138.976 54.2067C137.653 54.2067 136.965 54.5629 136.965 55.2481C136.965 56.1513 139.849 56.2895 158.737 56.2895H180.508L182.134 50.9091C183.027 47.9502 184.067 44.6886 184.443 43.6611C185.233 41.509 184.724 40.31 183.039 40.3489C182.328 40.3649 181.184 41.7631 180.153 43.8743C179.213 45.7987 177.205 48.3522 175.69 49.5484C172.948 51.7144 172.898 51.7241 164.408 51.7505C159.718 51.7651 155.619 51.5172 155.298 51.1993C154.652 50.5585 154.082 10.3172 154.685 7.91441C155.307 5.43942 157.055 4.22101 159.985 4.22101C161.952 4.22101 162.72 3.92873 162.72 3.17964C162.72 2.29101 160.819 2.13827 149.785 2.13827C139.748 2.13827 136.914 2.33266 137.136 3.00608ZM180.565 3.17964C180.786 3.7524 181.683 4.22101 182.56 4.22101C184.317 4.22101 188.474 8.43231 188.474 10.213C188.474 10.8087 188.931 12.1257 189.49 13.1393C190.048 14.1529 191.163 16.5439 191.968 18.4531C193.623 22.3797 194.642 24.6888 196.752 29.2903C197.558 31.0502 198.219 32.6893 198.219 32.933C198.219 33.1766 199.118 35.3288 200.215 37.7163C201.313 40.1038 203.62 45.326 205.341 49.3213C210.18 60.5522 211.504 60.5063 216.155 48.9506C217.835 44.7775 219.484 40.7384 219.82 39.9747C220.156 39.211 221.242 36.5555 222.233 34.0736C223.224 31.5917 224.321 28.9362 224.669 28.1725C225.018 27.4088 226.114 24.7533 227.106 22.2714C228.097 19.7895 229.187 17.134 229.528 16.3703C229.869 15.6067 230.812 13.4198 231.622 11.5106C233.301 7.55895 236.198 4.22101 237.95 4.22101C238.603 4.22101 239.318 3.7524 239.539 3.17964C239.883 2.28545 238.612 2.13827 230.564 2.13827C223.361 2.13827 221.189 2.34655 221.189 3.03593C221.189 3.52954 222.207 4.23281 223.451 4.59799C227.102 5.6699 226.903 8.83081 222.578 18.4531C222.235 19.2167 220.676 22.9657 219.113 26.784C217.549 30.6024 215.811 34.7526 215.25 36.0064C214.688 37.2602 214.228 38.7181 214.228 39.2464C214.228 39.7741 213.837 40.3364 213.358 40.4954C212.831 40.671 211.715 38.9889 210.52 36.214C209.437 33.7001 208.106 30.6593 207.562 29.4562C207.017 28.253 206.572 26.925 206.572 26.5056C206.572 26.0856 206.335 25.7427 206.046 25.7427C205.757 25.7427 205.168 24.727 204.738 23.4863C204.307 22.2457 202.617 18.0261 200.983 14.1099C198.131 7.2757 198.06 6.93482 199.232 5.64422C199.903 4.90485 201.257 4.20366 202.24 4.08633C203.224 3.96969 204.156 3.48372 204.314 3.00608C204.535 2.33405 201.845 2.13827 192.383 2.13827C181.809 2.13827 180.219 2.27851 180.565 3.17964ZM103.554 19.1438C103.554 19.9297 104.818 23.1371 107.386 28.8668C107.899 30.0123 108.534 31.809 108.796 32.8587L109.274 34.7679H101.814H94.3545L94.8055 32.9767C95.0533 31.9909 96.1475 29.2576 97.2369 26.902C98.3262 24.5458 99.7803 21.2995 100.467 19.6867C101.444 17.3964 101.918 16.9216 102.636 17.5158C103.141 17.9338 103.554 18.6669 103.554 19.1438ZM259.125 18.2795C259.369 19.139 260.016 20.8572 260.565 22.0979C261.113 23.3385 261.985 25.3698 262.504 26.6105C263.023 27.8511 263.942 30.0067 264.547 31.3994C265.152 32.7927 265.459 34.1201 265.228 34.3499C264.487 35.0893 250.424 34.8178 250.424 34.0639C250.424 33.6772 250.691 32.8177 251.018 32.1547C253.003 28.1239 256.397 20.2512 257 18.2795C257.263 17.42 257.749 16.7174 258.081 16.7174C258.412 16.7174 258.882 17.42 259.125 18.2795ZM106.71 63.0494C103.874 63.4666 99.545 67.0434 98.3116 69.9884C96.9849 73.1541 97.0176 75.9533 98.4132 78.7136C100.398 82.6389 102.846 84.1885 113.493 88.254C118.438 90.143 120.26 92.2744 120.26 96.1726C120.26 98.449 119.837 99.4772 118.293 100.952C112.903 106.103 103.733 103.879 100.453 96.6245C99.6202 94.7827 98.7125 93.7788 97.88 93.7788C96.2429 93.7788 96.2178 95.572 97.7826 100.827C98.9241 104.664 99.1009 104.864 102.264 105.895C107.486 107.599 113.906 107.309 118.014 105.184C123.385 102.405 124.784 100.047 124.784 93.7788C124.784 89.6605 124.493 88.1797 123.392 86.6947C121.894 84.6744 115.853 81.4573 110.051 79.5898C105.16 78.0159 102.858 75.6215 102.858 72.1093C102.858 69.9856 103.333 68.8998 104.978 67.2586C106.906 65.3362 107.414 65.1745 110.574 65.4771C114.444 65.8479 118.335 68.4471 120.291 71.9663C120.927 73.1111 121.998 73.9928 122.752 73.9928C124.179 73.9928 124.182 73.9428 123.222 67.7793L122.687 64.3421L118.167 63.4826C113.597 62.6141 110.475 62.4961 106.71 63.0494ZM130.485 63.7526C130.321 64.0394 129.974 66.2262 129.714 68.6124C129.27 72.6772 129.33 72.9514 130.666 72.9514C131.555 72.9514 132.099 72.4932 132.108 71.7365C132.117 71.0686 132.725 69.7405 133.46 68.7859C134.684 67.1968 135.254 67.0503 140.231 67.0503H145.666V85.0375V103.025L143.42 104.129C139.365 106.123 140.693 106.677 149.198 106.536C153.629 106.463 157.427 106.232 157.637 106.022C157.847 105.812 156.909 105.112 155.552 104.467C154.194 103.821 152.907 102.636 152.691 101.833C152.16 99.8604 152.17 69.1844 152.701 67.8015C153.028 66.951 154.167 66.7053 157.748 66.7129C163.733 66.7247 165.168 67.151 166.101 69.1921C167.14 71.4692 170.031 71.5692 169.423 69.3066C169.192 68.4471 168.999 66.7296 168.994 65.4883L168.984 63.232H149.884C139.378 63.232 130.649 63.4659 130.485 63.7526ZM170.376 64.2733C170.376 64.894 171.017 65.3147 171.961 65.3147C174.279 65.3147 176.299 66.9816 178.935 71.0672C180.219 73.0583 182.899 77.1863 184.891 80.241L188.511 85.795L188.319 94.473L188.126 103.151L185.879 104.192C183.796 105.157 182.901 106.235 184.124 106.305C191.889 106.749 199.192 106.486 199.437 105.755C199.597 105.278 199.231 104.887 198.625 104.887C198.019 104.887 196.896 104.262 196.131 103.498C194.904 102.274 194.739 101.185 194.74 94.2995C194.741 85.2944 194.59 85.688 202.395 74.2996C205.627 69.585 208.345 66.3575 209.53 65.8291C210.583 65.3598 211.444 64.5837 211.444 64.1039C211.444 63.4569 209.472 63.232 203.809 63.232C197.858 63.232 196.251 63.4298 196.519 64.1282C196.709 64.6211 197.833 65.389 199.017 65.8347C200.906 66.5463 201.11 66.876 200.693 68.5367C200.431 69.5767 199.376 71.8045 198.348 73.4867C197.32 75.1688 195.996 77.355 195.405 78.345C194.814 79.335 193.976 80.2632 193.541 80.4076C192.839 80.6409 188.964 75.2535 185.315 68.9706C184.021 66.7434 184.023 66.7143 185.546 65.2987C186.391 64.5142 187.082 63.7283 187.082 63.552C187.082 63.3757 183.323 63.232 178.729 63.232C171.769 63.232 170.376 63.4055 170.376 64.2733ZM214.228 64.2733C214.228 64.8975 214.87 65.3147 215.829 65.3147C218.996 65.3147 219.101 65.9409 219.101 84.8529V102.726L217.006 103.96C215.854 104.639 215.005 105.475 215.12 105.819C215.235 106.163 220.482 106.51 226.779 106.589C242.111 106.782 246.304 105.472 247.37 100.157C247.718 98.4184 247.578 97.9443 246.717 97.9443C246.114 97.9443 245.37 98.3782 245.064 98.9086C244.758 99.439 243.254 100.582 241.723 101.447C239.434 102.742 237.824 103.033 232.674 103.086L226.41 103.151V84.7626V66.3748L228.324 65.4598C231.85 63.7742 230.368 63.232 222.233 63.232C215.582 63.232 214.228 63.4083 214.228 64.2733ZM251.979 64.5135C253.684 65.2661 254.823 66.3554 255.286 67.6744C255.685 68.8123 255.992 76.6684 255.992 85.7443C255.992 99.153 255.813 102.055 254.909 103.343C254.313 104.192 253.373 104.887 252.82 104.887C252.268 104.887 251.816 105.278 251.816 105.755C251.816 106.413 254.955 106.656 264.818 106.762C279.333 106.917 280.591 106.608 283.169 102.249C285.899 97.636 284.154 96.5072 279.749 100.038C276.458 102.676 273.59 103.498 267.681 103.498C261.805 103.498 261.561 103.114 261.561 93.8989C261.561 85.9338 261.383 86.1421 268.18 86.1421C272.801 86.1421 274.265 86.8808 275.148 89.657C275.398 90.4415 276.081 90.9852 276.671 90.8678C278.229 90.5575 278.423 78.965 276.874 78.6789C276.3 78.5734 275.289 79.4405 274.628 80.6069L273.426 82.7278L267.667 82.5257L261.909 82.3237L261.71 75.1355C261.58 70.4313 261.789 67.6126 262.317 66.9781C262.883 66.2984 264.767 66.0089 268.631 66.0089C275.191 66.0089 277.57 67.1385 277.57 70.2542C277.57 71.7455 277.902 72.2572 278.868 72.2572C279.884 72.2572 280.261 71.558 280.608 69.0358C281.488 62.6307 283.078 63.2236 265.215 63.2986C249.872 63.3632 249.46 63.4014 251.979 64.5135Z" fill="#E9BFC0"/>
</svg>
