<svg width="16" height="16" viewBox="0 0 16 16" fill="none" xmlns="http://www.w3.org/2000/svg">
<path d="M0.209704 0.387101L0.292893 0.292893C0.653377 -0.0675905 1.22061 -0.0953204 1.6129 0.209704L1.70711 0.292893L8 6.585L14.2929 0.292893C14.6834 -0.0976309 15.3166 -0.0976309 15.7071 0.292893C16.0976 0.683418 16.0976 1.31658 15.7071 1.70711L9.415 8L15.7071 14.2929C16.0676 14.6534 16.0953 15.2206 15.7903 15.6129L15.7071 15.7071C15.3466 16.0676 14.7794 16.0953 14.3871 15.7903L14.2929 15.7071L8 9.415L1.70711 15.7071C1.31658 16.0976 0.683418 16.0976 0.292893 15.7071C-0.0976309 15.3166 -0.0976309 14.6834 0.292893 14.2929L6.585 8L0.292893 1.70711C-0.0675905 1.34662 -0.0953204 0.779392 0.209704 0.387101L0.292893 0.292893L0.209704 0.387101Z" fill="#212121"/>
</svg>
