<svg width="162" height="50" viewBox="0 0 162 50" fill="none" xmlns="http://www.w3.org/2000/svg">
<path d="M161.698 50.2878C140.175 50.2878 127.876 37.691 117.163 25.0943C106.451 12.4976 97.5243 0 82.6462 0C67.7682 0 58.7422 12.5967 48.03 25.1935C37.3178 37.7902 25.1178 50.387 3.59423 50.387C0.48467 50.387 -1.51769 50.3869 1.4696 50.8867L161.698 50.2878Z" fill="white"/>
<path d="M95.6433 21.1117C96.184 21.6885 96.2256 22.596 95.7681 23.2237L95.6433 23.3744L83.6433 36.1744C83.1026 36.7512 82.2517 36.7956 81.6633 36.3075L81.522 36.1744L69.522 23.3744C68.9362 22.7496 68.9362 21.7365 69.522 21.1117C70.0627 20.5349 70.9136 20.4906 71.502 20.9786L71.6433 21.1117L82.5826 32.7803L93.522 21.1117C94.1078 20.4869 95.0575 20.4869 95.6433 21.1117Z" fill="#878787"/>
</svg>
