<svg width="28" height="28" viewBox="0 0 28 28" fill="none" xmlns="http://www.w3.org/2000/svg">
<g clip-path="url(#clip0)">
<path d="M0.650499 28C0.493272 28 0.340318 27.9378 0.226884 27.8231C0.0773481 27.6719 0.0196699 27.4523 0.0758527 27.247L1.89613 20.5999C0.762864 18.5506 0.165361 16.2324 0.166215 13.8791C0.16942 6.22604 6.39739 0 14.0498 0C17.7615 0.00149536 21.2491 1.4473 23.8705 4.07059C26.4914 6.69409 27.9342 10.1815 27.9332 13.8902C27.9297 21.5435 21.7018 27.7699 14.0498 27.7699C14.0498 27.7699 14.044 27.7699 14.0438 27.7699C11.8087 27.7691 9.59276 27.2243 7.61974 26.1925L0.80153 27.9806C0.751542 27.9936 0.7007 28 0.650499 28Z" fill="#E5E5E5"/>
<path d="M0.650482 27.4041L2.53549 20.5205C1.37274 18.5059 0.761139 16.2205 0.761993 13.8792C0.764984 6.55472 6.72549 0.595703 14.0498 0.595703C17.604 0.597198 20.9402 1.98062 23.449 4.49155C25.9576 7.00247 27.3386 10.3401 27.3373 13.8899C27.3341 21.2142 21.3728 27.174 14.0498 27.174C14.0493 27.174 14.05 27.174 14.0498 27.174H14.044C11.8202 27.1732 9.63525 26.6154 7.69449 25.5569L0.650482 27.4041ZM8.02069 23.1522L8.42422 23.3912C10.1195 24.3974 12.0633 24.9295 14.0455 24.9306H14.0498C20.1367 24.9306 25.0911 19.9771 25.0937 13.889C25.0947 10.9387 23.9471 8.16437 21.862 6.07748C19.7766 3.9906 17.004 2.84067 14.0538 2.83939C7.96194 2.83939 3.00781 7.79224 3.00546 13.8801C3.00461 15.9663 3.58823 17.9979 4.69394 19.756L4.9567 20.1738L3.84073 24.248L8.02069 23.1522Z" fill="white"/>
<path d="M1.11255 26.9405L2.9324 20.2949C1.8096 18.3501 1.21936 16.1436 1.22 13.8836C1.22278 6.81271 6.97714 1.06006 14.0474 1.06006C17.4791 1.06155 20.6999 2.39713 23.1213 4.82111C25.5433 7.24509 26.8763 10.4672 26.8751 13.8937C26.8721 20.9648 21.1175 26.7181 14.0481 26.7181C14.0474 26.7181 14.0483 26.7181 14.0481 26.7181H14.0423C11.8956 26.7173 9.78607 26.1785 7.9126 25.1574L1.11255 26.9405Z" fill="#64B161"/>
<path d="M0.650482 27.4041L2.53549 20.5205C1.37274 18.5059 0.761139 16.2205 0.761993 13.8792C0.764984 6.55472 6.72549 0.595703 14.0498 0.595703C17.604 0.597198 20.9402 1.98062 23.449 4.49155C25.9576 7.00247 27.3386 10.3401 27.3373 13.8899C27.3341 21.2142 21.3728 27.174 14.0498 27.174C14.0493 27.174 14.05 27.174 14.0498 27.174H14.044C11.8202 27.1732 9.63525 26.6154 7.69449 25.5569L0.650482 27.4041ZM8.02069 23.1522L8.42422 23.3912C10.1195 24.3974 12.0633 24.9295 14.0455 24.9306H14.0498C20.1367 24.9306 25.0911 19.9771 25.0937 13.889C25.0947 10.9387 23.9471 8.16437 21.862 6.07748C19.7766 3.9906 17.004 2.84067 14.0538 2.83939C7.96194 2.83939 3.00781 7.79224 3.00546 13.8801C3.00461 15.9663 3.58823 17.9979 4.69394 19.756L4.9567 20.1738L3.84073 24.248L8.02069 23.1522Z" fill="white"/>
<path fill-rule="evenodd" clip-rule="evenodd" d="M10.7288 8.32563C10.4801 7.77277 10.2182 7.76166 9.98153 7.75205C9.78799 7.74372 9.56646 7.74414 9.34537 7.74414C9.12405 7.74414 8.76431 7.82746 8.46011 8.15964C8.1557 8.49182 7.29779 9.29505 7.29779 10.9286C7.29779 12.5624 8.48767 14.1409 8.65365 14.3626C8.81964 14.5841 10.9505 18.0436 14.3251 19.3744C17.1298 20.4806 17.7004 20.2605 18.3092 20.2052C18.918 20.1499 20.2735 19.402 20.5501 18.6267C20.827 17.8515 20.827 17.1871 20.7439 17.0481C20.6608 16.9099 20.4394 16.8268 20.1075 16.6608C19.7755 16.4948 18.1432 15.6913 17.8388 15.5807C17.5344 15.4698 17.3131 15.4147 17.0918 15.7471C16.8702 16.0791 16.2345 16.8268 16.0407 17.0481C15.847 17.27 15.6532 17.2978 15.3212 17.1316C14.9893 16.9652 13.9199 16.6148 12.6514 15.4837C11.6645 14.6038 10.998 13.5169 10.8042 13.1845C10.6107 12.8525 10.801 12.6884 10.9501 12.5071C11.2186 12.1805 11.6692 11.5932 11.7798 11.3719C11.8905 11.1502 11.8351 10.9564 11.7523 10.7902C11.6692 10.6242 11.0238 8.9823 10.7288 8.32563Z" fill="white"/>
</g>
<defs>
<clipPath id="clip0">
<rect width="28" height="28" fill="white"/>
</clipPath>
</defs>
</svg>
