<svg width="32" height="32" viewBox="0 0 32 32" fill="none" xmlns="http://www.w3.org/2000/svg">
<g clip-path="url(#clip0)">
<path d="M31.3407 8.31834C30.9718 6.9475 29.891 5.86694 28.5204 5.4978C26.0162 4.8125 15.9997 4.8125 15.9997 4.8125C15.9997 4.8125 5.98337 4.8125 3.47923 5.47168C2.135 5.84057 1.02783 6.94775 0.658933 8.31834C0 10.8222 0 16.0151 0 16.0151C0 16.0151 0 21.2341 0.658933 23.7118C1.02807 25.0824 2.10863 26.1632 3.47948 26.5324C6.00974 27.2177 15.9999 27.2177 15.9999 27.2177C15.9999 27.2177 26.0162 27.2177 28.5204 26.5585C29.8912 26.1896 30.9718 25.1088 31.3409 23.7382C31.9999 21.2341 31.9999 16.0415 31.9999 16.0415C31.9999 16.0415 32.0262 10.8222 31.3407 8.31834Z" fill="#FF0000"/>
<path d="M12.8106 20.8125L21.14 16.0151L12.8106 11.2178V20.8125Z" fill="white"/>
</g>
<defs>
<clipPath id="clip0">
<rect width="32" height="32" fill="white"/>
</clipPath>
</defs>
</svg>
