<svg width="29" height="28" viewBox="0 0 29 28" fill="none" xmlns="http://www.w3.org/2000/svg">
<rect width="29" height="28" rx="6" fill="#4E76A2"/>
<path d="M13.786 19.9552H14.9812C14.9812 19.9552 15.3418 19.916 15.5264 19.7245C15.6961 19.5488 15.6914 19.2185 15.6914 19.2185C15.6914 19.2185 15.668 17.6721 16.4118 17.4436C17.1455 17.2196 18.0888 18.938 19.0868 19.5993C19.8424 20.0992 20.4165 19.9899 20.4165 19.9899L23.0876 19.9544C23.0876 19.9544 24.4846 19.8715 23.8213 18.8114C23.7681 18.7254 23.4357 18.0287 21.8362 16.5961C20.1608 15.0979 20.386 15.3399 22.4032 12.7476C23.6313 11.1695 24.1225 10.2059 23.9692 9.79341C23.8229 9.40057 22.9195 9.50462 22.9195 9.50462L19.912 9.52196C19.912 9.52196 19.6891 9.49256 19.5241 9.58756C19.3622 9.68106 19.2581 9.89897 19.2581 9.89897C19.2581 9.89897 18.7826 11.1205 18.1474 12.1595C16.8084 14.3514 16.2726 14.4675 16.0536 14.331C15.5444 14.0128 15.6719 13.0568 15.6719 12.3766C15.6719 10.2518 16.0059 9.36664 15.0211 9.13742C14.6941 9.06126 14.4525 9.0115 13.6179 9.00245C12.544 8.99189 11.6359 9.00547 11.122 9.24901C10.7802 9.41112 10.5158 9.77079 10.6769 9.7919C10.8764 9.81753 11.3261 9.90877 11.5639 10.2217C11.8728 10.6258 11.8619 11.5337 11.8619 11.5337C11.8619 11.5337 12.0387 14.0347 11.4481 14.3454C11.043 14.5572 10.4868 14.1229 9.29324 12.1346C8.6808 11.1159 8.21932 9.98945 8.21932 9.98945C8.21932 9.98945 8.13015 9.77908 7.97137 9.66598C7.77896 9.5295 7.50989 9.48652 7.50989 9.48652L4.65183 9.50462C4.65183 9.50462 4.22241 9.51669 4.0652 9.69614C3.92519 9.85599 4.05425 10.1862 4.05425 10.1862C4.05425 10.1862 6.29126 15.2328 8.82472 17.7754C11.1478 20.1075 13.786 19.9552 13.786 19.9552Z" fill="white"/>
</svg>
