<svg width="99" height="159" viewBox="0 0 99 159" fill="none" xmlns="http://www.w3.org/2000/svg">
<path d="M6.28458 138.079L22.3458 139.858C22.724 139.9 23.2259 139.702 23.4737 139.413C23.7215 139.125 23.6169 138.86 23.2387 138.818L7.86245 137.114L17.9368 125.374C18.1845 125.085 18.08 124.82 17.7018 124.778C17.5163 124.757 17.2924 124.795 17.0916 124.874C16.8908 124.953 16.7002 125.076 16.5798 125.22L6.05676 137.484C5.80776 137.769 5.91355 138.038 6.28458 138.079Z" fill="white" stroke="white" stroke-width="0.5"/>
<path d="M50.3288 4.06796C92.8359 17.8881 110.13 106.172 19.9607 132.254" stroke="white" stroke-width="2" stroke-dasharray="8 8"/>
<rect x="15.3979" y="132.503" width="5.63693" height="1.98984" transform="rotate(-15.6438 15.3979 132.503)" fill="white"/>
</svg>
