<svg width="120" height="120" viewBox="0 0 120 120" fill="none" xmlns="http://www.w3.org/2000/svg">
<path d="M60 0C42.631 0 26.9958 7.38828 16.0386 19.1835C18.4158 35.2593 20.9234 51.8897 27.1986 66.8007C28.5248 69.9538 31.0324 76.4462 34.6448 76.4462C38.0462 75.029 39.4303 71.8593 40.6841 68.6938C43.3965 61.8455 45.0165 54.6931 49.2931 48.5359C53.5137 42.4593 60.2731 38.0938 67.56 42.3662C74.8737 46.6531 75.6475 55.9593 78.0248 63.1655C79.9593 69.0269 84.8627 82.8869 91.0179 72.2731C94.9075 65.5676 96.3227 57.9497 98.0172 50.5097C100.175 41.0317 103.179 30.4407 104.644 19.9221C93.6579 7.69448 77.731 0 60 0Z" fill="#E7ECED"/>
<path d="M0.103448 63.4096C1.87034 94.9593 28.0076 120 60 120C91.9924 120 118.13 94.9593 119.897 63.4096C119.909 63.1903 119.919 62.971 119.93 62.7517C119.971 61.8393 120 60.9227 120 60C120 58.7483 119.95 57.5089 119.874 56.2758C119.853 55.9283 119.822 55.5807 119.795 55.2351C119.721 54.2917 119.626 53.3524 119.508 52.4214C119.468 52.1131 119.433 51.8007 119.39 51.4945C119.038 49.0241 118.537 46.6014 117.894 44.2365C117.84 44.0358 117.78 43.8351 117.722 43.6345C117.42 42.5669 117.091 41.5096 116.731 40.4669C116.688 40.3427 116.648 40.2186 116.605 40.0965C115.757 37.6882 114.761 35.3503 113.626 33.0931C113.599 33.0393 113.572 32.9876 113.545 32.9358C112.974 31.8103 106.438 61.1276 103.32 75.0414C101.421 83.5117 99.8338 92.1848 95.4765 99.8193C88.5807 111.904 83.0855 96.1241 80.9193 89.4496C78.2565 81.2462 77.3897 70.6489 69.1945 65.7683C61.0303 60.9062 53.4559 65.8758 48.7262 72.7945C43.9345 79.8041 42.1179 87.9496 39.0786 95.7476C37.6738 99.3517 36.1241 102.96 32.311 104.574C28.2641 104.574 25.4545 97.1814 23.969 93.5917C15.8586 74.0069 13.3655 51.8131 10.2331 30.9951C10.2124 30.8545 10.1028 30.6848 9.93931 30.5027C9.50069 30.0124 8.94414 29.6979 8.35448 29.4641C7.72345 30.5276 7.12965 31.6158 6.56483 32.7207C6.5131 32.822 6.45931 32.9234 6.40759 33.0269C5.27379 35.2717 4.27862 37.5972 3.42828 39.991C3.38069 40.1234 3.33931 40.2579 3.29379 40.3903C2.93793 41.4186 2.61103 42.4634 2.30897 43.5165C2.24483 43.742 2.17862 43.9696 2.11655 44.1972C1.47103 46.562 0.966207 48.9869 0.612414 51.4593C0.568965 51.7676 0.533793 52.0758 0.494483 52.3862C0.374483 53.3234 0.27931 54.2669 0.202759 55.2165C0.175862 55.5662 0.144828 55.9138 0.124138 56.2634C0.0517241 57.4986 0 58.742 0 60C0 60.9227 0.0289655 61.8393 0.0703448 62.7517C0.0786207 62.971 0.0910345 63.1903 0.103448 63.4096Z" fill="#ED9893"/>
<path d="M109.655 82.7585C110.798 82.7585 111.724 81.8322 111.724 80.6896C111.724 79.5469 110.798 78.6206 109.655 78.6206C108.512 78.6206 107.586 79.5469 107.586 80.6896C107.586 81.8322 108.512 82.7585 109.655 82.7585Z" fill="#AF6868"/>
<path d="M113.793 64.1379C114.936 64.1379 115.862 63.2116 115.862 62.069C115.862 60.9263 114.936 60 113.793 60C112.65 60 111.724 60.9263 111.724 62.069C111.724 63.2116 112.65 64.1379 113.793 64.1379Z" fill="#AF6868"/>
<path d="M70.8229 82.6531C71.9655 82.6531 72.8918 81.7268 72.8918 80.5841C72.8918 79.4414 71.9655 78.5151 70.8229 78.5151C69.6802 78.5151 68.7539 79.4414 68.7539 80.5841C68.7539 81.7268 69.6802 82.6531 70.8229 82.6531Z" fill="#AF6868"/>
<path d="M77.0294 105.412C78.1721 105.412 79.0984 104.486 79.0984 103.343C79.0984 102.2 78.1721 101.274 77.0294 101.274C75.8868 101.274 74.9604 102.2 74.9604 103.343C74.9604 104.486 75.8868 105.412 77.0294 105.412Z" fill="#AF6868"/>
<path d="M10.3448 80.6897C11.4875 80.6897 12.4138 79.7634 12.4138 78.6207C12.4138 77.4781 11.4875 76.5518 10.3448 76.5518C9.20219 76.5518 8.27588 77.4781 8.27588 78.6207C8.27588 79.7634 9.20219 80.6897 10.3448 80.6897Z" fill="#AF6868"/>
<path d="M6.68469 66.1013C7.82735 66.1013 8.75365 65.175 8.75365 64.0323C8.75365 62.8897 7.82735 61.9634 6.68469 61.9634C5.54203 61.9634 4.61572 62.8897 4.61572 64.0323C4.61572 65.175 5.54203 66.1013 6.68469 66.1013Z" fill="#AF6868"/>
<path d="M55.3053 105.412C59.3046 105.412 62.5467 102.17 62.5467 98.1703C62.5467 94.171 59.3046 90.929 55.3053 90.929C51.306 90.929 48.064 94.171 48.064 98.1703C48.064 102.17 51.306 105.412 55.3053 105.412Z" fill="#AF6868"/>
<path d="M46.8102 12.5649C35.6937 14.3173 29.315 25.5725 31.9033 36.1449C33.8068 43.918 45.7778 40.62 43.8744 32.8449C42.753 28.2663 45.8171 25.2104 50.1102 24.5338C53.4578 24.0063 55.2661 19.8807 54.4447 16.8994C53.4744 13.3656 50.1495 12.0373 46.8102 12.5649Z" fill="white"/>
<path d="M70.4008 10.3573C85.558 14.3194 84.8773 29.5635 82.8373 42.1697C81.5711 49.9987 93.5318 53.3566 94.8084 45.4697C97.0304 31.7318 96.7842 16.8704 88.558 7.24353C82.1339 3.75732 75.0063 1.41112 67.438 0.473877C65.0215 3.63319 65.4146 9.05388 70.4008 10.3573Z" fill="white"/>
<path d="M104.636 19.9592C103.171 30.4654 100.171 41.042 98.0154 50.5096C96.3209 57.9496 94.9036 65.5654 91.016 72.273C84.8629 82.8868 79.9574 69.0289 78.0229 63.1654C75.6457 55.9592 74.8719 46.653 67.5581 42.3661C60.2712 38.0958 53.5119 42.4613 49.2912 48.5358C45.0147 54.693 43.3926 61.8475 40.6822 68.6937C39.4284 71.8592 38.0443 75.0289 34.6429 76.4461C31.0305 76.4461 28.525 69.9516 27.1967 66.8006C20.9236 51.8896 18.416 35.2592 16.0388 19.1833C13.1278 22.3158 10.5622 25.7668 8.36914 29.4682C8.95259 29.702 9.505 30.0144 9.93949 30.5006C10.1029 30.6827 10.2126 30.8523 10.2333 30.993C13.3657 51.8109 15.8588 74.0047 23.9691 93.5896C25.4567 97.1792 28.2643 104.572 32.3112 104.572C36.1243 102.958 37.674 99.3496 39.0788 95.7454C42.1181 87.9496 43.9326 79.804 48.7264 72.7923C53.456 65.8758 61.0285 60.904 69.1947 65.7661C77.3898 70.6468 78.2567 81.244 80.9195 89.4475C83.0857 96.122 88.5809 111.9 95.4767 99.8171C99.834 92.1806 101.421 83.5096 103.32 75.0392C106.438 61.1254 112.974 31.8102 113.545 32.9337C111.151 28.2123 108.137 23.8633 104.636 19.9592Z" fill="#C12020"/>
</svg>
