<svg width="130" height="104" viewBox="0 0 130 104" fill="none" xmlns="http://www.w3.org/2000/svg">
<path d="M96.3817 24.655C114.29 24.655 118.775 25.3319 123.469 39.558C126.889 49.9243 127.658 62.9109 127.759 73.8376C127.848 83.6862 110.258 98.8671 99.7729 100.662C98.6679 100.851 97.4777 100.943 96.3817 100.768C86.3134 99.1719 64.637 83.3657 65.0046 73.8354C65.4462 62.3931 68.5931 48.0707 71.9081 37.0476C75.1581 26.2419 86.1229 24.655 96.3817 24.655Z" fill="#E7ECED"/>
<path d="M31.3998 26.8967C49.2994 26.8967 53.7799 27.6005 58.4711 42.3891C61.8892 53.1657 62.658 66.6678 62.7589 78.0293C62.806 83.4848 58.0229 94.3376 51.6058 98.6074C40.9727 105.681 26.4486 103.276 14.3563 99.0759C6.60339 96.384 -0.616098 88.7655 0.0428678 78.0271C0.771316 66.1455 3.62907 51.2403 6.94183 39.7802C10.1896 28.5464 21.1477 26.8967 31.3998 26.8967Z" fill="#E7ECED"/>
<path d="M109.691 0H20.3091C9.09328 0 0 9.09328 0 20.3091V42.1514C0 44.8679 2.20103 47.069 4.91759 47.069H5.02293C5.63707 44.5452 6.27586 42.0819 6.93931 39.7845C10.1893 28.5462 21.1474 26.8966 31.3995 26.8966C49.2991 26.8966 53.7797 27.6003 58.4709 42.389C58.9483 43.8974 59.3652 45.4664 59.744 47.069H69.2003C70.0543 43.5634 70.9688 40.1678 71.9057 37.05C75.1557 26.2421 86.1228 24.6552 96.3793 24.6552C114.288 24.6552 118.773 25.3321 123.466 39.5581C124.249 41.9295 124.878 44.4488 125.405 47.0376C127.969 46.865 130 44.7559 130 42.1514V20.3091C130 9.09328 120.907 0 109.691 0Z" fill="#ED9893"/>
<path d="M97.7643 40.347C108.379 40.4613 110.637 44.8342 111.916 48.9225C113.476 53.9028 114.743 59.2306 115.908 64.2602C117.544 71.3363 115.98 78.7821 111.717 84.1749C107.714 89.2382 102.935 94.0594 98.6272 97.4483C91.1007 92.0466 80.9382 79.412 80.6895 75.3483L80.9248 72.318C81.5681 63.6977 82.1755 55.557 84.3922 48.1178C85.5958 44.0811 88.0053 40.3447 97.4169 40.3447L97.7643 40.347Z" fill="#F0F6F7"/>
<path d="M15.0842 89.9108C9.53459 83.7963 7.77959 75.6511 10.1398 67.7659C10.9713 64.9889 6.64321 63.8121 5.81614 66.5735C2.99201 76.0097 5.31183 85.8068 11.9127 93.0801C13.8605 95.2251 17.0208 92.0468 15.0842 89.9108Z" fill="white"/>
<path d="M110.433 85.4281C115.983 79.3136 117.738 71.1684 115.378 63.2833C114.546 60.5062 118.874 59.3295 119.701 62.0909C122.526 71.5271 120.206 81.3241 113.605 88.5974C111.657 90.7424 108.497 87.5641 110.433 85.4281Z" fill="white"/>
<path d="M55.1516 78.5202C55.1426 78.4956 55.1381 78.4709 55.1292 78.4485C51.1709 83.7785 45.3052 87.3244 38.6707 87.8757C37.3102 90.6304 36.2523 93.2685 35.8981 95.5861C35.6381 97.285 36.8597 98.7419 38.655 98.343C47.4995 96.375 60.0916 91.4776 56.6399 79.9726C56.3888 79.1366 55.8061 78.6973 55.1516 78.5202Z" fill="white"/>
</svg>
