<svg width="120" height="126" viewBox="0 0 120 126" fill="none" xmlns="http://www.w3.org/2000/svg">
<path d="M117.889 22.8716C124.054 44.9679 115.25 71.3177 110.112 93.0586C107.878 102.507 106.011 112.182 100.885 120.699C92.7723 134.179 86.3075 116.577 83.7591 109.131C80.6265 99.9802 79.6067 88.1589 69.9655 82.7144C60.3608 77.2907 51.4499 82.8344 45.8857 90.5522C40.2485 98.3715 38.1114 107.458 34.5358 116.154C32.8831 120.177 31.0601 124.2 26.5742 126C21.8132 126 18.5078 117.754 16.7602 113.749C7.2188 91.9024 4.2858 67.145 0.60069 43.9224C-1.99155 27.5844 3.59454 8.16529 21.4943 2.15077C31.2207 -1.11728 44.5421 1.8969 54.2806 4.61797C59.8765 6.18276 58.8444 5.67271 64.4184 3.83789C64.8467 3.6971 65.2678 3.50785 65.706 3.33475C77.6351 -1.34346 92.0153 -1.38039 102.513 5.02187C109.599 9.34466 115.84 15.5253 117.889 22.8716Z" fill="#ECE3D2" fill-opacity="0.69"/>
<path d="M69.9654 82.7166C60.3608 77.293 51.4498 82.8367 45.8856 90.5521C44.9778 91.81 44.1867 93.1116 43.4395 94.4272C43.6585 94.9234 43.8703 95.4034 44.1112 95.9458C46.8422 102.073 54.3585 115.513 63.4252 112.962C68.0109 111.672 70.4255 106.735 72.3362 103.013C73.8209 100.121 76.6517 95.6735 78.0488 91.7453C76.2671 88.108 73.8209 84.893 69.9654 82.7166Z" fill="#DDD3C3"/>
<path d="M102.512 5.02431C92.0117 -1.37795 77.6339 -1.34102 65.7048 3.33719C65.2667 3.50798 64.848 3.69954 64.4172 3.84033C58.8433 5.67284 59.8753 6.1829 54.2795 4.61811C50.8402 3.65569 46.9482 2.66327 42.9296 1.92011C42.3966 5.13278 42.1094 8.41699 42.1094 11.7589C42.1094 47.4375 73.5107 76.6862 113.47 79.5873C118.163 60.9875 122.826 40.5667 117.89 22.8717C115.838 15.5255 109.598 9.34479 102.512 5.02431Z" fill="#E7ECED"/>
<path d="M88.0087 6.03274C83.4157 3.23089 77.1238 3.24704 71.9052 5.2942C71.7129 5.37036 71.5304 5.45344 71.343 5.51345C68.9041 6.31662 69.3544 6.53818 66.9082 5.85503C66.6988 5.79733 66.4871 5.73732 66.2705 5.67962C63.9679 5.05648 61.5874 6.66512 61.585 8.93383C61.585 8.94768 61.585 8.96384 61.585 8.97768C61.585 23.5501 73.5579 35.6714 89.3742 38.2494C91.2971 38.5633 93.1372 37.3632 93.568 35.5607C95.3035 28.2952 96.6276 20.6121 94.7388 13.8405C93.8382 10.6256 91.1097 7.92295 88.0087 6.03274Z" fill="#F0F6F7"/>
<path d="M84.6192 17.0486C90.3051 15.2276 97.0498 13.5659 102.178 17.5702C107.399 21.646 105.749 28.6184 101.059 32.1934C98.61 34.0582 102.078 37.3032 104.5 35.4568C110.571 30.834 112.352 22.2784 107.394 16.2385C101.382 8.9177 91.6609 9.92627 83.3268 12.5966C80.367 13.5428 81.6351 18.0018 84.6192 17.0486Z" fill="white"/>
<path d="M36.129 7.1498C26.6582 5.60348 15.2792 8.25762 9.98758 16.6816C1.60967 30.0216 6.76737 46.9342 8.72676 61.3728C9.12107 64.2831 13.994 64.32 13.5948 61.3728C11.2557 44.1324 3.28672 6.4528 34.8341 11.6018C37.9034 12.1027 39.2178 7.65524 36.129 7.1498Z" fill="#F9EDDC"/>
</svg>
