<svg width="17" height="16" viewBox="0 0 17 16" fill="none" xmlns="http://www.w3.org/2000/svg">
<path d="M1.8 0C0.811406 0 0 0.811406 0 1.8V10.44C0 11.4286 0.811406 12.24 1.8 12.24H3.27375C3.32297 12.6731 3.31734 13.0739 3.20625 13.41C3.06984 13.8234 2.81531 14.1708 2.34 14.4562C2.20641 14.5406 2.14453 14.7023 2.18531 14.8542C2.22609 15.0061 2.3625 15.1144 2.52 15.12C4.04719 15.12 5.79797 14.3227 6.6825 12.24H14.76C15.7486 12.24 16.56 11.4286 16.56 10.44V1.8C16.56 0.811406 15.7486 0 14.76 0H1.8ZM1.8 0.72H14.76C15.3562 0.72 15.84 1.20375 15.84 1.8V10.44C15.84 11.0362 15.3562 11.52 14.76 11.52H6.48C6.32953 11.52 6.19453 11.6142 6.1425 11.7562C5.58281 13.2834 4.58297 14.0105 3.54375 14.2762C3.68437 14.0752 3.81797 13.8628 3.8925 13.635C4.07953 13.0669 4.06406 12.4453 3.94875 11.8125C3.91641 11.6452 3.77156 11.5228 3.6 11.52H1.8C1.20375 11.52 0.72 11.0362 0.72 10.44V1.8C0.72 1.20375 1.20375 0.72 1.8 0.72ZM4.68 5.04C4.08797 5.04 3.6 5.52797 3.6 6.12C3.6 6.71203 4.08797 7.2 4.68 7.2C5.27203 7.2 5.76 6.71203 5.76 6.12C5.76 5.52797 5.27203 5.04 4.68 5.04ZM8.28 5.04C7.68797 5.04 7.2 5.52797 7.2 6.12C7.2 6.71203 7.68797 7.2 8.28 7.2C8.87203 7.2 9.36 6.71203 9.36 6.12C9.36 5.52797 8.87203 5.04 8.28 5.04ZM11.88 5.04C11.288 5.04 10.8 5.52797 10.8 6.12C10.8 6.71203 11.288 7.2 11.88 7.2C12.472 7.2 12.96 6.71203 12.96 6.12C12.96 5.52797 12.472 5.04 11.88 5.04ZM4.68 5.76C4.8825 5.76 5.04 5.9175 5.04 6.12C5.04 6.3225 4.8825 6.48 4.68 6.48C4.4775 6.48 4.32 6.3225 4.32 6.12C4.32 5.9175 4.4775 5.76 4.68 5.76ZM8.28 5.76C8.4825 5.76 8.64 5.9175 8.64 6.12C8.64 6.3225 8.4825 6.48 8.28 6.48C8.0775 6.48 7.92 6.3225 7.92 6.12C7.92 5.9175 8.0775 5.76 8.28 5.76ZM11.88 5.76C12.0825 5.76 12.24 5.9175 12.24 6.12C12.24 6.3225 12.0825 6.48 11.88 6.48C11.6775 6.48 11.52 6.3225 11.52 6.12C11.52 5.9175 11.6775 5.76 11.88 5.76Z" fill="#000"/>
</svg>
