<svg width="15" height="21" viewBox="0 0 15 21" fill="none" xmlns="http://www.w3.org/2000/svg">
<path d="M12.732 -0.000732422C12.732 -0.000732422 11.012 1.66797 9.15188 2.34073C-4.62314 7.32321 1.18637 17.0327 1.3759 17.0647C1.3759 17.0647 2.14833 15.7195 3.19177 14.9523C9.81304 10.0847 11.1588 4.48183 11.1588 4.48183C11.1588 4.48183 9.67299 11.2238 3.78238 15.4189C2.48136 16.345 1.60042 18.6251 1.2275 20.9041C1.2275 20.9041 2.14974 20.5315 2.54631 20.4306C2.70095 19.4214 3.02427 18.4551 3.5709 17.5919C11.8037 18.5721 14.5001 11.9382 14.8524 9.62498C15.6838 4.16173 12.732 -0.000732422 12.732 -0.000732422Z" fill="#00E676"/>
</svg>
