<svg width="20" height="27" viewBox="0 0 20 27" fill="none" xmlns="http://www.w3.org/2000/svg">
<path d="M9.72 0C4.36036 0 0 4.38656 0 9.77834C0 16.4697 8.69845 26.293 9.06879 26.7079C9.41665 27.0977 10.024 27.097 10.3712 26.7079C10.7416 26.293 19.44 16.4697 19.44 9.77834C19.4399 4.38656 15.0796 0 9.72 0ZM9.72 14.6981C7.02343 14.6981 4.82968 12.4911 4.82968 9.77834C4.82968 7.06557 7.02349 4.85863 9.72 4.85863C12.4165 4.85863 14.6103 7.06562 14.6103 9.77839C14.6103 12.4912 12.4165 14.6981 9.72 14.6981Z" fill="#497BD2"/>
</svg>
