					<svg width="18" height="18" viewBox="0 0 18 18" fill="#497BD2" xmlns="http://www.w3.org/2000/svg">
						<path d="M16.5556 11.8149C15.4536 11.8149 14.3716 11.6425 13.3462 11.3037C12.8437 11.1323 12.226 11.2895 11.9194 11.6045L9.89547 13.1323C7.54831 11.8794 6.1025 10.4341 4.86669 8.10453L6.34958 6.13334C6.73484 5.74859 6.87303 5.18656 6.70747 4.65922C6.36716 3.62844 6.19428 2.5469 6.19428 1.4444C6.19433 0.647951 5.54638 0 4.74997 0H1.44436C0.647951 0 0 0.647951 0 1.44436C0 10.5732 7.42676 18 16.5556 18C17.352 18 18 17.352 18 16.5556V13.2592C18 12.4629 17.352 11.8149 16.5556 11.8149Z"/>
					</svg>