<svg width="71" height="65" viewBox="0 0 71 65" fill="none" xmlns="http://www.w3.org/2000/svg">
<path d="M58.0785 32.1579C62.431 32.9789 65.6501 34.7579 67.7356 37.4947C69.9119 40.1404 71 43.607 71 47.8947C71 52.9123 69.4585 57.0175 66.3755 60.2105C63.3831 63.4035 59.7107 65 55.3582 65C50.8244 65 46.9706 63.2667 43.7969 59.8C40.7139 56.2421 39.1724 51.2702 39.1724 44.8842C39.1724 36.9474 41.666 29.0105 46.6533 21.0737C51.7312 13.1368 59.8467 6.11228 71 0V12.5895C67.7356 14.9614 65.106 17.607 63.1111 20.5263C61.1162 23.4456 59.4387 27.3228 58.0785 32.1579ZM18.9061 32.1579C23.2586 32.9789 26.4777 34.7579 28.5632 37.4947C30.7395 40.1404 31.8276 43.607 31.8276 47.8947C31.8276 52.9123 30.2861 57.0175 27.2031 60.2105C24.2107 63.4035 20.5383 65 16.1858 65C11.652 65 7.79821 63.2667 4.62452 59.8C1.54151 56.2421 0 51.2702 0 44.8842C0 37.0386 2.49361 29.1474 7.48084 21.2105C12.5587 13.1825 20.6743 6.11228 31.8276 0V12.5895C28.5632 14.9614 25.9336 17.607 23.9387 20.5263C21.9438 23.4456 20.2663 27.3228 18.9061 32.1579Z" fill="#E7F0FF"/></svg>