<svg width="189" height="205" viewBox="0 0 189 205" fill="none" xmlns="http://www.w3.org/2000/svg">
<path d="M152.171 38.6062C150.276 38.26 148.457 39.5168 148.111 41.4115C147.765 43.3063 149.022 45.1251 150.916 45.4713C152.811 45.8175 154.63 44.5607 154.976 42.666C155.322 40.7712 154.066 38.9526 152.171 38.6062Z" fill="#EFF5FE"/>
<path d="M157.759 25.7958C137.494 14.9595 118.092 19.3969 108.974 22.6496C101.597 16.3817 85.0208 5.37004 62.2273 8.33983C32.0412 12.2762 11.0643 51.4708 27.7886 89.2447C35.7134 107.135 34.9174 119.671 34.0745 132.944C33.4576 142.66 32.8197 152.707 35.5606 165.09C37.4042 173.415 40.3912 183.099 47.2011 184.343C47.2626 184.354 47.3255 184.365 47.3875 184.375C52.8871 185.246 58.2923 180.621 64.9125 169.378C68.2856 163.647 71.052 156.663 73.7274 149.909C78.5428 137.751 83.5226 125.18 90.0551 126.327C90.0668 126.329 90.0781 126.331 90.0898 126.333C96.5426 127.512 96.7483 141.035 96.9474 154.113C97.058 161.399 97.1724 168.934 98.3017 175.48C100.52 188.357 103.939 194.603 109.386 195.732C109.448 195.744 109.509 195.756 109.571 195.768C116.368 197.009 122.595 188.995 127.271 181.848C133.905 171.705 136.91 162.116 139.816 152.842C143.907 139.785 147.771 127.453 161.394 113.62C190.743 83.8165 184.153 39.9062 157.759 25.7958ZM156.422 108.723C141.616 123.757 137.315 137.482 133.156 150.755C130.265 159.981 127.535 168.694 121.43 178.026C114.187 189.096 111.184 188.967 110.813 188.9C110.809 188.899 110.806 188.898 110.802 188.898C110.671 188.871 107.553 188.072 105.179 174.294C104.142 168.283 104.032 161.025 103.926 154.007C103.806 146.128 103.693 138.685 102.368 132.65C100.673 124.929 96.9682 120.495 91.3557 119.469C91.3244 119.464 91.2925 119.458 91.2612 119.452C85.6181 118.462 80.5632 121.325 76.2379 127.961C72.866 133.135 70.1329 140.034 67.2399 147.339C64.6623 153.846 61.9972 160.575 58.8993 165.838C51.8203 177.86 48.614 177.503 48.4809 177.482C48.1724 177.431 45.2601 176.608 42.3757 163.582C39.8483 152.164 40.4273 143.043 41.0407 133.387C41.8996 119.859 42.7877 105.871 34.171 86.4197C19.0943 52.368 38.1171 18.523 63.1303 15.2611C84.8814 12.4268 100.275 24.0844 105.884 29.2285C106.872 30.1352 108.293 30.3952 109.538 29.8966C116.605 27.0697 135.131 21.6107 154.469 31.9512C177.154 44.0777 182.044 82.7044 156.422 108.723Z" fill="#EFF5FE"/>
<path d="M166.167 61.2175C165.644 57.7772 164.71 54.5291 163.393 51.5632C162.611 49.8013 160.549 49.0078 158.788 49.7902C157.026 50.5723 156.233 52.6339 157.015 54.3955C158.08 56.7932 158.838 59.442 159.268 62.2674C160.874 72.8207 157.865 84.2421 151.012 93.6032C149.873 95.1581 150.211 97.3414 151.766 98.48C153.321 99.6187 155.504 99.2809 156.642 97.7259C164.578 86.8876 168.05 73.5806 166.167 61.2175Z" fill="#EFF5FE"/>
<path d="M89.4419 58.9988L76.4652 51.8677L74.384 37.2077C74.1729 35.7208 73.0338 34.5355 71.5564 34.2655C70.0791 33.9956 68.5948 34.7012 67.8711 36.0177L60.74 48.9944L46.08 51.0755C44.5931 51.2866 43.4078 52.4257 43.1378 53.9031C42.8679 55.3805 43.5735 56.8648 44.8899 57.5884L57.8667 64.7195L59.9478 79.3795C60.1589 80.8664 61.298 82.0518 62.7754 82.3217C64.2528 82.5917 65.7371 81.886 66.4607 80.5696L73.5918 67.5929L88.2518 65.5117C89.7387 65.3006 90.9241 64.1615 91.194 62.6841C91.464 61.2068 90.7583 59.7225 89.4419 58.9988ZM70.8836 60.9285C69.7962 61.0827 68.8447 61.74 68.3158 62.7028L65.386 68.0345L64.5311 62.0113C64.3768 60.9239 63.7196 59.9724 62.7567 59.4435L57.4251 56.5137L63.4483 55.6588C64.5356 55.5045 65.4872 54.8473 66.016 53.8844L68.9458 48.5528L69.8008 54.576C69.955 55.6633 70.6122 56.6149 71.5751 57.1438L76.9068 60.0735L70.8836 60.9285Z" fill="#EFF5FE"/>
</svg>
