<svg width="1920" height="516" viewBox="0 0 1920 516" fill="none" xmlns="http://www.w3.org/2000/svg">
<path fill-rule="evenodd" clip-rule="evenodd" d="M1920 114.742L1840.2 96.085C1760.39 76.4948 1599.84 61.569 1440.23 61.569C1279.69 61.569 1120.08 76.4948 959.531 114.742C778 144.594 598.548 133.4 438 114.742C277.452 96.085 214 80.2263 126 47.576C38 14.9258 0 0 0 0V515.874H79.8043C159.609 515.874 320.156 515.874 479.765 515.874C640.313 515.874 799.922 515.874 959.531 515.874C1120.08 515.874 1279.69 515.874 1440.23 515.874C1599.84 515.874 1760.39 515.874 1840.2 515.874H1920V114.742Z" fill="#F5F8FE"/>
</svg>
