<svg width="175" height="61" viewBox="0 0 175 61" fill="none" xmlns="http://www.w3.org/2000/svg">
<path d="M4.32129 22.9258C5.28158 22.9258 6.16455 22.8851 6.97021 22.8037C7.77588 22.7223 8.47982 22.6287 9.08203 22.5229C9.7819 22.409 10.4207 22.2747 10.9985 22.1201L10.6445 24.0977C10.5469 24.0895 10.4004 24.0814 10.2051 24.0732C10.0098 24.0651 9.79004 24.057 9.5459 24.0488C9.3099 24.0407 9.05762 24.0326 8.78906 24.0244C8.52865 24.0244 8.28044 24.0203 8.04443 24.0122C7.80843 24.0122 7.59684 24.0081 7.40967 24C7.23063 24 7.10042 24 7.01904 24H1.74561V23.9512C1.79443 23.7803 1.83919 23.5687 1.87988 23.3164C1.92871 23.0641 1.9694 22.7508 2.00195 22.3765C2.03451 22.0021 2.05892 21.5586 2.0752 21.0459C2.09147 20.5251 2.09961 19.9188 2.09961 19.2271V11.2803C2.09961 10.5885 2.09147 9.98633 2.0752 9.47363C2.05892 8.9528 2.03451 8.50521 2.00195 8.13086C1.9694 7.74837 1.92871 7.43099 1.87988 7.17871C1.83919 6.92643 1.79443 6.71484 1.74561 6.54395V6.49512H4.67529V6.54395C4.62646 6.71484 4.57764 6.92643 4.52881 7.17871C4.48812 7.43099 4.4515 7.74837 4.41895 8.13086C4.39453 8.50521 4.37012 8.9528 4.3457 9.47363C4.32943 9.98633 4.32129 10.5885 4.32129 11.2803V22.9258ZM18.8477 24.2197C17.9443 24.2197 17.098 24.0773 16.3086 23.7925C15.5192 23.5076 14.8315 23.0926 14.2456 22.5474C13.6597 21.994 13.1958 21.3145 12.854 20.5088C12.5203 19.695 12.3535 18.7673 12.3535 17.7256C12.3535 16.806 12.5081 15.9556 12.8174 15.1743C13.1266 14.3849 13.5539 13.7013 14.0991 13.1235C14.6444 12.5457 15.2791 12.0941 16.0034 11.7686C16.7358 11.443 17.5252 11.2803 18.3716 11.2803C19.2098 11.2803 19.987 11.4268 20.7031 11.7197C21.4193 12.0046 22.0378 12.4237 22.5586 12.9771C23.0876 13.5223 23.5026 14.2018 23.8037 15.0156C24.113 15.8213 24.2798 16.7409 24.3042 17.7744C23.3846 17.7581 22.465 17.7459 21.5454 17.7378C20.6258 17.7297 19.6696 17.7256 18.6768 17.7256C17.9688 17.7256 17.277 17.7297 16.6016 17.7378C15.9342 17.7459 15.332 17.7581 14.7949 17.7744C14.8438 18.6208 14.974 19.3857 15.1855 20.0693C15.4053 20.7529 15.7023 21.3389 16.0767 21.8271C16.4591 22.3073 16.9189 22.6776 17.4561 22.938C18.0013 23.1984 18.6157 23.3286 19.2993 23.3286C19.7713 23.3286 20.2148 23.2757 20.6299 23.1699C21.0531 23.056 21.4355 22.9014 21.7773 22.7061C22.1191 22.5107 22.4243 22.2829 22.6929 22.0225C22.9614 21.7539 23.1893 21.465 23.3765 21.1558L23.5229 21.229L22.6196 23.4019C22.1802 23.6297 21.6553 23.825 21.0449 23.9878C20.4346 24.1424 19.7021 24.2197 18.8477 24.2197ZM17.2241 16.7734C18.0379 16.7734 18.8517 16.7734 19.6655 16.7734C20.4875 16.7653 21.2321 16.749 21.8994 16.7246C21.8262 16.0166 21.6878 15.3818 21.4844 14.8203C21.2809 14.2588 21.0205 13.7827 20.7031 13.3921C20.3857 13.0015 20.0114 12.7004 19.5801 12.4888C19.1488 12.2772 18.6727 12.1714 18.1519 12.1714C17.6799 12.1714 17.2445 12.2772 16.8457 12.4888C16.4551 12.6922 16.1133 12.9893 15.8203 13.3799C15.5273 13.7705 15.2913 14.2507 15.1123 14.8203C14.9333 15.3818 14.8275 16.0247 14.7949 16.749C15.1611 16.7653 15.5477 16.7734 15.9546 16.7734C16.3615 16.7734 16.7847 16.7734 17.2241 16.7734ZM31.6528 29.5786C32.312 29.5786 32.8695 29.5054 33.3252 29.3589C33.7809 29.2205 34.1553 29.0252 34.4482 28.7729C34.7493 28.5207 34.9772 28.2155 35.1318 27.8574C35.2946 27.5075 35.4126 27.1209 35.4858 26.6978C35.5672 26.2746 35.612 25.8229 35.6201 25.3428C35.6364 24.8626 35.6445 24.3662 35.6445 23.8535V23.4507C35.2458 23.6623 34.7656 23.8454 34.2041 24C33.6426 24.1465 33.0078 24.2197 32.2998 24.2197C31.3314 24.2197 30.4525 24.0692 29.6631 23.7681C28.8737 23.467 28.1982 23.0356 27.6367 22.4741C27.0833 21.9126 26.6561 21.2331 26.355 20.4355C26.0539 19.6299 25.9033 18.7266 25.9033 17.7256C25.9033 16.806 26.0498 15.9515 26.3428 15.1621C26.6439 14.3727 27.063 13.6891 27.6001 13.1113C28.1453 12.5335 28.7923 12.0819 29.541 11.7563C30.2979 11.4227 31.132 11.2559 32.0435 11.2559C32.4341 11.2559 32.7922 11.2884 33.1177 11.3535C33.4432 11.4186 33.7443 11.5081 34.021 11.6221C34.3058 11.7279 34.5703 11.854 34.8145 12.0005C35.0667 12.1388 35.3109 12.2894 35.5469 12.4521L35.4248 11.5488V11.5H38.1226V11.5488C38.0737 11.7197 38.0249 11.9313 37.9761 12.1836C37.9354 12.4359 37.8988 12.7492 37.8662 13.1235C37.8418 13.4979 37.8174 13.9455 37.793 14.4663C37.7767 14.979 37.7686 15.5812 37.7686 16.2729V24.5737C37.7686 25.3224 37.6668 26.0508 37.4634 26.7588C37.2681 27.4749 36.9303 28.1097 36.4502 28.6631C35.9782 29.2165 35.3516 29.66 34.5703 29.9937C33.7891 30.3273 32.8166 30.4941 31.6528 30.4941C31.2459 30.4941 30.835 30.4535 30.4199 30.3721C30.0049 30.2988 29.6102 30.2052 29.2358 30.0913C28.8615 29.9855 28.5238 29.8675 28.2227 29.7373C27.9215 29.6071 27.6815 29.4932 27.5024 29.3955L27.124 27.0518L27.3193 27.0029C27.5146 27.4261 27.7791 27.7964 28.1128 28.1138C28.4546 28.4393 28.8249 28.7078 29.2236 28.9194C29.6224 29.1392 30.0334 29.3019 30.4565 29.4077C30.8879 29.5216 31.2866 29.5786 31.6528 29.5786ZM32.8491 23.3286C33.4351 23.3286 33.964 23.231 34.436 23.0356C34.9162 22.8403 35.319 22.6125 35.6445 22.3521V16.2729C35.6445 15.8172 35.6405 15.4062 35.6323 15.04C35.6242 14.6657 35.6201 14.328 35.6201 14.0269C35.4248 13.7257 35.1969 13.4613 34.9365 13.2334C34.6842 12.9974 34.4116 12.8021 34.1187 12.6475C33.8338 12.4847 33.5409 12.3626 33.2397 12.2812C32.9386 12.1917 32.6416 12.147 32.3486 12.147C31.7301 12.147 31.1727 12.2609 30.6763 12.4888C30.1799 12.7166 29.7567 13.0462 29.4067 13.4775C29.0649 13.9007 28.8005 14.4215 28.6133 15.04C28.4342 15.6504 28.3447 16.3462 28.3447 17.1274C28.3447 18.0063 28.4424 18.8242 28.6377 19.5811C28.833 20.3379 29.1178 20.9971 29.4922 21.5586C29.8747 22.112 30.3467 22.5474 30.9082 22.8647C31.4697 23.174 32.1167 23.3286 32.8491 23.3286ZM41.5283 10.5234C41.5283 9.83171 41.5161 9.22949 41.4917 8.7168C41.4754 8.19596 41.451 7.74837 41.4185 7.37402C41.394 6.99967 41.3574 6.68636 41.3086 6.43408C41.2679 6.1818 41.2231 5.97021 41.1743 5.79932V5.75049H43.9941V5.79932C43.9453 5.97021 43.9006 6.1818 43.8599 6.43408C43.8192 6.68636 43.7826 6.99967 43.75 7.37402C43.7174 7.74837 43.693 8.19596 43.6768 8.7168C43.6605 9.22949 43.6523 9.83171 43.6523 10.5234V16.6025L47.644 13.0259C48.3439 12.4155 48.6938 11.9069 48.6938 11.5H51.5259V11.5488C51.3143 11.6139 51.1108 11.6994 50.9155 11.8052C50.7284 11.9028 50.5371 12.0208 50.3418 12.1592C50.1546 12.2975 49.9552 12.4562 49.7437 12.6353C49.5402 12.8062 49.3164 13.0015 49.0723 13.2212L45.4956 16.4805L50.4028 22.2788C50.5493 22.4578 50.708 22.641 50.8789 22.8281C51.0498 23.0072 51.2207 23.174 51.3916 23.3286C51.5625 23.4832 51.7293 23.6175 51.8921 23.7314C52.0549 23.8454 52.2054 23.9186 52.3438 23.9512V24H48.8037C48.8037 23.7884 48.7467 23.5687 48.6328 23.3408C48.527 23.113 48.3317 22.8241 48.0469 22.4741L43.6523 17.2495V19.2271C43.6523 19.9188 43.6605 20.5251 43.6768 21.0459C43.693 21.5586 43.7174 22.0021 43.75 22.3765C43.7826 22.7508 43.8192 23.0641 43.8599 23.3164C43.9006 23.5687 43.9453 23.7803 43.9941 23.9512V24H41.1743V23.9512C41.2231 23.7803 41.2679 23.5687 41.3086 23.3164C41.3574 23.0641 41.394 22.7508 41.4185 22.3765C41.451 22.0021 41.4754 21.5586 41.4917 21.0459C41.5161 20.5251 41.5283 19.9188 41.5283 19.2271V10.5234ZM52.417 17.7256C52.417 16.806 52.5879 15.9556 52.9297 15.1743C53.2715 14.3849 53.7394 13.7013 54.3335 13.1235C54.9357 12.5457 55.6437 12.0941 56.4575 11.7686C57.2713 11.443 58.1462 11.2803 59.082 11.2803C60.0016 11.2803 60.8643 11.4349 61.6699 11.7441C62.4837 12.0452 63.1917 12.4766 63.7939 13.0381C64.3962 13.5996 64.8682 14.2832 65.21 15.0889C65.5599 15.8945 65.7349 16.7979 65.7349 17.7988C65.7349 18.637 65.5884 19.4427 65.2954 20.2158C65.0024 20.9889 64.5711 21.6725 64.0015 22.2666C63.4318 22.8607 62.7319 23.3368 61.9019 23.6948C61.0799 24.0448 60.1318 24.2197 59.0576 24.2197C58.1462 24.2197 57.2876 24.0692 56.4819 23.7681C55.6763 23.467 54.9723 23.0356 54.3701 22.4741C53.7679 21.9126 53.2918 21.2331 52.9419 20.4355C52.592 19.6299 52.417 18.7266 52.417 17.7256ZM59.3384 23.3286C59.9162 23.3286 60.4451 23.2147 60.9253 22.9868C61.4136 22.759 61.8327 22.4294 62.1826 21.998C62.5326 21.5667 62.8052 21.0418 63.0005 20.4233C63.1958 19.8049 63.2935 19.105 63.2935 18.3237C63.2935 17.4448 63.1999 16.631 63.0127 15.8823C62.8255 15.1255 62.5448 14.4744 62.1704 13.9292C61.8042 13.3758 61.3403 12.9445 60.7788 12.6353C60.2173 12.326 59.5622 12.1714 58.8135 12.1714C58.2357 12.1714 57.7067 12.2853 57.2266 12.5132C56.7464 12.7329 56.3273 13.0544 55.9692 13.4775C55.6193 13.9007 55.3467 14.4215 55.1514 15.04C54.9561 15.6504 54.8584 16.3462 54.8584 17.1274C54.8584 18.0063 54.952 18.8242 55.1392 19.5811C55.3345 20.3379 55.6193 20.9971 55.9937 21.5586C56.368 22.112 56.8319 22.5474 57.3853 22.8647C57.9468 23.174 58.5978 23.3286 59.3384 23.3286ZM73.999 13.9536L73.8281 13.978C73.7712 13.7909 73.6776 13.5915 73.5474 13.3799C73.4253 13.1683 73.2625 12.973 73.0591 12.7939C72.8638 12.6149 72.6237 12.4684 72.3389 12.3545C72.0622 12.2324 71.7407 12.1714 71.3745 12.1714C71.1222 12.1714 70.8822 12.208 70.6543 12.2812C70.4346 12.3545 70.2393 12.4644 70.0684 12.6108C69.9056 12.7492 69.7754 12.9242 69.6777 13.1357C69.5801 13.3473 69.5312 13.5955 69.5312 13.8804C69.5312 14.2791 69.6533 14.6616 69.8975 15.0278C70.1497 15.3859 70.4631 15.744 70.8374 16.1021C71.2118 16.452 71.6146 16.806 72.0459 17.1641C72.4854 17.5221 72.8923 17.8965 73.2666 18.2871C73.641 18.6777 73.9502 19.0968 74.1943 19.5444C74.4466 19.9839 74.5728 20.46 74.5728 20.9727C74.5728 21.3877 74.4995 21.7946 74.353 22.1934C74.2065 22.584 73.9787 22.9339 73.6694 23.2432C73.3683 23.5524 72.9777 23.8047 72.4976 24C72.0256 24.1872 71.46 24.2808 70.8008 24.2808C70.4102 24.2808 70.0439 24.2441 69.7021 24.1709C69.3685 24.0977 69.0592 24.0081 68.7744 23.9023C68.4977 23.7884 68.2454 23.6663 68.0176 23.5361C67.7979 23.3978 67.6025 23.2676 67.4316 23.1455L67.5537 20.8262H67.749C67.8304 21.2087 67.9525 21.5586 68.1152 21.876C68.278 22.1934 68.4774 22.466 68.7134 22.6938C68.9575 22.9136 69.2342 23.0885 69.5435 23.2188C69.8527 23.3408 70.1904 23.4019 70.5566 23.4019C71.1589 23.4019 71.6349 23.235 71.9849 22.9014C72.3429 22.5677 72.522 22.1323 72.522 21.5952C72.522 21.1639 72.3999 20.7692 72.1558 20.4111C71.9198 20.0449 71.6187 19.695 71.2524 19.3613C70.8862 19.0277 70.4915 18.694 70.0684 18.3604C69.6533 18.0267 69.2627 17.6727 68.8965 17.2983C68.5303 16.9159 68.2251 16.5008 67.981 16.0532C67.745 15.5975 67.627 15.0807 67.627 14.5029C67.627 14.0309 67.7124 13.5996 67.8833 13.209C68.0623 12.8102 68.3065 12.4725 68.6157 12.1958C68.9331 11.911 69.3075 11.6912 69.7388 11.5366C70.1701 11.382 70.6421 11.3047 71.1548 11.3047C71.8302 11.3047 72.3918 11.3779 72.8394 11.5244C73.2951 11.6628 73.641 11.797 73.877 11.9272L73.999 13.9536ZM81.7627 23.2798C82.0068 23.2798 82.2469 23.235 82.4829 23.1455C82.7271 23.056 82.959 22.9339 83.1787 22.7793C83.4066 22.6247 83.6222 22.4497 83.8257 22.2544C84.0373 22.0509 84.2326 21.8394 84.4116 21.6196L84.5337 21.6807L83.7402 23.646C83.6426 23.6948 83.5205 23.7559 83.374 23.8291C83.2357 23.8942 83.0648 23.9552 82.8613 24.0122C82.666 24.0773 82.4341 24.1302 82.1655 24.1709C81.897 24.2197 81.5796 24.2441 81.2134 24.2441C80.1229 24.2441 79.2725 23.9512 78.6621 23.3652C78.0599 22.7712 77.7588 21.8475 77.7588 20.5942V12.4521L75.708 12.5254V11.4512C75.9603 11.4674 76.2614 11.4797 76.6113 11.4878C76.9613 11.4959 77.3438 11.5 77.7588 11.5C77.7507 10.9222 77.7344 10.4136 77.71 9.97412C77.6937 9.52653 77.6693 9.13997 77.6367 8.81445C77.6123 8.48079 77.5798 8.20003 77.5391 7.97217C77.4984 7.7443 77.4577 7.55306 77.417 7.39844V7.34961H80.2368V7.39844C80.188 7.55306 80.1432 7.7443 80.1025 7.97217C80.0618 8.20003 80.0252 8.47673 79.9927 8.80225C79.9683 9.12777 79.9438 9.51432 79.9194 9.96191C79.9032 10.4014 79.891 10.9141 79.8828 11.5C80.3955 11.4919 80.896 11.4837 81.3843 11.4756C81.8807 11.4593 82.3283 11.443 82.7271 11.4268C83.134 11.4023 83.4757 11.382 83.7524 11.3657C84.0373 11.3413 84.2244 11.321 84.314 11.3047L84.0942 12.5498C83.6792 12.5417 83.2438 12.5295 82.7881 12.5132C82.3975 12.4969 81.9499 12.4847 81.4453 12.4766C80.9408 12.4684 80.4199 12.4603 79.8828 12.4521V20.8506C79.8828 21.3551 79.9357 21.7661 80.0415 22.0835C80.1554 22.3927 80.2979 22.6369 80.4688 22.8159C80.6478 22.995 80.8472 23.117 81.0669 23.1821C81.2948 23.2472 81.5267 23.2798 81.7627 23.2798ZM85.0586 28.4556H97.5586V29.896H85.0586V28.4556ZM100.586 11.5V11.5488C100.57 11.5895 100.557 11.6506 100.549 11.7319C100.541 11.8133 100.537 11.8866 100.537 11.9517C100.537 12.2039 100.574 12.4847 100.647 12.7939C100.72 13.0951 100.85 13.4735 101.038 13.9292L103.955 20.875L106.909 14.0269C107.031 13.7257 107.161 13.3962 107.3 13.0381C107.438 12.68 107.507 12.3179 107.507 11.9517C107.507 11.8459 107.499 11.7604 107.483 11.6953C107.467 11.6221 107.45 11.5732 107.434 11.5488V11.5H109.631V11.5488C109.485 11.7035 109.298 11.9801 109.07 12.3789C108.85 12.7695 108.614 13.2619 108.362 13.856L103.857 24.1709H103.137L98.9624 14.4541C98.8159 14.096 98.6572 13.7542 98.4863 13.4287C98.3236 13.0951 98.1649 12.798 98.0103 12.5376C97.8638 12.2772 97.7336 12.0615 97.6196 11.8906C97.5057 11.7116 97.4284 11.5977 97.3877 11.5488V11.5H100.586ZM116.87 13.9536L116.699 13.978C116.642 13.7909 116.549 13.5915 116.418 13.3799C116.296 13.1683 116.134 12.973 115.93 12.7939C115.735 12.6149 115.495 12.4684 115.21 12.3545C114.933 12.2324 114.612 12.1714 114.246 12.1714C113.993 12.1714 113.753 12.208 113.525 12.2812C113.306 12.3545 113.11 12.4644 112.939 12.6108C112.777 12.7492 112.646 12.9242 112.549 13.1357C112.451 13.3473 112.402 13.5955 112.402 13.8804C112.402 14.2791 112.524 14.6616 112.769 15.0278C113.021 15.3859 113.334 15.744 113.708 16.1021C114.083 16.452 114.486 16.806 114.917 17.1641C115.356 17.5221 115.763 17.8965 116.138 18.2871C116.512 18.6777 116.821 19.0968 117.065 19.5444C117.318 19.9839 117.444 20.46 117.444 20.9727C117.444 21.3877 117.371 21.7946 117.224 22.1934C117.078 22.584 116.85 22.9339 116.541 23.2432C116.239 23.5524 115.849 23.8047 115.369 24C114.897 24.1872 114.331 24.2808 113.672 24.2808C113.281 24.2808 112.915 24.2441 112.573 24.1709C112.24 24.0977 111.93 24.0081 111.646 23.9023C111.369 23.7884 111.117 23.6663 110.889 23.5361C110.669 23.3978 110.474 23.2676 110.303 23.1455L110.425 20.8262H110.62C110.701 21.2087 110.824 21.5586 110.986 21.876C111.149 22.1934 111.348 22.466 111.584 22.6938C111.829 22.9136 112.105 23.0885 112.415 23.2188C112.724 23.3408 113.062 23.4019 113.428 23.4019C114.03 23.4019 114.506 23.235 114.856 22.9014C115.214 22.5677 115.393 22.1323 115.393 21.5952C115.393 21.1639 115.271 20.7692 115.027 20.4111C114.791 20.0449 114.49 19.695 114.124 19.3613C113.757 19.0277 113.363 18.694 112.939 18.3604C112.524 18.0267 112.134 17.6727 111.768 17.2983C111.401 16.9159 111.096 16.5008 110.852 16.0532C110.616 15.5975 110.498 15.0807 110.498 14.5029C110.498 14.0309 110.583 13.5996 110.754 13.209C110.933 12.8102 111.178 12.4725 111.487 12.1958C111.804 11.911 112.179 11.6912 112.61 11.5366C113.041 11.382 113.513 11.3047 114.026 11.3047C114.701 11.3047 115.263 11.3779 115.71 11.5244C116.166 11.6628 116.512 11.797 116.748 11.9272L116.87 13.9536ZM125.684 24.2197C124.78 24.2197 123.934 24.0773 123.145 23.7925C122.355 23.5076 121.667 23.0926 121.082 22.5474C120.496 21.994 120.032 21.3145 119.69 20.5088C119.356 19.695 119.189 18.7673 119.189 17.7256C119.189 16.806 119.344 15.9556 119.653 15.1743C119.963 14.3849 120.39 13.7013 120.935 13.1235C121.48 12.5457 122.115 12.0941 122.839 11.7686C123.572 11.443 124.361 11.2803 125.208 11.2803C126.046 11.2803 126.823 11.4268 127.539 11.7197C128.255 12.0046 128.874 12.4237 129.395 12.9771C129.924 13.5223 130.339 14.2018 130.64 15.0156C130.949 15.8213 131.116 16.7409 131.14 17.7744C130.221 17.7581 129.301 17.7459 128.381 17.7378C127.462 17.7297 126.506 17.7256 125.513 17.7256C124.805 17.7256 124.113 17.7297 123.438 17.7378C122.77 17.7459 122.168 17.7581 121.631 17.7744C121.68 18.6208 121.81 19.3857 122.021 20.0693C122.241 20.7529 122.538 21.3389 122.913 21.8271C123.295 22.3073 123.755 22.6776 124.292 22.938C124.837 23.1984 125.452 23.3286 126.135 23.3286C126.607 23.3286 127.051 23.2757 127.466 23.1699C127.889 23.056 128.271 22.9014 128.613 22.7061C128.955 22.5107 129.26 22.2829 129.529 22.0225C129.797 21.7539 130.025 21.465 130.212 21.1558L130.359 21.229L129.456 23.4019C129.016 23.6297 128.491 23.825 127.881 23.9878C127.271 24.1424 126.538 24.2197 125.684 24.2197ZM124.06 16.7734C124.874 16.7734 125.688 16.7734 126.501 16.7734C127.323 16.7653 128.068 16.749 128.735 16.7246C128.662 16.0166 128.524 15.3818 128.32 14.8203C128.117 14.2588 127.856 13.7827 127.539 13.3921C127.222 13.0015 126.847 12.7004 126.416 12.4888C125.985 12.2772 125.509 12.1714 124.988 12.1714C124.516 12.1714 124.08 12.2772 123.682 12.4888C123.291 12.6922 122.949 12.9893 122.656 13.3799C122.363 13.7705 122.127 14.2507 121.948 14.8203C121.769 15.3818 121.663 16.0247 121.631 16.749C121.997 16.7653 122.384 16.7734 122.791 16.7734C123.197 16.7734 123.621 16.7734 124.06 16.7734ZM138.489 29.5786C139.148 29.5786 139.705 29.5054 140.161 29.3589C140.617 29.2205 140.991 29.0252 141.284 28.7729C141.585 28.5207 141.813 28.2155 141.968 27.8574C142.131 27.5075 142.249 27.1209 142.322 26.6978C142.403 26.2746 142.448 25.8229 142.456 25.3428C142.472 24.8626 142.48 24.3662 142.48 23.8535V23.4507C142.082 23.6623 141.602 23.8454 141.04 24C140.479 24.1465 139.844 24.2197 139.136 24.2197C138.167 24.2197 137.288 24.0692 136.499 23.7681C135.71 23.467 135.034 23.0356 134.473 22.4741C133.919 21.9126 133.492 21.2331 133.191 20.4355C132.89 19.6299 132.739 18.7266 132.739 17.7256C132.739 16.806 132.886 15.9515 133.179 15.1621C133.48 14.3727 133.899 13.6891 134.436 13.1113C134.981 12.5335 135.628 12.0819 136.377 11.7563C137.134 11.4227 137.968 11.2559 138.879 11.2559C139.27 11.2559 139.628 11.2884 139.954 11.3535C140.279 11.4186 140.58 11.5081 140.857 11.6221C141.142 11.7279 141.406 11.854 141.65 12.0005C141.903 12.1388 142.147 12.2894 142.383 12.4521L142.261 11.5488V11.5H144.958V11.5488C144.91 11.7197 144.861 11.9313 144.812 12.1836C144.771 12.4359 144.735 12.7492 144.702 13.1235C144.678 13.4979 144.653 13.9455 144.629 14.4663C144.613 14.979 144.604 15.5812 144.604 16.2729V24.5737C144.604 25.3224 144.503 26.0508 144.299 26.7588C144.104 27.4749 143.766 28.1097 143.286 28.6631C142.814 29.2165 142.188 29.66 141.406 29.9937C140.625 30.3273 139.653 30.4941 138.489 30.4941C138.082 30.4941 137.671 30.4535 137.256 30.3721C136.841 30.2988 136.446 30.2052 136.072 30.0913C135.697 29.9855 135.36 29.8675 135.059 29.7373C134.757 29.6071 134.517 29.4932 134.338 29.3955L133.96 27.0518L134.155 27.0029C134.351 27.4261 134.615 27.7964 134.949 28.1138C135.291 28.4393 135.661 28.7078 136.06 28.9194C136.458 29.1392 136.869 29.3019 137.292 29.4077C137.724 29.5216 138.123 29.5786 138.489 29.5786ZM139.685 23.3286C140.271 23.3286 140.8 23.231 141.272 23.0356C141.752 22.8403 142.155 22.6125 142.48 22.3521V16.2729C142.48 15.8172 142.476 15.4062 142.468 15.04C142.46 14.6657 142.456 14.328 142.456 14.0269C142.261 13.7257 142.033 13.4613 141.772 13.2334C141.52 12.9974 141.248 12.8021 140.955 12.6475C140.67 12.4847 140.377 12.3626 140.076 12.2812C139.775 12.1917 139.478 12.147 139.185 12.147C138.566 12.147 138.009 12.2609 137.512 12.4888C137.016 12.7166 136.593 13.0462 136.243 13.4775C135.901 13.9007 135.636 14.4215 135.449 15.04C135.27 15.6504 135.181 16.3462 135.181 17.1274C135.181 18.0063 135.278 18.8242 135.474 19.5811C135.669 20.3379 135.954 20.9971 136.328 21.5586C136.711 22.112 137.183 22.5474 137.744 22.8647C138.306 23.174 138.953 23.3286 139.685 23.3286ZM153.931 11.2803C154.264 11.2803 154.598 11.3088 154.932 11.3657C155.265 11.4227 155.591 11.5041 155.908 11.6099C156.226 11.7157 156.527 11.8459 156.812 12.0005C157.096 12.1551 157.353 12.3301 157.581 12.5254V10.5234C157.581 9.83171 157.572 9.22949 157.556 8.7168C157.54 8.19596 157.515 7.74837 157.483 7.37402C157.45 6.99967 157.414 6.68636 157.373 6.43408C157.332 6.1818 157.288 5.97021 157.239 5.79932V5.75049H160.059V5.79932C160.01 5.97021 159.961 6.1818 159.912 6.43408C159.871 6.68636 159.835 6.99967 159.802 7.37402C159.778 7.74837 159.753 8.19596 159.729 8.7168C159.713 9.22949 159.705 9.83171 159.705 10.5234V19.2271C159.705 19.9188 159.713 20.5251 159.729 21.0459C159.753 21.5586 159.778 22.0021 159.802 22.3765C159.835 22.7508 159.871 23.0641 159.912 23.3164C159.961 23.5687 160.01 23.7803 160.059 23.9512V24H157.361V23.9512C157.385 23.8861 157.406 23.7925 157.422 23.6704C157.438 23.5402 157.458 23.3815 157.483 23.1943C157.068 23.4548 156.547 23.6908 155.92 23.9023C155.294 24.1139 154.565 24.2197 153.735 24.2197C152.767 24.2197 151.888 24.0692 151.099 23.7681C150.309 23.467 149.634 23.0356 149.072 22.4741C148.519 21.9126 148.092 21.2331 147.791 20.4355C147.489 19.6299 147.339 18.7266 147.339 17.7256C147.339 16.806 147.502 15.9556 147.827 15.1743C148.153 14.3849 148.608 13.7013 149.194 13.1235C149.78 12.5457 150.476 12.0941 151.282 11.7686C152.087 11.443 152.97 11.2803 153.931 11.2803ZM157.581 14.6738C157.255 13.8193 156.787 13.1886 156.177 12.7817C155.575 12.3748 154.895 12.1714 154.138 12.1714C153.503 12.1714 152.917 12.2853 152.38 12.5132C151.843 12.7329 151.383 13.0544 151.001 13.4775C150.618 13.9007 150.317 14.4215 150.098 15.04C149.886 15.6504 149.78 16.3462 149.78 17.1274C149.78 18.0063 149.878 18.8242 150.073 19.5811C150.269 20.3379 150.553 20.9971 150.928 21.5586C151.31 22.112 151.782 22.5474 152.344 22.8647C152.905 23.174 153.552 23.3286 154.285 23.3286C154.667 23.3286 155.025 23.2839 155.359 23.1943C155.693 23.1048 155.998 22.9909 156.274 22.8525C156.551 22.7142 156.795 22.5636 157.007 22.4009C157.218 22.23 157.393 22.0632 157.532 21.9004C157.548 21.5505 157.56 21.1517 157.568 20.7041C157.576 20.2565 157.581 19.7642 157.581 19.2271V14.6738ZM162.5 20.3989C162.5 19.756 162.63 19.1986 162.891 18.7266C163.159 18.2546 163.513 17.8517 163.953 17.5181C164.392 17.1844 164.893 16.9159 165.454 16.7124C166.016 16.5008 166.597 16.3381 167.2 16.2241C167.802 16.1021 168.396 16.0207 168.982 15.98C169.568 15.9312 170.105 15.9027 170.593 15.8945V15.272C170.593 14.7349 170.524 14.271 170.386 13.8804C170.247 13.4897 170.052 13.1683 169.8 12.916C169.548 12.6556 169.242 12.4644 168.884 12.3423C168.534 12.2121 168.148 12.147 167.725 12.147C167.432 12.147 167.143 12.1714 166.858 12.2202C166.573 12.269 166.276 12.3504 165.967 12.4644C165.666 12.5783 165.344 12.7329 165.002 12.9282C164.669 13.1235 164.307 13.3717 163.916 13.6729L163.794 13.5996L164.624 11.8784C164.893 11.7563 165.157 11.6587 165.417 11.5854C165.678 11.5041 165.942 11.439 166.211 11.3901C166.479 11.3413 166.752 11.3088 167.029 11.2925C167.314 11.2681 167.611 11.2559 167.92 11.2559C168.774 11.2559 169.503 11.3617 170.105 11.5732C170.715 11.7767 171.212 12.0615 171.594 12.4277C171.985 12.7858 172.27 13.209 172.449 13.6973C172.628 14.1774 172.717 14.6942 172.717 15.2476V19.2271C172.717 19.9188 172.725 20.5251 172.742 21.0459C172.766 21.5586 172.791 22.0021 172.815 22.3765C172.847 22.7508 172.884 23.0641 172.925 23.3164C172.974 23.5687 173.022 23.7803 173.071 23.9512V24H170.374V23.9512C170.414 23.821 170.443 23.6745 170.459 23.5117C170.483 23.349 170.504 23.1536 170.52 22.9258C170.349 23.0723 170.146 23.2228 169.91 23.3774C169.682 23.5321 169.417 23.6745 169.116 23.8047C168.823 23.9268 168.494 24.0244 168.127 24.0977C167.769 24.179 167.375 24.2197 166.943 24.2197C165.527 24.2197 164.433 23.8901 163.66 23.231C162.887 22.5636 162.5 21.6196 162.5 20.3989ZM170.593 16.8467C169.853 16.8548 169.141 16.8996 168.457 16.981C167.773 17.0542 167.167 17.2129 166.638 17.457C166.117 17.7012 165.698 18.0511 165.381 18.5068C165.072 18.9544 164.917 19.5526 164.917 20.3013C164.917 21.2616 165.157 21.994 165.637 22.4985C166.117 23.0031 166.781 23.2554 167.627 23.2554C168.018 23.2554 168.372 23.2025 168.689 23.0967C169.014 22.9827 169.299 22.8444 169.543 22.6816C169.796 22.5107 170.007 22.3276 170.178 22.1323C170.349 21.9289 170.479 21.7336 170.569 21.5464C170.585 21.2371 170.593 20.8953 170.593 20.521C170.593 20.1385 170.593 19.7072 170.593 19.2271V16.8467Z" fill="#222222"/>
<path d="M7.868 58H6.874L1.96 53.17V58H1.218V48.2H1.96V52.764L6.734 48.2H7.728L2.772 52.96L7.868 58ZM13.7899 51H14.5459L11.5219 58.644C11.2512 59.3347 10.8686 59.876 10.3739 60.268C9.87922 60.6693 9.33789 60.8467 8.74989 60.8V60.142C9.19789 60.1793 9.59922 60.0487 9.95389 59.75C10.3179 59.4607 10.6119 59.0453 10.8359 58.504L10.9899 58.126L7.76989 51H8.52589L11.3539 57.23L13.7899 51ZM19.5126 50.846C20.5206 50.846 21.3746 51.2007 22.0746 51.91C22.7839 52.61 23.1386 53.4733 23.1386 54.5C23.1386 55.5267 22.7839 56.3947 22.0746 57.104C21.3746 57.804 20.5206 58.154 19.5126 58.154C18.8499 58.154 18.2526 57.9953 17.7206 57.678C17.1979 57.3607 16.7919 56.9267 16.5026 56.376V60.8H15.8026V51H16.5026V52.624C16.7919 52.0733 17.1979 51.6393 17.7206 51.322C18.2526 51.0047 18.8499 50.846 19.5126 50.846ZM17.3566 56.614C17.9353 57.1927 18.6399 57.482 19.4706 57.482C20.3013 57.482 21.0013 57.1927 21.5706 56.614C22.1493 56.0353 22.4386 55.3307 22.4386 54.5C22.4386 53.6693 22.1493 52.9647 21.5706 52.386C21.0013 51.8073 20.3013 51.518 19.4706 51.518C18.6399 51.518 17.9353 51.8073 17.3566 52.386C16.7873 52.9647 16.5026 53.6693 16.5026 54.5C16.5026 55.3307 16.7873 56.0353 17.3566 56.614ZM28.032 58.154C26.9774 58.154 26.1 57.804 25.4 57.104C24.7 56.404 24.35 55.536 24.35 54.5C24.35 53.464 24.7 52.596 25.4 51.896C26.1 51.196 26.9774 50.846 28.032 50.846C28.7134 50.846 29.3294 51.0093 29.88 51.336C30.4307 51.6533 30.832 52.0873 31.084 52.638L30.51 52.974C30.3047 52.526 29.978 52.1713 29.53 51.91C29.0914 51.6487 28.592 51.518 28.032 51.518C27.192 51.518 26.4874 51.8073 25.918 52.386C25.3487 52.9553 25.064 53.66 25.064 54.5C25.064 55.34 25.3487 56.0493 25.918 56.628C26.4874 57.1973 27.192 57.482 28.032 57.482C28.592 57.482 29.0914 57.3513 29.53 57.09C29.978 56.8287 30.3187 56.474 30.552 56.026L31.14 56.376C30.86 56.9173 30.44 57.3513 29.88 57.678C29.3294 57.9953 28.7134 58.154 28.032 58.154ZM42.1881 51V58H41.4741V51.686H37.1061V58H36.4061V51H42.1881ZM47.5555 58.154C46.5288 58.154 45.6562 57.804 44.9375 57.104C44.2282 56.3947 43.8735 55.5267 43.8735 54.5C43.8735 53.4733 44.2282 52.61 44.9375 51.91C45.6562 51.2007 46.5288 50.846 47.5555 50.846C48.5728 50.846 49.4362 51.2007 50.1455 51.91C50.8642 52.61 51.2235 53.4733 51.2235 54.5C51.2235 55.5267 50.8642 56.3947 50.1455 57.104C49.4362 57.804 48.5728 58.154 47.5555 58.154ZM45.4415 56.614C46.0202 57.1927 46.7248 57.482 47.5555 57.482C48.3862 57.482 49.0862 57.1927 49.6555 56.614C50.2248 56.0353 50.5095 55.3307 50.5095 54.5C50.5095 53.6693 50.2248 52.9647 49.6555 52.386C49.0862 51.8073 48.3862 51.518 47.5555 51.518C46.7248 51.518 46.0202 51.8073 45.4415 52.386C44.8722 52.9647 44.5875 53.6693 44.5875 54.5C44.5875 55.3307 44.8722 56.0353 45.4415 56.614ZM58.3186 51V58H57.6186V51.686H54.0906V55.06C54.0906 56.1987 53.8806 56.9873 53.4606 57.426C53.0406 57.8647 52.4666 58.056 51.7386 58V57.342C52.2986 57.3887 52.714 57.2393 52.9846 56.894C53.2553 56.5487 53.3906 55.9373 53.3906 55.06V51H58.3186ZM63.6186 50.846C64.6453 50.846 65.476 51.21 66.1106 51.938C66.7546 52.666 67.0766 53.5293 67.0766 54.528C67.0766 54.5653 67.072 54.6213 67.0626 54.696C67.0626 54.7707 67.0626 54.8267 67.0626 54.864H60.7206C60.8046 55.648 61.1173 56.2827 61.6586 56.768C62.2093 57.244 62.886 57.482 63.6886 57.482C64.2486 57.482 64.7386 57.3653 65.1586 57.132C65.5786 56.8987 65.896 56.5907 66.1106 56.208L66.7266 56.572C66.4373 57.0573 66.0266 57.4447 65.4946 57.734C64.9626 58.014 64.356 58.154 63.6746 58.154C62.6013 58.154 61.7193 57.8133 61.0286 57.132C60.338 56.4413 59.9926 55.564 59.9926 54.5C59.9926 53.4547 60.3286 52.5867 61.0006 51.896C61.682 51.196 62.5546 50.846 63.6186 50.846ZM63.6186 51.518C62.8253 51.518 62.1626 51.7653 61.6306 52.26C61.0986 52.7547 60.7953 53.394 60.7206 54.178H66.3486C66.274 53.3473 65.9753 52.6987 65.4526 52.232C64.9393 51.756 64.328 51.518 63.6186 51.518ZM71.936 54.388C72.356 54.528 72.6827 54.752 72.916 55.06C73.1494 55.368 73.266 55.7227 73.266 56.124C73.266 56.6933 73.042 57.174 72.594 57.566C72.146 57.958 71.5114 58.154 70.69 58.154C69.29 58.154 68.38 57.6033 67.96 56.502L68.562 56.152C68.8607 57.0387 69.57 57.482 70.69 57.482C71.2687 57.482 71.7214 57.356 72.048 57.104C72.384 56.8427 72.552 56.502 72.552 56.082C72.552 55.6993 72.412 55.3913 72.132 55.158C71.852 54.9153 71.4787 54.794 71.012 54.794H70.046V54.108H70.746C71.2034 54.108 71.5627 53.9913 71.824 53.758C72.0854 53.5247 72.216 53.212 72.216 52.82C72.216 52.4467 72.062 52.1387 71.754 51.896C71.4554 51.644 71.0587 51.518 70.564 51.518C69.612 51.518 68.982 51.896 68.674 52.652L68.086 52.316C68.282 51.868 68.59 51.5133 69.01 51.252C69.43 50.9813 69.948 50.846 70.564 50.846C71.2827 50.846 71.852 51.0373 72.272 51.42C72.7014 51.7933 72.916 52.2507 72.916 52.792C72.916 53.548 72.5894 54.08 71.936 54.388ZM79.8784 51H80.5924V58H79.8784V54.836H75.5104V58H74.8104V51H75.5104V54.164H79.8784V51ZM85.5258 53.716C86.1698 53.716 86.7158 53.9167 87.1638 54.318C87.6118 54.7193 87.8358 55.2327 87.8358 55.858C87.8358 56.4833 87.6118 56.9967 87.1638 57.398C86.7158 57.7993 86.1698 58 85.5258 58H82.7538V51H83.4538V53.716H85.5258ZM88.9138 51H89.6138V58H88.9138V51ZM85.5258 57.314C85.9738 57.314 86.3518 57.1787 86.6598 56.908C86.9678 56.6373 87.1218 56.2873 87.1218 55.858C87.1218 55.4193 86.9678 55.0693 86.6598 54.808C86.3611 54.5373 85.9831 54.402 85.5258 54.402H83.4538V57.314H85.5258ZM97.4475 58H96.5935L94.2275 54.948L91.8615 58H91.0075L93.8075 54.402L91.1755 51H92.0295L94.2275 53.842L96.4395 51H97.2795L94.6615 54.388L97.4475 58ZM105.798 58.154C104.743 58.154 103.866 57.804 103.166 57.104C102.466 56.404 102.116 55.536 102.116 54.5C102.116 53.464 102.466 52.596 103.166 51.896C103.866 51.196 104.743 50.846 105.798 50.846C106.479 50.846 107.095 51.0093 107.646 51.336C108.196 51.6533 108.598 52.0873 108.85 52.638L108.276 52.974C108.07 52.526 107.744 52.1713 107.296 51.91C106.857 51.6487 106.358 51.518 105.798 51.518C104.958 51.518 104.253 51.8073 103.684 52.386C103.114 52.9553 102.83 53.66 102.83 54.5C102.83 55.34 103.114 56.0493 103.684 56.628C104.253 57.1973 104.958 57.482 105.798 57.482C106.358 57.482 106.857 57.3513 107.296 57.09C107.744 56.8287 108.084 56.474 108.318 56.026L108.906 56.376C108.626 56.9173 108.206 57.3513 107.646 57.678C107.095 57.9953 106.479 58.154 105.798 58.154ZM115.987 51V58H115.287V51.686H111.759V55.06C111.759 56.1987 111.549 56.9873 111.129 57.426C110.709 57.8647 110.135 58.056 109.407 58V57.342C109.967 57.3887 110.382 57.2393 110.653 56.894C110.923 56.5487 111.059 55.9373 111.059 55.06V51H115.987ZM124.297 51H125.011V58H124.297V56.418C123.998 56.9593 123.587 57.384 123.065 57.692C122.542 58 121.949 58.154 121.287 58.154C120.288 58.154 119.434 57.804 118.725 57.104C118.015 56.3947 117.661 55.5267 117.661 54.5C117.661 53.4733 118.015 52.61 118.725 51.91C119.434 51.2007 120.288 50.846 121.287 50.846C121.949 50.846 122.542 51 123.065 51.308C123.587 51.616 123.998 52.0407 124.297 52.582V51ZM119.229 56.614C119.807 57.1927 120.512 57.482 121.343 57.482C122.173 57.482 122.873 57.1927 123.443 56.614C124.012 56.0353 124.297 55.3307 124.297 54.5C124.297 53.6693 124.012 52.9647 123.443 52.386C122.873 51.8073 122.173 51.518 121.343 51.518C120.512 51.518 119.807 51.8073 119.229 52.386C118.659 52.9647 118.375 53.6693 118.375 54.5C118.375 55.3307 118.659 56.0353 119.229 56.614ZM132.9 57.314H133.88V59.876H133.166V58H127.118V59.876H126.404V57.314H127.216C127.729 56.614 127.986 55.676 127.986 54.5V51H132.9V57.314ZM128.084 57.314H132.186V51.686H128.686V54.5C128.686 55.648 128.485 56.586 128.084 57.314ZM138.35 58.154C137.324 58.154 136.451 57.804 135.732 57.104C135.023 56.3947 134.668 55.5267 134.668 54.5C134.668 53.4733 135.023 52.61 135.732 51.91C136.451 51.2007 137.324 50.846 138.35 50.846C139.368 50.846 140.231 51.2007 140.94 51.91C141.659 52.61 142.018 53.4733 142.018 54.5C142.018 55.5267 141.659 56.3947 140.94 57.104C140.231 57.804 139.368 58.154 138.35 58.154ZM136.236 56.614C136.815 57.1927 137.52 57.482 138.35 57.482C139.181 57.482 139.881 57.1927 140.45 56.614C141.02 56.0353 141.304 55.3307 141.304 54.5C141.304 53.6693 141.02 52.9647 140.45 52.386C139.881 51.8073 139.181 51.518 138.35 51.518C137.52 51.518 136.815 51.8073 136.236 52.386C135.667 52.9647 135.382 53.6693 135.382 54.5C135.382 55.3307 135.667 56.0353 136.236 56.614ZM146.909 58.154C145.854 58.154 144.977 57.804 144.277 57.104C143.577 56.404 143.227 55.536 143.227 54.5C143.227 53.464 143.577 52.596 144.277 51.896C144.977 51.196 145.854 50.846 146.909 50.846C147.59 50.846 148.206 51.0093 148.757 51.336C149.308 51.6533 149.709 52.0873 149.961 52.638L149.387 52.974C149.182 52.526 148.855 52.1713 148.407 51.91C147.968 51.6487 147.469 51.518 146.909 51.518C146.069 51.518 145.364 51.8073 144.795 52.386C144.226 52.9553 143.941 53.66 143.941 54.5C143.941 55.34 144.226 56.0493 144.795 56.628C145.364 57.1973 146.069 57.482 146.909 57.482C147.469 57.482 147.968 57.3513 148.407 57.09C148.855 56.8287 149.196 56.474 149.429 56.026L150.017 56.376C149.737 56.9173 149.317 57.3513 148.757 57.678C148.206 57.9953 147.59 58.154 146.909 58.154ZM156.314 51V51.686H153.766V58H153.066V51.686H150.518V51H156.314ZM160.457 50.846C161.483 50.846 162.314 51.21 162.949 51.938C163.593 52.666 163.915 53.5293 163.915 54.528C163.915 54.5653 163.91 54.6213 163.901 54.696C163.901 54.7707 163.901 54.8267 163.901 54.864H157.559C157.643 55.648 157.955 56.2827 158.497 56.768C159.047 57.244 159.724 57.482 160.527 57.482C161.087 57.482 161.577 57.3653 161.997 57.132C162.417 56.8987 162.734 56.5907 162.949 56.208L163.565 56.572C163.275 57.0573 162.865 57.4447 162.333 57.734C161.801 58.014 161.194 58.154 160.513 58.154C159.439 58.154 158.557 57.8133 157.867 57.132C157.176 56.4413 156.831 55.564 156.831 54.5C156.831 53.4547 157.167 52.5867 157.839 51.896C158.52 51.196 159.393 50.846 160.457 50.846ZM160.457 51.518C159.663 51.518 159.001 51.7653 158.469 52.26C157.937 52.7547 157.633 53.394 157.559 54.178H163.187C163.112 53.3473 162.813 52.6987 162.291 52.232C161.777 51.756 161.166 51.518 160.457 51.518ZM166.657 49.782V49.166H170.199V49.782H166.657ZM170.717 51H171.333V58H170.619V52.218L166.167 58H165.551V51H166.251V56.782L170.717 51Z" fill="#919191"/>
</svg>
