<svg width="28" height="27" viewBox="0 0 28 27" fill="none" xmlns="http://www.w3.org/2000/svg">
<path d="M19.7175 0H7.33478C3.30472 0 0.026123 3.27859 0.026123 7.30865V19.6916C0.026123 23.7214 3.30472 27 7.33478 27H19.7177C23.7475 27 27.0261 23.7214 27.0261 19.6916V7.30865C27.0261 3.27859 23.7475 0 19.7175 0V0ZM13.5261 20.8826C9.45528 20.8826 6.14352 17.5708 6.14352 13.5C6.14352 9.42915 9.45528 6.11739 13.5261 6.11739C17.597 6.11739 20.9087 9.42915 20.9087 13.5C20.9087 17.5708 17.597 20.8826 13.5261 20.8826ZM21.0853 7.85845C19.8823 7.85845 18.9038 6.87998 18.9038 5.67698C18.9038 4.47398 19.8823 3.4953 21.0853 3.4953C22.2883 3.4953 23.2669 4.47398 23.2669 5.67698C23.2669 6.87998 22.2883 7.85845 21.0853 7.85845Z" fill="white"/>
<path d="M13.5266 7.69971C10.3287 7.69971 7.72681 10.3014 7.72681 13.4995C7.72681 16.6973 10.3287 19.2992 13.5266 19.2992C16.7246 19.2992 19.3263 16.6973 19.3263 13.4995C19.3263 10.3014 16.7246 7.69971 13.5266 7.69971Z" fill="white"/>
<path d="M21.0854 5.07837C20.7554 5.07837 20.4868 5.34698 20.4868 5.67699C20.4868 6.00699 20.7554 6.2756 21.0854 6.2756C21.4156 6.2756 21.6843 6.00719 21.6843 5.67699C21.6843 5.34678 21.4156 5.07837 21.0854 5.07837Z" fill="white"/>
</svg>
