<svg width="184" height="56" viewBox="0 0 184 56" fill="none" xmlns="http://www.w3.org/2000/svg">
<path d="M4.49414 24.8828C5.49284 24.8828 6.41113 24.8405 7.24902 24.7559C8.08691 24.6712 8.81901 24.5739 9.44531 24.4639C10.1732 24.3454 10.8376 24.2057 11.4385 24.0449L11.0703 26.1016C10.9688 26.0931 10.8164 26.0846 10.6133 26.0762C10.4102 26.0677 10.1816 26.0592 9.92773 26.0508C9.68229 26.0423 9.41992 26.0339 9.14062 26.0254C8.86979 26.0254 8.61165 26.0212 8.36621 26.0127C8.12077 26.0127 7.90072 26.0085 7.70605 26C7.51986 26 7.38444 26 7.2998 26H1.81543V25.9492C1.86621 25.7715 1.91276 25.5514 1.95508 25.2891C2.00586 25.0267 2.04818 24.7008 2.08203 24.3115C2.11589 23.9222 2.14128 23.4609 2.1582 22.9277C2.17513 22.3861 2.18359 21.7555 2.18359 21.0361V12.7715C2.18359 12.0521 2.17513 11.4258 2.1582 10.8926C2.14128 10.3509 2.11589 9.88542 2.08203 9.49609C2.04818 9.09831 2.00586 8.76823 1.95508 8.50586C1.91276 8.24349 1.86621 8.02344 1.81543 7.8457V7.79492H4.8623V7.8457C4.81152 8.02344 4.76074 8.24349 4.70996 8.50586C4.66764 8.76823 4.62956 9.09831 4.5957 9.49609C4.57031 9.88542 4.54492 10.3509 4.51953 10.8926C4.5026 11.4258 4.49414 12.0521 4.49414 12.7715V24.8828ZM19.6016 26.2285C18.6621 26.2285 17.7819 26.0804 16.9609 25.7842C16.14 25.488 15.4248 25.0563 14.8154 24.4893C14.2061 23.9137 13.7236 23.207 13.3682 22.3691C13.0212 21.5228 12.8477 20.5579 12.8477 19.4746C12.8477 18.5182 13.0085 17.6338 13.3301 16.8213C13.6517 16.0003 14.096 15.2894 14.6631 14.6885C15.2301 14.0876 15.8903 13.6178 16.6436 13.2793C17.4053 12.9408 18.2262 12.7715 19.1064 12.7715C19.9782 12.7715 20.7865 12.9238 21.5312 13.2285C22.276 13.5247 22.9193 13.9606 23.4609 14.5361C24.0111 15.1032 24.4427 15.8099 24.7559 16.6562C25.0775 17.4941 25.251 18.4505 25.2764 19.5254C24.32 19.5085 23.3636 19.4958 22.4072 19.4873C21.4508 19.4788 20.4564 19.4746 19.4238 19.4746C18.6875 19.4746 17.9681 19.4788 17.2656 19.4873C16.5716 19.4958 15.9453 19.5085 15.3867 19.5254C15.4375 20.4056 15.5729 21.2012 15.793 21.9121C16.0215 22.623 16.3304 23.2324 16.7197 23.7402C17.1175 24.2396 17.5957 24.6247 18.1543 24.8955C18.7214 25.1663 19.3604 25.3018 20.0713 25.3018C20.5622 25.3018 21.0234 25.2467 21.4551 25.1367C21.8952 25.0182 22.293 24.8574 22.6484 24.6543C23.0039 24.4512 23.3213 24.2142 23.6006 23.9434C23.8799 23.6641 24.1169 23.3636 24.3115 23.042L24.4639 23.1182L23.5244 25.3779C23.0674 25.6149 22.5215 25.818 21.8867 25.9873C21.252 26.1481 20.4902 26.2285 19.6016 26.2285ZM17.9131 18.4844C18.7594 18.4844 19.6058 18.4844 20.4521 18.4844C21.307 18.4759 22.0814 18.459 22.7754 18.4336C22.6992 17.6973 22.5553 17.0371 22.3438 16.4531C22.1322 15.8691 21.8613 15.374 21.5312 14.9678C21.2012 14.5615 20.8118 14.2484 20.3633 14.0283C19.9147 13.8083 19.4196 13.6982 18.8779 13.6982C18.387 13.6982 17.9342 13.8083 17.5195 14.0283C17.1133 14.2399 16.7578 14.5488 16.4531 14.9551C16.1484 15.3613 15.903 15.8607 15.7168 16.4531C15.5306 17.0371 15.4206 17.7057 15.3867 18.459C15.7676 18.4759 16.1696 18.4844 16.5928 18.4844C17.016 18.4844 17.4561 18.4844 17.9131 18.4844ZM32.9189 31.8018C33.6045 31.8018 34.1842 31.7256 34.6582 31.5732C35.1322 31.4294 35.5215 31.2262 35.8262 30.9639C36.1393 30.7015 36.3763 30.3841 36.5371 30.0117C36.7064 29.6478 36.8291 29.2458 36.9053 28.8057C36.9899 28.3656 37.0365 27.8958 37.0449 27.3965C37.0618 26.8971 37.0703 26.3809 37.0703 25.8477V25.4287C36.6556 25.6488 36.1562 25.8392 35.5723 26C34.9883 26.1523 34.3281 26.2285 33.5918 26.2285C32.5846 26.2285 31.6706 26.0719 30.8496 25.7588C30.0286 25.4456 29.3262 24.9971 28.7422 24.4131C28.1667 23.8291 27.7223 23.1224 27.4092 22.293C27.096 21.4551 26.9395 20.5156 26.9395 19.4746C26.9395 18.5182 27.0918 17.6296 27.3965 16.8086C27.7096 15.9876 28.1455 15.2767 28.7041 14.6758C29.2712 14.0749 29.944 13.6051 30.7227 13.2666C31.5098 12.9196 32.3773 12.7461 33.3252 12.7461C33.7314 12.7461 34.1038 12.7799 34.4424 12.8477C34.7809 12.9154 35.0941 13.0085 35.3818 13.127C35.6781 13.237 35.9531 13.3682 36.207 13.5205C36.4694 13.6644 36.7233 13.821 36.9688 13.9902L36.8418 13.0508V13H39.6475V13.0508C39.5967 13.2285 39.5459 13.4486 39.4951 13.7109C39.4528 13.9733 39.4147 14.2992 39.3809 14.6885C39.3555 15.0778 39.3301 15.5433 39.3047 16.085C39.2878 16.6182 39.2793 17.2445 39.2793 17.9639V26.5967C39.2793 27.3753 39.1735 28.1328 38.9619 28.8691C38.7588 29.6139 38.4076 30.2741 37.9082 30.8496C37.4173 31.4251 36.7656 31.8864 35.9531 32.2334C35.1406 32.5804 34.1292 32.7539 32.9189 32.7539C32.4958 32.7539 32.0684 32.7116 31.6367 32.627C31.2051 32.5508 30.7946 32.4535 30.4053 32.335C30.016 32.2249 29.6647 32.1022 29.3516 31.9668C29.0384 31.8314 28.7887 31.7129 28.6025 31.6113L28.209 29.1738L28.4121 29.123C28.6152 29.5632 28.8903 29.9482 29.2373 30.2783C29.5928 30.6169 29.9779 30.8962 30.3926 31.1162C30.8073 31.3447 31.2347 31.514 31.6748 31.624C32.1234 31.7425 32.5381 31.8018 32.9189 31.8018ZM34.1631 25.3018C34.7725 25.3018 35.3226 25.2002 35.8135 24.9971C36.3128 24.7939 36.7318 24.557 37.0703 24.2861V17.9639C37.0703 17.4899 37.0661 17.0625 37.0576 16.6816C37.0492 16.2923 37.0449 15.9411 37.0449 15.6279C36.8418 15.3148 36.6048 15.0397 36.334 14.8027C36.0716 14.5573 35.7881 14.3542 35.4834 14.1934C35.1872 14.0241 34.8825 13.8971 34.5693 13.8125C34.2562 13.7194 33.9473 13.6729 33.6426 13.6729C32.9993 13.6729 32.4196 13.7913 31.9033 14.0283C31.387 14.2653 30.9469 14.6081 30.583 15.0566C30.2275 15.4967 29.9525 16.0384 29.7578 16.6816C29.5716 17.3164 29.4785 18.04 29.4785 18.8525C29.4785 19.7666 29.5801 20.6172 29.7832 21.4043C29.9863 22.1914 30.2826 22.877 30.6719 23.4609C31.0697 24.0365 31.5605 24.4893 32.1445 24.8193C32.7285 25.141 33.4014 25.3018 34.1631 25.3018ZM43.1895 11.9844C43.1895 11.265 43.1768 10.6387 43.1514 10.1055C43.1344 9.5638 43.109 9.09831 43.0752 8.70898C43.0498 8.31966 43.0117 7.99382 42.9609 7.73145C42.9186 7.46908 42.8721 7.24902 42.8213 7.07129V7.02051H45.7539V7.07129C45.7031 7.24902 45.6566 7.46908 45.6143 7.73145C45.5719 7.99382 45.5339 8.31966 45.5 8.70898C45.4661 9.09831 45.4408 9.5638 45.4238 10.1055C45.4069 10.6387 45.3984 11.265 45.3984 11.9844V18.3066L49.5498 14.5869C50.2777 13.9521 50.6416 13.4232 50.6416 13H53.5869V13.0508C53.3669 13.1185 53.1553 13.2074 52.9521 13.3174C52.7575 13.4189 52.5586 13.5417 52.3555 13.6855C52.1608 13.8294 51.9535 13.9945 51.7334 14.1807C51.5218 14.3584 51.2891 14.5615 51.0352 14.79L47.3154 18.1797L52.4189 24.21C52.5713 24.3962 52.7363 24.5866 52.9141 24.7812C53.0918 24.9674 53.2695 25.141 53.4473 25.3018C53.625 25.4626 53.7985 25.6022 53.9678 25.7207C54.137 25.8392 54.2936 25.9154 54.4375 25.9492V26H50.7559C50.7559 25.7799 50.6966 25.5514 50.5781 25.3145C50.4681 25.0775 50.265 24.777 49.9688 24.4131L45.3984 18.9795V21.0361C45.3984 21.7555 45.4069 22.3861 45.4238 22.9277C45.4408 23.4609 45.4661 23.9222 45.5 24.3115C45.5339 24.7008 45.5719 25.0267 45.6143 25.2891C45.6566 25.5514 45.7031 25.7715 45.7539 25.9492V26H42.8213V25.9492C42.8721 25.7715 42.9186 25.5514 42.9609 25.2891C43.0117 25.0267 43.0498 24.7008 43.0752 24.3115C43.109 23.9222 43.1344 23.4609 43.1514 22.9277C43.1768 22.3861 43.1895 21.7555 43.1895 21.0361V11.9844ZM54.5137 19.4746C54.5137 18.5182 54.6914 17.6338 55.0469 16.8213C55.4023 16.0003 55.889 15.2894 56.5068 14.6885C57.1331 14.0876 57.8695 13.6178 58.7158 13.2793C59.5622 12.9408 60.472 12.7715 61.4453 12.7715C62.4017 12.7715 63.2988 12.9323 64.1367 13.2539C64.9831 13.5671 65.7194 14.0156 66.3457 14.5996C66.972 15.1836 67.4629 15.8945 67.8184 16.7324C68.1823 17.5703 68.3643 18.5098 68.3643 19.5508C68.3643 20.4225 68.2119 21.2604 67.9072 22.0645C67.6025 22.8685 67.154 23.5794 66.5615 24.1973C65.9691 24.8151 65.2412 25.3102 64.3779 25.6826C63.5231 26.0465 62.5371 26.2285 61.4199 26.2285C60.472 26.2285 59.5791 26.0719 58.7412 25.7588C57.9033 25.4456 57.1712 24.9971 56.5449 24.4131C55.9186 23.8291 55.4235 23.1224 55.0596 22.293C54.6956 21.4551 54.5137 20.5156 54.5137 19.4746ZM61.7119 25.3018C62.3128 25.3018 62.863 25.1833 63.3623 24.9463C63.8701 24.7093 64.306 24.3665 64.6699 23.918C65.0339 23.4694 65.3174 22.9235 65.5205 22.2803C65.7236 21.637 65.8252 20.9092 65.8252 20.0967C65.8252 19.1826 65.7279 18.3363 65.5332 17.5576C65.3385 16.7705 65.0465 16.0934 64.6572 15.5264C64.2764 14.9508 63.7939 14.5023 63.21 14.1807C62.626 13.859 61.9447 13.6982 61.166 13.6982C60.5651 13.6982 60.015 13.8167 59.5156 14.0537C59.0163 14.2822 58.5804 14.6165 58.208 15.0566C57.8441 15.4967 57.5605 16.0384 57.3574 16.6816C57.1543 17.3164 57.0527 18.04 57.0527 18.8525C57.0527 19.7666 57.1501 20.6172 57.3447 21.4043C57.5479 22.1914 57.8441 22.877 58.2334 23.4609C58.6227 24.0365 59.1051 24.4893 59.6807 24.8193C60.2646 25.141 60.9417 25.3018 61.7119 25.3018ZM76.959 15.5518L76.7812 15.5771C76.722 15.3825 76.6247 15.1751 76.4893 14.9551C76.3623 14.735 76.193 14.5319 75.9814 14.3457C75.7783 14.1595 75.5286 14.0072 75.2324 13.8887C74.9447 13.7617 74.6104 13.6982 74.2295 13.6982C73.9671 13.6982 73.7174 13.7363 73.4805 13.8125C73.252 13.8887 73.0488 14.0029 72.8711 14.1553C72.7018 14.2992 72.5664 14.4811 72.4648 14.7012C72.3633 14.9212 72.3125 15.1794 72.3125 15.4756C72.3125 15.8903 72.4395 16.2881 72.6934 16.6689C72.9557 17.0413 73.2816 17.4137 73.6709 17.7861C74.0602 18.1501 74.4792 18.5182 74.9277 18.8906C75.3848 19.263 75.8079 19.6523 76.1973 20.0586C76.5866 20.4648 76.9082 20.9007 77.1621 21.3662C77.4245 21.8232 77.5557 22.3184 77.5557 22.8516C77.5557 23.2832 77.4795 23.7064 77.3271 24.1211C77.1748 24.5273 76.9378 24.8913 76.6162 25.2129C76.3031 25.5345 75.8968 25.7969 75.3975 26C74.9066 26.1947 74.3184 26.292 73.6328 26.292C73.2266 26.292 72.8457 26.2539 72.4902 26.1777C72.1432 26.1016 71.8216 26.0085 71.5254 25.8984C71.2376 25.7799 70.9753 25.653 70.7383 25.5176C70.5098 25.3737 70.3066 25.2383 70.1289 25.1113L70.2559 22.6992H70.459C70.5436 23.097 70.6706 23.4609 70.8398 23.791C71.0091 24.1211 71.2165 24.4046 71.4619 24.6416C71.7158 24.8701 72.0036 25.0521 72.3252 25.1875C72.6468 25.3145 72.998 25.3779 73.3789 25.3779C74.0052 25.3779 74.5003 25.2044 74.8643 24.8574C75.2367 24.5104 75.4229 24.0576 75.4229 23.499C75.4229 23.0505 75.2959 22.64 75.042 22.2676C74.7965 21.8867 74.4834 21.5228 74.1025 21.1758C73.7217 20.8288 73.3112 20.4818 72.8711 20.1348C72.4395 19.7878 72.0332 19.4196 71.6523 19.0303C71.2715 18.6325 70.9541 18.2008 70.7002 17.7354C70.4548 17.2614 70.332 16.724 70.332 16.123C70.332 15.6322 70.4209 15.1836 70.5986 14.7773C70.7848 14.3626 71.0387 14.0114 71.3604 13.7236C71.6904 13.4274 72.0798 13.1989 72.5283 13.0381C72.9769 12.8773 73.4678 12.7969 74.001 12.7969C74.7035 12.7969 75.2874 12.873 75.7529 13.0254C76.2269 13.1693 76.5866 13.3089 76.832 13.4443L76.959 15.5518ZM85.0332 25.251C85.2871 25.251 85.5368 25.2044 85.7822 25.1113C86.0361 25.0182 86.2773 24.8913 86.5059 24.7305C86.7428 24.5697 86.9671 24.3877 87.1787 24.1846C87.3988 23.973 87.6019 23.7529 87.7881 23.5244L87.915 23.5879L87.0898 25.6318C86.9883 25.6826 86.8613 25.7461 86.709 25.8223C86.5651 25.89 86.3874 25.9535 86.1758 26.0127C85.9727 26.0804 85.7314 26.1354 85.4521 26.1777C85.1729 26.2285 84.8428 26.2539 84.4619 26.2539C83.3278 26.2539 82.4434 25.9492 81.8086 25.3398C81.1823 24.722 80.8691 23.7614 80.8691 22.458V13.9902L78.7363 14.0664V12.9492C78.9987 12.9661 79.3118 12.9788 79.6758 12.9873C80.0397 12.9958 80.4375 13 80.8691 13C80.8607 12.3991 80.8438 11.8701 80.8184 11.4131C80.8014 10.9476 80.776 10.5456 80.7422 10.207C80.7168 9.86003 80.6829 9.56803 80.6406 9.33105C80.5983 9.09408 80.556 8.89518 80.5137 8.73438V8.68359H83.4463V8.73438C83.3955 8.89518 83.349 9.09408 83.3066 9.33105C83.2643 9.56803 83.2262 9.85579 83.1924 10.1943C83.167 10.5329 83.1416 10.9349 83.1162 11.4004C83.0993 11.8574 83.0866 12.3906 83.0781 13C83.6113 12.9915 84.1318 12.9831 84.6396 12.9746C85.1559 12.9577 85.6214 12.9408 86.0361 12.9238C86.4593 12.8984 86.8148 12.8773 87.1025 12.8604C87.3988 12.835 87.5934 12.8138 87.6865 12.7969L87.458 14.0918C87.0264 14.0833 86.5736 14.0706 86.0996 14.0537C85.6934 14.0368 85.2279 14.0241 84.7031 14.0156C84.1784 14.0072 83.6367 13.9987 83.0781 13.9902V22.7246C83.0781 23.2493 83.1331 23.6768 83.2432 24.0068C83.3617 24.3285 83.5098 24.5824 83.6875 24.7686C83.8737 24.9548 84.0811 25.0817 84.3096 25.1494C84.5465 25.2171 84.7878 25.251 85.0332 25.251ZM88.4609 30.6338H101.461V32.1318H88.4609V30.6338ZM104.609 13V13.0508C104.592 13.0931 104.58 13.1566 104.571 13.2412C104.563 13.3258 104.559 13.402 104.559 13.4697C104.559 13.7321 104.597 14.0241 104.673 14.3457C104.749 14.6589 104.884 15.0524 105.079 15.5264L108.113 22.75L111.186 15.6279C111.312 15.3148 111.448 14.972 111.592 14.5996C111.736 14.2272 111.808 13.8506 111.808 13.4697C111.808 13.3597 111.799 13.2708 111.782 13.2031C111.765 13.127 111.748 13.0762 111.731 13.0508V13H114.017V13.0508C113.864 13.2116 113.67 13.4993 113.433 13.9141C113.204 14.3203 112.959 14.8324 112.696 15.4502L108.012 26.1777H107.263L102.921 16.0723C102.769 15.6999 102.604 15.3444 102.426 15.0059C102.257 14.6589 102.091 14.3499 101.931 14.0791C101.778 13.8083 101.643 13.584 101.524 13.4062C101.406 13.2201 101.326 13.1016 101.283 13.0508V13H104.609ZM121.545 15.5518L121.367 15.5771C121.308 15.3825 121.211 15.1751 121.075 14.9551C120.948 14.735 120.779 14.5319 120.567 14.3457C120.364 14.1595 120.115 14.0072 119.818 13.8887C119.531 13.7617 119.196 13.6982 118.815 13.6982C118.553 13.6982 118.303 13.7363 118.066 13.8125C117.838 13.8887 117.635 14.0029 117.457 14.1553C117.288 14.2992 117.152 14.4811 117.051 14.7012C116.949 14.9212 116.898 15.1794 116.898 15.4756C116.898 15.8903 117.025 16.2881 117.279 16.6689C117.542 17.0413 117.868 17.4137 118.257 17.7861C118.646 18.1501 119.065 18.5182 119.514 18.8906C119.971 19.263 120.394 19.6523 120.783 20.0586C121.173 20.4648 121.494 20.9007 121.748 21.3662C122.01 21.8232 122.142 22.3184 122.142 22.8516C122.142 23.2832 122.065 23.7064 121.913 24.1211C121.761 24.5273 121.524 24.8913 121.202 25.2129C120.889 25.5345 120.483 25.7969 119.983 26C119.493 26.1947 118.904 26.292 118.219 26.292C117.812 26.292 117.432 26.2539 117.076 26.1777C116.729 26.1016 116.408 26.0085 116.111 25.8984C115.824 25.7799 115.561 25.653 115.324 25.5176C115.096 25.3737 114.893 25.2383 114.715 25.1113L114.842 22.6992H115.045C115.13 23.097 115.257 23.4609 115.426 23.791C115.595 24.1211 115.802 24.4046 116.048 24.6416C116.302 24.8701 116.59 25.0521 116.911 25.1875C117.233 25.3145 117.584 25.3779 117.965 25.3779C118.591 25.3779 119.086 25.2044 119.45 24.8574C119.823 24.5104 120.009 24.0576 120.009 23.499C120.009 23.0505 119.882 22.64 119.628 22.2676C119.382 21.8867 119.069 21.5228 118.688 21.1758C118.308 20.8288 117.897 20.4818 117.457 20.1348C117.025 19.7878 116.619 19.4196 116.238 19.0303C115.857 18.6325 115.54 18.2008 115.286 17.7354C115.041 17.2614 114.918 16.724 114.918 16.123C114.918 15.6322 115.007 15.1836 115.185 14.7773C115.371 14.3626 115.625 14.0114 115.946 13.7236C116.276 13.4274 116.666 13.1989 117.114 13.0381C117.563 12.8773 118.054 12.7969 118.587 12.7969C119.289 12.7969 119.873 12.873 120.339 13.0254C120.813 13.1693 121.173 13.3089 121.418 13.4443L121.545 15.5518ZM130.711 26.2285C129.771 26.2285 128.891 26.0804 128.07 25.7842C127.249 25.488 126.534 25.0563 125.925 24.4893C125.315 23.9137 124.833 23.207 124.478 22.3691C124.131 21.5228 123.957 20.5579 123.957 19.4746C123.957 18.5182 124.118 17.6338 124.439 16.8213C124.761 16.0003 125.205 15.2894 125.772 14.6885C126.34 14.0876 127 13.6178 127.753 13.2793C128.515 12.9408 129.336 12.7715 130.216 12.7715C131.088 12.7715 131.896 12.9238 132.641 13.2285C133.385 13.5247 134.029 13.9606 134.57 14.5361C135.12 15.1032 135.552 15.8099 135.865 16.6562C136.187 17.4941 136.36 18.4505 136.386 19.5254C135.429 19.5085 134.473 19.4958 133.517 19.4873C132.56 19.4788 131.566 19.4746 130.533 19.4746C129.797 19.4746 129.077 19.4788 128.375 19.4873C127.681 19.4958 127.055 19.5085 126.496 19.5254C126.547 20.4056 126.682 21.2012 126.902 21.9121C127.131 22.623 127.44 23.2324 127.829 23.7402C128.227 24.2396 128.705 24.6247 129.264 24.8955C129.831 25.1663 130.47 25.3018 131.181 25.3018C131.672 25.3018 132.133 25.2467 132.564 25.1367C133.005 25.0182 133.402 24.8574 133.758 24.6543C134.113 24.4512 134.431 24.2142 134.71 23.9434C134.989 23.6641 135.226 23.3636 135.421 23.042L135.573 23.1182L134.634 25.3779C134.177 25.6149 133.631 25.818 132.996 25.9873C132.361 26.1481 131.6 26.2285 130.711 26.2285ZM129.022 18.4844C129.869 18.4844 130.715 18.4844 131.562 18.4844C132.416 18.4759 133.191 18.459 133.885 18.4336C133.809 17.6973 133.665 17.0371 133.453 16.4531C133.242 15.8691 132.971 15.374 132.641 14.9678C132.311 14.5615 131.921 14.2484 131.473 14.0283C131.024 13.8083 130.529 13.6982 129.987 13.6982C129.496 13.6982 129.044 13.8083 128.629 14.0283C128.223 14.2399 127.867 14.5488 127.562 14.9551C127.258 15.3613 127.012 15.8607 126.826 16.4531C126.64 17.0371 126.53 17.7057 126.496 18.459C126.877 18.4759 127.279 18.4844 127.702 18.4844C128.125 18.4844 128.565 18.4844 129.022 18.4844ZM144.028 31.8018C144.714 31.8018 145.294 31.7256 145.768 31.5732C146.242 31.4294 146.631 31.2262 146.936 30.9639C147.249 30.7015 147.486 30.3841 147.646 30.0117C147.816 29.6478 147.938 29.2458 148.015 28.8057C148.099 28.3656 148.146 27.8958 148.154 27.3965C148.171 26.8971 148.18 26.3809 148.18 25.8477V25.4287C147.765 25.6488 147.266 25.8392 146.682 26C146.098 26.1523 145.438 26.2285 144.701 26.2285C143.694 26.2285 142.78 26.0719 141.959 25.7588C141.138 25.4456 140.436 24.9971 139.852 24.4131C139.276 23.8291 138.832 23.1224 138.519 22.293C138.205 21.4551 138.049 20.5156 138.049 19.4746C138.049 18.5182 138.201 17.6296 138.506 16.8086C138.819 15.9876 139.255 15.2767 139.813 14.6758C140.381 14.0749 141.053 13.6051 141.832 13.2666C142.619 12.9196 143.487 12.7461 144.435 12.7461C144.841 12.7461 145.213 12.7799 145.552 12.8477C145.89 12.9154 146.203 13.0085 146.491 13.127C146.787 13.237 147.062 13.3682 147.316 13.5205C147.579 13.6644 147.833 13.821 148.078 13.9902L147.951 13.0508V13H150.757V13.0508C150.706 13.2285 150.655 13.4486 150.604 13.7109C150.562 13.9733 150.524 14.2992 150.49 14.6885C150.465 15.0778 150.439 15.5433 150.414 16.085C150.397 16.6182 150.389 17.2445 150.389 17.9639V26.5967C150.389 27.3753 150.283 28.1328 150.071 28.8691C149.868 29.6139 149.517 30.2741 149.018 30.8496C148.527 31.4251 147.875 31.8864 147.062 32.2334C146.25 32.5804 145.239 32.7539 144.028 32.7539C143.605 32.7539 143.178 32.7116 142.746 32.627C142.314 32.5508 141.904 32.4535 141.515 32.335C141.125 32.2249 140.774 32.1022 140.461 31.9668C140.148 31.8314 139.898 31.7129 139.712 31.6113L139.318 29.1738L139.521 29.123C139.725 29.5632 140 29.9482 140.347 30.2783C140.702 30.6169 141.087 30.8962 141.502 31.1162C141.917 31.3447 142.344 31.514 142.784 31.624C143.233 31.7425 143.647 31.8018 144.028 31.8018ZM145.272 25.3018C145.882 25.3018 146.432 25.2002 146.923 24.9971C147.422 24.7939 147.841 24.557 148.18 24.2861V17.9639C148.18 17.4899 148.175 17.0625 148.167 16.6816C148.159 16.2923 148.154 15.9411 148.154 15.6279C147.951 15.3148 147.714 15.0397 147.443 14.8027C147.181 14.5573 146.897 14.3542 146.593 14.1934C146.297 14.0241 145.992 13.8971 145.679 13.8125C145.366 13.7194 145.057 13.6729 144.752 13.6729C144.109 13.6729 143.529 13.7913 143.013 14.0283C142.496 14.2653 142.056 14.6081 141.692 15.0566C141.337 15.4967 141.062 16.0384 140.867 16.6816C140.681 17.3164 140.588 18.04 140.588 18.8525C140.588 19.7666 140.689 20.6172 140.893 21.4043C141.096 22.1914 141.392 22.877 141.781 23.4609C142.179 24.0365 142.67 24.4893 143.254 24.8193C143.838 25.141 144.511 25.3018 145.272 25.3018ZM160.088 12.7715C160.435 12.7715 160.782 12.8011 161.129 12.8604C161.476 12.9196 161.814 13.0042 162.145 13.1143C162.475 13.2243 162.788 13.3597 163.084 13.5205C163.38 13.6813 163.647 13.8633 163.884 14.0664V11.9844C163.884 11.265 163.875 10.6387 163.858 10.1055C163.841 9.5638 163.816 9.09831 163.782 8.70898C163.748 8.31966 163.71 7.99382 163.668 7.73145C163.626 7.46908 163.579 7.24902 163.528 7.07129V7.02051H166.461V7.07129C166.41 7.24902 166.359 7.46908 166.309 7.73145C166.266 7.99382 166.228 8.31966 166.194 8.70898C166.169 9.09831 166.144 9.5638 166.118 10.1055C166.101 10.6387 166.093 11.265 166.093 11.9844V21.0361C166.093 21.7555 166.101 22.3861 166.118 22.9277C166.144 23.4609 166.169 23.9222 166.194 24.3115C166.228 24.7008 166.266 25.0267 166.309 25.2891C166.359 25.5514 166.41 25.7715 166.461 25.9492V26H163.655V25.9492C163.681 25.8815 163.702 25.7842 163.719 25.6572C163.736 25.5218 163.757 25.3568 163.782 25.1621C163.351 25.4329 162.809 25.6784 162.157 25.8984C161.506 26.1185 160.748 26.2285 159.885 26.2285C158.878 26.2285 157.964 26.0719 157.143 25.7588C156.322 25.4456 155.619 24.9971 155.035 24.4131C154.46 23.8291 154.015 23.1224 153.702 22.293C153.389 21.4551 153.232 20.5156 153.232 19.4746C153.232 18.5182 153.402 17.6338 153.74 16.8213C154.079 16.0003 154.553 15.2894 155.162 14.6885C155.771 14.0876 156.495 13.6178 157.333 13.2793C158.171 12.9408 159.089 12.7715 160.088 12.7715ZM163.884 16.3008C163.545 15.4121 163.059 14.7562 162.424 14.333C161.798 13.9098 161.091 13.6982 160.304 13.6982C159.644 13.6982 159.034 13.8167 158.476 14.0537C157.917 14.2822 157.439 14.6165 157.041 15.0566C156.643 15.4967 156.33 16.0384 156.102 16.6816C155.882 17.3164 155.771 18.04 155.771 18.8525C155.771 19.7666 155.873 20.6172 156.076 21.4043C156.279 22.1914 156.576 22.877 156.965 23.4609C157.363 24.0365 157.854 24.4893 158.438 24.8193C159.021 25.141 159.694 25.3018 160.456 25.3018C160.854 25.3018 161.226 25.2552 161.573 25.1621C161.92 25.069 162.238 24.9505 162.525 24.8066C162.813 24.6628 163.067 24.5062 163.287 24.3369C163.507 24.1592 163.689 23.9857 163.833 23.8164C163.85 23.4525 163.863 23.0378 163.871 22.5723C163.88 22.1068 163.884 21.5947 163.884 21.0361V16.3008ZM169 22.2549C169 21.5863 169.135 21.0065 169.406 20.5156C169.686 20.0247 170.054 19.6058 170.511 19.2588C170.968 18.9118 171.488 18.6325 172.072 18.4209C172.656 18.2008 173.261 18.0316 173.888 17.9131C174.514 17.7861 175.132 17.7015 175.741 17.6592C176.351 17.6084 176.909 17.5788 177.417 17.5703V16.9229C177.417 16.3643 177.345 15.8818 177.201 15.4756C177.057 15.0693 176.854 14.735 176.592 14.4727C176.329 14.2018 176.012 14.0029 175.64 13.876C175.276 13.7406 174.874 13.6729 174.434 13.6729C174.129 13.6729 173.828 13.6982 173.532 13.749C173.236 13.7998 172.927 13.8844 172.605 14.0029C172.292 14.1214 171.958 14.2822 171.603 14.4854C171.256 14.6885 170.879 14.9466 170.473 15.2598L170.346 15.1836L171.209 13.3936C171.488 13.2666 171.763 13.165 172.034 13.0889C172.305 13.0042 172.58 12.9365 172.859 12.8857C173.139 12.835 173.422 12.8011 173.71 12.7842C174.006 12.7588 174.315 12.7461 174.637 12.7461C175.525 12.7461 176.283 12.8561 176.909 13.0762C177.544 13.2878 178.06 13.584 178.458 13.9648C178.864 14.3372 179.16 14.7773 179.347 15.2852C179.533 15.7845 179.626 16.3219 179.626 16.8975V21.0361C179.626 21.7555 179.634 22.3861 179.651 22.9277C179.677 23.4609 179.702 23.9222 179.728 24.3115C179.761 24.7008 179.799 25.0267 179.842 25.2891C179.893 25.5514 179.943 25.7715 179.994 25.9492V26H177.188V25.9492C177.231 25.8138 177.26 25.6615 177.277 25.4922C177.303 25.3229 177.324 25.1198 177.341 24.8828C177.163 25.0352 176.951 25.1917 176.706 25.3525C176.469 25.5133 176.194 25.6615 175.881 25.7969C175.576 25.9238 175.233 26.0254 174.853 26.1016C174.48 26.1862 174.07 26.2285 173.621 26.2285C172.148 26.2285 171.01 25.8857 170.206 25.2002C169.402 24.5062 169 23.5244 169 22.2549ZM177.417 18.5605C176.647 18.569 175.906 18.6156 175.195 18.7002C174.484 18.7764 173.854 18.9414 173.304 19.1953C172.762 19.4492 172.326 19.8132 171.996 20.2871C171.674 20.7526 171.514 21.3747 171.514 22.1533C171.514 23.152 171.763 23.9137 172.263 24.4385C172.762 24.9632 173.452 25.2256 174.332 25.2256C174.738 25.2256 175.106 25.1706 175.437 25.0605C175.775 24.9421 176.071 24.7982 176.325 24.6289C176.588 24.4512 176.808 24.2607 176.985 24.0576C177.163 23.846 177.299 23.6429 177.392 23.4482C177.409 23.1266 177.417 22.7712 177.417 22.3818C177.417 21.984 177.417 21.5355 177.417 21.0361V18.5605Z" fill="#222222"/>
<path d="M8.868 53H7.874L2.96 48.17V53H2.218V43.2H2.96V47.764L7.734 43.2H8.728L3.772 47.96L8.868 53ZM14.7899 46H15.5459L12.5219 53.644C12.2512 54.3347 11.8686 54.876 11.3739 55.268C10.8792 55.6693 10.3379 55.8467 9.74989 55.8V55.142C10.1979 55.1793 10.5992 55.0487 10.9539 54.75C11.3179 54.4607 11.6119 54.0453 11.8359 53.504L11.9899 53.126L8.76989 46H9.52589L12.3539 52.23L14.7899 46ZM20.5126 45.846C21.5206 45.846 22.3746 46.2007 23.0746 46.91C23.7839 47.61 24.1386 48.4733 24.1386 49.5C24.1386 50.5267 23.7839 51.3947 23.0746 52.104C22.3746 52.804 21.5206 53.154 20.5126 53.154C19.8499 53.154 19.2526 52.9953 18.7206 52.678C18.1979 52.3607 17.7919 51.9267 17.5026 51.376V55.8H16.8026V46H17.5026V47.624C17.7919 47.0733 18.1979 46.6393 18.7206 46.322C19.2526 46.0047 19.8499 45.846 20.5126 45.846ZM18.3566 51.614C18.9353 52.1927 19.6399 52.482 20.4706 52.482C21.3013 52.482 22.0013 52.1927 22.5706 51.614C23.1493 51.0353 23.4386 50.3307 23.4386 49.5C23.4386 48.6693 23.1493 47.9647 22.5706 47.386C22.0013 46.8073 21.3013 46.518 20.4706 46.518C19.6399 46.518 18.9353 46.8073 18.3566 47.386C17.7873 47.9647 17.5026 48.6693 17.5026 49.5C17.5026 50.3307 17.7873 51.0353 18.3566 51.614ZM29.032 53.154C27.9774 53.154 27.1 52.804 26.4 52.104C25.7 51.404 25.35 50.536 25.35 49.5C25.35 48.464 25.7 47.596 26.4 46.896C27.1 46.196 27.9774 45.846 29.032 45.846C29.7134 45.846 30.3294 46.0093 30.88 46.336C31.4307 46.6533 31.832 47.0873 32.084 47.638L31.51 47.974C31.3047 47.526 30.978 47.1713 30.53 46.91C30.0914 46.6487 29.592 46.518 29.032 46.518C28.192 46.518 27.4874 46.8073 26.918 47.386C26.3487 47.9553 26.064 48.66 26.064 49.5C26.064 50.34 26.3487 51.0493 26.918 51.628C27.4874 52.1973 28.192 52.482 29.032 52.482C29.592 52.482 30.0914 52.3513 30.53 52.09C30.978 51.8287 31.3187 51.474 31.552 51.026L32.14 51.376C31.86 51.9173 31.44 52.3513 30.88 52.678C30.3294 52.9953 29.7134 53.154 29.032 53.154ZM43.1881 46V53H42.4741V46.686H38.1061V53H37.4061V46H43.1881ZM48.5555 53.154C47.5288 53.154 46.6562 52.804 45.9375 52.104C45.2282 51.3947 44.8735 50.5267 44.8735 49.5C44.8735 48.4733 45.2282 47.61 45.9375 46.91C46.6562 46.2007 47.5288 45.846 48.5555 45.846C49.5728 45.846 50.4362 46.2007 51.1455 46.91C51.8642 47.61 52.2235 48.4733 52.2235 49.5C52.2235 50.5267 51.8642 51.3947 51.1455 52.104C50.4362 52.804 49.5728 53.154 48.5555 53.154ZM46.4415 51.614C47.0202 52.1927 47.7248 52.482 48.5555 52.482C49.3862 52.482 50.0862 52.1927 50.6555 51.614C51.2248 51.0353 51.5095 50.3307 51.5095 49.5C51.5095 48.6693 51.2248 47.9647 50.6555 47.386C50.0862 46.8073 49.3862 46.518 48.5555 46.518C47.7248 46.518 47.0202 46.8073 46.4415 47.386C45.8722 47.9647 45.5875 48.6693 45.5875 49.5C45.5875 50.3307 45.8722 51.0353 46.4415 51.614ZM59.3186 46V53H58.6186V46.686H55.0906V50.06C55.0906 51.1987 54.8806 51.9873 54.4606 52.426C54.0406 52.8647 53.4666 53.056 52.7386 53V52.342C53.2986 52.3887 53.714 52.2393 53.9846 51.894C54.2553 51.5487 54.3906 50.9373 54.3906 50.06V46H59.3186ZM64.6186 45.846C65.6453 45.846 66.476 46.21 67.1106 46.938C67.7546 47.666 68.0766 48.5293 68.0766 49.528C68.0766 49.5653 68.072 49.6213 68.0626 49.696C68.0626 49.7707 68.0626 49.8267 68.0626 49.864H61.7206C61.8046 50.648 62.1173 51.2827 62.6586 51.768C63.2093 52.244 63.886 52.482 64.6886 52.482C65.2486 52.482 65.7386 52.3653 66.1586 52.132C66.5786 51.8987 66.896 51.5907 67.1106 51.208L67.7266 51.572C67.4373 52.0573 67.0266 52.4447 66.4946 52.734C65.9626 53.014 65.356 53.154 64.6746 53.154C63.6013 53.154 62.7193 52.8133 62.0286 52.132C61.338 51.4413 60.9926 50.564 60.9926 49.5C60.9926 48.4547 61.3286 47.5867 62.0006 46.896C62.682 46.196 63.5546 45.846 64.6186 45.846ZM64.6186 46.518C63.8253 46.518 63.1626 46.7653 62.6306 47.26C62.0986 47.7547 61.7953 48.394 61.7206 49.178H67.3486C67.274 48.3473 66.9753 47.6987 66.4526 47.232C65.9393 46.756 65.328 46.518 64.6186 46.518ZM72.936 49.388C73.356 49.528 73.6827 49.752 73.916 50.06C74.1494 50.368 74.266 50.7227 74.266 51.124C74.266 51.6933 74.042 52.174 73.594 52.566C73.146 52.958 72.5114 53.154 71.69 53.154C70.29 53.154 69.38 52.6033 68.96 51.502L69.562 51.152C69.8607 52.0387 70.57 52.482 71.69 52.482C72.2687 52.482 72.7214 52.356 73.048 52.104C73.384 51.8427 73.552 51.502 73.552 51.082C73.552 50.6993 73.412 50.3913 73.132 50.158C72.852 49.9153 72.4787 49.794 72.012 49.794H71.046V49.108H71.746C72.2034 49.108 72.5627 48.9913 72.824 48.758C73.0854 48.5247 73.216 48.212 73.216 47.82C73.216 47.4467 73.062 47.1387 72.754 46.896C72.4554 46.644 72.0587 46.518 71.564 46.518C70.612 46.518 69.982 46.896 69.674 47.652L69.086 47.316C69.282 46.868 69.59 46.5133 70.01 46.252C70.43 45.9813 70.948 45.846 71.564 45.846C72.2827 45.846 72.852 46.0373 73.272 46.42C73.7014 46.7933 73.916 47.2507 73.916 47.792C73.916 48.548 73.5894 49.08 72.936 49.388ZM80.8784 46H81.5924V53H80.8784V49.836H76.5104V53H75.8104V46H76.5104V49.164H80.8784V46ZM86.5258 48.716C87.1698 48.716 87.7158 48.9167 88.1638 49.318C88.6118 49.7193 88.8358 50.2327 88.8358 50.858C88.8358 51.4833 88.6118 51.9967 88.1638 52.398C87.7158 52.7993 87.1698 53 86.5258 53H83.7538V46H84.4538V48.716H86.5258ZM89.9138 46H90.6138V53H89.9138V46ZM86.5258 52.314C86.9738 52.314 87.3518 52.1787 87.6598 51.908C87.9678 51.6373 88.1218 51.2873 88.1218 50.858C88.1218 50.4193 87.9678 50.0693 87.6598 49.808C87.3611 49.5373 86.9831 49.402 86.5258 49.402H84.4538V52.314H86.5258ZM98.4475 53H97.5935L95.2275 49.948L92.8615 53H92.0075L94.8075 49.402L92.1755 46H93.0295L95.2275 48.842L97.4395 46H98.2795L95.6615 49.388L98.4475 53ZM106.798 53.154C105.743 53.154 104.866 52.804 104.166 52.104C103.466 51.404 103.116 50.536 103.116 49.5C103.116 48.464 103.466 47.596 104.166 46.896C104.866 46.196 105.743 45.846 106.798 45.846C107.479 45.846 108.095 46.0093 108.646 46.336C109.196 46.6533 109.598 47.0873 109.85 47.638L109.276 47.974C109.07 47.526 108.744 47.1713 108.296 46.91C107.857 46.6487 107.358 46.518 106.798 46.518C105.958 46.518 105.253 46.8073 104.684 47.386C104.114 47.9553 103.83 48.66 103.83 49.5C103.83 50.34 104.114 51.0493 104.684 51.628C105.253 52.1973 105.958 52.482 106.798 52.482C107.358 52.482 107.857 52.3513 108.296 52.09C108.744 51.8287 109.084 51.474 109.318 51.026L109.906 51.376C109.626 51.9173 109.206 52.3513 108.646 52.678C108.095 52.9953 107.479 53.154 106.798 53.154ZM116.987 46V53H116.287V46.686H112.759V50.06C112.759 51.1987 112.549 51.9873 112.129 52.426C111.709 52.8647 111.135 53.056 110.407 53V52.342C110.967 52.3887 111.382 52.2393 111.653 51.894C111.923 51.5487 112.059 50.9373 112.059 50.06V46H116.987ZM125.297 46H126.011V53H125.297V51.418C124.998 51.9593 124.587 52.384 124.065 52.692C123.542 53 122.949 53.154 122.287 53.154C121.288 53.154 120.434 52.804 119.725 52.104C119.015 51.3947 118.661 50.5267 118.661 49.5C118.661 48.4733 119.015 47.61 119.725 46.91C120.434 46.2007 121.288 45.846 122.287 45.846C122.949 45.846 123.542 46 124.065 46.308C124.587 46.616 124.998 47.0407 125.297 47.582V46ZM120.229 51.614C120.807 52.1927 121.512 52.482 122.343 52.482C123.173 52.482 123.873 52.1927 124.443 51.614C125.012 51.0353 125.297 50.3307 125.297 49.5C125.297 48.6693 125.012 47.9647 124.443 47.386C123.873 46.8073 123.173 46.518 122.343 46.518C121.512 46.518 120.807 46.8073 120.229 47.386C119.659 47.9647 119.375 48.6693 119.375 49.5C119.375 50.3307 119.659 51.0353 120.229 51.614ZM133.9 52.314H134.88V54.876H134.166V53H128.118V54.876H127.404V52.314H128.216C128.729 51.614 128.986 50.676 128.986 49.5V46H133.9V52.314ZM129.084 52.314H133.186V46.686H129.686V49.5C129.686 50.648 129.485 51.586 129.084 52.314ZM139.35 53.154C138.324 53.154 137.451 52.804 136.732 52.104C136.023 51.3947 135.668 50.5267 135.668 49.5C135.668 48.4733 136.023 47.61 136.732 46.91C137.451 46.2007 138.324 45.846 139.35 45.846C140.368 45.846 141.231 46.2007 141.94 46.91C142.659 47.61 143.018 48.4733 143.018 49.5C143.018 50.5267 142.659 51.3947 141.94 52.104C141.231 52.804 140.368 53.154 139.35 53.154ZM137.236 51.614C137.815 52.1927 138.52 52.482 139.35 52.482C140.181 52.482 140.881 52.1927 141.45 51.614C142.02 51.0353 142.304 50.3307 142.304 49.5C142.304 48.6693 142.02 47.9647 141.45 47.386C140.881 46.8073 140.181 46.518 139.35 46.518C138.52 46.518 137.815 46.8073 137.236 47.386C136.667 47.9647 136.382 48.6693 136.382 49.5C136.382 50.3307 136.667 51.0353 137.236 51.614ZM147.909 53.154C146.854 53.154 145.977 52.804 145.277 52.104C144.577 51.404 144.227 50.536 144.227 49.5C144.227 48.464 144.577 47.596 145.277 46.896C145.977 46.196 146.854 45.846 147.909 45.846C148.59 45.846 149.206 46.0093 149.757 46.336C150.308 46.6533 150.709 47.0873 150.961 47.638L150.387 47.974C150.182 47.526 149.855 47.1713 149.407 46.91C148.968 46.6487 148.469 46.518 147.909 46.518C147.069 46.518 146.364 46.8073 145.795 47.386C145.226 47.9553 144.941 48.66 144.941 49.5C144.941 50.34 145.226 51.0493 145.795 51.628C146.364 52.1973 147.069 52.482 147.909 52.482C148.469 52.482 148.968 52.3513 149.407 52.09C149.855 51.8287 150.196 51.474 150.429 51.026L151.017 51.376C150.737 51.9173 150.317 52.3513 149.757 52.678C149.206 52.9953 148.59 53.154 147.909 53.154ZM157.314 46V46.686H154.766V53H154.066V46.686H151.518V46H157.314ZM161.457 45.846C162.483 45.846 163.314 46.21 163.949 46.938C164.593 47.666 164.915 48.5293 164.915 49.528C164.915 49.5653 164.91 49.6213 164.901 49.696C164.901 49.7707 164.901 49.8267 164.901 49.864H158.559C158.643 50.648 158.955 51.2827 159.497 51.768C160.047 52.244 160.724 52.482 161.527 52.482C162.087 52.482 162.577 52.3653 162.997 52.132C163.417 51.8987 163.734 51.5907 163.949 51.208L164.565 51.572C164.275 52.0573 163.865 52.4447 163.333 52.734C162.801 53.014 162.194 53.154 161.513 53.154C160.439 53.154 159.557 52.8133 158.867 52.132C158.176 51.4413 157.831 50.564 157.831 49.5C157.831 48.4547 158.167 47.5867 158.839 46.896C159.52 46.196 160.393 45.846 161.457 45.846ZM161.457 46.518C160.663 46.518 160.001 46.7653 159.469 47.26C158.937 47.7547 158.633 48.394 158.559 49.178H164.187C164.112 48.3473 163.813 47.6987 163.291 47.232C162.777 46.756 162.166 46.518 161.457 46.518ZM167.657 44.782V44.166H171.199V44.782H167.657ZM171.717 46H172.333V53H171.619V47.218L167.167 53H166.551V46H167.251V51.782L171.717 46Z" fill="#919191"/>
</svg>
