<svg width="30" height="40" viewBox="0 0 30 40" fill="none" xmlns="http://www.w3.org/2000/svg">
<path d="M29.1666 15H26.6666V11.6666C26.6666 5.23359 21.4331 0 15 0C8.56687 0 3.33336 5.23359 3.33336 11.6666V15H0.833359C0.372734 15 0 15.3727 0 15.8334V36.6667C0 38.5051 1.49492 40 3.33336 40H26.6667C28.5051 40 30 38.5051 30 36.6666V15.8334C30 15.3727 29.6273 15 29.1666 15ZM17.4952 32.408C17.5212 32.6432 17.4455 32.8792 17.2877 33.0559C17.1298 33.2324 16.9035 33.3334 16.6667 33.3334H13.3334C13.0966 33.3334 12.8703 33.2324 12.7124 33.0559C12.5545 32.8793 12.4788 32.6433 12.5049 32.408L13.0306 27.6807C12.177 27.0598 11.6667 26.0775 11.6667 25C11.6667 23.1616 13.1616 21.6666 15.0001 21.6666C16.8385 21.6666 18.3334 23.1616 18.3334 25C18.3334 26.0775 17.8232 27.0598 16.9695 27.6807L17.4952 32.408ZM21.6666 15H8.33336V11.6666C8.33336 7.9907 11.3241 5 15 5C18.6759 5 21.6666 7.9907 21.6666 11.6666V15Z" fill="white"/>
</svg>
