<svg width="20" height="20" viewBox="0 0 20 20" fill="none" xmlns="http://www.w3.org/2000/svg">
<path d="M14.5862 0H5.41382C2.42859 0 0 2.42859 0 5.41382V14.5863C0 17.5714 2.42859 20 5.41382 20H14.5863C17.5714 20 20 17.5714 20 14.5863V5.41382C20 2.42859 17.5714 0 14.5862 0V0ZM10 15.4686C6.98456 15.4686 4.5314 13.0154 4.5314 10C4.5314 6.98456 6.98456 4.5314 10 4.5314C13.0154 4.5314 15.4686 6.98456 15.4686 10C15.4686 13.0154 13.0154 15.4686 10 15.4686ZM15.5994 5.82108C14.7083 5.82108 13.9835 5.09628 13.9835 4.20517C13.9835 3.31406 14.7083 2.58911 15.5994 2.58911C16.4905 2.58911 17.2154 3.31406 17.2154 4.20517C17.2154 5.09628 16.4905 5.82108 15.5994 5.82108Z" fill="url(#paint0_linear)"/>
<defs>
<linearGradient id="paint0_linear" x1="23.0233" y1="15" x2="1.36738" y2="14.1036" gradientUnits="userSpaceOnUse">
<stop offset="0.0218751" stop-color="#FFEC85"/>
<stop offset="1" stop-color="#F6BF40"/>
</linearGradient>
</defs>
</svg>
