<svg width="36" height="20" viewBox="0 0 36 20" fill="none" xmlns="http://www.w3.org/2000/svg">
<path d="M34.7399 17.8387C34.6457 17.681 34.0629 16.4146 31.2585 13.8118C28.3226 11.0863 28.717 11.5289 32.2532 6.81617C34.4069 3.94605 35.2679 2.19331 34.9984 1.44401C34.7421 0.729766 33.158 0.918186 33.158 0.918186L27.891 0.948858C27.891 0.948858 27.501 0.896276 27.2097 1.06936C26.927 1.24025 26.7452 1.63462 26.7452 1.63462C26.7452 1.63462 25.9104 3.85622 24.7974 5.7448C22.451 9.73011 21.511 9.94044 21.1276 9.69286C20.2359 9.11665 20.4594 7.37486 20.4594 6.13917C20.4594 2.27656 21.0444 0.666228 19.3179 0.249952C18.7439 0.111923 18.3232 0.019904 16.8575 0.00456746C14.9777 -0.0151509 13.3849 0.0111402 12.4844 0.451517C11.8841 0.745102 11.4218 1.40019 11.7044 1.43744C12.0528 1.48345 12.8415 1.64996 13.26 2.2196C13.8012 2.95356 13.7814 4.60552 13.7814 4.60552C13.7814 4.60552 14.0926 9.1517 13.0562 9.71696C12.3442 10.1048 11.3692 9.31383 9.27689 5.6966C8.20552 3.84527 7.39488 1.79675 7.39488 1.79675C7.39488 1.79675 7.23932 1.41553 6.96107 1.21177C6.62367 0.964195 6.15043 0.885322 6.15043 0.885322L1.14196 0.915995C1.14196 0.915995 0.390475 0.937904 0.114418 1.26435C-0.130967 1.55575 0.0946991 2.15606 0.0946991 2.15606C0.0946991 2.15606 4.01646 11.3295 8.45529 15.9545C12.5282 20.194 17.1511 19.9157 17.1511 19.9157H19.2456C19.2456 19.9157 19.8788 19.8456 20.2009 19.4973C20.4988 19.1774 20.4879 18.5771 20.4879 18.5771C20.4879 18.5771 20.4463 15.7661 21.752 15.352C23.0381 14.9445 24.6901 18.0688 26.4406 19.2716C27.764 20.1808 28.7696 19.9815 28.7696 19.9815L33.4516 19.9157C33.4516 19.9157 35.9011 19.7646 34.7399 17.8387Z" fill="white"/>
</svg>
