<svg width="144" height="144" viewBox="0 0 144 144" fill="none" xmlns="http://www.w3.org/2000/svg">
<circle cx="72" cy="72" r="72" fill="white"/>
<path d="M102 73.25C102 72.2611 101.707 71.2944 101.157 70.4721C100.608 69.6499 99.8271 69.009 98.9134 68.6306C97.9998 68.2522 96.9945 68.1531 96.0246 68.3461C95.0547 68.539 94.1637 69.0152 93.4645 69.7145C92.7652 70.4137 92.289 71.3046 92.0961 72.2745C91.9031 73.2444 92.0022 74.2498 92.3806 75.1634C92.759 76.077 93.3999 76.8579 94.2222 77.4073C95.0444 77.9568 96.0111 78.25 97 78.25C98.3256 78.2485 99.5965 77.7212 100.534 76.7839C101.471 75.8465 101.999 74.5756 102 73.25ZM94.5 73.25C94.5 72.7555 94.6466 72.2722 94.9213 71.8611C95.196 71.4499 95.5865 71.1295 96.0433 70.9403C96.5001 70.7511 97.0028 70.7016 97.4877 70.798C97.9727 70.8945 98.4181 71.1326 98.7678 71.4822C99.1174 71.8319 99.3555 72.2773 99.452 72.7623C99.5484 73.2472 99.4989 73.7499 99.3097 74.2067C99.1205 74.6635 98.8001 75.054 98.3889 75.3287C97.9778 75.6034 97.4945 75.75 97 75.75C96.3372 75.7492 95.7018 75.4856 95.2331 75.0169C94.7644 74.5482 94.5008 73.9128 94.5 73.25Z" fill="black"/>
<path d="M102 40.75C100.517 40.75 99.0666 41.1899 97.8332 42.014C96.5999 42.8381 95.6386 44.0094 95.0709 45.3799C94.5032 46.7503 94.3547 48.2583 94.6441 49.7132C94.9335 51.168 95.6478 52.5044 96.6967 53.5533C97.7456 54.6022 99.082 55.3165 100.537 55.6059C101.992 55.8953 103.5 55.7467 104.87 55.1791C106.241 54.6114 107.412 53.6501 108.236 52.4168C109.06 51.1834 109.5 49.7334 109.5 48.25C109.498 46.2616 108.707 44.3552 107.301 42.9492C105.895 41.5432 103.988 40.7523 102 40.75ZM102 53.25C101.011 53.25 100.044 52.9567 99.2222 52.4073C98.3999 51.8579 97.759 51.077 97.3806 50.1634C97.0022 49.2498 96.9032 48.2445 97.0961 47.2745C97.289 46.3046 97.7652 45.4137 98.4645 44.7145C99.1637 44.0152 100.055 43.539 101.025 43.3461C101.994 43.1531 103 43.2522 103.913 43.6306C104.827 44.009 105.608 44.6499 106.157 45.4721C106.707 46.2944 107 47.2611 107 48.25C106.999 49.5756 106.471 50.8465 105.534 51.7839C104.597 52.7212 103.326 53.2485 102 53.25Z" fill="black"/>
<path d="M84.5 65.75C85.7361 65.75 86.9445 65.3834 87.9723 64.6967C89.0001 64.0099 89.8012 63.0338 90.2743 61.8918C90.7473 60.7497 90.8711 59.4931 90.6299 58.2807C90.3888 57.0683 89.7935 55.9546 88.9194 55.0806C88.0453 54.2065 86.9317 53.6112 85.7193 53.3701C84.5069 53.1289 83.2503 53.2527 82.1082 53.7257C80.9662 54.1988 79.9901 54.9999 79.3033 56.0277C78.6166 57.0555 78.25 58.2639 78.25 59.5C78.2519 61.157 78.9109 62.7456 80.0826 63.9173C81.2543 65.089 82.843 65.7481 84.5 65.75ZM84.5 55.75C85.2417 55.75 85.9667 55.9699 86.5834 56.382C87.2001 56.794 87.6807 57.3797 87.9646 58.0649C88.2484 58.7501 88.3226 59.5041 88.178 60.2316C88.0333 60.959 87.6761 61.6272 87.1517 62.1516C86.6272 62.6761 85.959 63.0332 85.2316 63.1779C84.5042 63.3226 83.7502 63.2484 83.0649 62.9645C82.3797 62.6807 81.794 62.2001 81.382 61.5834C80.9699 60.9667 80.75 60.2417 80.75 59.5C80.7512 58.5058 81.1466 57.5526 81.8496 56.8496C82.5526 56.1466 83.5058 55.7511 84.5 55.75Z" fill="black"/>
<path d="M67 68.25H52C51.6685 68.25 51.3505 68.3817 51.1161 68.6161C50.8817 68.8505 50.75 69.1685 50.75 69.5V77C50.75 77.3315 50.8817 77.6495 51.1161 77.8839C51.3505 78.1183 51.6685 78.25 52 78.25H67C67.3315 78.25 67.6495 78.1183 67.8839 77.8839C68.1183 77.6495 68.25 77.3315 68.25 77V69.5C68.25 69.1685 68.1183 68.8505 67.8839 68.6161C67.6495 68.3817 67.3315 68.25 67 68.25ZM65.75 75.75H53.25V70.75H65.75V75.75Z" fill="black"/>
<path d="M108.25 100.75H99.0602C100.872 99.29 102.187 97.3037 102.822 95.065C103.458 92.8263 103.383 90.4456 102.609 88.2512C101.834 86.0568 100.398 84.1567 98.4975 82.8132C96.5973 81.4697 94.3271 80.7488 92 80.75C90.7375 80.75 89.525 81.0225 88.2412 81.3111C86.7344 81.6497 85.1756 82 83.25 82C81.3244 82 79.7656 81.6497 78.2588 81.3111C76.975 81.0225 75.7625 80.75 74.5 80.75V62C74.4981 60.343 73.8391 58.7543 72.6674 57.5826C71.4957 56.4109 69.907 55.7519 68.25 55.75H67V52C67 51.6685 66.8683 51.3505 66.6339 51.1161C66.3995 50.8817 66.0815 50.75 65.75 50.75H63.25V43.25H68.25V47C68.25 47.3315 68.3817 47.6495 68.6161 47.8839C68.8505 48.1183 69.1685 48.25 69.5 48.25H74.5C74.8315 48.25 75.1495 48.1183 75.3839 47.8839C75.6183 47.6495 75.75 47.3315 75.75 47V42C75.7481 40.343 75.0891 38.7543 73.9174 37.5826C72.7457 36.4109 71.157 35.7519 69.5 35.75H54.5C53.5058 35.7511 52.5526 36.1466 51.8496 36.8496C51.1466 37.5526 50.7511 38.5058 50.75 39.5V42C50.75 42.3315 50.8817 42.6495 51.1161 42.8839C51.3505 43.1183 51.6685 43.25 52 43.25H55.75V50.75H53.25C52.9185 50.75 52.6005 50.8817 52.3661 51.1161C52.1317 51.3505 52 51.6685 52 52V55.75H50.75C49.093 55.7519 47.5043 56.4109 46.3326 57.5826C45.1609 58.7543 44.5019 60.343 44.5 62V97C44.4986 98.3531 44.9387 99.6697 45.7534 100.75H35.75C35.4185 100.75 35.1005 100.882 34.8661 101.116C34.6317 101.351 34.5 101.668 34.5 102C34.5019 103.657 35.1609 105.246 36.3326 106.417C37.5043 107.589 39.093 108.248 40.75 108.25H103.25C104.907 108.248 106.496 107.589 107.667 106.417C108.839 105.246 109.498 103.657 109.5 102C109.5 101.668 109.368 101.351 109.134 101.116C108.899 100.882 108.582 100.75 108.25 100.75ZM77.7106 83.75C79.2744 84.1017 81.0469 84.5 83.25 84.5C85.4531 84.5 87.2256 84.1017 88.7894 83.75C89.9844 83.4817 91.0156 83.25 92 83.25C94.3206 83.25 96.5462 84.1719 98.1872 85.8128C99.8281 87.4538 100.75 89.6794 100.75 92C100.75 94.3206 99.8281 96.5462 98.1872 98.1872C96.5462 99.8281 94.3206 100.75 92 100.75H74.5C72.1794 100.75 69.9538 99.8281 68.3128 98.1872C66.6719 96.5462 65.75 94.3206 65.75 92C65.75 89.6794 66.6719 87.4538 68.3128 85.8128C69.9538 84.1719 72.1794 83.25 74.5 83.25C75.4844 83.25 76.5156 83.4817 77.7106 83.75ZM63.25 92C63.2506 92.4177 63.2743 92.835 63.3211 93.25H47V65.75H72V81.0334C69.5164 81.6027 67.299 82.997 65.7099 84.9887C64.1207 86.9804 63.2536 89.452 63.25 92ZM53.25 39.5C53.2504 39.1686 53.3822 38.8509 53.6165 38.6165C53.8509 38.3822 54.1686 38.2504 54.5 38.25H69.5C70.4942 38.2511 71.4474 38.6466 72.1504 39.3496C72.8534 40.0526 73.2489 41.0058 73.25 42V45.75H70.75V42C70.75 41.6685 70.6183 41.3505 70.3839 41.1161C70.1495 40.8817 69.8315 40.75 69.5 40.75H53.25V39.5ZM58.25 43.25H60.75V50.75H58.25V43.25ZM54.5 53.25H64.5V55.75H54.5V53.25ZM50.75 58.25H68.25C69.2442 58.2511 70.1974 58.6466 70.9004 59.3496C71.6034 60.0526 71.9989 61.0058 72 62V63.25H47V62C47.0011 61.0058 47.3966 60.0526 48.0996 59.3496C48.8026 58.6466 49.7558 58.2511 50.75 58.25ZM47 97V95.75H63.895C64.5931 97.7116 65.8199 99.442 67.4398 100.75H50.75C49.7558 100.749 48.8026 100.353 48.0996 99.6504C47.3966 98.9474 47.0011 97.9942 47 97ZM103.25 105.75H40.75C39.9747 105.749 39.2187 105.508 38.5856 105.061C37.9526 104.613 37.4736 103.981 37.2142 103.25H106.786C106.526 103.981 106.047 104.613 105.414 105.061C104.781 105.508 104.025 105.749 103.25 105.75Z" fill="black"/>
<path d="M73.25 87C73.25 87.3315 73.3817 87.6495 73.6161 87.8839C73.8505 88.1183 74.1685 88.25 74.5 88.25C75.4844 88.25 76.5156 88.4817 77.7106 88.75C79.2744 89.1017 81.0469 89.5 83.25 89.5C85.4531 89.5 87.2256 89.1017 88.7894 88.75C89.9844 88.4817 91.0156 88.25 92 88.25C92.3315 88.25 92.6495 88.1183 92.8839 87.8839C93.1183 87.6495 93.25 87.3315 93.25 87C93.25 86.6685 93.1183 86.3505 92.8839 86.1161C92.6495 85.8817 92.3315 85.75 92 85.75C90.7375 85.75 89.525 86.0225 88.2413 86.3111C86.7344 86.6497 85.1756 87 83.25 87C81.3244 87 79.7656 86.6497 78.2587 86.3111C76.975 86.0225 75.7625 85.75 74.5 85.75C74.1685 85.75 73.8505 85.8817 73.6161 86.1161C73.3817 86.3505 73.25 86.6685 73.25 87Z" fill="black"/>
</svg>
