<svg width="143" height="144" viewBox="0 0 143 144" fill="none" xmlns="http://www.w3.org/2000/svg">
<ellipse cx="71.5" cy="72" rx="71.5" ry="72" fill="white"/>
<path d="M53.1722 72.021C48.6666 72.021 44.2466 70.1548 41.0121 66.8764C37.78 63.6004 36 59.2536 36 54.6367C36 49.5556 38.1963 44.7454 42.0258 41.4394C45.9698 38.0346 51.1243 36.6073 56.1686 37.5229L90.2576 43.7132C91.2234 43.8887 91.9277 44.7523 91.9277 45.7617V63.5117C91.9277 64.521 91.2234 65.3847 90.2576 65.56C81.9978 67.06 75.6878 68.2098 70.8512 69.0912C54.7979 72.0163 54.7979 72.0163 53.6388 72.0177C53.5744 72.0177 53.5052 72.0178 53.4255 72.0189C53.3411 72.0203 53.2566 72.021 53.1722 72.021ZM53.1656 41.4123C50.0716 41.4123 47.0508 42.5318 44.6245 44.6264C41.7128 47.14 40.043 50.7886 40.043 54.6367C40.043 58.1305 41.3947 61.4248 43.8492 63.9126C46.3779 66.4754 49.8465 67.9137 53.3677 67.8592C53.4693 67.8578 53.5546 67.8577 53.6339 67.8575C54.4253 67.8566 54.7339 67.803 70.1461 64.9947C74.6521 64.1736 80.4363 63.1197 87.8846 61.7665V47.5067L55.466 41.6198C54.7002 41.4808 53.9303 41.4123 53.1656 41.4123Z" fill="#222221"/>
<path d="M53.25 61.1543C49.7574 61.1543 46.916 58.2306 46.916 54.6367C46.916 51.0429 49.7574 48.1192 53.25 48.1192C56.7426 48.1192 59.584 51.0429 59.584 54.6367C59.584 58.2306 56.7426 61.1543 53.25 61.1543ZM53.25 52.2793C51.9867 52.2793 50.959 53.3368 50.959 54.6367C50.959 55.9366 51.9867 56.9942 53.25 56.9942C54.5133 56.9942 55.541 55.9366 55.541 54.6367C55.541 53.3368 54.5133 52.2793 53.25 52.2793Z" fill="#222221"/>
<path d="M102.978 70.0292C102.766 70.0292 102.552 69.9947 102.345 69.9245L89.273 65.487C88.4444 65.2058 87.8848 64.4093 87.8848 63.5117V45.7617C87.8848 44.8639 88.4444 44.0675 89.273 43.7863L102.345 39.3488C102.961 39.1398 103.638 39.2474 104.163 39.6386C104.689 40.0297 105 40.6566 105 41.3242V67.9492C105 68.6166 104.689 69.2435 104.163 69.6347C103.814 69.8945 103.398 70.0292 102.978 70.0292ZM91.9277 62.0075L100.957 65.0726V44.2006L91.9277 47.2657V62.0075Z" fill="#222221"/>
<path d="M62.0334 96.6543C58.4576 96.6543 55.4177 94.0233 54.805 90.3985L51.4068 70.2957C51.3055 69.6956 51.4647 69.0799 51.8427 68.6111C52.2207 68.1424 52.7793 67.8675 53.3712 67.8593C54.4573 67.8442 54.6263 67.8186 59.4018 66.9434C60.5236 66.7378 61.8921 66.4871 63.5779 66.1809C64.1071 66.0852 64.652 66.2096 65.0916 66.5275C65.5314 66.8455 65.8299 67.3307 65.9212 67.8759L69.2638 87.8217C69.6324 90.0209 69.0424 92.2613 67.6452 93.9682C66.2479 95.6751 64.2024 96.6543 62.0334 96.6543ZM55.7669 71.8126L58.7881 89.6856C59.0631 91.3129 60.4279 92.4941 62.0334 92.4941C63.0072 92.4941 63.9255 92.0546 64.5528 91.2883C65.1802 90.522 65.4451 89.5162 65.2796 88.5288L62.282 70.6418C61.4692 70.7902 60.7499 70.9221 60.1107 71.0392C57.9259 71.4394 56.6463 71.6739 55.7669 71.8126Z" fill="#222221"/>
<path d="M73.7337 107.748C70.3295 107.748 67.1286 106.392 64.7098 103.921C62.2735 101.433 60.9316 98.0841 60.9316 94.4924C60.9316 93.3436 61.8367 92.4123 62.9531 92.4123C64.0695 92.4123 64.9746 93.3436 64.9746 94.4924C64.9746 96.9671 65.8921 99.2671 67.5579 100.969C69.2134 102.659 71.4045 103.588 73.7345 103.588C73.7569 103.588 73.7791 103.588 73.8016 103.588C78.5946 103.551 82.4941 99.4453 82.4941 94.4355V87.3633C82.4941 83.4637 85.5774 80.291 89.3672 80.291C93.1569 80.291 96.2402 83.4637 96.2402 87.3633V105.668C96.2402 106.817 95.3351 107.748 94.2188 107.748C93.1024 107.748 92.1973 106.817 92.1973 105.668V87.3633C92.1973 85.7576 90.9276 84.4511 89.3672 84.4511C87.8067 84.4511 86.5371 85.7576 86.5371 87.3633V94.4355C86.5371 101.722 80.8375 107.694 73.8318 107.748C73.7992 107.748 73.7662 107.748 73.7337 107.748Z" fill="#222221"/>
</svg>
