<svg width="144" height="144" viewBox="0 0 144 144" fill="none" xmlns="http://www.w3.org/2000/svg">
<circle cx="72" cy="72" r="72" fill="white"/>
<path d="M110.5 71.8369H33.5C30.4676 71.8369 28 74.3045 28 77.3369C28 80.3693 30.4676 82.8369 33.5 82.8369H110.5C113.532 82.8369 116 80.3693 116 77.3369C116 74.3045 113.532 71.8369 110.5 71.8369ZM110.5 79.1701H33.5C32.4916 79.1701 31.6666 78.3487 31.6666 77.3367C31.6666 76.3247 32.4916 75.5033 33.5 75.5033H110.5C111.508 75.5033 112.333 76.3247 112.333 77.3367C112.333 78.3487 111.508 79.1701 110.5 79.1701Z" fill="black"/>
<path d="M111.005 79.2399C110.012 78.9649 109.014 79.5259 108.739 80.5013L103.687 98.1893C102.568 102.102 98.9422 104.837 94.8722 104.837H49.1305C45.0605 104.837 41.4378 102.102 40.3158 98.1893L35.2631 80.5011C34.9881 79.5257 33.9871 78.9647 32.9971 79.2397C32.0217 79.5183 31.4607 80.5303 31.7395 81.5057L36.7921 99.1937C38.3577 104.675 43.4287 108.503 49.1305 108.503H94.8685C100.57 108.503 105.645 104.675 107.21 99.1937L112.263 81.5057C112.542 80.5341 111.981 79.5185 111.005 79.2399Z" fill="black"/>
<path d="M49.1326 97.5071C48.3186 97.5071 47.5962 96.9571 47.369 96.1761L44.9893 87.8381C44.7143 86.8665 43.706 86.2981 42.7233 86.5767C41.7517 86.8553 41.187 87.8673 41.4657 88.8427L43.8453 97.1807C44.5127 99.5311 46.6907 101.17 49.1327 101.17C50.1447 101.17 50.9661 100.352 50.9661 99.3405C50.966 98.3285 50.1446 97.5071 49.1326 97.5071Z" fill="black"/>
<path d="M52.65 105.027C51.7443 104.584 50.648 104.939 50.1896 105.849L46.523 113.182C46.072 114.088 46.4386 115.188 47.3443 115.643C47.612 115.775 47.8907 115.837 48.1657 115.837C48.8367 115.837 49.4821 115.467 49.8047 114.821L53.4713 107.488C53.9223 106.582 53.5556 105.482 52.65 105.027Z" fill="black"/>
<path d="M97.4752 113.186L93.8086 105.853C93.354 104.943 92.254 104.58 91.3482 105.031C90.4426 105.486 90.0758 106.586 90.5268 107.492L94.1934 114.825C94.5161 115.467 95.1614 115.837 95.8324 115.837C96.1074 115.837 96.386 115.775 96.6538 115.646C97.5596 115.192 97.9262 114.092 97.4752 113.186Z" fill="black"/>
<path d="M101.645 28.1631C99.7748 28.1631 98.0148 28.8927 96.6912 30.2165L90.8722 36.0355C90.1572 36.7505 90.1572 37.9129 90.8722 38.6279C91.5872 39.3429 92.7496 39.3429 93.4646 38.6279L99.2834 32.8125C99.9104 32.1819 100.75 31.8335 101.663 31.8335C103.504 31.8335 105 33.3295 105 35.1701V73.6701C105 74.6821 105.821 75.5035 106.833 75.5035C107.845 75.5035 108.666 74.6821 108.67 73.6665V35.1665C108.67 31.3055 105.531 28.1631 101.645 28.1631Z" fill="black"/>
<path d="M95.3005 37.8725L91.6339 34.2059C91.2123 33.7843 90.6293 33.5899 90.0389 33.6925L80.8723 35.1959C80.1976 35.3023 79.6439 35.7789 79.4276 36.4279C79.2114 37.0769 79.3763 37.7919 79.853 38.2795L90.853 49.6095C91.1976 49.9725 91.678 50.1669 92.1656 50.1669C92.338 50.1669 92.514 50.1413 92.69 50.0935C93.3426 49.9029 93.8376 49.3639 93.9696 48.6965L95.803 39.5299C95.9239 38.9285 95.7333 38.3051 95.3005 37.8725ZM91.0509 44.5531L84.9239 38.2429L89.7015 37.4619L92.0079 39.7683L91.0509 44.5531Z" fill="black"/>
<path d="M71.4613 50.3759C70.7463 49.6609 69.5839 49.6609 68.8689 50.3759L65.2023 54.0425C64.4873 54.7575 64.4873 55.9199 65.2023 56.6349C65.5617 56.9905 66.0309 57.1703 66.5003 57.1703C66.9697 57.1703 67.4389 56.9906 67.7947 56.6349L71.4613 52.9683C72.1763 52.2531 72.1763 51.0909 71.4613 50.3759Z" fill="black"/>
<path d="M78.7953 57.7091C78.0803 56.9941 76.9179 56.9941 76.2029 57.7091L72.5363 61.3757C71.8212 62.0907 71.8212 63.2531 72.5363 63.9681C72.8956 64.3237 73.3649 64.5035 73.8343 64.5035C74.3036 64.5035 74.7729 64.3239 75.1286 63.9681L78.7953 60.3015C79.5103 59.5865 79.5103 58.4241 78.7953 57.7091Z" fill="black"/>
<path d="M82.4613 46.7091C81.7463 45.9941 80.5839 45.9941 79.8689 46.7091L76.2023 50.3757C75.4873 51.0907 75.4873 52.2531 76.2023 52.9681C76.5617 53.3237 77.0309 53.5035 77.5003 53.5035C77.9697 53.5035 78.4389 53.3239 78.7947 52.9681L82.4613 49.3015C83.1763 48.5865 83.1763 47.4241 82.4613 46.7091Z" fill="black"/>
</svg>
