<svg width="142" height="20" viewBox="0 0 142 20" fill="none" xmlns="http://www.w3.org/2000/svg">
<path d="M10.5187 -1.57716e-08L13.7688 6.48587L21.037 7.52621L15.7777 12.5744L17.0192 19.7034L10.5187 16.3377L4.01784 19.7034L5.25936 12.5744L0 7.52621L7.26828 6.48587L10.5187 -1.57716e-08Z" fill="#FF9900"/>
<path d="M40.7589 -1.57716e-08L44.009 6.48587L51.2773 7.52621L46.0179 12.5744L47.2594 19.7034L40.7589 16.3377L34.2581 19.7034L35.4996 12.5744L30.2402 7.52621L37.5085 6.48587L40.7589 -1.57716e-08Z" fill="#FF9900"/>
<path d="M71.0011 -1.57716e-08L74.2512 6.48587L81.5195 7.52621L76.2601 12.5744L77.5016 19.7034L71.0011 16.3377L64.5003 19.7034L65.7418 12.5744L60.4824 7.52621L67.7507 6.48587L71.0011 -1.57716e-08Z" fill="#FF9900"/>
<path d="M101.241 -1.57716e-08L104.491 6.48587L111.76 7.52621L106.5 12.5744L107.742 19.7034L101.241 16.3377L94.7405 19.7034L95.982 12.5744L90.7227 7.52621L97.9909 6.48587L101.241 -1.57716e-08Z" fill="#FF9900"/>
<path d="M131.482 -1.57716e-08L134.732 6.48587L142 7.52621L136.741 12.5744L137.982 19.7034L131.482 16.3377L124.981 19.7034L126.222 12.5744L120.963 7.52621L128.231 6.48587L131.482 -1.57716e-08Z" fill="#CDCCCD"/>
</svg>
