<svg width="90" height="65" viewBox="0 0 90 65" fill="none" xmlns="http://www.w3.org/2000/svg">
<path d="M3.11084 63.8308H0L6.18047 50.6199H9.02348L15.2039 63.8308H12.0519L10.6304 60.7906H4.53235L3.11084 63.8308ZM7.58136 53.9976L5.45941 58.5577H9.68272L7.58136 53.9976Z" fill="#BF976E"/>
<path d="M24.362 63.831H17.1102V50.6952H23.8881C25.2204 50.6952 26.2779 50.9828 27.0608 51.5582C27.8574 52.1337 28.2557 52.9407 28.2557 53.979C28.2557 54.617 28.084 55.1613 27.7406 55.6118C27.3973 56.062 26.9647 56.3874 26.4427 56.5876C27.2256 56.7375 27.9123 57.1255 28.5029 57.7508C29.0797 58.3639 29.3682 59.146 29.3682 60.0964C29.3682 61.2101 28.9149 62.1108 28.0085 62.7989C27.1157 63.4868 25.9003 63.831 24.362 63.831ZM20.0768 58.0698V61.5039H23.8057C24.5474 61.5039 25.1242 61.3601 25.5363 61.0725C25.9483 60.772 26.1543 60.3468 26.1543 59.7962C26.1543 59.246 25.9483 58.8205 25.5363 58.5203C25.1242 58.2201 24.5474 58.0698 23.8057 58.0698H20.0768ZM20.0768 52.9469V55.8369H23.4143C24.0324 55.8369 24.5131 55.7119 24.8564 55.4615C25.2135 55.2112 25.3921 54.8611 25.3921 54.4107C25.3921 53.9479 25.2135 53.5913 24.8564 53.341C24.5131 53.0784 24.0324 52.9469 23.4143 52.9469H20.0768Z" fill="#BF976E"/>
<path d="M34.8237 63.831H31.8571V50.6952H38.1612C39.7133 50.6952 40.9355 51.0644 41.8283 51.8024C42.7348 52.5278 43.1879 53.4786 43.1879 54.6545C43.1879 55.843 42.7348 56.8 41.8283 57.5257C40.9355 58.2638 39.7133 58.633 38.1612 58.633H34.8237V63.831ZM34.8237 53.0596V56.3246H37.9553C38.6695 56.3246 39.2255 56.1873 39.624 55.912C40.0222 55.6241 40.2213 55.2177 40.2213 54.6921C40.2213 54.1668 40.0222 53.7665 39.624 53.4913C39.2255 53.2034 38.6695 53.0596 37.9553 53.0596H34.8237Z" fill="#BF976E"/>
<path d="M49.2283 60.3406C50.0796 61.1537 51.1442 61.5601 52.4213 61.5601C53.685 61.5601 54.7425 61.1537 55.5941 60.3406C56.4457 59.5274 56.8715 58.5014 56.8715 57.2631C56.8715 56.0243 56.4457 54.9987 55.5941 54.1855C54.7425 53.3724 53.685 52.9656 52.4213 52.9656C51.1442 52.9656 50.0796 53.3724 49.2283 54.1855C48.3904 54.9861 47.9714 56.012 47.9714 57.2631C47.9714 58.5141 48.3904 59.5397 49.2283 60.3406ZM44.9431 57.2631C44.9431 55.3365 45.6505 53.7224 47.0649 52.4215C48.4797 51.0954 50.265 50.4325 52.4213 50.4325C54.5639 50.4325 56.3428 51.0954 57.7572 52.4215C59.1856 53.7477 59.8998 55.3614 59.8998 57.2631C59.8998 59.152 59.1856 60.7658 57.7572 62.1045C56.3428 63.4304 54.5639 64.0936 52.4213 64.0936C50.265 64.0936 48.4797 63.4304 47.0649 62.1045C45.6505 60.7784 44.9431 59.1647 44.9431 57.2631Z" fill="#BF976E"/>
<path d="M66.369 60.3406C67.2206 61.1537 68.285 61.5601 69.5623 61.5601C70.8261 61.5601 71.8836 61.1537 72.7352 60.3406C73.5864 59.5274 74.0122 58.5014 74.0122 57.2631C74.0122 56.0243 73.5864 54.9987 72.7352 54.1855C71.8836 53.3724 70.8261 52.9656 69.5623 52.9656C68.285 52.9656 67.2206 53.3724 66.369 54.1855C65.5314 54.9861 65.1125 56.012 65.1125 57.2631C65.1125 58.5141 65.5314 59.5397 66.369 60.3406ZM62.0842 57.2631C62.0842 55.3365 62.7912 53.7224 64.206 52.4215C65.6208 51.0954 67.4061 50.4325 69.5623 50.4325C71.7049 50.4325 73.4835 51.0954 74.8982 52.4215C76.3266 53.7477 77.0408 55.3614 77.0408 57.2631C77.0408 59.152 76.3266 60.7658 74.8982 62.1045C73.4835 63.4304 71.7049 64.0936 69.5623 64.0936C67.4061 64.0936 65.6208 63.4304 64.206 62.1045C62.7912 60.7784 62.0842 59.1647 62.0842 57.2631Z" fill="#BF976E"/>
<path d="M90 63.831H79.7199V50.6952H82.6865V61.4103H90V63.831Z" fill="#BF976E"/>
<path d="M36.8477 7.37393L36.8358 7.35914C33.8912 3.77487 29.8053 1.31656 25.265 0.398604C20.7246 -0.519351 16.0077 0.159243 11.908 2.31993C7.80826 4.48061 4.57641 7.9912 2.75543 12.2605C0.93449 16.5297 0.635323 21.2974 1.90814 25.7618C3.18096 30.2261 5.94833 34.1152 9.7453 36.7743C13.5424 39.4331 18.1372 40.6999 22.7565 40.36C27.2041 40.0329 31.4124 38.2361 34.7266 35.2593C35.4851 34.5776 36.7076 35.108 36.7076 36.1507V40.414H41.4333V30.798L36.1867 24.5708C35.3791 27.2034 33.8448 29.5859 31.8593 31.4633C29.2805 33.9017 25.9436 35.3744 22.4101 35.6343C18.8766 35.8942 15.3614 34.9253 12.4558 32.8907C9.55023 30.856 7.43148 27.8791 6.45686 24.4606C5.4822 21.042 5.71133 17.391 7.10561 14.1221C8.49986 10.8533 10.9738 8.16658 14.1106 6.51338C17.2474 4.86021 20.8559 4.34123 24.3291 5.04341C27.7959 5.74433 30.9175 7.61945 33.1703 10.3548L53.4118 33.3637L53.424 33.3786C56.3528 36.9441 60.1693 39.0926 64.7344 40.0154C69.2746 40.9335 73.9917 40.2549 78.0915 38.0944C82.1913 35.9335 85.4231 32.4229 87.2439 28.1537C89.065 23.8844 89.364 19.1167 88.0914 14.6524C86.8184 10.188 84.0509 6.29887 80.2542 3.63987C76.4568 0.980834 71.8621 -0.285596 67.2428 0.0541647C62.7953 0.381292 58.5871 2.1781 55.2728 5.15488C54.5143 5.83633 53.2918 5.30621 53.2918 4.26336V2.87605e-05H48.5661V9.61609L53.8127 15.8433C54.6203 13.2107 56.1547 10.8282 58.1402 8.95076C60.7188 6.51246 64.0556 5.03982 67.5895 4.77992C71.1227 4.52002 74.6381 5.48869 77.5437 7.52338C80.4492 9.55817 82.568 12.535 83.5426 15.9535C84.5173 19.3721 84.2882 23.0231 82.8939 26.292C81.4996 29.5608 79.0256 32.2475 75.8889 33.9007C72.7519 35.5541 69.1437 36.0728 65.6702 35.3707C62.2253 34.6743 59.2188 32.9857 56.9528 30.2344L36.8477 7.37393Z" fill="#BF976E"/>
</svg>
