<svg width="13" height="12" viewBox="0 0 13 12" fill="none" xmlns="http://www.w3.org/2000/svg">
<path d="M8.78777 0H4.07478C2.15111 0 0.612183 1.58678 0.612183 3.57025V8.42975C0.612183 10.4132 2.15111 12 4.07478 12H8.78777C10.7114 12 12.2504 10.4132 12.2504 8.42975V3.61983C12.2504 1.63636 10.7114 0 8.78777 0ZM11.0962 8.47934C11.0962 9.76859 10.0862 10.8595 8.78777 10.8595H4.07478C2.8244 10.8595 1.76638 9.81818 1.76638 8.47934V3.61983C1.76638 2.33058 2.77631 1.23967 4.07478 1.23967H8.78777C10.0382 1.23967 11.0962 2.28099 11.0962 3.61983V8.47934Z" fill="#939598"/>
<path d="M6.43121 2.92529C4.74803 2.92529 3.40149 4.31377 3.40149 6.04938C3.40149 7.78498 4.74803 9.17346 6.43121 9.17346C8.11439 9.17346 9.46094 7.78498 9.46094 6.04938C9.46094 4.31377 8.11439 2.92529 6.43121 2.92529ZM6.43121 7.93374C5.4213 7.93374 4.60376 7.09074 4.60376 6.04938C4.60376 5.00801 5.4213 4.16501 6.43121 4.16501C7.44112 4.16501 8.25867 5.00801 8.25867 6.04938C8.25867 7.09074 7.44112 7.93374 6.43121 7.93374Z" fill="#939598"/>
<path d="M9.461 3.66945C9.8594 3.66945 10.1824 3.3365 10.1824 2.92579C10.1824 2.51508 9.8594 2.18213 9.461 2.18213C9.06259 2.18213 8.73962 2.51508 8.73962 2.92579C8.73962 3.3365 9.06259 3.66945 9.461 3.66945Z" fill="#939598"/>
</svg>
