<svg width="223" height="37" viewBox="0 0 223 37" fill="none" xmlns="http://www.w3.org/2000/svg">
<path d="M9.70444 1.17574C8.77072 1.17574 8.10378 1.53751 7.37014 2.89414L0.0782398 16.483C-0.0773801 16.777 -0.0106858 17.0031 0.367248 17.0031H3.25733C3.52411 17.0031 3.6575 16.9353 3.76865 16.7091L5.30262 13.7924H15.7514L17.3298 16.7091C17.441 16.9353 17.5521 17.0031 17.8411 17.0031H20.6645C21.0202 17.0031 21.0869 16.777 20.9313 16.483L13.5727 2.89414C12.8391 1.53751 12.1499 1.17574 11.0161 1.17574H9.70444ZM10.1935 4.54471C10.2602 4.43165 10.3269 4.38643 10.4381 4.38643H10.5715C10.6826 4.38643 10.7493 4.43165 10.816 4.54471L14.3508 11.1696H6.7032L10.1935 4.54471Z" fill="#BC9D78"/>
<path d="M9.70444 1.17574C8.77072 1.17574 8.10378 1.53751 7.37014 2.89414L0.0782398 16.483C-0.0773801 16.777 -0.0106858 17.0031 0.367248 17.0031H3.25733C3.52411 17.0031 3.6575 16.9353 3.76865 16.7091L5.30262 13.7924H15.7514L17.3298 16.7091C17.441 16.9353 17.5521 17.0031 17.8411 17.0031H20.6645C21.0202 17.0031 21.0869 16.777 20.9313 16.483L13.5727 2.89414C12.8391 1.53751 12.1499 1.17574 11.0161 1.17574H9.70444ZM10.1935 4.54471C10.2602 4.43165 10.3269 4.38643 10.4381 4.38643H10.5715C10.6826 4.38643 10.7493 4.43165 10.816 4.54471L14.3508 11.1696H6.7032L10.1935 4.54471Z" fill="#BF976E"/>
<path d="M26.6972 4.58993C22.6956 4.58993 21.4062 5.90134 21.4062 9.17986V12.4358C21.4062 15.7143 22.6956 17.0031 26.6972 17.0031H35.0562V21.5026C35.0562 21.8417 35.2119 22 35.5453 22H37.724C38.0575 22 38.2131 21.8417 38.2131 21.5026V9.17986C38.2131 5.90134 36.9237 4.58993 32.922 4.58993H26.6972ZM24.5852 11.8027V9.79034C24.5852 7.89106 25.0966 7.30319 27.0085 7.30319H32.6108C34.5449 7.30319 35.0562 7.89106 35.0562 9.79034V14.2898H27.0085C25.0966 14.2898 24.5852 13.7246 24.5852 11.8027Z" fill="#BC9D78"/>
<path d="M26.6972 4.58993C22.6956 4.58993 21.4062 5.90134 21.4062 9.17986V12.4358C21.4062 15.7143 22.6956 17.0031 26.6972 17.0031H35.0562V21.5026C35.0562 21.8417 35.2119 22 35.5453 22H37.724C38.0575 22 38.2131 21.8417 38.2131 21.5026V9.17986C38.2131 5.90134 36.9237 4.58993 32.922 4.58993H26.6972ZM24.5852 11.8027V9.79034C24.5852 7.89106 25.0966 7.30319 27.0085 7.30319H32.6108C34.5449 7.30319 35.0562 7.89106 35.0562 9.79034V14.2898H27.0085C25.0966 14.2898 24.5852 13.7246 24.5852 11.8027Z" fill="#BF976E"/>
<path d="M40.9719 4.58993C40.6384 4.58993 40.4606 4.77081 40.4606 5.10997V12.4358C40.4606 15.7143 41.75 17.0031 45.7516 17.0031H51.9542C55.9559 17.0031 57.2453 15.7143 57.2453 12.4358V5.10997C57.2453 4.77081 57.0897 4.58993 56.7562 4.58993H54.5775C54.244 4.58993 54.0884 4.77081 54.0884 5.10997V11.6444C54.0884 13.5437 53.5771 14.1316 51.643 14.1316H45.9295C43.9954 14.1316 43.6397 13.5437 43.6397 11.6444V5.10997C43.6397 4.77081 43.484 4.58993 43.1506 4.58993H40.9719Z" fill="#BC9D78"/>
<path d="M40.9719 4.58993C40.6384 4.58993 40.4606 4.77081 40.4606 5.10997V12.4358C40.4606 15.7143 41.75 17.0031 45.7516 17.0031H51.9542C55.9559 17.0031 57.2453 15.7143 57.2453 12.4358V5.10997C57.2453 4.77081 57.0897 4.58993 56.7562 4.58993H54.5775C54.244 4.58993 54.0884 4.77081 54.0884 5.10997V11.6444C54.0884 13.5437 53.5771 14.1316 51.643 14.1316H45.9295C43.9954 14.1316 43.6397 13.5437 43.6397 11.6444V5.10997C43.6397 4.77081 43.484 4.58993 43.1506 4.58993H40.9719Z" fill="#BF976E"/>
<path d="M59.8236 4.58993C59.5568 4.58993 59.4234 4.72559 59.4234 4.99692V6.8962C59.4234 7.19013 59.5568 7.30319 59.8236 7.30319H69.1163C71.0505 7.30319 71.5396 7.86845 71.5396 9.31552V9.74512H62.4914C59.8681 9.74512 59.0677 10.8078 59.0677 12.7071V13.7924C59.0677 16.0308 59.8681 17.0031 62.4914 17.0031H73.0735C74.3629 17.0031 74.7186 16.6639 74.7186 15.1942V9.17986C74.7186 5.90134 73.4292 4.58993 69.4276 4.58993H59.8236ZM70.8948 14.5159H63.4029C62.4914 14.5159 62.1579 14.1542 62.1579 13.3402V12.8654C62.1579 12.1418 62.4914 11.7575 63.4029 11.7575H71.5396V13.7472C71.5396 14.3124 71.3617 14.5159 70.8948 14.5159Z" fill="#BC9D78"/>
<path d="M59.8236 4.58993C59.5568 4.58993 59.4234 4.72559 59.4234 4.99692V6.8962C59.4234 7.19013 59.5568 7.30319 59.8236 7.30319H69.1163C71.0505 7.30319 71.5396 7.86845 71.5396 9.31552V9.74512H62.4914C59.8681 9.74512 59.0677 10.8078 59.0677 12.7071V13.7924C59.0677 16.0308 59.8681 17.0031 62.4914 17.0031H73.0735C74.3629 17.0031 74.7186 16.6639 74.7186 15.1942V9.17986C74.7186 5.90134 73.4292 4.58993 69.4276 4.58993H59.8236ZM70.8948 14.5159H63.4029C62.4914 14.5159 62.1579 14.1542 62.1579 13.3402V12.8654C62.1579 12.1418 62.4914 11.7575 63.4029 11.7575H71.5396V13.7472C71.5396 14.3124 71.3617 14.5159 70.8948 14.5159Z" fill="#BF976E"/>
<path d="M77.0988 0.0452197C76.7653 0.0452197 76.5875 0.203494 76.5875 0.542651V12.4358C76.5875 15.7143 77.8769 17.0031 81.8786 17.0031H88.1033C92.105 17.0031 93.3944 15.7143 93.3944 12.4358V9.17986C93.3944 5.90134 92.105 4.58993 88.1033 4.58993H79.7666V0.542651C79.7666 0.203494 79.6109 0.0452197 79.2775 0.0452197H77.0988ZM87.7921 7.30319C89.7262 7.30319 90.2376 7.89106 90.2376 9.79034V11.8027C90.2376 13.702 89.7262 14.2898 87.7921 14.2898H82.1898C80.2779 14.2898 79.7666 13.702 79.7666 11.8027V7.30319H87.7921Z" fill="#BC9D78"/>
<path d="M77.0988 0.0452197C76.7653 0.0452197 76.5875 0.203494 76.5875 0.542651V12.4358C76.5875 15.7143 77.8769 17.0031 81.8786 17.0031H88.1033C92.105 17.0031 93.3944 15.7143 93.3944 12.4358V9.17986C93.3944 5.90134 92.105 4.58993 88.1033 4.58993H79.7666V0.542651C79.7666 0.203494 79.6109 0.0452197 79.2775 0.0452197H77.0988ZM87.7921 7.30319C89.7262 7.30319 90.2376 7.89106 90.2376 9.79034V11.8027C90.2376 13.702 89.7262 14.2898 87.7921 14.2898H82.1898C80.2779 14.2898 79.7666 13.702 79.7666 11.8027V7.30319H87.7921Z" fill="#BF976E"/>
<path d="M96.0865 4.58993C95.753 4.58993 95.5974 4.77081 95.5974 5.10997V16.5057C95.5974 16.8448 95.753 17.0031 96.0865 17.0031H98.2652C98.5987 17.0031 98.7543 16.8448 98.7543 16.5057V5.10997C98.7543 4.77081 98.5987 4.58993 98.2652 4.58993H96.0865ZM96.0865 0C95.753 0 95.5752 0.158273 95.5752 0.497431V2.64543C95.5752 2.98458 95.753 3.16547 96.0865 3.16547H98.2652C98.5987 3.16547 98.7543 2.98458 98.7543 2.64543V0.497431C98.7543 0.158273 98.5987 0 98.2652 0H96.0865Z" fill="#BC9D78"/>
<path d="M96.0865 4.58993C95.753 4.58993 95.5974 4.77081 95.5974 5.10997V16.5057C95.5974 16.8448 95.753 17.0031 96.0865 17.0031H98.2652C98.5987 17.0031 98.7543 16.8448 98.7543 16.5057V5.10997C98.7543 4.77081 98.5987 4.58993 98.2652 4.58993H96.0865ZM96.0865 0C95.753 0 95.5752 0.158273 95.5752 0.497431V2.64543C95.5752 2.98458 95.753 3.16547 96.0865 3.16547H98.2652C98.5987 3.16547 98.7543 2.98458 98.7543 2.64543V0.497431C98.7543 0.158273 98.5987 0 98.2652 0H96.0865Z" fill="#BF976E"/>
<path d="M106.214 4.58993C102.212 4.58993 100.923 5.90134 100.923 9.17986V12.4358C100.923 15.7143 102.212 17.0031 106.214 17.0031H112.505C116.507 17.0031 117.796 15.7143 117.796 12.4358V9.17986C117.796 5.90134 116.507 4.58993 112.505 4.58993H106.214ZM104.102 9.72251C104.102 7.82323 104.613 7.25797 106.525 7.25797H112.194C114.128 7.25797 114.639 7.82323 114.639 9.72251V11.8705C114.639 13.7698 114.128 14.3577 112.194 14.3577H106.525C104.613 14.3577 104.102 13.7698 104.102 11.8705V9.72251Z" fill="#BC9D78"/>
<path d="M106.214 4.58993C102.212 4.58993 100.923 5.90134 100.923 9.17986V12.4358C100.923 15.7143 102.212 17.0031 106.214 17.0031H112.505C116.507 17.0031 117.796 15.7143 117.796 12.4358V9.17986C117.796 5.90134 116.507 4.58993 112.505 4.58993H106.214ZM104.102 9.72251C104.102 7.82323 104.613 7.25797 106.525 7.25797H112.194C114.128 7.25797 114.639 7.82323 114.639 9.72251V11.8705C114.639 13.7698 114.128 14.3577 112.194 14.3577H106.525C104.613 14.3577 104.102 13.7698 104.102 11.8705V9.72251Z" fill="#BF976E"/>
<path d="M125.07 4.58993C121.068 4.58993 119.778 5.90134 119.778 9.20247V11.5766C119.778 14.8777 121.068 16.1891 125.07 16.1891H133.429V16.777C133.429 18.6989 132.917 19.2867 130.983 19.2867H120.823C120.557 19.2867 120.423 19.4224 120.423 19.6937V21.593C120.423 21.8643 120.557 22 120.823 22H131.294C135.318 22 136.585 20.6886 136.585 17.3875V9.15725C136.585 5.90134 135.318 4.58993 131.294 4.58993H125.07ZM122.958 11.554V9.38335C122.958 7.84584 123.469 7.25797 125.381 7.25797H130.983C132.917 7.25797 133.429 7.84584 133.429 9.45118V13.6793H125.381C123.469 13.6793 122.958 13.0915 122.958 11.554Z" fill="#BC9D78"/>
<path d="M125.07 4.58993C121.068 4.58993 119.778 5.90134 119.778 9.20247V11.5766C119.778 14.8777 121.068 16.1891 125.07 16.1891H133.429V16.777C133.429 18.6989 132.917 19.2867 130.983 19.2867H120.823C120.557 19.2867 120.423 19.4224 120.423 19.6937V21.593C120.423 21.8643 120.557 22 120.823 22H131.294C135.318 22 136.585 20.6886 136.585 17.3875V9.15725C136.585 5.90134 135.318 4.58993 131.294 4.58993H125.07ZM122.958 11.554V9.38335C122.958 7.84584 123.469 7.25797 125.381 7.25797H130.983C132.917 7.25797 133.429 7.84584 133.429 9.45118V13.6793H125.381C123.469 13.6793 122.958 13.0915 122.958 11.554Z" fill="#BF976E"/>
<path d="M144.124 4.58993C140.122 4.58993 138.833 5.90134 138.833 9.17986V16.5057C138.833 16.8448 139.011 17.0031 139.344 17.0031H141.523C141.856 17.0031 142.012 16.8448 142.012 16.5057V9.79034C142.012 7.89106 142.523 7.30319 144.435 7.30319H150.349C150.615 7.30319 150.749 7.19013 150.749 6.8962V4.99692C150.749 4.72559 150.615 4.58993 150.349 4.58993H144.124Z" fill="#BC9D78"/>
<path d="M144.124 4.58993C140.122 4.58993 138.833 5.90134 138.833 9.17986V16.5057C138.833 16.8448 139.011 17.0031 139.344 17.0031H141.523C141.856 17.0031 142.012 16.8448 142.012 16.5057V9.79034C142.012 7.89106 142.523 7.30319 144.435 7.30319H150.349C150.615 7.30319 150.749 7.19013 150.749 6.8962V4.99692C150.749 4.72559 150.615 4.58993 150.349 4.58993H144.124Z" fill="#BF976E"/>
<path d="M152.356 4.58993C152.089 4.58993 151.956 4.72559 151.956 4.99692V6.8962C151.956 7.19013 152.089 7.30319 152.356 7.30319H161.649C163.583 7.30319 164.072 7.86845 164.072 9.31552V9.74512H155.024C152.4 9.74512 151.6 10.8078 151.6 12.7071V13.7924C151.6 16.0308 152.4 17.0031 155.024 17.0031H165.606C166.895 17.0031 167.251 16.6639 167.251 15.1942V9.17986C167.251 5.90134 165.961 4.58993 161.96 4.58993H152.356ZM163.427 14.5159H155.935C155.024 14.5159 154.69 14.1542 154.69 13.3402V12.8654C154.69 12.1418 155.024 11.7575 155.935 11.7575H164.072V13.7472C164.072 14.3124 163.894 14.5159 163.427 14.5159Z" fill="#BC9D78"/>
<path d="M152.356 4.58993C152.089 4.58993 151.956 4.72559 151.956 4.99692V6.8962C151.956 7.19013 152.089 7.30319 152.356 7.30319H161.649C163.583 7.30319 164.072 7.86845 164.072 9.31552V9.74512H155.024C152.4 9.74512 151.6 10.8078 151.6 12.7071V13.7924C151.6 16.0308 152.4 17.0031 155.024 17.0031H165.606C166.895 17.0031 167.251 16.6639 167.251 15.1942V9.17986C167.251 5.90134 165.961 4.58993 161.96 4.58993H152.356ZM163.427 14.5159H155.935C155.024 14.5159 154.69 14.1542 154.69 13.3402V12.8654C154.69 12.1418 155.024 11.7575 155.935 11.7575H164.072V13.7472C164.072 14.3124 163.894 14.5159 163.427 14.5159Z" fill="#BF976E"/>
<path d="M174.411 4.58993C170.409 4.58993 169.12 5.90134 169.12 9.17986V21.5026C169.12 21.8417 169.298 22 169.631 22H171.81C172.143 22 172.299 21.8417 172.299 21.5026V17.0031H180.636C184.637 17.0031 185.927 15.7143 185.927 12.4358V9.17986C185.927 5.90134 184.637 4.58993 180.636 4.58993H174.411ZM172.299 9.79034C172.299 7.89106 172.81 7.30319 174.722 7.30319H180.324C182.258 7.30319 182.77 7.89106 182.77 9.79034V11.8027C182.77 13.7246 182.258 14.2898 180.324 14.2898H172.299V9.79034Z" fill="#BC9D78"/>
<path d="M174.411 4.58993C170.409 4.58993 169.12 5.90134 169.12 9.17986V21.5026C169.12 21.8417 169.298 22 169.631 22H171.81C172.143 22 172.299 21.8417 172.299 21.5026V17.0031H180.636C184.637 17.0031 185.927 15.7143 185.927 12.4358V9.17986C185.927 5.90134 184.637 4.58993 180.636 4.58993H174.411ZM172.299 9.79034C172.299 7.89106 172.81 7.30319 174.722 7.30319H180.324C182.258 7.30319 182.77 7.89106 182.77 9.79034V11.8027C182.77 13.7246 182.258 14.2898 180.324 14.2898H172.299V9.79034Z" fill="#BF976E"/>
<path d="M188.619 0.0452197C188.285 0.0452197 188.13 0.203494 188.13 0.542651V16.5057C188.13 16.8448 188.285 17.0031 188.619 17.0031H190.797C191.131 17.0031 191.286 16.8448 191.286 16.5057V7.46146H199.445C201.357 7.46146 201.735 8.04933 201.735 9.94861V16.5057C201.735 16.8448 201.891 17.0031 202.224 17.0031H204.403C204.736 17.0031 204.892 16.8448 204.892 16.5057V9.17986C204.892 5.90134 203.603 4.58993 199.601 4.58993H191.286V0.542651C191.286 0.203494 191.131 0.0452197 190.797 0.0452197H188.619Z" fill="#BC9D78"/>
<path d="M188.619 0.0452197C188.285 0.0452197 188.13 0.203494 188.13 0.542651V16.5057C188.13 16.8448 188.285 17.0031 188.619 17.0031H190.797C191.131 17.0031 191.286 16.8448 191.286 16.5057V7.46146H199.445C201.357 7.46146 201.735 8.04933 201.735 9.94861V16.5057C201.735 16.8448 201.891 17.0031 202.224 17.0031H204.403C204.736 17.0031 204.892 16.8448 204.892 16.5057V9.17986C204.892 5.90134 203.603 4.58993 199.601 4.58993H191.286V0.542651C191.286 0.203494 191.131 0.0452197 190.797 0.0452197H188.619Z" fill="#BF976E"/>
<path d="M220.156 4.58993C219.889 4.58993 219.733 4.68037 219.622 4.90647L214.398 14.1316C214.198 14.1316 214.109 14.0185 213.864 13.6115L208.929 4.90647C208.818 4.68037 208.662 4.58993 208.395 4.58993H205.839C205.528 4.58993 205.394 4.86125 205.55 5.15519L211.552 15.6917C211.908 16.3248 212.241 16.5961 212.975 16.6639L211.775 18.8119C211.575 19.1737 211.241 19.332 210.641 19.332H209.329C209.062 19.332 208.929 19.4676 208.929 19.739V21.593C208.929 21.8643 209.062 22 209.329 22H210.885C212.797 22 213.82 21.5026 214.398 20.4625L222.935 5.15519C223.09 4.86125 222.957 4.58993 222.646 4.58993H220.156Z" fill="#BC9D78"/>
<path d="M220.156 4.58993C219.889 4.58993 219.733 4.68037 219.622 4.90647L214.398 14.1316C214.198 14.1316 214.109 14.0185 213.864 13.6115L208.929 4.90647C208.818 4.68037 208.662 4.58993 208.395 4.58993H205.839C205.528 4.58993 205.394 4.86125 205.55 5.15519L211.552 15.6917C211.908 16.3248 212.241 16.5961 212.975 16.6639L211.775 18.8119C211.575 19.1737 211.241 19.332 210.641 19.332H209.329C209.062 19.332 208.929 19.4676 208.929 19.739V21.593C208.929 21.8643 209.062 22 209.329 22H210.885C212.797 22 213.82 21.5026 214.398 20.4625L222.935 5.15519C223.09 4.86125 222.957 4.58993 222.646 4.58993H220.156Z" fill="#BF976E"/>
<path d="M51.4136 28C48.9509 28 48 28.9257 48 31.3943V33.6057C48 36.0743 48.9509 37 51.4136 37H56.9119C57.0948 37 57.1801 36.91 57.1801 36.7171V35.4571C57.1801 35.2643 57.0948 35.1743 56.9119 35.1743H51.4867C50.231 35.1743 49.8653 34.7757 49.8653 33.4129V31.5871C49.8653 30.2243 50.231 29.8386 51.4867 29.8386H56.9119C57.0948 29.8386 57.1801 29.7357 57.1801 29.5429V28.2829C57.1801 28.09 57.0948 28 56.9119 28H51.4136Z" fill="#D1D1D1"/>
<path d="M51.4136 28C48.9509 28 48 28.9257 48 31.3943V33.6057C48 36.0743 48.9509 37 51.4136 37H56.9119C57.0948 37 57.1801 36.91 57.1801 36.7171V35.4571C57.1801 35.2643 57.0948 35.1743 56.9119 35.1743H51.4867C50.231 35.1743 49.8653 34.7757 49.8653 33.4129V31.5871C49.8653 30.2243 50.231 29.8386 51.4867 29.8386H56.9119C57.0948 29.8386 57.1801 29.7357 57.1801 29.5429V28.2829C57.1801 28.09 57.0948 28 56.9119 28H51.4136Z" fill="url(#paint0_radial)"/>
<path d="M59.1498 28C58.9059 28 58.784 28.1286 58.784 28.3857V36.7171C58.784 36.91 58.8816 37 59.0644 37H60.3811C60.564 37 60.6493 36.91 60.6493 36.7171V34.1586H64.5871L66.5133 36.8329C66.5865 36.9486 66.6475 37 66.8547 37H68.4274C68.6468 37 68.659 36.7686 68.5859 36.6786L66.5012 33.9529C67.7812 33.7086 68.3177 32.8471 68.3177 31.3814V30.6486C68.3177 28.9129 67.5618 28 65.6965 28H59.1498ZM60.6493 29.9157C60.6493 29.8129 60.6981 29.7614 60.8078 29.7614H65.3186C66.1476 29.7614 66.4524 30.1343 66.4524 30.9057V31.4457C66.4524 32.2171 66.1476 32.59 65.3186 32.59H60.6493V29.9157Z" fill="#D1D1D1"/>
<path d="M59.1498 28C58.9059 28 58.784 28.1286 58.784 28.3857V36.7171C58.784 36.91 58.8816 37 59.0644 37H60.3811C60.564 37 60.6493 36.91 60.6493 36.7171V34.1586H64.5871L66.5133 36.8329C66.5865 36.9486 66.6475 37 66.8547 37H68.4274C68.6468 37 68.659 36.7686 68.5859 36.6786L66.5012 33.9529C67.7812 33.7086 68.3177 32.8471 68.3177 31.3814V30.6486C68.3177 28.9129 67.5618 28 65.6965 28H59.1498ZM60.6493 29.9157C60.6493 29.8129 60.6981 29.7614 60.8078 29.7614H65.3186C66.1476 29.7614 66.4524 30.1343 66.4524 30.9057V31.4457C66.4524 32.2171 66.1476 32.59 65.3186 32.59H60.6493V29.9157Z" fill="url(#paint1_radial)"/>
<path d="M70.4057 28C70.2229 28 70.1253 28.09 70.1253 28.2829V36.7171C70.1253 36.91 70.2229 37 70.4057 37H71.7224C71.9053 37 71.9906 36.91 71.9906 36.7171V28.2829C71.9906 28.09 71.9053 28 71.7224 28H70.4057Z" fill="#D1D1D1"/>
<path d="M70.4057 28C70.2229 28 70.1253 28.09 70.1253 28.2829V36.7171C70.1253 36.91 70.2229 37 70.4057 37H71.7224C71.9053 37 71.9906 36.91 71.9906 36.7171V28.2829C71.9906 28.09 71.9053 28 71.7224 28H70.4057Z" fill="url(#paint2_radial)"/>
<path d="M75.93 28C74.4549 28 73.7722 28.8486 73.7722 30.0957V31.0343C73.7722 32.4486 74.5036 33.2457 75.9057 33.2457H80.4774C80.9041 33.2457 81.1114 33.49 81.1114 33.9657V34.4929C81.1114 34.9429 80.9285 35.2129 80.4652 35.2129H74.0648C73.8819 35.2129 73.7844 35.3029 73.7844 35.4957V36.7171C73.7844 36.91 73.8819 37 74.0648 37H80.8188C82.2939 37 82.9766 36.1514 82.9766 34.9043V33.8757C82.9766 32.4614 82.2452 31.6643 80.8432 31.6643H76.2714C75.8447 31.6643 75.6374 31.42 75.6374 30.9443V30.5071C75.6374 30.0571 75.8203 29.7871 76.2836 29.7871H82.3915C82.5743 29.7871 82.6597 29.6971 82.6597 29.5043V28.2829C82.6597 28.09 82.5743 28 82.3915 28H75.93Z" fill="#D1D1D1"/>
<path d="M75.93 28C74.4549 28 73.7722 28.8486 73.7722 30.0957V31.0343C73.7722 32.4486 74.5036 33.2457 75.9057 33.2457H80.4774C80.9041 33.2457 81.1114 33.49 81.1114 33.9657V34.4929C81.1114 34.9429 80.9285 35.2129 80.4652 35.2129H74.0648C73.8819 35.2129 73.7844 35.3029 73.7844 35.4957V36.7171C73.7844 36.91 73.8819 37 74.0648 37H80.8188C82.2939 37 82.9766 36.1514 82.9766 34.9043V33.8757C82.9766 32.4614 82.2452 31.6643 80.8432 31.6643H76.2714C75.8447 31.6643 75.6374 31.42 75.6374 30.9443V30.5071C75.6374 30.0571 75.8203 29.7871 76.2836 29.7871H82.3915C82.5743 29.7871 82.6597 29.6971 82.6597 29.5043V28.2829C82.6597 28.09 82.5743 28 82.3915 28H75.93Z" fill="url(#paint3_radial)"/>
<path d="M84.4326 28C84.2497 28 84.1522 28.09 84.1522 28.2829V29.5429C84.1522 29.7357 84.2497 29.8386 84.4326 29.8386H88.2606V36.7171C88.2606 36.91 88.346 37 88.5289 37H89.8577C90.0406 37 90.1259 36.91 90.1259 36.7171V29.8386H93.954C94.1369 29.8386 94.2344 29.7357 94.2344 29.5429V28.2829C94.2344 28.09 94.1369 28 93.954 28H84.4326Z" fill="#D1D1D1"/>
<path d="M84.4326 28C84.2497 28 84.1522 28.09 84.1522 28.2829V29.5429C84.1522 29.7357 84.2497 29.8386 84.4326 29.8386H88.2606V36.7171C88.2606 36.91 88.346 37 88.5289 37H89.8577C90.0406 37 90.1259 36.91 90.1259 36.7171V29.8386H93.954C94.1369 29.8386 94.2344 29.7357 94.2344 29.5429V28.2829C94.2344 28.09 94.1369 28 93.954 28H84.4326Z" fill="url(#paint4_radial)"/>
<path d="M98.735 28C98.223 28 97.8572 28.2057 97.4549 28.9771L93.4562 36.7043C93.3708 36.8714 93.4074 37 93.6147 37H95.1995C95.3458 37 95.419 36.9614 95.4799 36.8329L96.3211 35.1743H102.051L102.917 36.8329C102.978 36.9614 103.039 37 103.197 37H104.745C104.94 37 104.977 36.8714 104.892 36.7043L100.856 28.9771C100.454 28.2057 100.076 28 99.4543 28H98.735ZM99.0032 29.9157C99.0398 29.8514 99.0764 29.8257 99.1373 29.8257H99.2105C99.2714 29.8257 99.308 29.8514 99.3446 29.9157L101.283 33.6829H97.0892L99.0032 29.9157Z" fill="#D1D1D1"/>
<path d="M98.735 28C98.223 28 97.8572 28.2057 97.4549 28.9771L93.4562 36.7043C93.3708 36.8714 93.4074 37 93.6147 37H95.1995C95.3458 37 95.419 36.9614 95.4799 36.8329L96.3211 35.1743H102.051L102.917 36.8329C102.978 36.9614 103.039 37 103.197 37H104.745C104.94 37 104.977 36.8714 104.892 36.7043L100.856 28.9771C100.454 28.2057 100.076 28 99.4543 28H98.735ZM99.0032 29.9157C99.0398 29.8514 99.0764 29.8257 99.1373 29.8257H99.2105C99.2714 29.8257 99.308 29.8514 99.3446 29.9157L101.283 33.6829H97.0892L99.0032 29.9157Z" fill="url(#paint5_radial)"/>
<path d="M105.996 28C105.813 28 105.715 28.09 105.715 28.2829V33.6057C105.715 36.0743 106.666 37 109.129 37H114.14C114.323 37 114.408 36.91 114.408 36.7171V35.4571C114.408 35.2643 114.323 35.1743 114.14 35.1743H109.202C107.946 35.1743 107.581 34.7757 107.581 33.4129V28.2829C107.581 28.09 107.495 28 107.313 28H105.996Z" fill="#D1D1D1"/>
<path d="M105.996 28C105.813 28 105.715 28.09 105.715 28.2829V33.6057C105.715 36.0743 106.666 37 109.129 37H114.14C114.323 37 114.408 36.91 114.408 36.7171V35.4571C114.408 35.2643 114.323 35.1743 114.14 35.1743H109.202C107.946 35.1743 107.581 34.7757 107.581 33.4129V28.2829C107.581 28.09 107.495 28 107.313 28H105.996Z" fill="url(#paint6_radial)"/>
<path d="M120.561 28C120.318 28 120.196 28.1286 120.196 28.3857V36.7171C120.196 36.91 120.293 37 120.476 37H121.793C121.976 37 122.061 36.91 122.061 36.7171V34.2486H127.108C128.973 34.2486 129.729 33.3357 129.729 31.6V30.6486C129.729 28.9129 128.973 28 127.108 28H120.561ZM122.061 29.9286C122.061 29.8129 122.11 29.7743 122.219 29.7743H126.73C127.559 29.7743 127.864 30.1471 127.864 30.9186V31.4071C127.864 32.1786 127.559 32.5514 126.73 32.5514H122.061V29.9286Z" fill="#D1D1D1"/>
<path d="M120.561 28C120.318 28 120.196 28.1286 120.196 28.3857V36.7171C120.196 36.91 120.293 37 120.476 37H121.793C121.976 37 122.061 36.91 122.061 36.7171V34.2486H127.108C128.973 34.2486 129.729 33.3357 129.729 31.6V30.6486C129.729 28.9129 128.973 28 127.108 28H120.561ZM122.061 29.9286C122.061 29.8129 122.11 29.7743 122.219 29.7743H126.73C127.559 29.7743 127.864 30.1471 127.864 30.9186V31.4071C127.864 32.1786 127.559 32.5514 126.73 32.5514H122.061V29.9286Z" fill="url(#paint7_radial)"/>
<path d="M134.555 28C132.093 28 131.142 28.9257 131.142 31.3943V33.6057C131.142 36.0743 132.093 37 134.555 37H138.322C140.797 37 141.736 36.0743 141.736 33.6057V31.3943C141.736 28.9257 140.797 28 138.322 28H134.555ZM133.007 31.5357C133.007 30.1857 133.373 29.7871 134.628 29.7871H138.249C139.505 29.7871 139.871 30.1857 139.871 31.5357V33.4643C139.871 34.8143 139.505 35.2129 138.249 35.2129H134.628C133.373 35.2129 133.007 34.8143 133.007 33.4643V31.5357Z" fill="#D1D1D1"/>
<path d="M134.555 28C132.093 28 131.142 28.9257 131.142 31.3943V33.6057C131.142 36.0743 132.093 37 134.555 37H138.322C140.797 37 141.736 36.0743 141.736 33.6057V31.3943C141.736 28.9257 140.797 28 138.322 28H134.555ZM133.007 31.5357C133.007 30.1857 133.373 29.7871 134.628 29.7871H138.249C139.505 29.7871 139.871 30.1857 139.871 31.5357V33.4643C139.871 34.8143 139.505 35.2129 138.249 35.2129H134.628C133.373 35.2129 133.007 34.8143 133.007 33.4643V31.5357Z" fill="url(#paint8_radial)"/>
<path d="M146.873 28C144.41 28 143.459 28.9257 143.459 31.3943V33.6057C143.459 36.0743 144.41 37 146.873 37H150.64C153.115 37 154.054 36.0743 154.054 33.6057V31.3943C154.054 28.9257 153.115 28 150.64 28H146.873ZM145.325 31.5357C145.325 30.1857 145.69 29.7871 146.946 29.7871H150.567C151.823 29.7871 152.188 30.1857 152.188 31.5357V33.4643C152.188 34.8143 151.823 35.2129 150.567 35.2129H146.946C145.69 35.2129 145.325 34.8143 145.325 33.4643V31.5357Z" fill="#D1D1D1"/>
<path d="M146.873 28C144.41 28 143.459 28.9257 143.459 31.3943V33.6057C143.459 36.0743 144.41 37 146.873 37H150.64C153.115 37 154.054 36.0743 154.054 33.6057V31.3943C154.054 28.9257 153.115 28 150.64 28H146.873ZM145.325 31.5357C145.325 30.1857 145.69 29.7871 146.946 29.7871H150.567C151.823 29.7871 152.188 30.1857 152.188 31.5357V33.4643C152.188 34.8143 151.823 35.2129 150.567 35.2129H146.946C145.69 35.2129 145.325 34.8143 145.325 33.4643V31.5357Z" fill="url(#paint9_radial)"/>
<path d="M156.13 28C155.948 28 155.85 28.09 155.85 28.2829V33.6057C155.85 36.0743 156.801 37 159.264 37H164.274C164.457 37 164.542 36.91 164.542 36.7171V35.4571C164.542 35.2643 164.457 35.1743 164.274 35.1743H159.337C158.081 35.1743 157.715 34.7757 157.715 33.4129V28.2829C157.715 28.09 157.63 28 157.447 28H156.13Z" fill="#D1D1D1"/>
<path d="M156.13 28C155.948 28 155.85 28.09 155.85 28.2829V33.6057C155.85 36.0743 156.801 37 159.264 37H164.274C164.457 37 164.542 36.91 164.542 36.7171V35.4571C164.542 35.2643 164.457 35.1743 164.274 35.1743H159.337C158.081 35.1743 157.715 34.7757 157.715 33.4129V28.2829C157.715 28.09 157.63 28 157.447 28H156.13Z" fill="url(#paint10_radial)"/>
<path d="M167.953 28C166.478 28 165.796 28.8486 165.796 30.0957V31.0343C165.796 32.4486 166.527 33.2457 167.929 33.2457H172.501C172.927 33.2457 173.135 33.49 173.135 33.9657V34.4929C173.135 34.9429 172.952 35.2129 172.489 35.2129H166.088C165.905 35.2129 165.808 35.3029 165.808 35.4957V36.7171C165.808 36.91 165.905 37 166.088 37H172.842C174.317 37 175 36.1514 175 34.9043V33.8757C175 32.4614 174.269 31.6643 172.867 31.6643H168.295C167.868 31.6643 167.661 31.42 167.661 30.9443V30.5071C167.661 30.0571 167.844 29.7871 168.307 29.7871H174.415C174.598 29.7871 174.683 29.6971 174.683 29.5043V28.2829C174.683 28.09 174.598 28 174.415 28H167.953Z" fill="#D1D1D1"/>
<path d="M167.953 28C166.478 28 165.796 28.8486 165.796 30.0957V31.0343C165.796 32.4486 166.527 33.2457 167.929 33.2457H172.501C172.927 33.2457 173.135 33.49 173.135 33.9657V34.4929C173.135 34.9429 172.952 35.2129 172.489 35.2129H166.088C165.905 35.2129 165.808 35.3029 165.808 35.4957V36.7171C165.808 36.91 165.905 37 166.088 37H172.842C174.317 37 175 36.1514 175 34.9043V33.8757C175 32.4614 174.269 31.6643 172.867 31.6643H168.295C167.868 31.6643 167.661 31.42 167.661 30.9443V30.5071C167.661 30.0571 167.844 29.7871 168.307 29.7871H174.415C174.598 29.7871 174.683 29.6971 174.683 29.5043V28.2829C174.683 28.09 174.598 28 174.415 28H167.953Z" fill="url(#paint11_radial)"/>
<defs>
<radialGradient id="paint0_radial" cx="0" cy="0" r="1" gradientUnits="userSpaceOnUse" gradientTransform="translate(111.594 25.5893) rotate(90) scale(11.4107 81.3421)">
<stop stop-color="white"/>
<stop offset="1" stop-color="#A9A9A9"/>
</radialGradient>
<radialGradient id="paint1_radial" cx="0" cy="0" r="1" gradientUnits="userSpaceOnUse" gradientTransform="translate(111.594 25.5893) rotate(90) scale(11.4107 81.3421)">
<stop stop-color="white"/>
<stop offset="1" stop-color="#A9A9A9"/>
</radialGradient>
<radialGradient id="paint2_radial" cx="0" cy="0" r="1" gradientUnits="userSpaceOnUse" gradientTransform="translate(111.594 25.5893) rotate(90) scale(11.4107 81.3421)">
<stop stop-color="white"/>
<stop offset="1" stop-color="#A9A9A9"/>
</radialGradient>
<radialGradient id="paint3_radial" cx="0" cy="0" r="1" gradientUnits="userSpaceOnUse" gradientTransform="translate(111.594 25.5893) rotate(90) scale(11.4107 81.3421)">
<stop stop-color="white"/>
<stop offset="1" stop-color="#A9A9A9"/>
</radialGradient>
<radialGradient id="paint4_radial" cx="0" cy="0" r="1" gradientUnits="userSpaceOnUse" gradientTransform="translate(111.594 25.5893) rotate(90) scale(11.4107 81.3421)">
<stop stop-color="white"/>
<stop offset="1" stop-color="#A9A9A9"/>
</radialGradient>
<radialGradient id="paint5_radial" cx="0" cy="0" r="1" gradientUnits="userSpaceOnUse" gradientTransform="translate(111.594 25.5893) rotate(90) scale(11.4107 81.3421)">
<stop stop-color="white"/>
<stop offset="1" stop-color="#A9A9A9"/>
</radialGradient>
<radialGradient id="paint6_radial" cx="0" cy="0" r="1" gradientUnits="userSpaceOnUse" gradientTransform="translate(111.594 25.5893) rotate(90) scale(11.4107 81.3421)">
<stop stop-color="white"/>
<stop offset="1" stop-color="#A9A9A9"/>
</radialGradient>
<radialGradient id="paint7_radial" cx="0" cy="0" r="1" gradientUnits="userSpaceOnUse" gradientTransform="translate(111.594 25.5893) rotate(90) scale(11.4107 81.3421)">
<stop stop-color="white"/>
<stop offset="1" stop-color="#A9A9A9"/>
</radialGradient>
<radialGradient id="paint8_radial" cx="0" cy="0" r="1" gradientUnits="userSpaceOnUse" gradientTransform="translate(111.594 25.5893) rotate(90) scale(11.4107 81.3421)">
<stop stop-color="white"/>
<stop offset="1" stop-color="#A9A9A9"/>
</radialGradient>
<radialGradient id="paint9_radial" cx="0" cy="0" r="1" gradientUnits="userSpaceOnUse" gradientTransform="translate(111.594 25.5893) rotate(90) scale(11.4107 81.3421)">
<stop stop-color="white"/>
<stop offset="1" stop-color="#A9A9A9"/>
</radialGradient>
<radialGradient id="paint10_radial" cx="0" cy="0" r="1" gradientUnits="userSpaceOnUse" gradientTransform="translate(111.594 25.5893) rotate(90) scale(11.4107 81.3421)">
<stop stop-color="white"/>
<stop offset="1" stop-color="#A9A9A9"/>
</radialGradient>
<radialGradient id="paint11_radial" cx="0" cy="0" r="1" gradientUnits="userSpaceOnUse" gradientTransform="translate(111.594 25.5893) rotate(90) scale(11.4107 81.3421)">
<stop stop-color="white"/>
<stop offset="1" stop-color="#A9A9A9"/>
</radialGradient>
</defs>
</svg>
