<svg width="40" height="41" viewBox="0 0 40 41" fill="none" xmlns="http://www.w3.org/2000/svg">
<path d="M13.1228 28.0652C14.7702 30.4459 16.4149 32.5752 17.5049 33.9466C17.6635 34.1462 17.8122 34.3313 17.9562 34.5097H14.6669C14.2987 34.5097 14.0002 34.8156 14.0002 35.193C14.0002 35.5704 14.2987 35.8763 14.6669 35.8763H25.3335C25.7017 35.8763 26.0001 35.5704 26.0001 35.193C26.0001 34.8156 25.7017 34.5097 25.3335 34.5097H22.0442C22.1882 34.3313 22.3368 34.1461 22.4962 33.9466C23.5855 32.5799 25.2296 30.4459 26.8776 28.0652C28.5127 25.7505 29.9844 23.3192 31.2816 20.7897C32.6429 18.0495 33.3336 15.7748 33.3336 14.0282C33.3381 10.3989 31.9331 6.91712 29.4289 4.3514C29.2616 4.17363 29.0138 4.1022 28.7807 4.16458C28.5476 4.22696 28.3654 4.41338 28.3042 4.65226C28.243 4.89113 28.3123 5.14522 28.4855 5.31691C30.7396 7.62669 32.0042 10.761 32.0002 14.0281C32.0002 15.5574 31.3589 17.6238 30.0936 20.1692C28.8257 22.64 27.3873 25.015 25.7896 27.2759C24.1643 29.6259 22.5396 31.7313 21.4629 33.0843C21.105 33.5339 20.7829 33.9316 20.5082 34.2678C20.38 34.4179 20.1949 34.5039 20.0003 34.5039C19.8057 34.5039 19.6205 34.4178 19.4923 34.2678C19.2176 33.9317 18.8957 33.5339 18.5376 33.0843C17.461 31.732 15.8363 29.6266 14.211 27.2759C12.6132 25.015 11.1748 22.64 9.90695 20.1692C8.64031 17.6238 8.0003 15.5574 8.0003 14.0281C7.99991 9.07851 10.8877 4.60869 15.3337 2.6772C18.321 1.39322 21.6864 1.39322 24.6737 2.6772C24.8931 2.77249 25.1454 2.7407 25.3356 2.5936C25.5258 2.44658 25.6251 2.20666 25.5959 1.96426C25.5668 1.72187 25.4137 1.51382 25.1944 1.41853C18.4054 -1.51651 10.5805 1.74381 7.71499 8.7015C7.02006 10.3868 6.66366 12.1984 6.66702 14.0281C6.66702 15.7747 7.35772 18.0495 8.71906 20.7931C10.0161 23.3214 11.4879 25.7516 13.1228 28.0652Z" fill="url(#paint0_linear)"/>
<path d="M20.0005 7.85978C20.3687 7.85978 20.6671 7.55388 20.6671 7.17647C20.6671 6.79906 20.3687 6.49316 20.0005 6.49316C16.82 6.49308 14.0823 8.79598 13.4618 11.9934C12.8412 15.1907 14.5107 18.3921 17.4491 19.6397C20.3874 20.8873 23.7764 19.8336 25.5435 17.123C27.3105 14.4124 26.9634 10.7999 24.7145 8.49464C24.5471 8.31703 24.2993 8.24576 24.0661 8.3083C23.8331 8.37084 23.651 8.55743 23.59 8.7963C23.529 9.03525 23.5985 9.28926 23.7718 9.46087C25.5711 11.305 25.8488 14.1949 24.4353 16.3635C23.0217 18.532 20.3106 19.3751 17.9599 18.3771C15.6091 17.3792 14.2735 14.8181 14.7698 12.2602C15.266 9.70223 17.4561 7.85986 20.0005 7.85978Z" fill="url(#paint1_linear)"/>
<path d="M39.749 37.6333L35.649 30.1165C35.2783 29.4487 34.5846 29.0382 33.835 29.043H29.0837C28.7155 29.043 28.417 29.3489 28.417 29.7263C28.417 30.1037 28.7155 30.4096 29.0837 30.4096H33.835C34.1019 30.4043 34.3509 30.547 34.4863 30.7827L38.585 38.2994C38.6967 38.495 38.6943 38.7375 38.579 38.9309C38.4428 39.1615 38.1966 39.2996 37.9337 39.2931H2.06693C1.80428 39.2995 1.55834 39.1612 1.42224 38.9309C1.30693 38.7375 1.30467 38.495 1.41623 38.2994L5.51491 30.7827C5.65015 30.547 5.8989 30.4044 6.16554 30.4096H10.9169C11.2851 30.4096 11.5835 30.1037 11.5835 29.7263C11.5835 29.3489 11.2851 29.043 10.9169 29.043H6.16562C5.41562 29.038 4.7214 29.4485 4.3503 30.1165L0.250912 37.6333C-0.0908864 38.2521 -0.0829957 39.0113 0.271615 39.6225C0.64521 40.2734 1.33029 40.6692 2.06693 40.6598H37.9337C38.6701 40.669 39.355 40.2732 39.7284 39.6225C40.083 39.0112 40.0909 38.2521 39.749 37.6333Z" fill="url(#paint2_linear)"/>
<path d="M32.667 32.46H30.0003C29.8687 32.4602 29.74 32.5001 29.6303 32.5748L27.6303 33.9415C27.324 34.151 27.2413 34.5753 27.4456 34.8893C27.65 35.2033 28.064 35.288 28.3703 35.0786L30.2003 33.8267H32.667C33.0352 33.8267 33.3336 33.5208 33.3336 33.1434C33.3336 32.7659 33.0352 32.46 32.667 32.46Z" fill="url(#paint3_linear)"/>
<path d="M28.667 37.2429C28.667 37.6203 28.9654 37.9262 29.3336 37.9262H34.667C35.0352 37.9262 35.3337 37.6203 35.3337 37.2429C35.3337 36.8655 35.0352 36.5596 34.667 36.5596H29.3336C28.9654 36.5596 28.667 36.8655 28.667 37.2429Z" fill="url(#paint4_linear)"/>
<path d="M12.0003 35.1934C12.2942 35.1938 12.5537 34.9968 12.639 34.7085C12.7244 34.4202 12.6155 34.1086 12.371 33.9415L10.371 32.5748C10.2611 32.5 10.1322 32.46 10.0003 32.46H7.33364C6.96543 32.46 6.66699 32.7659 6.66699 33.1433C6.66699 33.5207 6.96551 33.8266 7.33364 33.8266H9.80029L11.6323 35.0784C11.7413 35.1531 11.8694 35.193 12.0003 35.1934Z" fill="url(#paint5_linear)"/>
<path d="M5.33364 36.5596C4.96543 36.5596 4.66699 36.8655 4.66699 37.2429C4.66699 37.6203 4.96543 37.9262 5.33364 37.9262H10.667C11.0352 37.9262 11.3337 37.6203 11.3337 37.2429C11.3337 36.8655 11.0352 36.5596 10.667 36.5596H5.33364Z" fill="url(#paint6_linear)"/>
<defs>
<linearGradient id="paint0_linear" x1="20.0003" y1="0.339844" x2="20.0003" y2="35.8763" gradientUnits="userSpaceOnUse">
<stop/>
<stop offset="1" stop-color="#3D4356"/>
</linearGradient>
<linearGradient id="paint1_linear" x1="20.0001" y1="6.49316" x2="20.0001" y2="20.1606" gradientUnits="userSpaceOnUse">
<stop/>
<stop offset="1" stop-color="#3D4356"/>
</linearGradient>
<linearGradient id="paint2_linear" x1="20" y1="29.043" x2="20" y2="40.66" gradientUnits="userSpaceOnUse">
<stop/>
<stop offset="1" stop-color="#3D4356"/>
</linearGradient>
<linearGradient id="paint3_linear" x1="30.3336" y1="32.46" x2="30.3336" y2="35.1935" gradientUnits="userSpaceOnUse">
<stop/>
<stop offset="1" stop-color="#3D4356"/>
</linearGradient>
<linearGradient id="paint4_linear" x1="32.0003" y1="36.5596" x2="32.0003" y2="37.9262" gradientUnits="userSpaceOnUse">
<stop/>
<stop offset="1" stop-color="#3D4356"/>
</linearGradient>
<linearGradient id="paint5_linear" x1="9.66742" y1="32.46" x2="9.66742" y2="35.1934" gradientUnits="userSpaceOnUse">
<stop/>
<stop offset="1" stop-color="#3D4356"/>
</linearGradient>
<linearGradient id="paint6_linear" x1="8.00032" y1="36.5596" x2="8.00032" y2="37.9262" gradientUnits="userSpaceOnUse">
<stop/>
<stop offset="1" stop-color="#3D4356"/>
</linearGradient>
</defs>
</svg>
