<svg width="33" height="12" viewBox="0 0 33 12" fill="none" xmlns="http://www.w3.org/2000/svg">
<path opacity="0.7" d="M32.1209 5.43902L23.2882 0.339471C22.9256 0.130139 22.4619 0.254404 22.2525 0.616962C22.0431 0.979596 22.1675 1.44322 22.53 1.65263L28.9148 5.33886L0.5 5.07012L0.5 5.99319L0.500059 6.60858L28.9097 6.85521L22.53 10.5386C22.1674 10.748 22.0431 11.2117 22.2525 11.5743C22.393 11.8175 22.6478 11.9535 22.9098 11.9535C23.0384 11.9535 23.1688 11.9206 23.2882 11.8518L32.1209 6.75217C32.3555 6.61676 32.5 6.36641 32.5 6.09559C32.5 5.82477 32.3555 5.57443 32.1209 5.43902Z" fill="black"/>
</svg>
