<svg width="10" height="17" viewBox="0 0 10 17" fill="none" xmlns="http://www.w3.org/2000/svg">
<path d="M9.62343 0.00353713L7.22488 0C4.5302 0 2.78878 1.64211 2.78878 4.18372V6.1127H0.377148C0.168755 6.1127 0 6.26798 0 6.45951V9.25438C0 9.44592 0.168947 9.60102 0.377148 9.60102H2.78878V16.6534C2.78878 16.8449 2.95753 17 3.16593 17H6.31242C6.52081 17 6.68957 16.8447 6.68957 16.6534V9.60102H9.50932C9.71772 9.60102 9.88647 9.44592 9.88647 9.25438L9.88763 6.45951C9.88763 6.36755 9.84779 6.27948 9.77718 6.21439C9.70656 6.14931 9.61034 6.1127 9.51029 6.1127H6.68957V4.47748C6.68957 3.69153 6.89334 3.29254 8.00727 3.29254L9.62304 3.29201C9.83125 3.29201 10 3.13673 10 2.94537V0.350176C10 0.158994 9.83144 0.00389085 9.62343 0.00353713Z" fill="black"/>
</svg>
