<svg width="32" height="21" viewBox="0 0 32 21" fill="none" xmlns="http://www.w3.org/2000/svg">
<g clip-path="url(#clip0)">
<path d="M20.1098 2.5957H11.5498V17.9807H20.1098V2.5957Z" fill="#756D6B"/>
<path d="M12.0932 10.2909C12.0915 8.80879 12.4271 7.34574 13.0745 6.01255C13.722 4.67935 14.6643 3.51097 15.8302 2.59589C14.3868 1.46165 12.6534 0.756375 10.8281 0.560655C9.00285 0.364935 7.15934 0.686671 5.50827 1.48909C3.8572 2.29151 2.46518 3.54224 1.49131 5.09835C0.517427 6.65446 0.000976562 8.45316 0.000976562 10.2889C0.000976562 12.1246 0.517427 13.9233 1.49131 15.4794C2.46518 17.0355 3.8572 18.2863 5.50827 19.0887C7.15934 19.8911 9.00285 20.2128 10.8281 20.0171C12.6534 19.8214 14.3868 19.1161 15.8302 17.9819C14.6648 17.0672 13.7228 15.8995 13.0754 14.567C12.428 13.2346 12.0921 11.7723 12.0932 10.2909Z" fill="#5C5654"/>
<path d="M31.6621 10.2901C31.6617 12.126 31.1449 13.9248 30.1707 15.4809C29.1964 17.0369 27.8041 18.2875 26.1527 19.0897C24.5014 19.8919 22.6576 20.2134 20.8322 20.0173C19.0069 19.8213 17.2734 19.1157 15.8301 17.9811C16.9948 17.0655 17.9363 15.8974 18.5838 14.5648C19.2312 13.2323 19.5676 11.7701 19.5676 10.2886C19.5676 8.80714 19.2312 7.34497 18.5838 6.01243C17.9363 4.67989 16.9948 3.51176 15.8301 2.59614C17.2733 1.46118 19.0068 0.755225 20.8323 0.558982C22.6579 0.362739 24.5018 0.684126 26.1533 1.4864C27.8048 2.28868 29.1972 3.53947 30.1714 5.09577C31.1455 6.65208 31.6621 8.45109 31.6621 10.2871V10.2901Z" fill="#7D7876"/>
<path d="M30.7268 16.3507V16.0347H30.8538V15.9697H30.5308V16.0347H30.6698V16.3507H30.7268ZM31.3538 16.3507V15.9697H31.2568L31.1418 16.2417L31.0278 15.9697H30.9408V16.3497H31.0108V16.0647L31.1178 16.3127H31.1908L31.2968 16.0647V16.3527L31.3538 16.3507Z" fill="#F79E1B"/>
</g>
<defs>
<clipPath id="clip0">
<rect width="32" height="20" fill="white" transform="translate(0 0.50293)"/>
</clipPath>
</defs>
</svg>
