<svg width="49" height="17" viewBox="0 0 49 17" fill="none" xmlns="http://www.w3.org/2000/svg">
<g opacity="0.5">
<path opacity="0.5" d="M20.9801 16.0998H17.0581L19.5101 0.849844H23.4311L20.9781 16.0998H20.9801ZM35.1971 1.22284C34.0754 0.788116 32.8821 0.567637 31.6791 0.572844C27.8061 0.572844 25.0791 2.64984 25.0621 5.61884C25.0301 7.80884 27.0151 9.02584 28.4991 9.75584C30.0161 10.5028 30.5321 10.9898 30.5321 11.6548C30.5171 12.6768 29.3061 13.1478 28.1771 13.1478C26.6111 13.1478 25.7721 12.9048 24.4971 12.3358L23.9811 12.0928L23.4321 15.5158C24.3521 15.9368 26.0471 16.3108 27.8061 16.3278C31.9211 16.3278 34.6001 14.2828 34.6321 11.1198C34.6481 9.38284 33.6001 8.05284 31.3401 6.96584C29.9681 6.26884 29.1281 5.79784 29.1281 5.08384C29.1441 4.43484 29.8381 3.76984 31.3881 3.76984C32.3931 3.74069 33.3916 3.94038 34.3081 4.35384L34.6631 4.51584L35.1971 1.22284ZM40.4101 10.6978L41.9751 6.43084C41.9591 6.46284 42.2971 5.53884 42.4911 4.97084L42.7651 6.28484C42.7651 6.28484 43.5081 9.93484 43.6691 10.6978H40.4091H40.4101ZM45.2501 0.849844H42.2171C41.2811 0.849844 40.5701 1.12584 40.1671 2.11484L34.3401 16.0998H38.4551L39.2781 13.8118H44.3141C44.4271 14.3478 44.7821 16.0998 44.7821 16.0998H48.4131L45.2501 0.849844ZM13.7821 0.849844L9.9411 11.2498L9.5211 9.13984C8.8111 6.70684 6.5841 4.06284 4.1001 2.74784L7.6171 16.0828H11.7641L17.9301 0.849844H13.7831H13.7821Z" fill="#7D7876"/>
<path opacity="0.5" d="M6.374 0.849609H0.064L0 1.15761C4.922 2.42361 8.182 5.47361 9.521 9.14061L8.15 2.13161C7.924 1.15761 7.23 0.882609 6.374 0.849609Z" fill="#7D7876"/>
</g>
</svg>
