<svg width="19" height="15" viewBox="0 0 19 15" fill="none" xmlns="http://www.w3.org/2000/svg">
<path d="M7.08827 15C6.26665 15 5.42097 14.9358 4.57022 14.8072C3.07179 14.5804 1.55496 13.8243 1.12574 13.5979L0 13.0042L1.2188 12.6176C2.55111 12.1951 3.36156 11.9329 4.36481 11.5223C3.36026 11.0531 2.58604 10.2089 2.21335 9.11773L1.92982 8.28743L2.16233 8.32169C1.94185 8.10733 1.76776 7.88976 1.6328 7.6919C1.15285 6.98871 0.898736 6.12947 0.952805 5.39314L1.00615 4.66841L1.45595 4.83648C1.2662 4.49083 1.12907 4.12168 1.04848 3.73478C0.85206 2.79122 1.01644 1.7888 1.51147 0.912215L1.90329 0.21839L2.42731 0.825522C4.08461 2.74592 6.18374 3.88509 8.67512 4.21858C8.57336 3.54196 8.64961 2.88896 8.90198 2.30364C9.19581 1.62212 9.71852 1.04421 10.4132 0.63228C11.1846 0.174904 12.1202 -0.0467232 13.0475 0.00822915C14.0313 0.0665373 14.9245 0.422119 15.6339 1.03722C15.9804 0.950388 16.2357 0.857683 16.5807 0.732397C16.7882 0.65703 17.0237 0.571455 17.3182 0.473576L18.4036 0.11282L17.6958 2.06286C17.7425 2.05908 17.7906 2.05587 17.8409 2.05377L19 2.00315L18.3149 2.9063C18.2756 2.95803 18.2656 2.97272 18.2517 2.99299C18.1965 3.07325 18.1278 3.17309 17.1875 4.38428C16.952 4.68756 16.8345 5.08258 16.8564 5.49675C16.9397 7.07065 16.7395 8.49465 16.261 9.72905C15.8085 10.8969 15.1072 11.8989 14.1768 12.7072C13.0256 13.7073 11.5576 14.392 9.81347 14.7422C8.95793 14.9139 8.03919 15 7.08827 15Z" fill="black"/>
</svg>
