<svg width="19" height="21" viewBox="0 0 19 21" fill="none" xmlns="http://www.w3.org/2000/svg">
<path fill-rule="evenodd" clip-rule="evenodd" d="M3 1.5C3 0.947716 3.44771 0.5 4 0.5H4.5C5.05228 0.5 5.5 0.947715 5.5 1.5V2.69231H13.5V1.5C13.5 0.947716 13.9477 0.5 14.5 0.5H15C15.5523 0.5 16 0.947715 16 1.5V2.69231H18C18.5523 2.69231 19 3.14002 19 3.69231V19.5C19 20.0523 18.5523 20.5 18 20.5H1C0.447716 20.5 0 20.0523 0 19.5V3.69231C0 3.14002 0.447715 2.69231 1 2.69231H3V1.5ZM3 3.69231L1 3.69231V6.34615H18V3.69231H16V4.88461C16 5.4369 15.5523 5.88462 15 5.88462H14.5C13.9477 5.88462 13.5 5.4369 13.5 4.88461V3.69231H5.5V4.88461C5.5 5.4369 5.05229 5.88462 4.5 5.88462H4C3.44772 5.88462 3 5.4369 3 4.88461V3.69231ZM18 7.34615H1V19.5H18V7.34615ZM4.5 1.5L4 1.5V4.88461H4.5V1.5ZM15 1.5L14.5 1.5V4.88461H15V1.5ZM13.52 9.34837C13.7524 9.49747 13.82 9.80676 13.6709 10.0392L10.2517 15.3695C9.90999 15.9023 9.16549 15.9876 8.71215 15.5458L6.15107 13.0504C5.95329 12.8577 5.94918 12.5412 6.14189 12.3434C6.3346 12.1456 6.65115 12.1415 6.84893 12.3342L9.41001 14.8296L12.8291 9.49927C12.9782 9.26684 13.2875 9.19928 13.52 9.34837Z" fill="#525252"/>
</svg>
