<svg width="16" height="23" viewBox="0 0 16 23" fill="none" xmlns="http://www.w3.org/2000/svg">
<path d="M14.5637 14.6711C13.6507 14.6711 12.7542 14.4661 11.9046 14.0631C11.4883 13.8592 10.9766 14.0462 10.7225 14.4208L9.04568 16.2381C7.10102 14.7478 5.90315 13.0287 4.87927 10.2578L6.10786 7.91318C6.42706 7.45554 6.54155 6.78703 6.40438 6.15978C6.12242 4.93372 5.9792 3.64727 5.9792 2.33591C5.97924 1.38857 5.4424 0.617859 4.78257 0.617859H2.04383C1.384 0.617859 0.847168 1.38857 0.847168 2.33585C0.847168 13.1942 7.00032 22.0279 14.5637 22.0279C15.2235 22.0279 15.7604 21.2572 15.7604 20.3099V16.3891C15.7603 15.4418 15.2235 14.6711 14.5637 14.6711Z" fill="#DCBA97" fill-opacity="0.6"/>
</svg>
