<svg width="14" height="14" viewBox="0 0 14 14" fill="none" xmlns="http://www.w3.org/2000/svg">
<path d="M10.2103 0.000976562H3.78967C1.70001 0.000976562 0 1.70099 0 3.79065V10.2114C0 12.301 1.70001 14.001 3.78967 14.001H10.2104C12.3 14.001 14 12.301 14 10.2114V3.79065C14 1.70099 12.3 0.000976563 10.2103 0.000976563V0.000976562ZM7 10.829C4.88919 10.829 3.17198 9.11179 3.17198 7.00098C3.17198 4.89017 4.88919 3.17296 7 3.17296C9.11081 3.17296 10.828 4.89017 10.828 7.00098C10.828 9.11179 9.11081 10.829 7 10.829ZM10.9196 4.07573C10.2958 4.07573 9.78842 3.56837 9.78842 2.9446C9.78842 2.32082 10.2958 1.81335 10.9196 1.81335C11.5433 1.81335 12.0508 2.32082 12.0508 2.9446C12.0508 3.56837 11.5433 4.07573 10.9196 4.07573Z" fill="white"/>
<path d="M7.00044 3.99365C5.3423 3.99365 3.99316 5.34268 3.99316 7.00093C3.99316 8.65907 5.3423 10.0082 7.00044 10.0082C8.65869 10.0082 10.0077 8.65907 10.0077 7.00093C10.0077 5.34268 8.65869 3.99365 7.00044 3.99365Z" fill="white"/>
<path d="M10.9198 2.63428C10.7487 2.63428 10.6094 2.77356 10.6094 2.94467C10.6094 3.11578 10.7487 3.25507 10.9198 3.25507C11.091 3.25507 11.2303 3.11589 11.2303 2.94467C11.2303 2.77345 11.091 2.63428 10.9198 2.63428Z" fill="white"/>
</svg>
