<svg width="30" height="42" viewBox="0 0 30 42" fill="none" xmlns="http://www.w3.org/2000/svg">
<path d="M14.5495 0C6.52686 0 0 6.82353 0 15.2107C0 25.6195 13.0204 40.9003 13.5747 41.5457C14.0954 42.152 15.0045 42.1509 15.5243 41.5457C16.0786 40.9003 29.099 25.6195 29.099 15.2107C29.0988 6.82353 22.572 0 14.5495 0ZM14.5495 22.8637C10.5131 22.8637 7.22935 19.4306 7.22935 15.2107C7.22935 10.9909 10.5132 7.55788 14.5495 7.55788C18.5858 7.55788 21.8695 10.991 21.8695 15.2108C21.8695 19.4307 18.5858 22.8637 14.5495 22.8637Z" fill="#DCBA97"/>
</svg>
