<svg width="31" height="30" viewBox="0 0 31 30" fill="none" xmlns="http://www.w3.org/2000/svg">
<path d="M17.6256 15L30.625 2.00058C31.0827 1.5429 31.0827 0.800872 30.625 0.343256C30.1673 -0.11436 29.4253 -0.114419 28.9677 0.343256L15.9682 13.3427L2.96884 0.343256C2.51116 -0.114419 1.76913 -0.114419 1.31152 0.343256C0.853902 0.80093 0.853843 1.54296 1.31152 2.00058L14.3109 15L1.31152 27.9994C0.853843 28.4571 0.853843 29.1991 1.31152 29.6567C1.54033 29.8856 1.84027 29.9999 2.14021 29.9999C2.44015 29.9999 2.74003 29.8856 2.9689 29.6567L15.9682 16.6573L28.9676 29.6567C29.1964 29.8856 29.4964 29.9999 29.7963 29.9999C30.0963 29.9999 30.3961 29.8856 30.625 29.6567C31.0827 29.1991 31.0827 28.457 30.625 27.9994L17.6256 15Z" fill="black"/>
</svg>
