<svg width="21" height="23" viewBox="0 0 21 23" fill="none" xmlns="http://www.w3.org/2000/svg">
<path d="M18.4001 14.7289C17.1756 14.7289 15.9733 14.514 14.834 14.0916C14.2757 13.8779 13.5894 14.0739 13.2487 14.4666L10.9999 16.3712C8.39191 14.8093 6.78546 13.0075 5.41233 10.1034L7.05999 7.64605C7.48806 7.16641 7.6416 6.46576 7.45764 5.80836C7.07952 4.52335 6.88744 3.17506 6.88744 1.80064C6.88749 0.80776 6.16754 0 5.28264 0H1.60973C0.724831 0 0.00488281 0.80776 0.00488281 1.80059C0.00488281 13.181 8.25686 22.4394 18.4001 22.4394C19.285 22.4394 20.0049 21.6316 20.0049 20.6388V16.5294C20.0049 15.5367 19.2849 14.7289 18.4001 14.7289Z" fill="#DCBA97"/>
</svg>
