<svg width="145" height="144" viewBox="0 0 145 144" fill="none" xmlns="http://www.w3.org/2000/svg">
<ellipse cx="72.5" cy="72" rx="72.5" ry="72" fill="white"/>
<g clip-path="url(#clip0)">
<path d="M72.334 106.446C75.3597 106.446 77.8125 103.993 77.8125 100.968C77.8125 97.9419 75.3597 95.4891 72.334 95.4891C69.3083 95.4891 66.8555 97.9419 66.8555 100.968C66.8555 103.993 69.3083 106.446 72.334 106.446Z" fill="black"/>
<path d="M114.109 54.7098C103.196 43.0019 88.4199 36.5538 72.4994 36.5537C56.5802 36.5538 41.8036 43.0019 30.8913 54.7098C29.6412 56.0512 29.7151 58.1523 31.0565 59.4025C32.398 60.6526 34.499 60.5789 35.7492 59.2373C45.3914 48.8919 58.4429 43.1945 72.5005 43.1943C86.557 43.1945 99.6085 48.8919 109.251 59.2373C109.905 59.9389 110.791 60.2939 111.68 60.2939C112.491 60.2939 113.304 59.9987 113.943 59.4025C115.285 58.1521 115.359 56.0512 114.109 54.7098Z" fill="black"/>
<path d="M101.917 68.4217C93.851 60.2945 83.4038 55.8189 72.4999 55.8193C61.5936 55.8194 51.1462 60.2952 43.0825 68.422C41.7909 69.7237 41.7991 71.826 43.1008 73.1176C44.4025 74.4092 46.5048 74.401 47.7964 73.0993C54.6038 66.2386 63.3771 62.4601 72.4999 62.4599C81.6205 62.4596 90.3937 66.2382 97.2037 73.0996C97.8528 73.7536 98.7065 74.081 99.5604 74.081C100.406 74.081 101.252 73.7599 101.9 73.1172C103.201 71.8255 103.209 69.7232 101.917 68.4217Z" fill="black"/>
<path d="M88.6277 82.1734C84.3079 77.8937 78.1161 75.2353 72.4679 75.2353C72.4672 75.2353 72.4661 75.2353 72.4654 75.2353H72.2262C72.2252 75.2353 72.2247 75.2353 72.2237 75.2353C66.5754 75.2353 60.383 77.8939 56.0634 82.1734C54.7609 83.464 54.7511 85.5662 56.0417 86.869C56.691 87.5242 57.5456 87.8524 58.4004 87.8524C59.2449 87.8524 60.0898 87.5322 60.7371 86.8909C63.8122 83.8442 68.3207 81.8759 72.224 81.8759C72.2245 81.8759 72.2252 81.8759 72.2257 81.8759H72.4659C72.4666 81.8759 72.4667 81.8759 72.4674 81.8759C76.3703 81.8759 80.8791 83.8443 83.9538 86.8909C85.2564 88.1813 87.359 88.172 88.6494 86.869C89.9402 85.5664 89.9304 83.464 88.6277 82.1734Z" fill="black"/>
</g>
<defs>
<clipPath id="clip0">
<rect width="85" height="85" fill="white" transform="translate(30 29)"/>
</clipPath>
</defs>
</svg>
