<svg width="145" height="144" viewBox="0 0 145 144" fill="none" xmlns="http://www.w3.org/2000/svg">
<ellipse cx="72.5" cy="72" rx="72.5" ry="72" fill="white"/>
<g clip-path="url(#clip0)">
<path d="M111.548 77.4681L107.56 48.9143C106.944 44.6186 103.227 41.3795 98.9135 41.3795H86.2777C75.7995 41.3795 65.6969 44.5305 57.0619 50.4918C48.4237 56.4554 41.8739 64.8035 38.1211 74.6336C38.1029 74.6812 38.0862 74.7294 38.0709 74.778L37.2278 77.4678H35.5315C34.4766 77.4678 33.5392 78.1481 33.2007 79.1592L30.1301 88.3315C29.8756 89.0917 29.9989 89.9294 30.461 90.5817C30.9232 91.234 31.6677 91.6208 32.4609 91.6208H111.539C112.898 91.6208 114 90.5058 114 89.1306V79.9582C114 78.5857 112.903 77.4731 111.548 77.4681ZM42.7391 76.3578C46.1352 67.5039 52.0457 59.9839 59.8358 54.6058C67.6497 49.2113 76.7931 46.3598 86.2777 46.3598H98.9135C100.799 46.3598 102.422 47.7653 102.687 49.6202L106.577 77.4676H42.3913L42.7391 76.3578ZM109.078 86.64H35.893L37.2962 82.4481H39.0128C39.0184 82.4481 39.0241 82.4488 39.0297 82.4488C39.0351 82.4488 39.0403 82.4481 39.0458 82.4481H109.078V86.64Z" fill="black" stroke="white" stroke-width="2"/>
<path d="M100.283 74.0482C101.653 74.0482 102.764 72.9333 102.764 71.558C102.764 70.1827 101.653 69.0677 100.283 69.0677C98.9133 69.0677 97.8027 70.1827 97.8027 71.558C97.8027 72.9333 98.9133 74.0482 100.283 74.0482Z" fill="black" stroke="white"/>
<path d="M91.1875 74.0482C92.5574 74.0482 93.668 72.9333 93.668 71.558C93.668 70.1827 92.5574 69.0677 91.1875 69.0677C89.8176 69.0677 88.707 70.1827 88.707 71.558C88.707 72.9333 89.8176 74.0482 91.1875 74.0482Z" fill="black" stroke="white"/>
<path d="M98.487 54.2616C98.487 51.7257 96.4406 49.6626 93.9256 49.6626H80.3602C75.5957 49.6626 66.7878 51.2137 61.3309 61.6018C60.9254 62.3736 60.9496 63.3041 61.3946 64.0534C61.8395 64.8026 62.6401 65.261 63.5039 65.261H96.026C97.3851 65.261 98.487 64.146 98.487 62.7707V54.2616ZM93.5651 60.2803H68.1144C69.3647 58.7995 70.7922 57.5977 72.3845 56.6886C74.7616 55.3312 77.4451 54.6429 80.3602 54.6429H93.5649V60.2803H93.5651Z" fill="black" stroke="white"/>
</g>
<defs>
<clipPath id="clip0">
<rect width="84" height="85" fill="white" transform="translate(30 24)"/>
</clipPath>
</defs>
</svg>
