<svg width="144" height="144" viewBox="0 0 144 144" fill="none" xmlns="http://www.w3.org/2000/svg">
<circle cx="72" cy="72" r="72" fill="white"/>
<g clip-path="url(#clip0)">
<path d="M101.771 55.2633C102.361 55.2633 102.84 54.7782 102.84 54.1794V42.0653C102.84 38.1695 99.7131 35 95.8701 35H47.1279C43.2848 35 40.1582 38.1695 40.1582 42.0653V101.935C40.1582 105.83 43.2848 109 47.128 109H95.8702C99.7134 109 102.84 105.83 102.84 101.935V58.7986C102.84 58.1998 102.361 57.7147 101.771 57.7147C101.18 57.7147 100.702 58.1998 100.702 58.7986V90.1829H91.1917C90.6012 90.1829 90.1225 90.668 90.1225 91.2668C90.1225 91.8655 90.6012 92.3507 91.1917 92.3507H100.702V101.885H42.2967V92.3507H51.8065C52.397 92.3507 52.8758 91.8655 52.8758 91.2668C52.8758 90.668 52.397 90.1829 51.8065 90.1829H42.2967V50.8552H47.6025C48.193 50.8552 48.6718 50.37 48.6718 49.7713C48.6718 49.1725 48.193 48.6874 47.6025 48.6874H42.2967V42.0653C42.2967 39.3648 44.464 37.1678 47.1279 37.1678H95.8701C98.5341 37.1678 100.701 39.3648 100.701 42.0653V48.6874H52.1592C51.5687 48.6874 51.09 49.1725 51.09 49.7713C51.09 50.37 51.5687 50.8552 52.1592 50.8552H100.701V54.1794C100.701 54.7782 101.18 55.2633 101.771 55.2633ZM95.8701 106.832H47.1279C45.2119 106.832 43.5529 105.696 42.7723 104.053H100.226C99.4451 105.696 97.786 106.832 95.8701 106.832Z" fill="black"/>
<path d="M75.0674 43.0339C75.0674 40.9992 73.4345 39.3439 71.4273 39.3439C69.4201 39.3439 67.7871 40.9992 67.7871 43.0339C67.7871 45.0686 69.4201 46.7239 71.4273 46.7239C73.4345 46.7239 75.0674 45.0686 75.0674 43.0339ZM69.9255 43.0339C69.9255 42.1945 70.5991 41.5117 71.4271 41.5117C72.2552 41.5117 72.9288 42.1947 72.9288 43.0339C72.9288 43.8731 72.2552 44.5561 71.4271 44.5561C70.5991 44.5561 69.9255 43.8731 69.9255 43.0339Z" fill="black"/>
<path d="M65.1319 43.0339C65.1319 40.9992 63.4989 39.3439 61.4917 39.3439C59.4845 39.3439 57.8516 40.9992 57.8516 43.0339C57.8516 45.0686 59.4845 46.7239 61.4917 46.7239C63.4989 46.7239 65.1319 45.0686 65.1319 43.0339ZM59.9899 43.0339C59.9899 42.1945 60.6636 41.5117 61.4916 41.5117C62.3196 41.5117 62.9933 42.1947 62.9933 43.0339C62.9933 43.8731 62.3196 44.5561 61.4916 44.5561C60.6636 44.5561 59.9899 43.8731 59.9899 43.0339Z" fill="black"/>
<path d="M55.1965 43.0339C55.1965 40.9992 53.5635 39.3439 51.5563 39.3439C49.5491 39.3439 47.916 40.9992 47.916 43.0339C47.916 45.0686 49.549 46.7239 51.5562 46.7239C53.5634 46.7239 55.1965 45.0686 55.1965 43.0339ZM50.0545 43.0339C50.0545 42.1945 50.7282 41.5117 51.5562 41.5117C52.3842 41.5117 53.0578 42.1947 53.0578 43.0339C53.0578 43.8731 52.3842 44.5561 51.5562 44.5561C50.7282 44.5561 50.0545 43.8731 50.0545 43.0339Z" fill="black"/>
<path d="M85.003 43.0339C85.003 40.9992 83.37 39.3439 81.3628 39.3439C79.3556 39.3439 77.7227 40.9992 77.7227 43.0339C77.7227 45.0686 79.3556 46.7239 81.3628 46.7239C83.37 46.7239 85.003 45.0686 85.003 43.0339ZM79.861 43.0339C79.861 42.1945 80.5347 41.5117 81.3627 41.5117C82.1907 41.5117 82.8643 42.1947 82.8643 43.0339C82.8643 43.8731 82.1907 44.5561 81.3627 44.5561C80.5347 44.5561 79.861 43.8731 79.861 43.0339Z" fill="black"/>
<path d="M94.9385 43.0339C94.9385 40.9992 93.3056 39.3439 91.2984 39.3439C89.2912 39.3439 87.6582 40.9992 87.6582 43.0339C87.6582 45.0686 89.2912 46.7239 91.2984 46.7239C93.3056 46.7239 94.9385 45.0686 94.9385 43.0339ZM89.7966 43.0339C89.7966 42.1945 90.4702 41.5117 91.2982 41.5117C92.1263 41.5117 92.7999 42.1947 92.7999 43.0339C92.7999 43.8731 92.1263 44.5561 91.2982 44.5561C90.4702 44.5561 89.7966 43.8731 89.7966 43.0339Z" fill="black"/>
<path d="M50.7993 77.1537C50.2125 77.2211 49.7907 77.758 49.8573 78.3527C51.1011 89.4713 60.3742 97.8556 71.4272 97.8556C83.3985 97.8556 93.1379 87.9828 93.1379 75.8475C93.1379 63.7121 83.3985 53.8392 71.4273 53.8392C66.0331 53.8392 60.8615 55.8583 56.8652 59.5244C52.8979 63.164 50.4029 68.1261 49.8401 73.497C49.7776 74.0921 50.203 74.6261 50.7904 74.6893C51.3769 74.7523 51.9043 74.3212 51.9666 73.7259C52.474 68.8859 54.7233 64.4132 58.3001 61.1317C61.9025 57.827 66.5645 56.007 71.4273 56.007C82.2195 56.007 90.9995 64.9073 90.9995 75.8473C90.9995 86.7874 82.2194 95.6878 71.4273 95.6878C61.4629 95.6878 53.1034 88.1304 51.9823 78.1085C51.9157 77.5137 51.3858 77.0866 50.7993 77.1537Z" fill="black"/>
<path d="M70.7533 58.188C61.7171 58.5359 54.3616 65.9832 54.0079 75.1424C53.8207 79.9921 55.5457 84.59 58.8652 88.0894C62.1873 91.5913 66.6488 93.5199 71.4281 93.5199C77.7822 93.5199 83.6385 90.0031 86.712 84.342C86.9795 83.8492 87.0145 83.2669 86.8079 82.7443C86.6014 82.2217 86.1791 81.8252 85.6494 81.6559L84.3163 81.2303C84.034 81.1402 83.8444 80.8781 83.8444 80.5783V71.1164C83.8444 70.8165 84.034 70.5545 84.3162 70.4643L85.6494 70.0387C86.1788 69.8697 86.6008 69.4732 86.8074 68.9509C87.0142 68.4276 86.979 67.8441 86.7107 67.3503C83.5024 61.4433 77.3884 57.9322 70.7533 58.188ZM84.6617 83.6135C81.9206 88.3964 76.8828 91.3522 71.4279 91.3522C67.2359 91.3522 63.3217 89.6599 60.4065 86.5868C58.1053 84.1609 56.6783 81.1334 56.2613 77.8705L62.8757 75.1038C65.6708 73.9349 68.7646 73.8965 71.587 74.996L73.6796 75.8113C76.2326 76.806 79.044 77.0086 81.7057 76.4074V80.5784C81.7057 81.8291 82.4966 82.9221 83.6735 83.298H83.6736L84.6617 83.6135ZM83.6736 68.3969C82.4967 68.773 81.7059 69.8658 81.7059 71.1165V74.1766C79.3179 74.8219 76.7574 74.6879 74.4469 73.7875L72.3543 72.9723C69.0193 71.6732 65.3634 71.7183 62.0603 73.0999L56.1356 75.5781C56.1376 75.4612 56.1403 75.3443 56.1449 75.2271C56.4551 67.1924 62.9075 60.6593 70.8346 60.3541C71.0336 60.3464 71.2312 60.3427 71.4289 60.3427C76.9011 60.3427 81.9023 63.2611 84.6619 68.0814L83.6736 68.3969Z" fill="black"/>
<path d="M86.25 72.8295V79.0125C86.25 79.6112 86.7287 80.0964 87.3192 80.0964C87.9098 80.0964 88.3885 79.6112 88.3885 79.0125V72.8295C88.3885 72.2307 87.9098 71.7456 87.3192 71.7456C86.7287 71.7456 86.25 72.2307 86.25 72.8295Z" fill="black"/>
<path d="M98.2576 57.9254V55.0526C98.2576 53.9593 97.3801 53.0697 96.3014 53.0697H91.4386C90.3599 53.0697 89.4824 53.9592 89.4824 55.0526V57.9254C89.4824 59.0187 90.3599 59.9084 91.4386 59.9084H96.3014C97.3799 59.9084 98.2576 59.0187 98.2576 57.9254ZM96.1191 57.7406H91.6208V55.2376H96.1191V57.7406Z" fill="black"/>
</g>
<defs>
<clipPath id="clip0">
<rect width="73" height="74" fill="white" transform="translate(35 35)"/>
</clipPath>
</defs>
</svg>
