<svg width="24" height="24" viewBox="0 0 24 24" fill="none" xmlns="http://www.w3.org/2000/svg">
<path d="M17.8643 16.8643L16.6773 18.0382C15.8024 18.8969 14.6673 20.0008 13.2715 21.3504C12.3992 22.1937 11.0154 22.1936 10.1433 21.3501L6.65218 17.9543C6.21341 17.5234 5.84615 17.1601 5.55031 16.8643C2.1499 13.4639 2.1499 7.95072 5.55031 4.55031C8.95072 1.1499 14.4639 1.1499 17.8643 4.55031C21.2647 7.95072 21.2647 13.4639 17.8643 16.8643ZM14.2075 10.982C14.2075 9.60117 13.0881 8.4818 11.7073 8.4818C10.3265 8.4818 9.2071 9.60117 9.2071 10.982C9.2071 12.3628 10.3265 13.4822 11.7073 13.4822C13.0881 13.4822 14.2075 12.3628 14.2075 10.982Z" fill="#212121"/>
</svg>
