<svg width="43" height="63" fill="none" xmlns="http://www.w3.org/2000/svg"><path d="M40.432 27.785c-.064-1.858-.132-2.212-.155-2.328l-1.486.286c.016.083.072.48.128 2.094l.01.343c.048 1.521.063 3.047.053 3.304-.63 3.932-2.977 8.748-4.434 10.719-1.696 2.289-2.452 3.918-2.53 5.447-.2 3.91.579 7.643 2.76 13.064l-20.096.005c.194-.509.34-1.09.443-1.996.243-2.111-.162-4.377-.583-5.679-.399-1.218-1.772-2.119-3.266-2.143-.653-.01-1.264.049-1.91.112-1.204.118-2.45.24-4.2-.082a.52.52 0 01-.372-.25c-.31-.479-.324-1.59-.036-2.769.32-1.332-.283-2.051-.643-2.481a3.1 3.1 0 01-.156-.197 4.426 4.426 0 00-.005-.155c.038-.04.136-.128.366-.267l1.13-.685-1.162-.629c-.829-.448-.758-.597-.494-1.151l.073-.158c.505-1.107.612-1.903.336-2.506-.291-.636-.883-.81-1.202-.903-.045-.013-.1-.03-.122-.038a5.369 5.369 0 00-.307-.107c-.53-.173-1.008-.357-1.056-.711-.083-.596 1.312-2.452 2.062-3.45l.372-.496c.962-1.292 2.131-3.264 1.175-5.456-.45-1.03-.322-1.464.018-2.624.174-.593.39-1.33.577-2.34.46-2.485 1.735-5.913 5.208-8.129.653-.417 1.36-.783 2.103-1.09l-.578-1.4c-.824.341-1.611.75-2.34 1.214-3.93 2.508-5.368 6.35-5.881 9.13-.173.933-.377 1.63-.541 2.188-.362 1.232-.624 2.122.047 3.656.494 1.135.185 2.352-1.003 3.947l-.368.492C.845 35.59-.14 37.002.017 38.129c.176 1.322 1.465 1.743 2.085 1.945.084.028.159.051.218.075.087.034.173.06.256.084.078.023.205.06.253.09.015.059.057.37-.34 1.24l-.063.134c-.235.494-.729 1.535.28 2.52-.225.31-.276.62-.263.97.001.029.003.058.002.087-.01.508.278.852.51 1.128.284.34.473.566.331 1.154-.19.782-.55 2.731.237 3.947.32.493.793.81 1.369.917 1.96.36 3.374.222 4.621.1.602-.059 1.17-.115 1.739-.105.826.013 1.657.506 1.85 1.098.374 1.154.734 3.166.519 5.038-.147 1.286-.36 1.711-.784 2.559l-.562 1.123 24.768-.006-.439-1.049c-2.413-5.77-3.275-9.54-3.074-13.451.06-1.193.75-2.619 2.235-4.624 1.494-2.022 4.027-7.047 4.718-11.414.043-.277-.02-2.88-.04-3.555l-.011-.349z" fill="#428DFF"/><path d="M32.396 26.202h-.014l-5.865.053c-.47.004-.848.226-1.011.593-.163.368-.074.797.24 1.15l1.296 1.454c.192.213.488.345.774.345h.009l3.314-.03c.29-.002.589-.14.778-.361l1.27-1.476c.306-.357.387-.788.218-1.153-.168-.36-.544-.575-1.009-.575zm-1.486 2.053l-2.883.027-.466-.523 3.805-.034-.456.53zm-8.537-8.671c.845 1.447 1.719 2.943 2.064 4.705.153.778.847 1.36 1.618 1.36h.014l6.725-.06c.777-.008 1.467-.605 1.606-1.39.314-1.768 1.16-3.28 1.979-4.742 1.05-1.874 2.135-3.813 2.113-6.277a9.112 9.112 0 00-2.745-6.462 9.138 9.138 0 00-6.51-2.628c-5.058.046-9.136 4.198-9.09 9.256.022 2.464 1.143 4.383 2.226 6.238zm6.877-13.98h.072a7.61 7.61 0 015.364 2.194 7.608 7.608 0 012.292 5.396c.019 2.061-.923 3.743-1.92 5.524-.88 1.571-1.79 3.197-2.149 5.217-.013.074-.09.14-.129.14l-6.725.06c-.04 0-.117-.064-.132-.138-.395-2.013-1.334-3.621-2.243-5.176-1.029-1.763-2-3.427-2.02-5.489-.038-4.223 3.367-7.69 7.59-7.728zM29.953 0L28.44.014l.021 2.275 1.514-.014L29.954 0zm8.407 3.394l-1.593 1.623 1.08 1.06 1.594-1.622-1.08-1.061zM20.793 21.282L19.2 22.906l1.08 1.06 1.594-1.623-1.08-1.06zm-2.877-8.256l-2.275.02.013 1.515 2.275-.02-.013-1.515zm25.07-.226l-2.275.02.014 1.514 2.275-.02-.014-1.515zM20.095 3.56l-1.06 1.08 1.622 1.593 1.061-1.08-1.623-1.594zm17.888 17.567l-1.06 1.08 1.623 1.594 1.06-1.08-1.623-1.594z" fill="#428DFF"/></svg>