<svg width="43" height="75" fill="none" xmlns="http://www.w3.org/2000/svg"><path d="M11.651 10.283l-1.367 1.367 2.021 1.546.951-.951-1.605-1.962zm2.972 17.237l.357.358-.357-.357z" fill="#428DFF"/><path d="M41.133 8.619c1.961-3.21 2.377-5.35 1.248-6.48-2.2-2.198-8.678 1.606-17.297 10.225-1.07 1.07-2.14 2.199-3.27 3.388l-4.457-4.458c-5.469-5.469-6.598-7.43-6.598-7.43-.06-.12-.179-.179-.298-.238L2.496.535c-.297-.119-.594.06-.653.297 0 .06-.06.119-.06.178L.713 0 0 .713l1.07 1.07c-.06 0-.119.06-.178.06-.12.06-.238.119-.298.297a.508.508 0 000 .416l3.032 7.905c.06.12.119.238.238.298 0 0 2.02 1.13 7.43 6.598l4.695 4.695c-1.902 2.14-3.21 3.626-3.21 3.686-.178.178-.178.535 0 .713l1.011 1.01c-.713.417-1.545.357-2.556.357-1.486-.06-3.21-.178-5.052 1.308-1.546 1.248-2.318 3.15-2.972 4.814-.773 2.022-1.308 3.15-2.437 3.032-.238 0-.476.119-.535.297-.12.238 0 .476.178.595.06.059 3.15 2.377 6.776 2.377 1.902 0 3.923-.594 5.766-2.496 3.21-3.21 4.042-5.528 4.16-7.014l.892.891c.179.179.476.179.714 0 .06 0 1.545-1.307 3.685-3.21l2.2 2.2.89.891 8.382 8.382c.416.416 1.427.297 2.496-.238.12.238.238.416.417.594.475.476 1.129.713 1.783.713.654 0 1.308-.237 1.783-.713.476-.475.713-1.07.713-1.783 0-.654-.237-1.308-.713-1.783-.178-.179-.357-.357-.594-.416.475-1.07.654-2.08.237-2.497L28.77 22.647c1.189-1.07 2.318-2.2 3.388-3.27 3.983-3.982 7.133-7.727 8.976-10.758zm.475-5.766c.476.476.357 1.605-.297 3.15L38.28 3.21c1.664-.773 2.853-.892 3.328-.357zM1.724 2.556c.178-.119.356-.238.475-.416.179-.178.298-.297.416-.476L9.808 4.4c0 .594-.238 1.902-1.843 3.507C6.36 9.51 4.993 9.689 4.458 9.748L1.724 2.556zm10.283 14.028c-3.27-3.27-5.35-5.053-6.479-5.944.832-.238 1.961-.773 3.21-1.962 1.189-1.189 1.723-2.318 1.961-3.21.892 1.13 2.616 3.21 5.944 6.48l4.458 4.458c-.297.297-.535.594-.832.891l-.06-.06-5.884-5.29-2.2-2.793c-.118-.12-.237-.178-.356-.178a.54.54 0 00-.416.178l-2.2 2.2a.54.54 0 00-.178.415c0 .178.06.297.179.357l2.734 2.14 5.35 5.944a.45.45 0 00.238.119c-.298.297-.595.654-.833.95l-4.636-4.695zm1.962-3.566l5.17 4.636-1.426 1.426-4.636-5.17.892-.893zm-1.665.178l-2.02-1.546 1.366-1.367 1.546 1.962-.892.95zm0 23.835c-2.259 2.26-4.755 2.437-6.776 2.021 1.01-2.615-.892-3.328-1.783-3.507l.535-1.248c.594-1.545 1.307-3.328 2.615-4.398 1.546-1.249 2.972-1.19 4.34-1.13 1.129.06 2.317.119 3.387-.594l1.486 1.486c.12.475.595 2.972-3.804 7.37zm6.123-6.479l-4.518-4.517c.357-.416 1.01-1.189 1.902-2.14l4.815 4.815c-1.01.832-1.783 1.486-2.2 1.842zm21.16 6.955c.297.297.416.654.416 1.01 0 .416-.178.773-.416 1.01-.594.595-1.486.595-2.08 0-.119-.118-.178-.237-.297-.356a3.89 3.89 0 001.07-.891c.297-.298.594-.714.891-1.07.179.119.357.178.416.297zm-.416-2.972c.06.416-.356 1.902-1.545 3.031-1.189 1.19-2.675 1.605-3.091 1.546l-8.322-8.322-3.031-3.031c1.486-1.308 3.15-2.794 4.814-4.399l11.175 11.175zM21.34 27.996l-4.874-4.874c2.497-2.793 6.182-6.835 9.332-9.986 4.399-4.398 8.084-7.31 10.818-8.975l3.983 3.388c-.12.178-.178.357-.297.535-1.784 2.972-4.875 6.657-8.857 10.64-3.21 3.15-7.252 6.776-10.105 9.272z" fill="#428DFF"/></svg>