<svg width="43" height="59" fill="none" xmlns="http://www.w3.org/2000/svg"><path d="M35.554 23.085l.09-1.093 2.91-.448a4.14 4.14 0 003.609-3.68l.813-7.672a4.146 4.146 0 00-1.032-3.213 4.153 4.153 0 00-3.088-1.38h-1.878l.379-4.644a.883.883 0 00-.88-.955H6.532a.883.883 0 00-.88.955L6.03 5.6H4.144a4.143 4.143 0 00-4.12 4.589l.813 7.675a4.133 4.133 0 003.587 3.677l2.942.457.09 1.093c.494 5.58 4.855 9.863 10.33 10.337v4.586c-4.375 1.139-7.628 4.222-8.077 7.942H6.533a.883.883 0 00-.883.883v10.573c0 .488.395.883.883.883h29.943a.883.883 0 00.883-.883V46.839a.883.883 0 00-.883-.883h-3.175c-.45-3.72-3.702-6.803-8.078-7.942v-4.586c5.476-.474 9.837-4.757 10.331-10.343zm3.302-15.719c.675 0 1.321.289 1.773.792.455.509.665 1.162.59 1.844l-.812 7.677c-.117 1.102-.97 1.97-2.1 2.116l-2.516.387 1.044-12.816h2.021zM4.672 19.792a2.382 2.382 0 01-2.079-2.114L1.781 10a2.344 2.344 0 01.59-1.84 2.383 2.383 0 011.773-.793h2.03L7.22 20.188l-2.547-.396zm4.544 3.15L7.88 6.548c.002-.023.013-.042.013-.065 0-.05-.022-.094-.03-.142l-.372-4.574h28.026l-1.724 21.169a9.57 9.57 0 01-9.583 8.773h-5.412a9.57 9.57 0 01-9.583-8.767zm26.377 33.587H7.417v-8.807h28.176v8.807zm-4.077-10.573H11.494c.588-3.739 4.85-6.651 10.01-6.651 5.162 0 9.424 2.912 10.012 6.65zm-10.011-8.418c-.666 0-1.316.054-1.952.138v-4.2h3.904v4.2a15 15 0 00-1.952-.138z" fill="#428DFF"/></svg>