<svg width="54" height="49" fill="none" xmlns="http://www.w3.org/2000/svg"><path d="M52.735 8.573L27.586.092a1.92 1.92 0 00-1.18.002L1.264 8.574C.496 8.834 0 9.524 0 10.333c0 .808.496 1.498 1.265 1.76l9.12 3.075v9.093c0 1.167.744 2.19 1.85 2.548l13.928 4.548a2.695 2.695 0 001.673 0l13.926-4.548a2.67 2.67 0 001.854-2.548V15.17l1.633-.551-.054 9.034a.658.658 0 001.09.5l2.373-2.066 1.97 1.384a.658.658 0 001.037-.54V12.453l1.07-.36h.002A1.835 1.835 0 0054 10.332c0-.807-.496-1.498-1.265-1.759zM42.3 24.261c0 .593-.378 1.113-.944 1.296l-13.929 4.549c-.274.09-.577.09-.853 0l-13.93-4.55a1.356 1.356 0 01-.942-1.295v-8.649l14.64 4.937v3.105a.659.659 0 101.317 0V20.55l14.64-4.937v8.648zm6.694-3.549a.659.659 0 00-.81.043l-1.662 1.447.051-8.499c0-.038-.01-.074-.016-.112-.005-.027-.004-.055-.012-.081-.011-.037-.031-.069-.048-.102-.013-.026-.02-.053-.037-.076-.022-.034-.052-.06-.08-.09-.018-.018-.032-.04-.052-.055a.658.658 0 00-.174-.101l-6.532-2.547 3.316-1.142 6.939 2.831.472.193v9.243l-1.355-.952zm3.32-9.867l-1.284.432-2.342-.956-5.38-2.196-.1-.041a.66.66 0 00-.464-.013l-.1.035h-.002l-1.951.672-3.195 1.1a.659.659 0 00-.024 1.236l.724.283 5.257 2.05.532.207-1.232.415h-.005L27.18 19.321a.58.58 0 01-.352.002L11.253 14.07h-.007l-9.56-3.224a.526.526 0 01-.369-.512c0-.09.027-.396.368-.511L26.82 1.344a.586.586 0 01.353-.002l25.14 8.479c.343.116.37.421.37.512 0 .09-.027.395-.37.512z" fill="#428DFF"/><path d="M27 25.968a.659.659 0 00-.658.658v.672a.659.659 0 001.317 0v-.672a.659.659 0 00-.659-.658zm21.236 10.284H30.74a1.92 1.92 0 00-1.856-1.45h-.515c-.51 0-.972.203-1.316.529a1.91 1.91 0 00-1.317-.53h-.515a1.92 1.92 0 00-1.723 1.088l-3.85-.44a81.254 81.254 0 01-11-2.038l-.693-.178a.656.656 0 00-.823.637v2.382H5.764a.658.658 0 00-.508.239 8.116 8.116 0 000 10.308c.125.152.311.24.508.24h17.602c.212.83.96 1.45 1.855 1.45h.515c.51 0 .972-.204 1.317-.53.344.326.806.53 1.316.53h.515a1.92 1.92 0 001.856-1.45h17.496a.659.659 0 00.508-.24 8.113 8.113 0 000-10.308.658.658 0 00-.508-.24zM8.45 34.72a82.616 82.616 0 007.373 1.532H8.449V34.72zm14.743 11H6.083a6.783 6.783 0 01-1.314-4.8h7.579a.659.659 0 000-1.318H5.04a6.741 6.741 0 011.042-2.035h17.11v8.153zm3.147.846a.605.605 0 01-.604.604h-.515a.605.605 0 01-.604-.604v-9.844c0-.333.271-.604.604-.604h.515c.333 0 .604.27.604.604v9.844zm3.148 0a.605.605 0 01-.604.604h-.515a.605.605 0 01-.604-.604v-9.844c0-.333.271-.604.604-.604h.515c.333 0 .604.27.604.604v9.844zm18.429-.846H30.806v-8.15h17.11a6.795 6.795 0 010 8.152z" fill="#428DFF"/><path d="M16.382 40.92h.412a.659.659 0 000-1.317h-.412a.659.659 0 100 1.317z" fill="#428DFF"/></svg>