<svg width="24" height="24" fill="none" xmlns="http://www.w3.org/2000/svg"><g clip-path="url(#clip0)"><path d="M22.001 18.92v3a2 2 0 01-2.18 2 19.79 19.79 0 01-8.63-3.07 19.5 19.5 0 01-6-6 19.79 19.79 0 01-3.07-8.67A2 2 0 014.111 4h3a2 2 0 012 1.72c.127.96.362 1.903.7 2.81a2 2 0 01-.45 2.11l-1.27 1.27a16 16 0 006 6l1.27-1.27a2 2 0 012.11-.45c.908.339 1.85.573 2.81.7a2 2 0 011.72 2.03z" stroke="url(#paint0_linear)" stroke-width="2" stroke-linecap="round" stroke-linejoin="round"/></g><defs><linearGradient id="paint0_linear" x1="12.058" y1="4" x2="12.058" y2="23.928" gradientUnits="userSpaceOnUse"><stop stop-color="#33B7EF"/><stop offset="1" stop-color="#6AE8D1"/></linearGradient><clipPath id="clip0"><path d="M0 0h24v24H0V0z" fill="#fff"/></clipPath></defs></svg>