<svg width="24" height="24" fill="none" xmlns="http://www.w3.org/2000/svg"><path fill-rule="evenodd" clip-rule="evenodd" d="M10.457 2c-.276 0-.541.105-.737.293A.98.98 0 009.415 3v8.382l2.66-1.276c.144-.07.304-.106.465-.106h8.334c.276 0 .54-.105.736-.293A.98.98 0 0021.915 9V3a.98.98 0 00-.305-.707A1.064 1.064 0 0020.874 2H10.457zM8.247.879A3.192 3.192 0 0110.457 0h10.417c.829 0 1.623.316 2.21.879A2.94 2.94 0 0123.998 3v6a2.94 2.94 0 01-.916 2.121 3.192 3.192 0 01-2.21.879h-8.087L8.84 13.894a1.08 1.08 0 01-1.014-.043.992.992 0 01-.494-.851V3c0-.796.33-1.559.915-2.121z" fill="url(#paint0_linear)"/><path fill-rule="evenodd" clip-rule="evenodd" d="M.956 2.879A3.192 3.192 0 013.166 2h1.563c.575 0 1.041.448 1.041 1s-.466 1-1.04 1H3.166c-.276 0-.541.105-.737.293A.98.98 0 002.124 5v16c0 .265.11.52.305.707.196.188.46.293.737.293h11.458c.277 0 .542-.105.737-.293a.98.98 0 00.305-.707v-6c0-.552.466-1 1.042-1 .575 0 1.041.448 1.041 1v6a2.94 2.94 0 01-.915 2.121 3.192 3.192 0 01-2.21.879H3.166a3.192 3.192 0 01-2.21-.879A2.94 2.94 0 01.041 21V5c0-.796.33-1.559.915-2.121z" fill="url(#paint1_linear)"/><ellipse cx="9.417" cy="19" rx="1.042" ry="1" fill="url(#paint2_linear)"/><defs><linearGradient id="paint0_linear" x1="15.665" y1="0" x2="15.665" y2="14" gradientUnits="userSpaceOnUse"><stop stop-color="#33B7EF"/><stop offset="1" stop-color="#6AE8D1"/></linearGradient><linearGradient id="paint1_linear" x1="8.895" y1="2" x2="8.895" y2="24" gradientUnits="userSpaceOnUse"><stop stop-color="#33B7EF"/><stop offset="1" stop-color="#6AE8D1"/></linearGradient><linearGradient id="paint2_linear" x1="9.417" y1="18" x2="9.417" y2="20" gradientUnits="userSpaceOnUse"><stop stop-color="#33B7EF"/><stop offset="1" stop-color="#6AE8D1"/></linearGradient></defs></svg>