<svg width="30" height="31" fill="none" xmlns="http://www.w3.org/2000/svg"><path d="M27.856 30.65a2.156 2.156 0 01-1.538-.657l-10.691-11.11a.838.838 0 00-1.217 0L3.716 29.985c-.42.43-.968.66-1.542.66-.855 0-1.638-.525-1.993-1.342-.37-.848-.161-1.889.516-2.592l10.626-11.036a.904.904 0 00.253-.632.904.904 0 00-.253-.632L1.49 4.199a2.297 2.297 0 01-.629-1.796A2.28 2.28 0 011.784.748c.862-.632 2.062-.5 2.848.32l9.778 10.155a.858.858 0 001.217 0l9.771-10.156c.786-.816 1.986-.951 2.848-.316.53.388.865.991.923 1.655a2.307 2.307 0 01-.633 1.797l-9.832 10.212a.92.92 0 000 1.264l10.605 11.015c.475.494.725 1.176.687 1.868a2.182 2.182 0 01-.78 1.59c-.386.32-.871.498-1.36.498zM15.018 17.299c.571 0 1.105.23 1.508.65l10.687 11.107a.904.904 0 001.214.063.867.867 0 00.3-.631 1.166 1.166 0 00-.317-.86L17.805 16.61a2.275 2.275 0 010-3.129L27.64 3.265a.96.96 0 00-.127-1.438c-.352-.259-.875-.184-1.217.17l-9.77 10.156a2.076 2.076 0 01-3.016.004L3.733 2c-.342-.355-.865-.43-1.217-.17a.941.941 0 00-.39.692.96.96 0 00.263.75l9.836 10.208c.404.42.626.973.626 1.566a2.24 2.24 0 01-.626 1.566L1.6 27.646c-.301.312-.407.774-.26 1.119.18.415.55.564.834.564a.9.9 0 00.646-.28l10.687-11.1c.407-.42.944-.65 1.511-.65z" fill="#2E2C3B"/></svg>