<svg width="470" height="367" fill="none" xmlns="http://www.w3.org/2000/svg"><g filter="url(#filter0_d)"><path d="M321.096 278.839c-7.785-13.997-2.749-31.655 11.248-39.44l43.696-24.303c13.997-7.785 31.655-2.749 39.439 11.248l13.124 23.596c14.496 26.063 5.119 58.943-20.944 73.439-26.063 14.496-58.943 5.119-73.439-20.944l-13.124-23.596z" fill="url(#paint0_linear)"/></g><g filter="url(#filter1_d)"><path d="M118.974 32.64c11.784-10.847 30.13-10.087 40.977 1.697l73.97 80.358c10.847 11.784 10.087 30.13-1.697 40.977l-64.243 59.136c-21.943 20.198-56.104 18.784-76.302-3.159l-40.107-43.571c-20.198-21.942-18.784-56.104 3.158-76.302l64.244-59.136z" fill="url(#paint1_linear)"/></g><defs><linearGradient id="paint0_linear" x1="354.192" y1="227.248" x2="407.659" y2="323.379" gradientUnits="userSpaceOnUse"><stop stop-color="#33B7EF"/><stop offset="1" stop-color="#6AE8D1"/></linearGradient><linearGradient id="paint1_linear" x1="196.936" y1="74.516" x2="71.625" y2="189.864" gradientUnits="userSpaceOnUse"><stop stop-color="#33B7EF"/><stop offset="1" stop-color="#6AE8D1"/></linearGradient><filter id="filter0_d" x="292" y="188" width="177.851" height="178.627" filterUnits="userSpaceOnUse" color-interpolation-filters="sRGB"><feFlood flood-opacity="0" result="BackgroundImageFix"/><feColorMatrix in="SourceAlpha" values="0 0 0 0 0 0 0 0 0 0 0 0 0 0 0 0 0 0 127 0"/><feOffset dy="2"/><feGaussianBlur stdDeviation="7.5"/><feColorMatrix values="0 0 0 0 0.517647 0 0 0 0 0.572549 0 0 0 0 0.65098 0 0 0 0.45 0"/><feBlend in2="BackgroundImageFix" result="effect1_dropShadow"/><feBlend in="SourceGraphic" in2="effect1_dropShadow" result="shape"/></filter><filter id="filter1_d" x="0" y="0" width="268.561" height="268.38" filterUnits="userSpaceOnUse" color-interpolation-filters="sRGB"><feFlood flood-opacity="0" result="BackgroundImageFix"/><feColorMatrix in="SourceAlpha" values="0 0 0 0 0 0 0 0 0 0 0 0 0 0 0 0 0 0 127 0"/><feOffset dy="2"/><feGaussianBlur stdDeviation="7.5"/><feColorMatrix values="0 0 0 0 0.517647 0 0 0 0 0.572549 0 0 0 0 0.65098 0 0 0 0.45 0"/><feBlend in2="BackgroundImageFix" result="effect1_dropShadow"/><feBlend in="SourceGraphic" in2="effect1_dropShadow" result="shape"/></filter></defs></svg>