<svg width="463" height="368" fill="none" xmlns="http://www.w3.org/2000/svg"><g filter="url(#filter0_d)"><path d="M149.587 131.64c-11.784-10.847-30.13-10.087-40.977 1.697l-73.97 80.358c-10.847 11.784-10.088 30.13 1.696 40.977l64.244 59.136c21.942 20.198 56.104 18.784 76.302-3.159l40.107-43.571c20.198-21.943 18.784-56.104-3.159-76.302l-64.243-59.136z" fill="url(#paint0_linear)"/></g><g filter="url(#filter1_d)"><path d="M378.122 25.033c-14.572-6.646-31.773-.22-38.419 14.352l-18.84 41.31c-6.646 14.573-.22 31.774 14.352 38.419l22.398 10.215c25.979 11.848 56.645.392 68.494-25.587 11.848-25.98.392-56.646-25.588-68.494l-22.397-10.215z" fill="url(#paint1_linear)"/></g><defs><linearGradient id="paint0_linear" x1="71.625" y1="173.516" x2="196.935" y2="288.864" gradientUnits="userSpaceOnUse"><stop stop-color="#33B7EF"/><stop offset="1" stop-color="#6AE8D1"/></linearGradient><linearGradient id="paint1_linear" x1="330.283" y1="60.041" x2="426.107" y2="103.742" gradientUnits="userSpaceOnUse"><stop stop-color="#33B7EF"/><stop offset="1" stop-color="#6AE8D1"/></linearGradient><filter id="filter0_d" x="0" y="99" width="268.561" height="268.38" filterUnits="userSpaceOnUse" color-interpolation-filters="sRGB"><feFlood flood-opacity="0" result="BackgroundImageFix"/><feColorMatrix in="SourceAlpha" values="0 0 0 0 0 0 0 0 0 0 0 0 0 0 0 0 0 0 127 0"/><feOffset dy="2"/><feGaussianBlur stdDeviation="7.5"/><feColorMatrix values="0 0 0 0 0.517647 0 0 0 0 0.572549 0 0 0 0 0.65098 0 0 0 0.45 0"/><feBlend in2="BackgroundImageFix" result="effect1_dropShadow"/><feBlend in="SourceGraphic" in2="effect1_dropShadow" result="shape"/></filter><filter id="filter1_d" x="293.83" y="0" width="168.73" height="167.782" filterUnits="userSpaceOnUse" color-interpolation-filters="sRGB"><feFlood flood-opacity="0" result="BackgroundImageFix"/><feColorMatrix in="SourceAlpha" values="0 0 0 0 0 0 0 0 0 0 0 0 0 0 0 0 0 0 127 0"/><feOffset dy="2"/><feGaussianBlur stdDeviation="7.5"/><feColorMatrix values="0 0 0 0 0.517647 0 0 0 0 0.572549 0 0 0 0 0.65098 0 0 0 0.45 0"/><feBlend in2="BackgroundImageFix" result="effect1_dropShadow"/><feBlend in="SourceGraphic" in2="effect1_dropShadow" result="shape"/></filter></defs></svg>