<svg width="456" height="303" fill="none" xmlns="http://www.w3.org/2000/svg"><g filter="url(#filter0_d)"><path d="M317.643 229.371c-9.946-12.554-7.831-30.793 4.723-40.739l32.456-25.712c12.554-9.946 30.793-7.831 40.739 4.723l13.999 17.671c17.046 21.516 13.422 52.777-8.095 69.823-21.516 17.046-52.777 13.421-69.823-8.095l-13.999-17.671z" fill="url(#paint0_linear)"/></g><g filter="url(#filter1_d)"><path d="M94.557 35.832c9.875-12.61 28.103-14.827 40.712-4.951l75.513 59.137c12.61 9.875 14.827 28.103 4.952 40.712l-45.481 58.075c-18.388 23.48-52.329 27.608-75.809 9.219l-36.148-28.309c-23.48-18.388-27.608-52.329-9.22-75.809l45.481-58.074z" fill="url(#paint1_linear)"/></g><defs><linearGradient id="paint0_linear" x1="338.594" y1="175.776" x2="401.465" y2="255.137" gradientUnits="userSpaceOnUse"><stop stop-color="#33B7EF"/><stop offset="1" stop-color="#6AE8D1"/></linearGradient><linearGradient id="paint1_linear" x1="173.026" y1="60.449" x2="76.37" y2="183.87" gradientUnits="userSpaceOnUse"><stop stop-color="#33B7EF"/><stop offset="1" stop-color="#6AE8D1"/></linearGradient><filter id="filter0_d" x="284.635" y="131.912" width="170.789" height="171.089" filterUnits="userSpaceOnUse" color-interpolation-filters="sRGB"><feFlood flood-opacity="0" result="BackgroundImageFix"/><feColorMatrix in="SourceAlpha" values="0 0 0 0 0 0 0 0 0 0 0 0 0 0 0 0 0 0 127 0"/><feOffset dy="2"/><feGaussianBlur stdDeviation="7.5"/><feColorMatrix values="0 0 0 0 0.517647 0 0 0 0 0.572549 0 0 0 0 0.65098 0 0 0 0.45 0"/><feBlend in2="BackgroundImageFix" result="effect1_dropShadow"/><feBlend in="SourceGraphic" in2="effect1_dropShadow" result="shape"/></filter><filter id="filter1_d" x=".781" y="0" width="247.833" height="248.319" filterUnits="userSpaceOnUse" color-interpolation-filters="sRGB"><feFlood flood-opacity="0" result="BackgroundImageFix"/><feColorMatrix in="SourceAlpha" values="0 0 0 0 0 0 0 0 0 0 0 0 0 0 0 0 0 0 127 0"/><feOffset dy="2"/><feGaussianBlur stdDeviation="7.5"/><feColorMatrix values="0 0 0 0 0.517647 0 0 0 0 0.572549 0 0 0 0 0.65098 0 0 0 0.45 0"/><feBlend in2="BackgroundImageFix" result="effect1_dropShadow"/><feBlend in="SourceGraphic" in2="effect1_dropShadow" result="shape"/></filter></defs></svg>