<svg width="342" height="347" fill="none" xmlns="http://www.w3.org/2000/svg"><g filter="url(#filter0_d)"><path d="M257.292 204.033c-14.573-6.645-31.773-.22-38.419 14.353l-18.84 41.31c-6.646 14.572-.22 31.773 14.352 38.419l22.398 10.214c25.979 11.848 56.645.392 68.493-25.587 11.849-25.98.393-56.646-25.587-68.494l-22.397-10.215z" fill="url(#paint0_linear)"/></g><g filter="url(#filter1_d)"><path d="M121.292 41.927C119.608 26 105.33 14.453 89.403 16.137l-45.152 4.775c-15.927 1.684-27.473 15.961-25.79 31.889l2.59 24.48c3.002 28.396 28.455 48.981 56.851 45.978s48.981-28.456 45.978-56.852l-2.588-24.48z" fill="url(#paint1_linear)"/></g><defs><linearGradient id="paint0_linear" x1="209.453" y1="239.041" x2="305.276" y2="282.742" gradientUnits="userSpaceOnUse"><stop stop-color="#33B7EF"/><stop offset="1" stop-color="#6AE8D1"/></linearGradient><linearGradient id="paint1_linear" x1="66.827" y1="18.525" x2="77.902" y2="123.259" gradientUnits="userSpaceOnUse"><stop stop-color="#33B7EF"/><stop offset="1" stop-color="#6AE8D1"/></linearGradient><filter id="filter0_d" x="173" y="179" width="168.73" height="167.782" filterUnits="userSpaceOnUse" color-interpolation-filters="sRGB"><feFlood flood-opacity="0" result="BackgroundImageFix"/><feColorMatrix in="SourceAlpha" values="0 0 0 0 0 0 0 0 0 0 0 0 0 0 0 0 0 0 127 0"/><feOffset dy="2"/><feGaussianBlur stdDeviation="7.5"/><feColorMatrix values="0 0 0 0 0.517647 0 0 0 0 0.572549 0 0 0 0 0.65098 0 0 0 0.45 0"/><feBlend in2="BackgroundImageFix" result="effect1_dropShadow"/><feBlend in="SourceGraphic" in2="effect1_dropShadow" result="shape"/></filter><filter id="filter1_d" x=".412" y=".088" width="143.905" height="145.608" filterUnits="userSpaceOnUse" color-interpolation-filters="sRGB"><feFlood flood-opacity="0" result="BackgroundImageFix"/><feColorMatrix in="SourceAlpha" values="0 0 0 0 0 0 0 0 0 0 0 0 0 0 0 0 0 0 127 0"/><feOffset dy="2"/><feGaussianBlur stdDeviation="7.5"/><feColorMatrix values="0 0 0 0 0.517647 0 0 0 0 0.572549 0 0 0 0 0.65098 0 0 0 0.45 0"/><feBlend in2="BackgroundImageFix" result="effect1_dropShadow"/><feBlend in="SourceGraphic" in2="effect1_dropShadow" result="shape"/></filter></defs></svg>