<svg width="38" height="66" fill="none" xmlns="http://www.w3.org/2000/svg"><path d="M11.422 12.197a8.174 8.174 0 01-.781-3.5c0-4.512 3.637-8.17 8.125-8.17 4.487 0 8.125 3.658 8.125 8.17 0 1.252-.28 2.439-.782 3.5h-1.31a6.997 6.997 0 00.93-3.5c0-3.868-3.117-7.002-6.963-7.002-3.847 0-6.965 3.134-6.965 7.001a7 7 0 00.932 3.5h-1.31zM36.37 65.874l-.483-5.81a5.25 5.25 0 00-3.122-4.38l-8.422-3.682a3.501 3.501 0 01-2.094-3.21v-3.339h1.16v3.339c0 .929.549 1.77 1.397 2.14l8.422 3.681a6.416 6.416 0 013.816 5.353l.49 5.908h-1.165zm-36.37 0l.49-5.908a6.416 6.416 0 013.816-5.353l8.422-3.68a2.334 2.334 0 001.396-2.141v-3.339h1.16v3.339a3.501 3.501 0 01-2.093 3.21l-8.422 3.682a5.25 5.25 0 00-3.123 4.38l-.481 5.81H0z" fill="#428DFF"/><path d="M5.383 36.25l1.086-.437c1.505 5.903 6.448 10.224 12.297 10.224 5.85 0 10.794-4.32 12.298-10.224l1.086.436c-1.675 6.322-7.026 10.955-13.383 10.955-6.358 0-11.708-4.633-13.384-10.955zm14.35 22.054l4.075 3.186 4.541-8.428 1.021.555-4.867 9.034a.579.579 0 01-.867.183l-4.867-3.805-4.867 3.805a.579.579 0 01-.866-.183l-4.868-9.034 1.02-.555 4.542 8.428 4.075-3.186c-2.672-2.015-4.536-4.181-5.583-6.504l1.057-.481c.993 2.203 2.82 4.289 5.49 6.252 2.67-1.963 4.497-4.05 5.49-6.252l1.057.481c-1.047 2.323-2.91 4.489-5.582 6.504z" fill="#428DFF"/><path d="M1.937 27.367c0-9.345 7.535-16.92 16.83-16.92 9.295 0 16.83 7.575 16.83 16.92a16.99 16.99 0 01-.826 5.252c.048.102.103.215.17.347l.319.62c1.388 2.745 1.372 5.011-.97 8.445-.905 1.325-.89 2.038-.254 3.3l.155.303c1.22 2.373 1.078 4.054-1.499 7.16-.462.558-1.32-.065-.938-.681 1.08-1.743.844-2.553-.654-4.16l-.138-.148c-2.04-2.186-2.44-3.69-.69-6.42 1.63-2.541 1.673-3.623.756-5.124-.073-.119-.364-.58-.337-.537-.348-.555-.562-.952-.741-1.424-.637-1.67-.236-3.859.692-5.183h-4.91a.58.58 0 01-.53-.343l-1.189-2.637-.023 2.402a.582.582 0 01-.58.578h-9.286a.582.582 0 01-.58-.584v-2.39l-1.214 2.636a.58.58 0 01-.527.338H6.892c.929 1.324 1.329 3.512.693 5.183-.18.472-.394.869-.742 1.425.027-.044-.264.417-.336.536-.918 1.501-.875 2.583.754 5.124 1.75 2.73 1.352 4.234-.688 6.42l-.138.148C4.937 49.56 4.7 50.37 5.78 52.113c.382.616-.475 1.24-.938.682-2.576-3.107-2.72-4.788-1.499-7.161l.156-.303c.636-1.262.65-1.975-.254-3.3-2.343-3.434-2.358-5.7-.97-8.445l.318-.62c.067-.132.123-.245.17-.347a16.99 16.99 0 01-.826-5.252zM33.16 46.17l-.16-.311c-.813-1.614-.837-2.775.332-4.488 2.087-3.058 2.099-4.871.893-7.256-.06-.12-.276-.537-.317-.618a9.887 9.887 0 01-.293-.617.586.586 0 01-.016-.418 15.79 15.79 0 00.838-5.095c0-8.7-7.016-15.754-15.67-15.754s-15.67 7.053-15.67 15.754c0 1.754.286 3.47.838 5.095a.586.586 0 01-.016.418 9.941 9.941 0 01-.293.617c-.04.081-.256.498-.317.618-1.206 2.385-1.193 4.198.893 7.256 1.169 1.713 1.146 2.874.332 4.488l-.16.31c-.634 1.235-.831 2.158-.327 3.351.212-.759.737-1.502 1.54-2.365l.14-.148c1.715-1.838 1.968-2.792.559-4.99-1.864-2.908-1.927-4.471-.768-6.367.05-.082.1-.164.172-.276l.171-.271c.311-.497.493-.834.64-1.22.665-1.748-.204-4.344-1.279-4.735a.583.583 0 01-.383-.548v-.067c0-.322.26-.583.58-.583h6.013l2.166-4.701c.261-.567 1.107-.38 1.107.245v4.456h8.13l.043-4.462c.006-.624.852-.804 1.109-.235l2.119 4.697h6.01c.32 0 .58.261.58.584v.066a.583.583 0 01-.384.548c-1.075.39-1.944 2.987-1.278 4.735.146.386.328.723.64 1.22l.17.27c.072.113.123.195.173.277 1.158 1.896 1.096 3.46-.769 6.367-1.408 2.197-1.156 3.152.56 4.99.07.073.07.073.139.148.804.863 1.328 1.606 1.54 2.365.505-1.194.308-2.116-.327-3.35z" fill="#428DFF"/><path d="M15.605 40.3a.578.578 0 00-.804.162.585.585 0 00.16.81c1.252.839 2.523 1.264 3.805 1.264 1.281 0 2.552-.425 3.804-1.264a.585.585 0 00.16-.81.578.578 0 00-.804-.162c-1.07.717-2.12 1.07-3.16 1.07s-2.091-.353-3.16-1.07zm-.9-5.349c0 .323-.26.584-.58.584a.582.582 0 01-.58-.584c0-.644-.52-1.166-1.161-1.166s-1.16.522-1.16 1.166a.582.582 0 11-1.16 0 2.328 2.328 0 012.32-2.333 2.328 2.328 0 012.321 2.333zm12.764 0c0 .323-.26.584-.58.584a.582.582 0 01-.58-.584c0-.644-.52-1.166-1.161-1.166-.642 0-1.161.522-1.161 1.166 0 .323-.26.584-.58.584a.582.582 0 01-.58-.584 2.328 2.328 0 012.32-2.333 2.328 2.328 0 012.322 2.333z" fill="#428DFF"/></svg>