<svg width="51" height="50" fill="none" xmlns="http://www.w3.org/2000/svg"><path d="M23.463 38.933c.25.215.55.115.8-.091 1.34-1.106 2.683-2.211 4.024-3.317l.328-.27 4.06 4.933c-.466.385-.913.744-1.35 1.116-.359.304-.464.724-.18.964.184.152.499.148.754.215l8.181-6.736c.113-.329.17-.664-.163-.892-.338-.232-.649-.112-.941.142-.422.365-.859.712-1.3 1.075l-4.061-4.931 1.5-1.235c.94-.774 1.883-1.544 2.818-2.324.374-.313.44-.715.19-1.01-.234-.278-.635-.271-1 .024-.363.294-.722.595-1.083.892l-1.273 1.048-.186-.225c-1.734-2.106-3.466-4.213-5.2-6.318-1.852-2.25-3.69-4.513-5.564-6.744-1.421-1.694-3.27-2.385-5.457-2.009-.746.128-1.456.474-2.234.739l-.224-.272c-1.066-1.295-2.137-2.584-3.194-3.887-.258-.318-.547-.489-.96-.4l-.249.204c-.154.384-.067.696.203 1.016 1.09 1.292 2.155 2.603 3.227 3.908.09.11.172.227.246.325-.028.06-.032.09-.05.108-1.96 2.086-2.12 5.416-.016 7.896 3.133 3.693 6.17 7.466 9.248 11.204l1.485 1.803c-.787.648-1.546 1.26-2.286 1.89-.164.14-.362.347-.373.532-.012.209.119.486.28.627zm13.177-2.03l-2.94 2.42-4.035-4.9 2.939-2.42 4.036 4.9zM15.905 21.788c-1.628-1.99-1.326-4.8.647-6.39 1.784-1.435 4.443-1.313 6 .374 1.08 1.17 2.041 2.45 3.089 3.723l-.737.606c-.546.451-1.099.897-1.638 1.358-.346.295-.4.703-.154.984.233.268.627.272.968-.007.786-.64 1.567-1.288 2.367-1.947l1.625 1.973-.29.238c-.67.553-1.344 1.104-2.015 1.657-.39.324-.479.742-.225 1.04.243.286.646.272 1.033-.044.764-.625 1.526-1.255 2.309-1.9l1.623 1.97-2.073 1.708c-.114.094-.234.181-.339.284-.305.293-.343.699-.097.961.232.248.618.253.94-.007.706-.574 1.407-1.154 2.11-1.731l.27-.223 2.42 2.94-6.918 5.697-.234-.285c-3.562-4.325-7.131-8.645-10.68-12.98z" fill="#428DFF"/><path d="M25.015 50c-2.46 0-4.816-.289-7-.861a.89.89 0 01-.636-1.087.889.889 0 011.087-.637c2.037.532 4.241.803 6.549.803 6.36 0 11.887-2.282 16.426-6.782 2.771-2.772 4.715-5.937 5.776-9.402.684-2.187 1.03-4.555 1.03-7.048 0-2.432-.346-4.761-1.028-6.92-1.007-3.345-2.815-6.382-5.376-9.039a.891.891 0 01.008-1.246l3.565-3.596a.89.89 0 111.266 1.255l-2.961 2.987c2.447 2.708 4.195 5.77 5.203 9.113.733 2.322 1.106 4.831 1.106 7.446 0 2.674-.373 5.22-1.109 7.574-1.145 3.742-3.239 7.155-6.221 10.139C37.812 47.544 31.863 50 25.015 50zM3.714 48.039a.89.89 0 01-.63-1.521l3.99-3.992C2.378 37.69 0 31.792 0 24.986 0 18.16 2.435 12.222 7.237 7.338 12.13 2.467 18.107 0 25.015 0c2.81 0 5.531.414 8.085 1.231a.89.89 0 01.577 1.12.889.889 0 01-1.12.578c-2.38-.76-4.916-1.146-7.542-1.146-6.419 0-11.975 2.291-16.513 6.81-4.456 4.534-6.72 10.05-6.72 16.393 0 6.4 2.263 11.938 6.724 16.457.145.144.306.314.476.506.316.353.3.89-.034 1.225l-4.605 4.605a.889.889 0 01-.63.26z" fill="#428DFF"/><path d="M8.317 43.434a.89.89 0 01-.63-1.521L41.852 7.778a.892.892 0 011.26 1.261L8.948 43.174a.89.89 0 01-.63.26z" fill="#428DFF"/></svg>