<svg width="24" height="16" fill="none" xmlns="http://www.w3.org/2000/svg"><g clip-path="url(#clip0)" fill="#333"><path d="M17.807 8.689c.052.105.079.21.157.315.184.288.394.525.63.709.473.393 1.024.577 1.55.787 1.05.42 2.126.71 3.23.92l.025-.08a31.633 31.633 0 01-3.02-1.417c-.498-.263-.918-.604-1.39-.893-.316-.21-.657-.394-.92-.683a9.1 9.1 0 00.998-1.549c.263-.551-1.024.814-2.81 2.074-1.365.946-3.098 1.733-4.28 2.048-2.914.788-6.248.736-8.585-.105-.473-.157-.473.053-.525.368-.026.184-.158.289-.158.394-.105.157-.21.341-.341.499-.289.393-.63.761-.972 1.129l.027.052c.42-.236.84-.525 1.234-.866.157-.158.341-.29.472-.5.342.106.683.21 1.05.29-.183.236-.314.525-.498.787a16.496 16.496 0 01-1.234 1.523l.026.053A9.339 9.339 0 003.97 13.31c.236-.237.498-.473.63-.814.026-.053.052-.132.079-.184.262.053.498.105.761.131-.053.105-.105.237-.184.342-.157.262-.262.551-.394.84a55.214 55.214 0 01-.997 1.654l.026.053c.472-.42.919-.893 1.313-1.418.21-.263.42-.525.525-.867.052-.157.079-.341.105-.525.315.053.604.079.919.079-.053.079-.079.184-.131.262-.132.263-.21.552-.342.84a20.092 20.092 0 01-.893 1.655l.027.052c.446-.42.84-.919 1.208-1.444.183-.262.367-.551.472-.893a2.31 2.31 0 00.053-.446c.341.026.656.026.997.026-.026.053-.026.08-.052.132-.131.315-.21.656-.341.971a21.313 21.313 0 01-.893 1.943l.052.026c.447-.525.84-1.129 1.208-1.759.184-.315.368-.63.473-.998.026-.105.052-.21.052-.341.29 0 .578-.026.84-.053v.027c-.052.341-.052.682-.078 1.05-.105.709-.21 1.418-.368 2.127l.053.026c.288-.656.525-1.339.709-2.048.105-.367.21-.709.21-1.103v-.131c.236-.026.446-.053.682-.079-.026.158-.026.315-.026.473 0 .367.158.682.289.998.236.63.499 1.234.814 1.811l.052-.026a62.554 62.554 0 01-.367-1.943c-.053-.315-.026-.656-.132-.945-.052-.158-.105-.289-.157-.447.21-.052.446-.078.656-.13 0 .236.08.472.132.708.13.447.42.788.682 1.13.525.682 1.077 1.286 1.707 1.81l.053-.052a25.34 25.34 0 01-1.313-2.1c-.21-.368-.315-.762-.5-1.103-.104-.158-.183-.341-.288-.499.236-.079.473-.131.709-.21.052.158.105.289.157.42.237.473.604.814.92 1.155a15.928 15.928 0 002.152 1.838l.053-.052a28.509 28.509 0 01-1.785-2.206c-.263-.393-.473-.814-.762-1.155-.053-.079-.105-.131-.158-.21.342-.131.683-.289.998-.446.053.341.237.682.394.945.315.446.735.735 1.13 1.024a13.24 13.24 0 002.52 1.392l.026-.08c-.788-.55-1.523-1.18-2.232-1.837-.341-.341-.63-.735-.945-1.05-.184-.21-.368-.394-.525-.63.262-.158.525-.316.787-.5.106.316.29.552.447.788.368.473.84.735 1.313 1.05.919.604 1.864 1.05 2.835 1.445l.027-.08a23.377 23.377 0 01-1.313-.918c-.42-.315-.84-.63-1.26-.972-.394-.341-.762-.761-1.13-1.076-.183-.184-.367-.341-.525-.525.316-.237.63-.5.92-.762.026.053.026.105.052.158.105.315.315.577.499.814.394.472.919.735 1.391.997.972.552 1.97.972 2.994 1.34l.026-.08a15.318 15.318 0 01-1.392-.866 24.105 24.105 0 01-1.339-.919c-.42-.315-.814-.735-1.208-1.05-.262-.236-.525-.446-.682-.735.131-.131.262-.289.42-.446zM.108 2.597S11.95-.423 13.55.05c1.602.473 8.796 2.547 8.796 2.547S15.022 1.678 13 1.914C9.744 2.256.475 5.512.187 4.645-.181 3.57.107 2.597.107 2.597z"/></g><defs><clipPath id="clip0"><path fill="#fff" d="M0 0h23.397v15.883H0z"/></clipPath></defs></svg>