<svg width="25" height="15" fill="none" xmlns="http://www.w3.org/2000/svg"><path d="M24.481 8.53c-.42-.63-.814-1.26-1.26-1.89-.525-.736-1.13-1.419-1.76-2.075a13.75 13.75 0 00-3.15-2.626 14.283 14.283 0 00-1.418-.709 11.59 11.59 0 00-1.365-.367 1.552 1.552 0 00-.972.078c-.21.08-.42.184-.63.263-.236.105-.446.21-.683.289-.183.079-.34.131-.42.341h-.052a1.79 1.79 0 01-.079-.21c-.026.026-.079.026-.105.079-.053.105-.053.105-.21.105l.131-.131c-.052.026-.105.026-.131.052 0 0 0-.026-.026-.026.052-.026.079-.053.131-.105-.079-.026-.131-.053-.184-.079-.026.053-.026.105-.052.158 0-.184-.105-.29-.29-.315-.104-.027-.21 0-.21.13-.078 0-.13.027-.183 0-.079 0-.131-.025-.131-.13 0-.053.026-.132 0-.184 0-.053-.053-.105-.079-.105-.079-.053-.158-.053-.263-.105.027.079-.052.21.105.21a2.551 2.551 0 01-.13.289h-.027a2.184 2.184 0 00-.105-.394c0 .026-.026.026-.026.052-.053.132-.158.105-.21.08-.053-.001-.053-.106-.08-.185.027 0 .027 0 .053-.026.027.026.053.079.08.131 0-.21.183-.078.262-.21-.105-.026-.184-.052-.263-.052-.289-.053-.578-.105-.866.026h-.027c-.078 0-.183-.026-.236 0-.105.079-.236.105-.368.131-.21.027-.393.132-.577.21-.42.184-.867.394-1.26.604-.342.184-.683.368-.998.604-.394.263-.762.551-1.103.84-.368.29-.709.552-1.05.867-.63.577-1.156 1.234-1.654 1.917A14.46 14.46 0 001.06 8.66c-.052.131-.13.262-.026.42.21.289.394.578.604.866.053.053.92 1.103 1.182 1.366.551.525 1.102.998 1.733 1.418.63.393 1.26.787 1.969 1.076.814.341 1.68.604 2.547.735.866.132 1.733.053 2.6 0 .682-.052 1.338-.105 2.02-.026.972.105 1.944.079 2.915-.026 1.208-.131 2.31-.525 3.361-1.103.814-.446 1.55-.998 2.232-1.602.525-.446.998-.971 1.47-1.47.315-.341.552-.735.814-1.129.158-.236.184-.42 0-.656zM6.338 3.226c-.053-.105-.131-.21-.184-.315.026 0 .026-.027.053-.027.079.106.131.21.21.316-.026 0-.053 0-.079.026zm.079-.5c.052-.078.105-.13.131-.183l.079.315c-.053-.052-.131-.079-.21-.131zm.577-.025c-.078-.053-.026-.21.105-.237a.897.897 0 01-.105.237zm4.333-1.34c.052.053.079.106.131.158l-.053.053a.684.684 0 00-.157-.132c0-.026.053-.078.079-.078zm-.998-.314h.026l-.079.236a.548.548 0 01-.104-.158c.078 0 .104-.052.157-.078zm8.297 7.483c-.131.078-.473.262-.683.236-.183-.026-.367-.053-.577-.079-.5-.026-.998.053-1.497.131-.446.053-.893.08-1.339.158-.446.079-.893.026-1.339.026-.525.026-1.05.053-1.575.053-.29 0-.578-.053-.867-.105-.341-.053-.656-.079-.998-.132-.472-.052-.971-.13-1.444-.157a2.212 2.212 0 01-.709-.21c-.183-.079-.183-.158-.078-.315.21-.289.446-.5.814-.604.34-.105.682-.236.997-.368.29-.105.578-.262.867-.394.131-.052.288-.078.42-.13.289-.158.577-.158.893-.106.315.026.656 0 .919-.184.21-.13.393-.078.63-.052.131.026.288.026.42.026h.105c.367.21.761.131 1.155.105.21 0 .394-.052.604-.026.184.026.341.131.525.184.42.157.867.315 1.287.472.341.132.656.29.971.42.315.158.63.315.945.5v.052c.053.367-.446.499-.446.499z" fill="#333"/></svg>