<svg width="24" height="16" fill="none" xmlns="http://www.w3.org/2000/svg"><g clip-path="url(#clip0)" fill="#333"><path d="M18.382 12.416c.026-.027.053-.027.079-.027.945-.472 1.733-1.26 2.494-1.995.735-.814 1.47-1.628 2.337-2.153-.893.341-1.812.656-2.73.866-.893.315-1.812.552-2.731.63a5.724 5.724 0 01-1.34-.052c.263-.079.473-.131.578-.184.525-.21.92-1.391.92-1.391l-.552.656c-.236.263-.71.446-1.208.604.42-.368.709-1.234.709-1.234l-.551.656c-.184.237-.552.394-.972.525-.052-.026-.079-.052-.131-.078.289-.394.499-1.05.499-1.05l-.5.577a.575.575 0 01-.367.21 2.96 2.96 0 01-.289-.236 9.382 9.382 0 00-.63-.447l-.656-.394-.683-.315c-1.838-.761-3.912-1.181-5.671-.21C5.963 7.952 5.254 8.53 4.44 9.16c-.814.682-1.654 1.129-2.31 1.995a12.373 12.373 0 012.704-1.208c.892-.367 1.811-.656 2.757-.735.262-.026.498-.052.761-.052-.63.577-.998 1.418-.998 2.337a3.1 3.1 0 00.657 1.943c-.027 0-.079-.027-.105-.027a32.828 32.828 0 00-2.18-.525 31.667 31.667 0 00-4.437-.63c1.418.499 2.836.919 4.254 1.392l2.1.682 1.05.342c.342.13.683.236 1.103.367.84.21 1.68.105 2.442-.079l.788-.236a.999.999 0 01.42.158l.525.446s-.21-.446-.473-.761c.132-.053.29-.105.42-.158.263.026.473.105.63.21l.552.394s-.341-.551-.709-.788c0 0 .026 0 .026-.026.027-.026.053-.026.105-.053.394.027.736.08.946.237l.551.394s-.368-.578-.735-.814c.472.026.945.079 1.208.289l.551.393s-.525-.84-.971-.919c-.105-.026-.263-.026-.447-.052l2.757-1.26zm-8.376 1.575c-.262-.053-.577-.184-.919-.289a2.695 2.695 0 01-1.234-2.258 2.67 2.67 0 011.313-2.31c.394.026.788.078 1.182.21.105.026.21.052.34.078a1.733 1.733 0 00-1.653 1.733c0 .946.787 1.733 1.733 1.733.945 0 1.733-.761 1.733-1.733 0-.157-.027-.288-.053-.42a.323.323 0 01-.289.184c-.157 0-.289-.158-.289-.315 0-.158.158-.289.316-.289.026 0 .078 0 .104.026a1.165 1.165 0 00-.21-.288c.08.052.184.104.263.157.21.131.42.236.63.394l.158.131c.052.237.105.473.105.735 0 1.234-.84 2.285-1.996 2.6-.394 0-.814 0-1.234-.079zm4.123-.604c-.447.131-.893.263-1.313.368a3.235 3.235 0 00.997-2.31v-.21l.42.34c.21.158.394.368.63.5.237.13.447.288.683.393.315.158.657.236.972.289-.84.184-1.628.42-2.39.63zM2.68 4.722c2.914-.236 12.997-3.702 17.145-1.759C23.974 4.906 24 4.88 24 4.88S19.458-.083 16.386.127C13.314.337.5 2.517.5 2.517s-.735 2.442 2.18 2.205z"/></g><defs><clipPath id="clip0"><path fill="#fff" d="M.418.121H24V15.33H.418z"/></clipPath></defs></svg>