<svg width="18" height="22" fill="none" xmlns="http://www.w3.org/2000/svg"><path d="M8.894 0C4.002 0 0 .556 0 4.447V15.01c0 2.113 1.779 3.892 3.891 3.892l-1.667 1.667v.556h13.341v-.556L13.897 18.9c2.113 0 3.892-1.778 3.892-3.89V4.446C17.789.556 13.786 0 8.894 0zM3.891 16.677c-.89 0-1.667-.778-1.667-1.668 0-.89.778-1.668 1.667-1.668.89 0 1.668.779 1.668 1.668 0 .89-.778 1.668-1.668 1.668zm3.892-6.67h-5.56v-5.56h5.56v5.56zm6.114 6.67c-.889 0-1.667-.778-1.667-1.668 0-.89.778-1.668 1.667-1.668.89 0 1.668.779 1.668 1.668 0 .89-.778 1.668-1.668 1.668zm1.668-6.67h-5.559v-5.56h5.56v5.56z" fill="url(#paint0_linear)"/><defs><linearGradient id="paint0_linear" x1="14.631" y1="-2.112" x2=".349" y2="-.112" gradientUnits="userSpaceOnUse"><stop stop-color="#33B7EF"/><stop offset="1" stop-color="#6AE8D1"/></linearGradient></defs></svg>