<svg width="49" height="75" fill="none" xmlns="http://www.w3.org/2000/svg"><path d="M14.167 39.166c.92 0 1.666-1.12 1.666-2.5s-.746-2.5-1.666-2.5c-.92 0-1.667 1.12-1.667 2.5s.746 2.5 1.667 2.5zm16.666 0c.92 0 1.666-1.12 1.666-2.5s-.746-2.5-1.666-2.5c-.92 0-1.667 1.12-1.667 2.5s.746 2.5 1.667 2.5zm-.001 1.667H14.166a1.667 1.667 0 00-1.605 2.113c.07.253 1.822 6.22 9.939 6.22 8.118 0 9.868-5.967 9.94-6.22a1.667 1.667 0 00-1.608-2.113z" fill="#428DFF"/><path d="M22.5 18.334c-10.568 0-19.166 8.598-19.166 19.166S11.932 56.666 22.5 56.666 41.666 48.068 41.666 37.5 33.068 18.334 22.5 18.334zM22.5 55C12.85 55 5 47.15 5 37.5S12.85 20 22.5 20 40 27.85 40 37.5 32.15 55 22.5 55z" fill="#428DFF"/><path d="M45.832 33.333h-1.235a22.54 22.54 0 00-9.598-14.53V4.167A4.171 4.171 0 0030.832 0H14.165a4.171 4.171 0 00-4.167 4.167v14.637C3.974 22.845 0 29.715 0 37.5c0 7.785 3.975 14.655 10 18.696v14.637A4.171 4.171 0 0014.167 75h16.666a4.171 4.171 0 004.168-4.167V56.196a22.54 22.54 0 009.598-14.53h1.235c1.379 0 2.5-1.122 2.5-2.5v-3.333a2.505 2.505 0 00-2.502-2.5zM11.666 4.167c0-1.379 1.121-2.5 2.5-2.5h16.666c1.378 0 2.5 1.122 2.5 2.5V17.79A22.351 22.351 0 0022.498 15a22.364 22.364 0 00-10.833 2.79V4.168zm21.667 66.666c0 1.379-1.122 2.5-2.5 2.5H14.167a2.502 2.502 0 01-2.5-2.5V57.21A22.361 22.361 0 0022.501 60c3.926 0 7.617-1.016 10.834-2.79v13.623h-.002zm-10.834-12.5c-11.488 0-20.833-9.345-20.833-20.833 0-11.488 9.345-20.834 20.833-20.834 11.488 0 20.834 9.346 20.834 20.834s-9.346 20.834-20.834 20.834zm24.167-19.166c0 .46-.374.833-.834.833h-.981c.093-.822.148-1.653.148-2.5 0-.845-.055-1.677-.148-2.499h.981c.46 0 .834.375.834.834v3.332z" fill="#428DFF"/><path d="M23.888 23.402c1.055.101 2.096.32 3.098.655a.835.835 0 00.527-1.583 15.806 15.806 0 00-3.465-.733c-.452-.026-.864.292-.91.75a.835.835 0 00.75.912zm7.386.912a.834.834 0 00-.924 1.386 14.134 14.134 0 015.18 6.226.831.831 0 001.094.44.833.833 0 00.44-1.094 15.812 15.812 0 00-5.79-6.958z" fill="#428DFF"/></svg>