<svg width="60" height="54" fill="none" xmlns="http://www.w3.org/2000/svg"><path d="M50.357 30.265H34.542a2.828 2.828 0 01-2.253-1.128 2.81 2.81 0 01.157-3.564l4.366-4.872c-4.931-4.07-12.392-8.247-19.197-8.247-4.687 0-8.427 1.976-11.117 5.873-.38.55-.79.828-1.218.828-.459 0-.952-.348-.952-1.112 0-.248.052-.528.155-.83a29.656 29.656 0 011.368-3.38.698.698 0 111.259.605 27.528 27.528 0 00-.792 1.817c2.871-3.45 6.665-5.197 11.297-5.197 7.442 0 15.548 4.67 20.652 9.042a.698.698 0 01.066.996l-4.847 5.409a1.416 1.416 0 001.056 2.364h15.815a.698.698 0 110 1.396zm6.902-.428a.698.698 0 01-.368-1.291c.03-.02.06-.038.09-.059a.698.698 0 01.79 1.152 3.927 3.927 0 01-.145.094.696.696 0 01-.367.104zm1.356-2.434a.698.698 0 01-.698-.698V5.482c0-.438-.209-.857-.559-1.12a1.398 1.398 0 00-1.789.087L50.15 9.417a.698.698 0 01-.92.02c-6.168-5.185-13.623-8.04-20.992-8.04-4.385 0-8.556 1.065-12.062 3.081a.698.698 0 11-.696-1.21C19.197 1.13 23.61 0 28.238 0c7.51 0 15.091 2.828 21.417 7.977l4.97-4.557a2.791 2.791 0 011.892-.736c.61 0 1.192.195 1.68.562a2.811 2.811 0 011.117 2.236v21.223a.698.698 0 01-.699.698zM10.323 9.036a.698.698 0 01-.52-1.164l.096-.107a.698.698 0 111.035.938l-.091.101a.697.697 0 01-.52.232z" fill="#428DFF"/><path d="M31.074 54c-7.51 0-15.091-2.828-21.415-7.977L4.688 50.58a2.791 2.791 0 01-1.89.735 2.78 2.78 0 01-1.682-.561A2.811 2.811 0 010 48.518V27.294a.698.698 0 111.396 0v21.224c0 .438.21.856.56 1.12a1.398 1.398 0 001.789-.087l5.418-4.968a.699.699 0 01.922-.02c6.165 5.185 13.62 8.04 20.989 8.04 4.385 0 8.556-1.066 12.063-3.082a.698.698 0 11.696 1.21C40.115 52.87 35.703 54 31.073 54zm17.823-7.537a.698.698 0 01-.517-1.167l.091-.1a.698.698 0 011.04.932l-.097.106a.696.696 0 01-.517.23zm-7.197-3.52c-7.446 0-15.55-4.671-20.653-9.043a.699.699 0 01-.066-.996l4.847-5.409a1.417 1.417 0 00-1.056-2.364H8.955a.698.698 0 110-1.396h15.817c.882 0 1.724.421 2.253 1.128a2.81 2.81 0 01-.157 3.564L22.502 33.3c4.93 4.07 12.39 8.247 19.198 8.247 4.686 0 8.426-1.975 11.115-5.87.38-.551.79-.83 1.219-.83.457 0 .95.347.95 1.111 0 .247-.051.526-.152.828a29.716 29.716 0 01-1.37 3.38.698.698 0 11-1.258-.604c.28-.584.544-1.19.79-1.81-2.872 3.446-6.664 5.191-11.294 5.191zM1.937 25.636a.697.697 0 01-.397-1.273 3.56 3.56 0 01.146-.096.698.698 0 11.735 1.188c-.03.018-.059.037-.087.057a.694.694 0 01-.397.124z" fill="#428DFF"/></svg>