<svg width="61" height="60" fill="none" xmlns="http://www.w3.org/2000/svg"><path d="M28.155 46.719c.3.258.658.138.96-.11l4.828-3.979.393-.323 4.873 5.919c-.56.46-1.096.892-1.62 1.339-.431.365-.558.869-.216 1.156.22.183.598.178.905.258l9.817-8.083c.135-.394.203-.796-.196-1.07-.406-.278-.779-.134-1.13.17-.506.439-1.03.854-1.56 1.29l-4.873-5.918 1.8-1.482c1.128-.928 2.26-1.852 3.382-2.788.45-.375.527-.858.228-1.213-.28-.333-.761-.324-1.199.03-.437.353-.867.714-1.301 1.07l-1.527 1.258-.223-.27-6.24-7.582c-2.223-2.7-4.428-5.415-6.677-8.093-1.706-2.032-3.924-2.861-6.549-2.41-.895.154-1.747.569-2.68.886l-.27-.326c-1.279-1.554-2.564-3.1-3.832-4.664-.31-.382-.656-.587-1.153-.48l-.297.245c-.185.46-.08.835.243 1.22 1.307 1.55 2.586 3.123 3.873 4.688.108.132.206.273.294.39-.033.073-.038.108-.06.13-2.352 2.504-2.544 6.499-.019 9.475 3.76 4.432 7.404 8.959 11.098 13.445l1.782 2.164c-.945.778-1.855 1.511-2.743 2.269-.197.168-.435.415-.448.637-.014.25.142.584.337.752zm15.81-2.435l-3.526 2.904-4.843-5.881 3.527-2.904 4.843 5.881zm-24.88-18.14c-1.954-2.387-1.591-5.76.776-7.667 2.14-1.723 5.331-1.576 7.2.448 1.297 1.404 2.45 2.94 3.706 4.467l-.883.727c-.657.542-1.32 1.077-1.966 1.63-.415.354-.48.843-.185 1.182.28.32.752.325 1.161-.01.944-.767 1.88-1.545 2.841-2.336l1.95 2.368-.347.286c-.806.663-1.614 1.324-2.419 1.988-.469.39-.575.89-.27 1.248.292.344.776.327 1.239-.052.918-.751 1.832-1.507 2.771-2.28l1.948 2.364-2.488 2.049c-.137.112-.28.217-.406.34-.367.353-.412.84-.117 1.154.278.298.742.303 1.128-.01.847-.688 1.688-1.383 2.532-2.076l.324-.267 2.904 3.528-8.302 6.835-.28-.341c-4.275-5.19-8.558-10.374-12.817-15.575z" fill="#428DFF"/><path d="M30.019 60c-2.953 0-5.78-.347-8.4-1.033a1.068 1.068 0 01-.763-1.305c.149-.573.73-.913 1.305-.764 2.444.638 5.088.964 7.858.964 7.633 0 14.264-2.738 19.711-8.139 3.326-3.327 5.659-7.124 6.931-11.282.822-2.624 1.237-5.467 1.237-8.458 0-2.919-.415-5.714-1.234-8.305-1.209-4.013-3.378-7.658-6.452-10.845a1.07 1.07 0 01.01-1.496L54.5 5.022a1.069 1.069 0 111.52 1.507l-3.554 3.583c2.937 3.25 5.034 6.924 6.243 10.936.88 2.786 1.328 5.798 1.328 8.935 0 3.208-.448 6.265-1.33 9.09-1.376 4.49-3.888 8.585-7.467 12.165C45.375 57.053 38.236 60 30.02 60zM4.456 57.647a1.07 1.07 0 01-.757-1.825l4.79-4.79C2.853 45.229 0 38.15 0 29.982c0-8.19 2.922-15.316 8.685-21.176C14.555 2.96 21.729 0 30.018 0c3.372 0 6.637.497 9.702 1.477.562.18.872.782.692 1.344-.18.563-.78.877-1.344.694-2.855-.912-5.899-1.376-9.05-1.376-7.703 0-14.37 2.75-19.816 8.173-5.347 5.44-8.063 12.06-8.063 19.67 0 7.682 2.714 14.327 8.069 19.75.174.172.366.377.57.607a1.07 1.07 0 01-.04 1.47l-5.526 5.525a1.067 1.067 0 01-.756.313z" fill="#428DFF"/><path d="M9.982 52.12a1.068 1.068 0 01-.756-1.825L50.224 9.333a1.07 1.07 0 011.512 1.514L10.738 51.81a1.07 1.07 0 01-.756.312z" fill="#428DFF"/></svg>