<svg width="42" height="76" fill="none" xmlns="http://www.w3.org/2000/svg"><path d="M17.765 44.37a.641.641 0 00-.712 1.068c1.384.922 2.789 1.39 4.205 1.39s2.821-.468 4.205-1.39a.641.641 0 00-.712-1.068c-1.182.789-2.343 1.176-3.493 1.176s-2.31-.387-3.493-1.176zm-.998-5.88a.641.641 0 11-1.283 0 1.283 1.283 0 10-2.566 0 .641.641 0 11-1.283 0 2.566 2.566 0 115.132 0zm14.113 0a.641.641 0 11-1.283 0 1.283 1.283 0 10-2.566 0 .641.641 0 11-1.283 0 2.566 2.566 0 015.132 0zM42 72.488h-1.286l-.533-6.39a5.773 5.773 0 00-3.451-4.815l-.718-.312v-1.399l1.23.535a7.056 7.056 0 014.218 5.885l.54 6.496zm-41.486 0l.541-6.496a7.056 7.056 0 014.218-5.885l1.23-.535v1.399l-.718.312a5.773 5.773 0 00-3.451 4.815l-.533 6.39H.514zm31.649-14.59v1.4l-4.742-2.062a3.849 3.849 0 01-2.315-3.53v-3.67h1.283v3.67c0 1.022.606 1.946 1.543 2.353l4.23 1.84zm-21.811 0l4.23-1.839a2.566 2.566 0 001.543-2.353v-3.67h1.283v3.67a3.849 3.849 0 01-2.314 3.53l-4.742 2.062v-1.4z" fill="#428DFF"/><path d="M5.985 60.18c-1.473 6.735 10.862 12.959 15.74 7.858a.642.642 0 00-.314-1.067c-5.132-1.243-9.005-4.556-11.212-9.499a.642.642 0 00-.78-.35c-1.702.543-3.157 1.788-3.434 3.059zm1.253.275c.142-.65.978-1.438 2.044-1.91 2.22 4.61 5.869 7.845 10.604 9.333-4.503 2.707-13.758-2.349-12.648-7.423z" fill="#428DFF"/><path d="M36.535 60.18c1.473 6.735-10.862 12.959-15.74 7.858a.641.641 0 01.313-1.067c5.132-1.243 9.005-4.556 11.213-9.499a.642.642 0 01.78-.35c1.702.543 3.156 1.788 3.434 3.059zm-1.253.275c-.142-.65-.979-1.438-2.045-1.91-2.219 4.61-5.868 7.845-10.603 9.333 4.502 2.707 13.758-2.349 12.648-7.423z" fill="#428DFF"/><path d="M21.257 75.054c-1.548 0-2.566-1.228-2.566-3.208 0-1.367.713-2.791 2.096-4.285a.641.641 0 01.941 0c1.383 1.493 2.095 2.918 2.095 4.285 0 1.98-1.018 3.208-2.566 3.208zm-1.283-3.208c0 1.319.503 1.925 1.283 1.925.781 0 1.283-.606 1.283-1.925 0-.852-.419-1.812-1.283-2.873-.864 1.061-1.283 2.021-1.283 2.873zm-7.941-59.475A9.622 9.622 0 0121.257 0a9.622 9.622 0 019.224 12.371c-.018.059-.387-.216-1.108-.824a8.34 8.34 0 10-16.233 0c-.72.608-1.09.883-1.107.824z" fill="#428DFF"/><path d="M38.578 27.263c0-9.026-7.747-16.358-17.32-16.358-9.574 0-17.32 7.332-17.32 16.358 0 1.765.295 3.491.868 5.13-.602.826-.907 1.227-.916 1.205a16.798 16.798 0 01-1.236-6.335c0-9.751 8.337-17.64 18.603-17.64 10.267 0 18.604 7.889 18.604 17.64a16.8 16.8 0 01-1.236 6.335c-.01.022-.315-.38-.916-1.204.573-1.64.868-3.366.868-5.131z" fill="#428DFF"/><path d="M36.286 33.594a.641.641 0 11-.695-1.079c.442-.285.914-.44 1.38-.44 1.827 0 2.888 1.572 2.888 4.169 0 2.72-2.163 6.094-4.17 6.094a1.788 1.788 0 01-1.484-.745.641.641 0 111.028-.768.51.51 0 00.456.23c1.148 0 2.887-2.713 2.887-4.811 0-1.97-.618-2.887-1.604-2.887-.204 0-.44.078-.686.237zM7.278 40.825a.641.641 0 111.028.768 1.79 1.79 0 01-1.484.745c-2.007 0-4.17-3.375-4.17-6.094 0-2.597 1.061-4.17 2.887-4.17.467 0 .938.156 1.38.441a.641.641 0 01-.694 1.079c-.246-.159-.482-.237-.686-.237-.986 0-1.604.916-1.604 2.887 0 2.098 1.739 4.811 2.887 4.811a.511.511 0 00.456-.23z" fill="#428DFF"/><path d="M36.025 32.403c.295.041.523.28.55.577.05.55.076 1.103.076 1.66 0 9.2-6.88 16.679-15.396 16.679-8.515 0-15.396-7.479-15.396-16.679 0-.745.046-1.485.135-2.215a.641.641 0 01.393-.515c4.033-1.66 7.078-4.885 9.147-9.71a.642.642 0 011.179 0c2.27 5.298 8.68 8.723 19.312 10.203zm-.657 2.237c0-.348-.01-.694-.032-1.04-9.933-1.458-16.35-4.66-19.19-9.66-2.113 4.317-5.09 7.328-8.92 9.007-.055.56-.084 1.124-.084 1.693 0 8.514 6.331 15.396 14.113 15.396 7.782 0 14.113-6.882 14.113-15.396z" fill="#428DFF"/></svg>