<svg width="22" height="22" fill="none" xmlns="http://www.w3.org/2000/svg"><path fill-rule="evenodd" clip-rule="evenodd" d="M21.707.293a1 1 0 010 1.414l-11 11a1 1 0 11-1.414-1.414l11-11a1 1 0 011.414 0z" fill="url(#paint0_linear)"/><path fill-rule="evenodd" clip-rule="evenodd" d="M21.707.293a1 1 0 01.237 1.037l-7 20a1 1 0 01-1.858.076l-3.844-8.648L.594 8.914A1 1 0 01.67 7.056l20-7a1 1 0 011.037.237zM3.711 8.11l6.695 2.975a1 1 0 01.508.508l2.975 6.695L19.37 2.63 3.711 8.11z" fill="url(#paint1_linear)"/><defs><linearGradient id="paint0_linear" x1="18.095" y1="-2.2" x2=".57" y2=".714" gradientUnits="userSpaceOnUse"><stop stop-color="#33B7EF"/><stop offset="1" stop-color="#6AE8D1"/></linearGradient><linearGradient id="paint1_linear" x1="18.095" y1="-2.2" x2=".57" y2=".714" gradientUnits="userSpaceOnUse"><stop stop-color="#33B7EF"/><stop offset="1" stop-color="#6AE8D1"/></linearGradient></defs></svg>