<svg width="30" height="30" fill="none" xmlns="http://www.w3.org/2000/svg"><g clip-path="url(#clip0)"><path d="M28.893.073l-3.175 1.445c-.203.094-.39.222-.55.382l-5.174 5.176L2.18 4.94a1.058 1.058 0 00-.875.303l-.992.992a1.06 1.06 0 00.316 1.717l12.767 5.723-3.665 3.666H3.327c-.281 0-.55.112-.75.31l-.535.537a1.06 1.06 0 00.331 1.724l5.402 2.314 2.314 5.402a1.06 1.06 0 001.724.331l.537-.538c.2-.2.31-.469.31-.75v-6.403l3.666-3.665 5.723 12.77a1.06 1.06 0 001.717.316l.992-.992c.231-.231.34-.553.303-.875l-2.14-17.815 5.177-5.177c.16-.16.288-.344.382-.55l1.445-3.175c.303-.653-.373-1.332-1.032-1.032z" fill="#fff"/></g><defs><clipPath id="clip0"><path fill="#fff" d="M0 0h30v30H0z"/></clipPath></defs></svg>