<svg width="19" height="12" viewBox="0 0 19 12" fill="none" xmlns="http://www.w3.org/2000/svg">
<path d="M16.1649 7.53634C16.7901 8.18098 17.4634 8.72645 17.9924 9.42068C18.2329 9.71821 18.4733 10.0653 18.6657 10.4124C18.9062 10.9083 18.6657 11.4538 18.2329 11.5034H15.4917C14.7703 11.553 14.2413 11.2554 13.7604 10.7596C13.3756 10.3629 13.039 9.96615 12.6543 9.51986C12.51 9.37109 12.3657 9.17274 12.1733 9.07356C11.7886 8.82562 11.5001 8.9248 11.2596 9.3215C11.0191 9.71821 10.9711 10.1645 10.9711 10.6108C10.923 11.2554 10.7306 11.4538 10.1054 11.4538C8.71075 11.5034 7.41228 11.305 6.20999 10.6108C5.15197 9.96615 4.28632 9.07356 3.56495 8.0818C2.17029 6.09829 1.06419 3.966 0.102354 1.73454C-0.138104 1.23867 0.0542626 0.941137 0.58327 0.941137C1.44892 0.941137 2.36266 0.941137 3.22831 0.941137C3.61304 0.941137 3.80541 1.13949 3.94968 1.53619C4.4306 2.77589 5.0077 3.91642 5.77716 5.00735C5.96953 5.30488 6.16189 5.60241 6.45044 5.80076C6.78708 5.99911 7.02754 5.94952 7.17182 5.60241C7.268 5.35447 7.31609 5.10653 7.31609 4.85859C7.46036 3.966 7.46036 3.12301 7.31609 2.28001C7.21991 1.73454 6.93136 1.38743 6.45044 1.28825C6.20999 1.23867 6.20998 1.13949 6.35426 0.990725C6.59472 0.742785 6.78708 0.544434 7.17182 0.544434H10.2497C10.7306 0.64361 10.8268 0.891549 10.923 1.38743V4.90817C10.923 5.10653 11.0191 5.70158 11.3558 5.80076C11.6443 5.89993 11.7886 5.65199 11.981 5.50323C12.7504 4.70982 13.2794 3.76765 13.7123 2.77589C13.9046 2.3296 14.097 1.88331 14.2894 1.43702C14.4336 1.0899 14.626 0.941137 14.9627 0.941137H17.9443C18.0405 0.941137 18.1367 0.941137 18.1848 0.941137C18.6657 1.04031 18.81 1.23867 18.6657 1.73454C18.4252 2.52795 17.9443 3.1726 17.5115 3.81724C17.0306 4.51147 16.5016 5.2057 16.0207 5.89993C15.5398 6.64375 15.5878 6.94128 16.1649 7.53634Z" fill="#939598"/>
</svg>
