<svg width="16" height="17" viewBox="0 0 16 17" fill="none" xmlns="http://www.w3.org/2000/svg">
<path d="M2.54307 5.51476L2.54309 5.51478C2.63578 5.43217 2.75819 5.39105 2.88189 5.40096H13.1148C13.2385 5.39105 13.3609 5.43217 13.4535 5.51479L13.4555 5.51656L13.4555 5.51661C13.5354 5.59588 13.5775 5.70552 13.5713 5.81786L13.5712 5.81986L13.5712 5.81986L12.7013 14.9642C12.7013 14.9642 12.7013 14.9642 12.7013 14.9643L12.7012 14.9644L12.6515 14.9596C12.5564 16.0019 11.6749 16.7953 10.6283 16.7804L2.54307 5.51476ZM2.54307 5.51476L2.54172 5.51605C2.44856 5.60554 2.40525 5.73496 2.42567 5.86243L2.54307 5.51476ZM5.5302 16.8304H10.628L3.52722 15.0203C3.65059 16.0307 4.5122 16.7879 5.53009 16.7804V16.8304H5.5302ZM4.38613 14.9336L3.38109 6.31021H12.6167L11.7925 14.914C11.7925 14.9141 11.7925 14.9141 11.7925 14.9142C11.7316 15.5039 11.2228 15.9448 10.6304 15.9212L10.6304 15.9212H10.6284H5.53013V15.9211L5.5281 15.9212C4.94672 15.9448 4.44699 15.5128 4.3862 14.9341L4.38613 14.9336Z" fill="black" stroke="black" stroke-width="0.1"/>
<path d="M9.33618 1.00074L9.33798 0.950772C9.99058 0.974212 10.5007 1.52198 10.4777 2.17449V2.77103H14.5954C14.8464 2.77103 15.05 2.97452 15.05 3.22561C15.05 3.4767 14.8465 3.68024 14.5954 3.68024H1.40462C1.15354 3.68024 0.95 3.4767 0.95 3.22561C0.95 2.97453 1.15354 2.77099 1.40462 2.77099H5.52227V2.17448C5.52153 2.15339 5.52134 2.13223 5.52174 2.11107C5.52174 2.11107 5.52174 2.11106 5.52174 2.11105L5.57173 2.112L9.33618 1.00074ZM9.33618 1.00074L9.33797 0.950772C9.31673 0.950011 9.29541 0.949805 9.27411 0.950198H6.72588L9.33618 1.00074ZM9.56889 2.16719L9.56848 2.16714V2.17361V2.77099H6.43148V2.17361H6.43189L6.43107 2.16723C6.41179 2.01731 6.5177 1.88015 6.66764 1.86086L6.66767 1.86085C6.68557 1.85854 6.70373 1.85804 6.72186 1.85932L6.72186 1.85945H6.72539H9.27454V1.85957L9.27807 1.85932C9.42885 1.84865 9.55975 1.9622 9.57042 2.11301L9.57043 2.11309C9.57174 2.1311 9.57121 2.14924 9.56889 2.16719Z" fill="black" stroke="black" stroke-width="0.1"/>
</svg>
