<svg width="33" height="12" viewBox="0 0 33 12" fill="none" xmlns="http://www.w3.org/2000/svg">
<path opacity="0.7" d="M0.879087 6.75239L9.7118 11.8519C10.0744 12.0613 10.5381 11.937 10.7475 11.5744C10.9569 11.2118 10.8325 10.7482 10.47 10.5388L4.08517 6.85254L32.5 7.12129L32.5 6.19821L32.4999 5.58283L4.09025 5.3362L10.47 1.65277C10.8326 1.44336 10.9569 0.979739 10.7475 0.617105C10.607 0.373883 10.3522 0.237865 10.0902 0.237865C9.96162 0.237865 9.83121 0.270771 9.7118 0.339614L0.879087 5.43924C0.644508 5.57465 0.5 5.82499 0.5 6.09581C0.5 6.36663 0.644508 6.61698 0.879087 6.75239Z" fill="#757575"/>
</svg>
