<svg width="14" height="16" viewBox="0 0 14 16" fill="none" xmlns="http://www.w3.org/2000/svg">
<path d="M12.1168 4.45096H1.87983C1.76908 4.44155 1.65934 4.47815 1.57636 4.55211C1.49477 4.63049 1.45697 4.74395 1.47521 4.85559L2.52722 14.0203C2.65059 15.0307 3.5122 15.7879 4.53009 15.7804H9.62835C10.6749 15.7953 11.5564 15.0019 11.6515 13.9596L12.5214 4.81512C12.5268 4.71703 12.49 4.62131 12.4203 4.55211C12.3373 4.47815 12.2276 4.44155 12.1168 4.45096ZM10.8423 13.9192C10.7787 14.5352 10.2472 14.9958 9.62838 14.9712H4.53013C3.9224 14.9958 3.40001 14.5443 3.33647 13.9394L2.32493 5.26021H11.6717L10.8423 13.9192Z" fill="black"/>
<path d="M12.1168 4.45096H1.87983C1.76908 4.44155 1.65934 4.47815 1.57636 4.55211C1.49477 4.63049 1.45697 4.74395 1.47521 4.85559L2.52722 14.0203C2.65059 15.0307 3.5122 15.7879 4.53009 15.7804H9.62835C10.6749 15.7953 11.5564 15.0019 11.6515 13.9596L12.5214 4.81512C12.5268 4.71703 12.49 4.62131 12.4203 4.55211C12.3373 4.47815 12.2276 4.44155 12.1168 4.45096ZM10.8423 13.9192C10.7787 14.5352 10.2472 14.9958 9.62838 14.9712H4.53013C3.9224 14.9958 3.40001 14.5443 3.33647 13.9394L2.32493 5.26021H11.6717L10.8423 13.9192Z" stroke="black"/>
<path d="M13.5954 1.82103H9.42773V1.17361C9.45019 0.548294 8.9615 0.0231999 8.33618 0.000740101C8.31566 4.34914e-06 8.2951 -0.00018927 8.27457 0.000197968H5.72543C5.0998 -0.0113804 4.58331 0.486375 4.57173 1.112C4.57134 1.13252 4.57154 1.15308 4.57227 1.17361V1.82099H0.404625C0.18115 1.82099 0 2.00214 0 2.22561C0 2.44909 0.18115 2.63024 0.404625 2.63024H13.5954C13.8188 2.63024 14 2.44909 14 2.22561C14 2.00214 13.8188 1.82103 13.5954 1.82103ZM8.61848 1.17361V1.82099H5.38148V1.17361C5.35867 0.99629 5.48394 0.834076 5.66126 0.811267C5.68252 0.808518 5.70401 0.807937 5.72539 0.809447H8.27454C8.45286 0.796823 8.60768 0.931117 8.6203 1.10948C8.62185 1.13085 8.62123 1.15235 8.61848 1.17361Z" fill="black"/>
<path d="M13.5954 1.82103H9.42773V1.17361C9.45019 0.548294 8.9615 0.0231999 8.33618 0.000740101C8.31566 4.34914e-06 8.2951 -0.00018927 8.27457 0.000197968H5.72543C5.0998 -0.0113804 4.58331 0.486375 4.57173 1.112C4.57134 1.13252 4.57154 1.15308 4.57227 1.17361V1.82099H0.404625C0.18115 1.82099 0 2.00214 0 2.22561C0 2.44909 0.18115 2.63024 0.404625 2.63024H13.5954C13.8188 2.63024 14 2.44909 14 2.22561C14 2.00214 13.8188 1.82103 13.5954 1.82103ZM8.61848 1.17361V1.82099H5.38148V1.17361C5.35867 0.99629 5.48394 0.834076 5.66126 0.811267C5.68252 0.808518 5.70401 0.807937 5.72539 0.809447H8.27454C8.45286 0.796823 8.60768 0.931117 8.6203 1.10948C8.62185 1.13085 8.62123 1.15235 8.61848 1.17361Z" stroke="black"/>
</svg>
