<svg width="76" height="64" viewBox="0 0 76 64" fill="none" xmlns="http://www.w3.org/2000/svg">
<path d="M0.974735 46.3646C0.974735 56.1043 8.86991 63.9995 18.6095 63.9995C28.3493 63.9995 36.2445 56.1043 36.2445 46.3646C36.2445 36.6248 28.3493 28.7298 18.6095 28.7298C16.6079 28.7298 14.6918 29.0787 12.8981 29.6936C16.8667 6.93275 34.6158 -7.74544 18.1625 4.335C-0.0818626 17.7309 0.955196 45.8256 0.97561 46.3405C0.97561 46.3485 0.974735 46.3557 0.974735 46.3646Z" fill="black" fill-opacity="0.2"/>
<path d="M39.7712 46.3646C39.7712 56.1043 47.6663 63.9995 57.4061 63.9995C67.1459 63.9995 75.041 56.1043 75.041 46.3646C75.041 36.6248 67.1457 28.7298 57.406 28.7298C55.4042 28.7298 53.4883 29.0787 51.6946 29.6936C55.6631 6.93275 73.4123 -7.74544 56.9589 4.335C38.7146 17.7309 39.7515 45.8256 39.772 46.3405C39.772 46.3485 39.7712 46.3557 39.7712 46.3646Z" fill="black" fill-opacity="0.2"/>
</svg>
