<svg width="199" height="56" viewBox="0 0 199 56" fill="none" xmlns="http://www.w3.org/2000/svg">
<path d="M71 47.3462H84.98C97.3637 47.3462 105.289 40.0371 105.289 27.7643C105.289 15.4917 97.3637 8.34619 84.98 8.34619H71V47.3462ZM80.6319 39.1644V16.528H84.5947C91.0895 16.528 95.3272 20.3462 95.3272 27.7643C95.3272 35.2371 91.2543 39.1644 84.5947 39.1644H80.6319ZM114.333 47.3462H128.313C140.697 47.3462 148.623 40.0371 148.623 27.7643C148.623 15.4917 140.697 8.34619 128.313 8.34619H114.333V47.3462ZM123.965 39.1644V16.528H127.928C134.422 16.528 138.661 20.3462 138.661 27.7643C138.661 35.2371 134.588 39.1644 127.928 39.1644H123.965ZM156.124 47.3462H165.811L167.023 29.7826C167.243 26.8371 167.023 23.2371 167.023 23.2371H167.132C167.132 23.2371 168.453 27.328 169.334 29.7826L173.462 41.0735H181.718L185.846 29.7826C186.726 27.328 188.047 23.2371 188.047 23.2371H188.158C188.158 23.2371 187.938 26.8371 188.158 29.7826L189.368 47.3462H199L195.808 8.34619H185.351L179.626 24.8189C178.746 27.328 177.645 31.2553 177.645 31.2553H177.535C177.535 31.2553 176.434 27.328 175.553 24.8189L169.83 8.34619H159.372L156.124 47.3462Z" fill="#3C53F2"/>
<g opacity="0.9">
<path opacity="0.9" d="M41.9216 11.7216L36.7832 8.74707V15.2272L41.9216 11.7216Z" fill="#664899"/>
<path opacity="0.9" d="M41.9216 28.5063V11.7217L36.7832 15.2273V25.3194L41.9216 28.5063Z" fill="#664899"/>
<path opacity="0.9" d="M41.9216 28.5063V11.7217L36.7832 15.2273V25.3194L41.9216 28.5063Z" fill="#0715C4"/>
<path opacity="0.9" d="M41.9216 28.5063L36.7832 25.3193V31.6698L41.9216 28.5063Z" fill="#263FF1"/>
<path opacity="0.9" d="M36.7834 25.3193L27.9453 30.8434V37.1111L36.7834 31.6698V25.3193Z" fill="#263FF1"/>
<path opacity="0.9" d="M27.9455 30.8434L18.9019 25.3193V31.7024L27.9455 37.1111V30.8434Z" fill="#F5202C"/>
<path opacity="0.9" d="M13.5581 28.5063L18.9021 31.7024V25.3193L13.5581 28.5063Z" fill="#F5202C"/>
<path opacity="0.9" d="M13.5581 11.7217V28.5063L18.9021 25.3194V15.2273L13.5581 11.7217Z" fill="url(#paint0_linear)"/>
<path opacity="0.9" d="M18.9021 8.74707L13.5581 11.7216L18.9021 15.2272V8.74707Z" fill="#884487"/>
<path opacity="0.9" d="M27.9455 13.8462L18.9019 8.74707V15.2272L27.9455 20.2201V13.8462Z" fill="#9B599A"/>
<path opacity="0.9" d="M36.7834 8.74707L27.9453 13.8462V20.2201L36.7834 15.2272V8.74707Z" fill="#785CA9"/>
<path opacity="0.9" d="M55.9176 5.86398L45.7876 0V12.0222L55.9176 5.86398Z" fill="#263FF1"/>
<path opacity="0.9" d="M55.9176 38.9535V5.86377L45.7876 12.022V32.6707L55.9176 38.9535Z" fill="#263FF1"/>
<path opacity="0.9" d="M55.9176 38.9535V5.86377L45.7876 12.022V32.6707L55.9176 38.9535Z" fill="url(#paint1_linear)"/>
<path opacity="0.9" d="M55.9176 38.9538L45.7876 32.6709V45.1905L55.9176 38.9538Z" fill="#263FF1"/>
<path opacity="0.9" d="M45.7873 32.6709L28.3638 43.5612V55.9175L45.7873 45.1904V32.6709Z" fill="#263FF1"/>
<path opacity="0.9" d="M45.7873 32.6709L28.3638 43.5612V55.9175L45.7873 45.1904V32.6709Z" fill="#263FF1"/>
<path opacity="0.9" d="M45.7873 32.6709L28.3638 43.5612V55.9175L45.7873 45.1904V32.6709Z" fill="#263FF1"/>
<path opacity="0.9" d="M45.7873 32.6709L28.3638 43.5612V55.9175L45.7873 45.1904V32.6709Z" fill="#263FF1"/>
<path opacity="0.9" d="M28.3639 43.5612L10.5352 32.6709V45.2546L28.3639 55.9175V43.5612Z" fill="#F5202C"/>
<path opacity="0.9" d="M0 38.9538L10.5352 45.2546V32.6709L0 38.9538Z" fill="#F5202C"/>
<path opacity="0.9" d="M1.44644e-06 5.86377L0 38.9535L10.5352 32.6707V12.132L1.44644e-06 5.86377Z" fill="url(#paint2_linear)"/>
<path opacity="0.9" d="M10.5352 0L0 5.86398L10.5352 12.1323V0Z" fill="#F5202C"/>
<path opacity="0.9" d="M28.3639 10.0526L10.5352 0V12.1377L28.3639 22.6183V10.0526Z" fill="#F5202C"/>
<path opacity="0.9" d="M45.7873 0L28.3638 10.0526V22.6183L45.7873 12.0222V0Z" fill="#263FF1"/>
</g>
<defs>
<linearGradient id="paint0_linear" x1="16.1426" y1="12.6021" x2="16.1426" y2="27.6299" gradientUnits="userSpaceOnUse">
<stop stop-color="#971013"/>
<stop offset="1" stop-color="#F5202C"/>
</linearGradient>
<linearGradient id="paint1_linear" x1="50.8463" y1="8.73689" x2="50.8463" y2="35.2977" gradientUnits="userSpaceOnUse">
<stop offset="0.00299341" stop-color="#040F9A"/>
<stop offset="1" stop-color="#243CED"/>
</linearGradient>
<linearGradient id="paint2_linear" x1="5.88045" y1="9.43588" x2="5.88045" y2="38.0936" gradientUnits="userSpaceOnUse">
<stop stop-color="#971014"/>
<stop offset="1" stop-color="#E91E28"/>
</linearGradient>
</defs>
</svg>
