<svg width="24" height="24" viewBox="0 0 24 24" fill="none" xmlns="http://www.w3.org/2000/svg">
<path d="M15.6835 0H8.31649C1.5937 0 0 1.5937 0 8.31649V15.6835C0 22.4063 1.5937 24 8.31649 24H15.6835C22.4063 24 24 22.4063 24 15.6835V8.31649C24 1.5937 22.3905 0 15.6835 0ZM19.3749 17.1205H17.6327C16.9727 17.1205 16.7695 16.597 15.5823 15.394C14.551 14.3943 14.0943 14.2616 13.8401 14.2616C13.4808 14.2616 13.3788 14.3628 13.3788 14.8555V16.4297C13.3788 16.852 13.2461 17.1055 12.1286 17.1055C10.2807 17.1055 8.23024 15.988 6.79254 13.9061C4.62436 10.8552 4.03112 8.56998 4.03112 8.0975C4.03112 7.84326 4.13237 7.60551 4.62061 7.60551H6.36655C6.80829 7.60551 6.97628 7.80876 7.14803 8.28124C8.01125 10.7734 9.44896 12.9566 10.0422 12.9566C10.2612 12.9566 10.3624 12.8553 10.3624 12.2966V9.7227C10.2957 8.53548 9.67095 8.43349 9.67095 8.012C9.67095 7.80876 9.83894 7.60551 10.1082 7.60551H12.8538C13.2251 7.60551 13.3616 7.80876 13.3616 8.24599V11.7184C13.3616 12.0934 13.5296 12.2261 13.6308 12.2261C13.8498 12.2261 14.0373 12.0934 14.443 11.6869C15.697 10.2807 16.5955 8.1125 16.5955 8.1125C16.7125 7.85825 16.9157 7.62051 17.3575 7.62051H19.1034C19.6269 7.62051 19.7439 7.88975 19.6269 8.26474C19.4079 9.28021 17.2712 12.2959 17.2712 12.2959C17.0875 12.6004 17.017 12.7331 17.2712 13.0728C17.4587 13.3271 18.0684 13.8543 18.4742 14.3268C19.2204 15.1743 19.7941 15.8853 19.9471 16.3772C20.1189 16.8655 19.8654 17.1197 19.3726 17.1197L19.3749 17.1205Z" fill="black"/>
</svg>
